<?xml version="1.0" ?><!DOCTYPE svg  PUBLIC '-//W3C//DTD SVG 1.1//EN'  'http://www.w3.org/Graphics/SVG/1.1/DTD/svg11.dtd'><svg height="221.000" viewBox="-110.000 -110.000 221.000 221.000" width="221.000" xmlns="http://www.w3.org/2000/svg"><line fill="none" stroke="none" stroke-linecap="round" stroke-width="2.0" x1="0.0" x2="0.0" y1="0.0" y2="0.0"/><polyline fill="none" points="0.0,-0.0 0.0,-10.452846326765346 -2.1732689536559877,-20.677272882130044 -6.424824579191734,-30.226423163382677 -12.568853494543955,-38.68295348132559 -20.336832153790013,-45.677272882130055 -29.38926261462366,-50.90369604551273 -39.33051022752571,-54.13380320007297 -49.726094768413674,-55.22642316338269 -60.12167930930164,-54.133803200072975 -70.06292692220369,-50.90369604551274 -79.11535738303733,-45.67727288213007 -86.88333604228339,-38.682953481325605 -93.02736495763561,-30.22642316338269 -97.27892058317136,-20.67727288213006 -99.45218953682735,-10.452846326765359 -99.45218953682735,-7.105427357601002e-15 -97.27892058317136,10.224426555364696 -93.02736495763561,19.77357683661733 -86.88333604228339,28.230107154560248 -79.11535738303733,35.224426555364715 -70.06292692220369,40.45084971874739 -60.12167930930164,43.680956873307636 -49.72609476841367,44.77357683661736 -39.33051022752569,43.68095687330764 -29.38926261462364,40.450849718747406 -20.336832153789985,35.22442655536473 -12.56885349454392,28.230107154560265 -6.42482457919169,19.77357683661735 -2.1732689536559358,10.224426555364717 5.906386491005833e-14,1.0658141036401503e-14 -3.230107154560175,-9.941247612902043 -8.456530317942848,-18.9936780737357 -15.45084971874731,-26.76165673298177 -23.907380036690224,-32.905685648334 -33.45653031794286,-37.15724127386976 -43.680956873307565,-39.33051022752576 -54.133803200072926,-39.330510227525764 -64.35822975543763,-37.15724127386978 -73.90738003669028,-32.905685648334035 -82.3639103546332,-26.761656732981816 -89.35822975543768,-18.993678073735758 -94.58465291882037,-9.941247612902103" stroke="#008000" stroke-linecap="round" stroke-linejoin="round"/><polyline fill="none" points="-94.58465291882037,-9.941247612902103 -97.81476007338063,-4.796163466380676e-14 -98.90738003669036,10.395584540887933 -97.81476007338064,20.79116908177592 -94.58465291882041,30.732416694677983 -89.35822975543773,39.78484715551165 -82.36391035463326,47.552825814757725 -73.90738003669034,53.69685473010996 -64.3582297554377,57.94841035564573 -54.13380320007299,60.12167930930173 -43.68095687330762,60.12167930930175 -33.4565303179429,57.94841035564577 -23.907380036690245,53.696854730110026 -15.450849718747309,47.5528258147578 -8.456530317942823,39.78484715551174 -3.230107154560126,30.732416694678083 1.3233858453531866e-13,20.791169081776022 1.0926199633098674,10.395584540888034 1.616484723854228e-13,4.085620730620576e-14" stroke="#008000" stroke-linecap="round" stroke-linejoin="round"/><polyline fill="none" points="1.616484723854228e-13,4.085620730620576e-14 -6.144028915352061,-8.4565303179429 -13.912007574598125,-15.45084971874739 -22.964438035431783,-20.67727288213009 -32.905685648333844,-23.907380036690352 -43.30127018922184,-25.00000000000009 -53.696854730109834,-23.907380036690384 -63.63810234301191,-20.677272882130154 -72.69053280384558,-15.450849718747481 -80.45851146309167,-8.456530317943015 -86.60254037844392,-9.237055564881302e-14 -90.85409600397969,9.549150281252556 -93.02736495763571,19.77357683661728 -93.02736495763573,30.22642316338266 -90.85409600397975,40.45084971874739 -86.602540378444,50.00000000000006 -80.45851146309178,58.456530317943006 -72.69053280384571,65.4508497187475 -63.63810234301205,70.67727288213021 -53.69685473010998,73.90738003669048 -43.30127018922198,75.00000000000023 -32.90568564833398,73.90738003669053 -22.964438035431897,70.6772728821303 -13.912007574598208,65.45084971874762 -6.144028915352109,58.456530317943155 1.5276668818842154e-13,50.00000000000023 4.2515556255359375,40.45084971874758 6.424824579191958,30.226423163382847 6.4248245791919825,19.773576836617462 4.251555625536011,9.54915028125272 2.7267077484793845e-13,4.263256414560601e-14" stroke="#00f" stroke-linecap="round" stroke-linejoin="round"/><polyline fill="none" points="2.7267077484793845e-13,4.263256414560601e-14 -8.456530317942654,-6.144028915352224 -18.00568059919531,-10.395584540888013 -28.23010715456004,-12.568853494544037 -38.68295348132543,-12.568853494544065 -48.90738003669017,-10.395584540888096 -58.45653031794285,-6.144028915352359 -66.91306063588581,-1.3589129821411916e-13 -73.90738003669033,7.767978659245933 -79.13380320007305,16.820409120079603 -82.36391035463332,26.761656732981677 -83.45653031794308,37.15724127386969 -82.36391035463339,47.5528258147577 -79.13380320007317,57.4940734276598 -73.90738003669051,66.5465038884935 -66.91306063588604,74.31448254773962 -58.45653031794311,80.4585114630919 -48.907380036690455,84.7100670886277 -38.68295348132572,86.88333604228373 -28.230107154560322,86.88333604228376 -18.005680599195568,84.7100670886278 -8.456530317942878,80.45851146309207 9.414691248821327e-14,74.31448254773984 6.994319400804616,66.54650388849377 12.220742564187347,57.4940734276601 15.450849718747634,47.552825814758016 16.543469682057392,37.15724127387 15.450849718747703,26.761656732981976 12.220742564187484,16.82040912007987 6.994319400804814,7.7679786592461575 3.4372504842394846e-13,3.6415315207705135e-14" stroke="#f0f" stroke-linecap="round" stroke-linejoin="round"/><polyline fill="none" points="3.4372504842394846e-13,3.6415315207705135e-14 -9.94124761290174,-3.230107154560253 -20.336832153789757,-4.322727117870014 -30.73241669467778,-3.2301071545603275 -40.67366430757989,-1.0880185641326534e-13 -49.7260947684136,5.2264231633825595 -57.49407342765973,12.220742564187029 -63.638102343012015,20.677272882129962 -67.88965796854782,30.226423163382627 -70.06292692220386,40.45084971874737 -70.0629269222039,50.903696045512774 -67.88965796854794,61.12812260087754 -63.6381023430122,70.67727288213024 -57.49407342765998,79.13380320007322 -49.7260947684139,86.12812260087775 -40.673664307580225,91.35454576426048 -30.732416694678136,94.58465291882078 -20.336832153790112,95.67727288213055 -9.94124761290208,94.58465291882086 3.552713678800501e-14,91.35454576426065 9.052430460833756,86.12812260087799 16.820409120079887,79.13380320007352 22.96443803543218,70.67727288213058 27.215993660967992,61.128122600877916 29.389262614624037,50.903696045513165 29.38926261462408,40.450849718747754 27.21599366096812,30.226423163382982 22.964438035432387,20.677272882130275 16.820409120080164,12.220742564187285 9.052430460834088,5.226423163382746 4.0678571622265736e-13,-1.7763568394002505e-15 -10.452846326765007,-4.877656903201594e-14 -20.677272882129778,2.173268953655907 -30.226423163382485,6.424824579191638 -38.68295348132548,12.568853494543859 -45.67727288213002,20.33683215378993 -50.90369604551277,29.38926261462361 -54.133803200073075,39.33051022752571 -55.22642316338285,49.72609476841374 -54.133803200073174,60.12167930930178 -50.903696045512966,70.06292692220391 -45.677272882130296,79.11535738303765 -38.682953481325825,86.88333604228379" stroke="#00f" stroke-linecap="round" stroke-linejoin="round"/><polyline fill="none" points="-38.682953481325825,86.88333604228379 -30.226423163382886,93.0273649576361 -20.67727288213021,97.27892058317192 -10.452846326765451,99.45218953682797 -3.019806626980426e-14,99.45218953682803 10.224426555364753,97.27892058317208 19.773576836617472,93.02736495763635 28.230107154560475,86.88333604228413 35.22442655536503,79.11535738303806 40.45084971874779,70.06292692220437 43.680956873308105,60.121679309302266 44.773576836617885,49.72609476841423 43.68095687330821,39.330510227526176 40.450849718748,29.38926261462404 35.22442655536534,20.336832153790297 28.23010715456087,12.568853494544145 19.773576836617927,6.424824579191831 10.22442655536525,2.173268953655998 4.867217739956686e-13,-6.52811138479592e-14" stroke="#00f" stroke-linecap="round" stroke-linejoin="round"/><polyline fill="none" points="4.867217739956686e-13,-6.52811138479592e-14 -9.941247612901652,3.230107154560139 -18.9936780737354,8.4565303179428 -26.761656732981557,15.45084971874727 -32.90568564833387,23.90738003669021 -37.15724127386971,33.45653031794289 -39.33051022752578,43.68095687330766 -39.33051022752584,54.13380320007309 -37.1572412738699,64.35822975543788 -32.90568564833418,73.90738003669061 -26.76165673298196,82.36391035463363 -18.993678073735886,89.3582297554382 -9.941247612902197,94.58465291882098 -9.059419880941277e-14,97.81476007338131 10.395584540887956,98.9073800366911 20.79116908177602,97.81476007338144 30.732416694678165,94.58465291882123 39.78484715551192,89.35822975543857 47.55282581475809,82.3639103546341 53.69685473011042,73.90738003669115 57.94841035564626,64.35822975543847 60.12167930930234,54.1338032000737 60.12167930930241,43.68095687330826 57.948410355646466,33.45653031794346 53.69685473011074,23.907380036690718 47.55282581475852,15.45084971874769 39.78484715551244,8.456530317943116 30.732416694678744,3.2301071545603346 20.79116908177663,2.220446049250313e-15 10.395584540888574,-1.092619963309795 5.027089855502709e-13,-1.361133428190442e-13" stroke="#800080" stroke-linecap="round" stroke-linejoin="round"/><polyline fill="none" points="5.027089855502709e-13,-1.361133428190442e-13 -8.456530317942528,6.144028915352084 -15.450849718747108,13.912007574598164 -20.67727288212989,22.96443803543186 -23.907380036690228,32.90568564833398 -25.00000000000003,43.30127018922204 -23.90738003669037,53.69685473011011 -20.67727288213017,63.63810234301227 -15.450849718747506,72.69053280384604 -8.456530317943031,80.45851146309222 -7.993605777301127e-14,86.60254037844456 9.549150281252613,90.85409600398042 19.773576836617394,93.0273649576365 30.226423163382847,93.02736495763656 40.45084971874766,90.85409600398063 50.00000000000041,86.6025403784449 58.45653031794345,80.45851146309268 65.45084971874803,72.6905328038466 70.67727288213082,63.63810234301289 73.90738003669117,53.696854730110765 75.00000000000097,43.3012701892227 73.90738003669131,32.90568564833461 70.6772728821311,22.964438035432437 65.45084971874844,13.912007574598656 58.456530317943965,6.144028915352466 50.00000000000101,1.1812772982011666e-13 40.45084971874831,-4.251555625535743 30.226423163383515,-6.42482457919183 19.773576836618055,-6.424824579191906 9.54915028125323,-4.251555625535969 4.654054919228656e-13,-2.469136006766348e-13 -6.144028915351886,8.45653031794271 -10.39558454088775,18.005680599195408 -12.56885349454384,28.2301071545602 -12.56885349454392,38.68295348132566 -10.395584540887985,48.90738003669049 -6.144028915352265,58.45653031794326 -4.085620730620576e-14,66.91306063588631 7.7679786592460465,73.90738003669091 16.820409120079752,79.13380320007371 26.761656732981884,82.36391035463407 37.15724127386996,83.45653031794389 47.55282581475805,82.36391035463424" stroke="#ff0" stroke-linecap="round" stroke-linejoin="round"/><polyline fill="none" points="47.55282581475805,82.36391035463424 57.49407342766023,79.13380320007406 66.54650388849403,73.90738003669139 74.31448254774023,66.91306063588692 80.45851146309259,58.456530317943965 84.71006708862846,48.907380036691265 86.88333604228457,38.682953481326464 86.88333604228465,28.230107154560997 84.71006708862873,18.00568059919616 80.45851146309302,8.456530317943384 74.3144825477408,3.2152058793144533e-13 66.54650388849471,-6.994319400804288 57.494073427661,-12.220742564187102 47.55282581475886,-15.450849718747463 37.15724127387078,-16.543469682057285 26.76165673298268,-15.450849718747644 16.820409120080487,-12.220742564187454 7.767978659246685,-6.9943194008047955 4.725109192804666e-13,-3.170796958329447e-13" stroke="#ff0" stroke-linecap="round" stroke-linejoin="round"/><polyline fill="none" points="4.725109192804666e-13,-3.170796958329447e-13 -3.230107154559892,9.941247612901819 -4.322727117869714,20.336832153789906 -3.2301071545600744,30.73241669467801 1.1546319456101628e-13,40.67366430758021 5.2264231633827745,49.726094768414015 12.220742564187253,57.49407342766023 20.677272882130215,63.638102343012605 30.226423163382925,67.88965796854849 40.45084971874773,70.0629269222046 50.903696045513215,70.0629269222047 61.12812260087806,67.88965796854878 70.67727288213085,63.63810234301306 79.13380320007393,57.49407342766084 86.12812260087856,49.72609476841475 91.35454576426137,40.673664307581035 94.58465291882175,30.732416694678893 95.67727288213158,20.3368321537908 94.58465291882194,9.94124761290269 91.35454576426176,4.849454171562684e-13 86.1281226008791,-9.052430460833328 79.13380320007461,-16.82040912007955 70.67727288213165,-22.96443803543193 61.12812260087893,-27.21599366096782 50.90369604551412,-29.38926261462393 40.45084971874863,-29.38926261462403 30.226423163383775,-27.21599366096811 20.67727288213098,-22.964438035432398 12.220742564187894,-16.820409120080175 5.226423163383265,-9.052430460834081 4.334310688136611e-13,-3.623767952376511e-13" stroke="#000080" stroke-linecap="round" stroke-linejoin="round"/><polyline fill="none" points="4.334310688136611e-13,-3.623767952376511e-13 3.3304789956276586e-13,10.452846326765128 2.173268953656253,20.677272882129987 6.424824579191966,30.22642316338279 12.56885349454419,38.682953481325875 20.336832153790283,45.67727288213051 29.389262614624002,50.90369604551334 39.330510227526155,54.13380320007372 49.72609476841426,55.22642316338356 60.12167930930238,54.13380320007393 70.0629269222046,50.90369604551375 79.11535738303843,45.67727288213109 86.88333604228467,38.682953481326614 93.02736495763706,30.226423163383643 97.27892058317296,20.67727288213092 99.45218953682908,10.452846326766101 99.45218953682918,6.057376822354854e-13 97.27892058317326,-10.224426555364259 93.02736495763754,-19.773576836617067 86.88333604228532,-28.23010715456016 79.11535738303922,-35.2244265553648 70.0629269222055,-40.45084971874764 60.12167930930335,-43.68095687330803 49.726094768415244,-44.77357683661787 39.330510227527114,-43.68095687330824 29.38926261462489,-40.45084971874806 20.336832153791057,-35.224426555365405 12.568853494544815,-28.23010715456092 6.424824579192415,-19.77357683661795 2.173268953656506,-10.224426555365222 3.7836400679225335e-13,-3.9257486150745535e-13" stroke="#00f" stroke-linecap="round" stroke-linejoin="round"/><polyline fill="none" points="3.7836400679225335e-13,-3.9257486150745535e-13 3.2301071545605597,9.941247612901833 8.456530317943217,18.99367807373567 15.450849718747701,26.761656732981915 23.907380036690675,32.90568564833432 33.456530317943404,37.157241273870234 43.68095687330823,39.33051022752636 54.13380320007374,39.330510227526474 64.35822975543861,37.15724127387056 73.90738003669144,32.90568564833485 82.36391035463454,26.76165673298263 89.3582297554392,18.993678073736532 94.58465291882204,9.941247612902805 97.81476007338244,6.430411758628907e-13 98.90738003669229,-10.395584540887473 97.81476007338267,-20.791169081775614 94.5846529188225,-30.73241669467785 89.35822975543985,-39.78484715551169 82.36391035463537,-47.552825814757945 73.90738003669239,-53.69685473011035 64.35822975543965,-57.948410355646274 54.133803200074816,-60.12167930930241 43.6809568733093,-60.12167930930252 33.45653031794441,-57.948410355646615 23.907380036691585,-53.69685473011091 15.450849718748469,-47.552825814758684 8.456530317943809,-39.78484715551258 3.230107154560949,-30.732416694678847 5.471179065352771e-13,-20.79116908177668 -1.0926199633093068,-10.395584540888557 3.106404022901188e-13,-4.0678571622265736e-13" stroke="#f0f" stroke-linecap="round" stroke-linejoin="round"/><polyline fill="none" points="3.106404022901188e-13,-4.0678571622265736e-13 6.144028915352535,8.456530317942713 13.912007574598636,15.450849718747378 22.964438035432373,20.677272882130243 32.90568564833454,23.90738003669065 43.30127018922266,25.000000000000508 53.696854730110815,23.907380036690896 63.63810234301306,20.677272882130723 72.69053280384692,15.450849718748069 80.45851146309319,8.456530317943583 86.60254037844561,6.039613253960852e-13 90.85409600398154,-9.549150281252135 93.02736495763769,-19.773576836616982 93.02736495763781,-30.226423163382506 90.85409600398191,-40.450849718747406 86.60254037844621,-50.00000000000025 80.45851146309398,-58.45653031794338 72.69053280384789,-65.45084971874806 63.63810234301415,-70.67727288213094 53.696854730111966,-73.90738003669135 43.30127018922383,-75.00000000000122 32.90568564833566,-73.90738003669162 22.964438035433403,-70.67727288213145 13.912007574599533,-65.4508497187488 6.144028915353254,-58.45653031794431 8.206768598029157e-13,-50.00000000000133 -4.2515556255351195,-40.450849718748586 -6.424824579191274,-30.226423163383732 -6.424824579191403,-19.773576836618197 -4.251555625535502,-9.549150281253288 2.0250467969162855e-13,-4.334310688136611e-13" stroke="#800080" stroke-linecap="round" stroke-linejoin="round"/><polyline fill="none" points="2.0250467969162855e-13,-4.334310688136611e-13 8.456530317943189,6.144028915352005 18.00568059919594,10.395584540887949 28.230107154560798,12.568853494544106 38.68295348132634,12.568853494544237 48.90738003669125,10.395584540888338 58.45653031794411,6.144028915352634 66.91306063588725,4.0678571622265736e-13 73.90738003669193,-7.767978659245704 79.13380320007482,-16.82040912007945 82.36391035463525,-26.76165673298164 83.45653031794512,-37.157241273869786 82.36391035463552,-47.552825814757966 79.13380320007535,-57.49407342766024 73.90738003669269,-66.54650388849413 66.91306063588819,-74.31448254774043 58.456530317945194,-80.45851146309288 48.90738003669244,-84.71006708862883 38.68295348132757,-86.883336042285 28.230107154562027,-86.88333604228514 18.005680599197106,-84.71006708862924 8.45653031794424,-80.45851146309354 1.0889067425523535e-12,-74.31448254774132 -6.994319400803607,-66.54650388849521 -12.2207425641865,-57.49407342766146 -15.45084971874693,-47.55282581475927 -16.543469682056806,-37.157241273871115 -15.450849718747204,-26.76165673298293 -12.220742564187034,-16.820409120080654 -6.994319400804379,-7.767978659246763 1.1457501614131615e-13,-4.645173135031655e-13 9.941247612902309,3.2301071545599678 20.336832153790464,4.322727117869846 30.732416694678648,3.230107154560245 40.67366430758093,7.72715225139109e-14 49.726094768414825,-5.226423163382577 57.49407342766113,-12.22074256418707 63.638102343013585,-20.677272882130065 67.88965796854954,-30.226423163382826 70.06292692220572,-40.4508497187477 70.06292692220586,-50.90369604551326 67.88965796854997,-61.128122600878186 63.63810234301427,-70.67727288213106" stroke="#00f" stroke-linecap="round" stroke-linejoin="round"/><polyline fill="none" points="63.63810234301427,-70.67727288213106 57.49407342766204,-79.13380320007423 49.72609476841592,-86.12812260087894 40.673664307582165,-91.35454576426184 30.732416694679966,-94.58465291882229 20.336832153791804,-95.67727288213217 9.941247612903611,-94.58465291882257 1.3216094885137863e-12,-91.35454576426241 -9.05243046083258,-86.12812260087976 -16.820409120078892,-79.13380320007526 -22.964438035431357,-70.67727288213226 -27.215993660967325,-61.12812260087949 -29.3892626146235,-50.903696045514614 -29.389262614623647,-40.450849718749055 -27.215993660967758,-30.22642316338412 -22.96443803543206,-20.677272882131234 -16.820409120079834,-12.220742564188063 -9.052430460833719,-5.22642316338335 3.730349362740526e-14,-4.39648317751562e-13" stroke="#00f" stroke-linecap="round" stroke-linejoin="round"/><polyline fill="none" points="3.730349362740526e-14,-4.39648317751562e-13 10.452846326765597,-2.8936368864184024e-13 20.677272882130534,-2.1732689536561747 30.22642316338342,-6.4248245791918706 38.68295348132659,-12.568853494544095 45.677272882131305,-20.33683215379021 50.90369604551422,-29.389262614623966 54.13380320007467,-39.33051022752617 55.22642316338456,-49.726094768414335 54.13380320007497,-60.121679309302536 50.90369604551481,-70.06292692220484 45.677272882132165,-79.11535738303876 38.68295348132767,-86.88333604228508 30.226423163384673,-93.02736495763756 20.677272882131906,-97.27892058317354 10.452846326767025,-99.45218953682974 1.4583889651476056e-12,-99.45218953682989 -10.224426555363488,-97.27892058317401 -19.77357683661638,-93.02736495763833 -28.230107154559565,-86.8833360422861 -35.22442655536429,-79.11535738303999 -40.45084971874721,-70.06292692220623 -43.680956873307665,-60.12167930930403 -44.773576836617565,-49.726094768415855 -43.680956873307984,-39.330510227527654 -40.45084971874783,-29.38926261462535 -35.224426555365184,-20.336832153791427 -28.23010715456069,-12.568853494545099 -19.773576836617693,-6.4248245791926175 -10.224426555364925,-2.173268953656634 -4.263256414560601e-14,-4.418687638008123e-13" stroke="#f0f" stroke-linecap="round" stroke-linejoin="round"/><polyline fill="none" points="-4.263256414560601e-14,-4.418687638008123e-13 9.941247612902265,-3.230107154560595 18.993678073736184,-8.45653031794324 26.761656732982516,-15.450849718747731 32.905685648335,-23.90738003669073 37.15724127387099,-33.456530317943496 39.330510227527185,-43.68095687330838 39.33051022752735,-54.133803200073956 37.15724127387148,-64.35822975543891 32.90568564833579,-73.90738003669182 26.76165673298357,-82.36391035463501 18.993678073737456,-89.35822975543975 9.941247612903695,-94.58465291882268 1.4832579608992091e-12,-97.81476007338316 -10.395584540886695,-98.90738003669307 -20.79116908177491,-97.8147600733835 -30.732416694677227,-94.58465291882335 -39.78484715551116,-89.3582297554407 -47.5528258147575,-82.36391035463622 -53.69685473010999,-73.90738003669321 -57.94841035564598,-64.35822975544043 -60.12167930930219,-54.13380320007555 -60.12167930930236,-43.68095687330997 -57.94841035564649,-33.456530317945 -53.6968547301108,-23.90738003669209 -47.55282581475858,-15.450849718748888 -39.78484715551246,-8.456530317944143 -30.732416694678694,-3.2301071545612023 -20.79116908177648,-7.283063041541027e-13 -10.395584540888297,1.0926199633091858 -7.638334409421077e-14,-3.8546943414985435e-13" stroke="#00f" stroke-linecap="round" stroke-linejoin="round"/><polyline fill="none" points="-7.638334409421077e-14,-3.8546943414985435e-13 8.456530317943127,-6.144028915352606 15.450849718747875,-13.912007574598722 20.67727288213082,-22.964438035432487 23.907380036691293,-32.9056856483347 25.000000000001208,-43.30127018922289 23.907380036691638,-53.69685473011111 20.677272882131494,-63.638102343013436 15.450849718748852,-72.69053280384738 8.456530317944361,-80.45851146309373 1.3589129821411916e-12,-86.60254037844624 -9.549150281251418,-90.85409600398225 -19.773576836616314,-93.02736495763847 -30.226423163381902,-93.02736495763865 -40.45084971874687,-90.85409600398279 -49.9999999999998,-86.6025403784471 -58.45653031794301,-80.45851146309488 -65.45084971874778,-72.69053280384877 -70.67727288213072,-63.638102343015 -73.90738003669121,-53.696854730112776 -75.00000000000114,-43.30127018922458 -73.90738003669158,-32.90568564833635 -70.67727288213143,-22.96443803543402 -65.4508497187488,-13.912007574600073 -58.45653031794431,-6.144028915353714 -50.00000000000131,-1.2017054018542694e-12 -40.45084971874853,4.251555625534812 -30.22642316338363,6.424824579191031 -19.773576836618034,6.424824579191215 -9.549150281253056,4.251555625535355 -1.2434497875801753e-13,-3.241851231905457e-13" stroke="#008000" stroke-linecap="round" stroke-linejoin="round"/><polyline fill="none" points="-1.2434497875801753e-13,-3.241851231905457e-13 6.144028915352392,-8.456530317943326 10.395584540888407,-18.005680599196104 12.56885349454463,-28.230107154561008 12.568853494544816,-38.68295348132661 10.395584540888958,-48.907380036691585 6.144028915353281,-58.45653031794452 1.06403774680075e-12,-66.91306063588775 -7.7679786592450535,-73.90738003669252 -16.820409120078825,-79.13380320007548 -26.76165673298105,-82.36391035463598 -37.157241273869246,-83.4565303179459 -47.55282581475748,-82.36391035463635 -57.49407342765983,-79.13380320007622 -66.54650388849379,-73.90738003669358 -74.31448254774016,-66.9130606358891 -80.45851146309268,-58.45653031794609 -84.7100670886287,-48.907380036693304 -86.88333604228494,-38.6829534813284 -86.88333604228512,-28.230107154562795 -84.71006708862927,-18.005680599197806 -80.4585114630936,-8.456530317944864 -74.31448254774139,-1.63069557856943e-12 -66.54650388849528,6.994319400803146 -57.494073427661505,12.220742564186116 -47.552825814759274,15.450849718746618 -37.15724127387107,16.543469682056557 -26.76165673298283,15.450849718747005 -16.820409120080477,12.220742564186873 -7.767978659246507,6.994319400804239 -1.2789769243681803e-13,-2.495781359357352e-13" stroke="#f0f" stroke-linecap="round" stroke-linejoin="round"/><polyline fill="none" points="-1.2789769243681803e-13,-2.495781359357352e-13 3.2301071545603763,-9.94124761290248 4.322727117870317,-20.336832153790688 3.2301071545607662,-30.732416694678932 6.350475700855895e-13,-40.673664307581284 -5.226423163381999,-49.72609476841526 -12.220742564186487,-57.49407342766164 -20.677272882129493,-63.638102343014175 -30.226423163382282,-67.88965796855021 -40.4508497187472,-70.06292692220644 -50.90369604551281,-70.06292692220664 -61.12812260087781,-67.8896579685508 -70.67727288213077,-63.63810234301512 -79.13380320007401,-57.494073427662904 -86.1281226008788,-49.726094768416786 -91.35454576426177,-40.67366430758301 -94.58465291882229,-30.732416694680772 -95.67727288213223,-20.336832153792557 -94.58465291882268,-9.941247612904302 -91.35454576426255,-1.9415580254644738e-12 -86.12812260087992,9.052430460832037 -79.13380320007543,16.820409120078427 -70.67727288213243,22.964438035430966 -61.128122600879635,27.215993660967005 -50.903696045514714,29.389262614623245 -40.4508497187491,29.389262614623448 -30.226423163384094,27.2159936609676 -20.677272882131135,22.964438035431932 -12.220742564187885,16.820409120079717 -5.2264231633830915,9.052430460833596 -1.0480505352461478e-13,-1.8118839761882555e-13" stroke="#f00" stroke-linecap="round" stroke-linejoin="round"/><polygon fill="#f00" fill-rule="evenodd" points="2.087219286295213e-13,-16.00000000000018 -1.9999999999998306,-14.00000000000022 -0.9999999999999089,-10.0000000000002 -3.9999999999999676,-7.000000000000259 -6.999999999999928,-9.000000000000318 -8.999999999999948,-8.000000000000357 -6.000000000000007,-5.000000000000298 -7.000000000000085,-1.0000000000003184 -5.000000000000163,2.9999999999997207 -8.000000000000222,5.9999999999996625 -6.000000000000261,7.999999999999702 -4.0000000000002025,4.999999999999741 -2.4197310821704933e-13,6.999999999999819 3.999999999999797,4.999999999999897 5.999999999999739,7.999999999999936 7.999999999999778,5.999999999999975 4.999999999999837,2.999999999999917 6.999999999999915,-1.000000000000044 5.999999999999993,-5.000000000000064 9.000000000000052,-8.000000000000004 7.000000000000072,-9.000000000000044 4.000000000000032,-7.000000000000103 1.000000000000091,-10.000000000000162 2.0000000000001696,-14.000000000000142" stroke="#f00" stroke-linejoin="round"/></svg>