<?xml version="1.0" ?><!DOCTYPE svg  PUBLIC '-//W3C//DTD SVG 1.1//EN'  'http://www.w3.org/Graphics/SVG/1.1/DTD/svg11.dtd'><svg height="375.000" viewBox="-187.000 -187.000 375.000 375.000" width="375.000" xmlns="http://www.w3.org/2000/svg"><line fill="none" stroke="none" stroke-linecap="round" stroke-width="2.0" x1="0.0" x2="0.0" y1="0.0" y2="0.0"/><polyline fill="none" points="0.0,-0.0 0.0,-100.0 -80.90169943749474,-158.77852522924732 -80.90169943749476,-58.77852522924732 -2.842170943040401e-14,-0.0 -58.77852522924731,-80.90169943749474 -158.7785252292473,-80.90169943749477 -100.00000000000003,-4.263256414560601e-14 -5.684341886080802e-14,-9.325873406851315e-15" stroke="#800080" stroke-linecap="round" stroke-linejoin="round"/><polyline fill="none" points="-5.684341886080802e-14,-9.325873406851315e-15 -95.10565162951538,-30.901699437494784 -176.00735106701012,27.876825791752488 -80.9016994374948,58.778525229247265 -5.684341886080802e-14,-7.105427357601002e-15" stroke="#ff0" stroke-linecap="round" stroke-linejoin="round"/><polyline fill="none" points="-5.684341886080802e-14,-7.105427357601002e-15 -95.10565162951539,30.90169943749469 -126.00735106701016,126.00735106701 -30.901699437494827,95.10565162951532 -4.973799150320701e-14,-0.0" stroke="#f00" stroke-linecap="round" stroke-linejoin="round"/><polyline fill="none" points="-4.973799150320701e-14,-0.0 -58.778525229247386,80.90169943749468 -27.8768257917527,176.00735106701 30.90169943749465,95.10565162951532 -1.7763568394002505e-14,-2.842170943040401e-14" stroke="#000080" stroke-linecap="round" stroke-linejoin="round"/><polyline fill="none" points="-1.7763568394002505e-14,-2.842170943040401e-14 -8.992806499463768e-14,99.99999999999994 80.9016994374946,158.7785252292473 80.90169943749468,58.77852522924732 0.0,-3.552713678800501e-14" stroke="#008000" stroke-linecap="round" stroke-linejoin="round"/><polyline fill="none" points="0.0,-3.552713678800501e-14 58.77852522924722,80.90169943749473 158.77852522924718,80.90169943749481 99.99999999999996,4.263256414560601e-14 -1.4210854715202004e-14,-4.063416270128073e-14" stroke="#ff0" stroke-linecap="round" stroke-linejoin="round"/><polyline fill="none" points="-1.4210854715202004e-14,-4.063416270128073e-14 95.10565162951528,30.901699437494777 176.00735106701006,-27.876825791752445 80.90169943749477,-58.778525229247265 -1.4210854715202004e-14,-4.263256414560601e-14" stroke="#f00" stroke-linecap="round" stroke-linejoin="round"/><polyline fill="none" points="-1.4210854715202004e-14,-4.263256414560601e-14 95.10565162951535,-30.90169943749468 126.00735106701018,-126.00735106700998 30.901699437494813,-95.10565162951535 -2.1316282072803006e-14,-5.684341886080802e-14" stroke="#800080" stroke-linecap="round" stroke-linejoin="round"/><polyline fill="none" points="-2.1316282072803006e-14,-5.684341886080802e-14 58.77852522924736,-80.90169943749471 27.87682579175272,-176.00735106701006 -30.90169943749466,-95.1056516295154 -2.1316282072803006e-14,-4.263256414560601e-14" stroke="#ff0" stroke-linecap="round" stroke-linejoin="round"/><polygon fill="#ff0" fill-rule="evenodd" points="-4.440892098500623e-15,-16.000000000000043 -2.000000000000006,-14.000000000000044 -1.0000000000000107,-10.000000000000044 -4.000000000000014,-7.000000000000047 -7.0000000000000115,-9.00000000000005 -9.000000000000012,-8.000000000000052 -6.000000000000016,-5.000000000000049 -7.00000000000002,-1.00000000000005 -5.000000000000025,2.999999999999952 -8.000000000000028,5.9999999999999485 -6.00000000000003,7.999999999999951 -4.000000000000027,4.999999999999953 -2.8699265186560297e-14,6.999999999999957 3.9999999999999734,4.999999999999962 5.99999999999997,7.9999999999999645 7.9999999999999725,5.999999999999966 4.999999999999975,2.9999999999999627 6.99999999999998,-1.000000000000035 5.999999999999984,-5.000000000000036 8.999999999999988,-8.000000000000032 6.9999999999999885,-9.000000000000036 3.999999999999986,-7.000000000000038 0.9999999999999893,-10.00000000000004 1.9999999999999933,-14.00000000000004" stroke="#ff0" stroke-linejoin="round"/></svg>