<?xml version="1.0" ?><!DOCTYPE svg  PUBLIC '-//W3C//DTD SVG 1.1//EN'  'http://www.w3.org/Graphics/SVG/1.1/DTD/svg11.dtd'><svg height="765.000" viewBox="-553.000 -439.000 744.000 765.000" width="744.000" xmlns="http://www.w3.org/2000/svg"><line fill="none" stroke="none" stroke-linecap="round" stroke-width="2.0" x1="0.0" x2="0.0" y1="0.0" y2="0.0"/><line fill="none" stroke="#0f0" stroke-linecap="round" x1="0.0" x2="0.0" y1="0.0" y2="-100.0"/><line fill="none" stroke="#f0f" stroke-linecap="round" x1="0.0" x2="-50.49999999999999" y1="-100.0" y2="-187.46856578222832"/><polyline fill="none" points="-50.49999999999999,-187.46856578222832 -138.83459118601272,-238.46856578222835 -241.83459118601272,-238.46856578222838" stroke="#ff0" stroke-linecap="round" stroke-linejoin="round"/><line fill="none" stroke="#f00" stroke-linecap="round" x1="-241.83459118601272" x2="-331.9012331795943" y1="-238.46856578222838" y2="-186.4685657822284"/><line fill="none" stroke="#ff0" stroke-linecap="round" x1="-331.9012331795943" x2="-384.4012331795944" y1="-186.4685657822284" y2="-95.53589838486236"/><polyline fill="none" points="-384.4012331795944,-95.53589838486236 -384.40123317959444,10.464101615137636 -330.9012331795945,103.12881982007261" stroke="#000080" stroke-linecap="round" stroke-linejoin="round"/><line fill="none" stroke="#ff0" stroke-linecap="round" x1="-330.9012331795945" x2="-237.37048957087518" y1="103.12881982007261" y2="157.1288198200727"/><line fill="none" stroke="#00f" stroke-linecap="round" x1="-237.37048957087518" x2="-128.37048957087518" y1="157.1288198200727" y2="157.12881982007278"/><line fill="none" stroke="#f0f" stroke-linecap="round" x1="-128.37048957087518" x2="-33.10769515458688" y1="157.12881982007278" y2="102.12881982007286"/><line fill="none" stroke="#a020f0" stroke-linecap="round" x1="-33.10769515458688" x2="22.39230484541322" y1="102.12881982007286" y2="6.000000000000227"/><line fill="none" stroke="#ff0" stroke-linecap="round" x1="22.39230484541322" x2="22.392304845413346" y1="6.000000000000227" y2="-105.99999999999977"/><line fill="none" stroke="#0f0" stroke-linecap="round" x1="22.392304845413346" x2="-34.10769515458654" y1="-105.99999999999977" y2="-203.86087062764142"/><line fill="none" stroke="#f0f" stroke-linecap="round" x1="-34.10769515458654" x2="-132.83459118601246" y1="-203.86087062764142" y2="-260.86087062764153"/><line fill="none" stroke="#0f0" stroke-linecap="round" x1="-132.83459118601246" x2="-247.83459118601246" y1="-260.86087062764153" y2="-260.8608706276417"/><line fill="none" stroke="#f00" stroke-linecap="round" x1="-247.83459118601246" x2="-348.2935380250074" y1="-260.8608706276417" y2="-202.86087062764184"/><line fill="none" stroke="#ff0" stroke-linecap="round" x1="-348.2935380250074" x2="-406.7935380250076" y1="-202.86087062764184" y2="-101.5358983848626"/><line fill="none" stroke="#0f0" stroke-linecap="round" x1="-406.7935380250076" x2="-406.79353802500776" y1="-101.5358983848626" y2="16.464101615137395"/><line fill="none" stroke="#00f" stroke-linecap="round" x1="-406.79353802500776" x2="-347.29353802500793" y1="16.464101615137395" y2="119.52112466548569"/><line fill="none" stroke="#0f0" stroke-linecap="round" x1="-347.29353802500793" x2="-243.3704895708754" y1="119.52112466548569" y2="179.52112466548587"/><line fill="none" stroke="#a020f0" stroke-linecap="round" x1="-243.3704895708754" x2="-122.3704895708754" y1="179.52112466548587" y2="179.5211246654861"/><line fill="none" stroke="#f00" stroke-linecap="round" x1="-122.3704895708754" x2="-16.71539030917377" y1="179.5211246654861" y2="118.5211246654863"/><line fill="none" stroke="#00f" stroke-linecap="round" x1="-16.71539030917377" x2="44.78460969082645" y1="118.5211246654863" y2="12.000000000000455"/><line fill="none" stroke="#f00" stroke-linecap="round" x1="44.78460969082645" x2="44.78460969082671" y1="12.000000000000455" y2="-111.99999999999955"/><line fill="none" stroke="#000080" stroke-linecap="round" x1="44.78460969082671" x2="-17.715390309173053" y1="-111.99999999999955" y2="-220.2531754730545"/><line fill="none" stroke="#ff0" stroke-linecap="round" x1="-17.715390309173053" x2="-126.83459118601218" y1="-220.2531754730545" y2="-283.25317547305474"/><line fill="none" stroke="#00f" stroke-linecap="round" x1="-126.83459118601218" x2="-253.83459118601218" y1="-283.25317547305474" y2="-283.253175473055"/><line fill="none" stroke="#f0f" stroke-linecap="round" x1="-253.83459118601218" x2="-364.6858428704205" y1="-283.253175473055" y2="-219.2531754730553"/><line fill="none" stroke="#f00" stroke-linecap="round" x1="-364.6858428704205" x2="-429.1858428704208" y1="-219.2531754730553" y2="-107.53589838486288"/><line fill="none" stroke="#a020f0" stroke-linecap="round" x1="-429.1858428704208" x2="-429.18584287042114" y1="-107.53589838486288" y2="22.464101615137125"/><line fill="none" stroke="#0f0" stroke-linecap="round" x1="-429.18584287042114" x2="-363.6858428704214" y1="22.464101615137125" y2="135.91342951089877"/><line fill="none" stroke="#a020f0" stroke-linecap="round" x1="-363.6858428704214" x2="-249.3704895708757" y1="135.91342951089877" y2="201.9134295108991"/><line fill="none" stroke="#000080" stroke-linecap="round" x1="-249.3704895708757" x2="-116.37048957087569" y1="201.9134295108991" y2="201.9134295108995"/><line fill="none" stroke="#a020f0" stroke-linecap="round" x1="-116.37048957087569" x2="-0.32308546376070524" y1="201.9134295108995" y2="134.91342951089985"/><line fill="none" stroke="#0f0" stroke-linecap="round" x1="-0.32308546376070524" x2="67.17691453623965" y1="134.91342951089985" y2="18.000000000000824"/><line fill="none" stroke="#ff0" stroke-linecap="round" x1="67.17691453623965" x2="67.17691453624008" y1="18.000000000000824" y2="-117.99999999999918"/><line fill="none" stroke="#f00" stroke-linecap="round" x1="67.17691453624008" x2="-1.32308546375954" y1="-117.99999999999918" y2="-236.6454803184675"/><line fill="none" stroke="#0f0" stroke-linecap="round" x1="-1.32308546375954" x2="-120.83459118601185" y1="-236.6454803184675" y2="-305.6454803184679"/><line fill="none" stroke="#f00" stroke-linecap="round" x1="-120.83459118601185" x2="-259.83459118601183" y1="-305.6454803184679" y2="-305.64548031846834"/><polyline fill="none" points="-259.83459118601183,-305.64548031846834 -381.0781477158335,-235.64548031846877 -451.57814771583395,-113.53589838486317" stroke="#a020f0" stroke-linecap="round" stroke-linejoin="round"/><line fill="none" stroke="#000080" stroke-linecap="round" x1="-451.57814771583395" x2="-451.57814771583446" y1="-113.53589838486317" y2="28.464101615136826"/><line fill="none" stroke="#f00" stroke-linecap="round" x1="-451.57814771583446" x2="-380.0781477158349" y1="28.464101615136826" y2="152.3057343563118"/><polyline fill="none" points="-380.0781477158349,152.3057343563118 -255.37048957087603,224.30573435631229 -110.37048957087603,224.30573435631285" stroke="#f0f" stroke-linecap="round" stroke-linejoin="round"/><line fill="none" stroke="#0f0" stroke-linecap="round" x1="-110.37048957087603" x2="16.06921938165229" y1="224.30573435631285" y2="151.30573435631334"/><line fill="none" stroke="#00f" stroke-linecap="round" x1="16.06921938165229" x2="89.56921938165281" y1="151.30573435631334" y2="24.00000000000115"/><line fill="none" stroke="#a020f0" stroke-linecap="round" x1="89.56921938165281" x2="89.56921938165343" y1="24.00000000000115" y2="-123.99999999999885"/><line fill="none" stroke="#f0f" stroke-linecap="round" x1="89.56921938165343" x2="15.069219381653966" y1="-123.99999999999885" y2="-253.03778516388053"/><line fill="none" stroke="#f00" stroke-linecap="round" x1="15.069219381653966" x2="-114.83459118601152" y1="-253.03778516388053" y2="-328.0377851638811"/><line fill="none" stroke="#00f" stroke-linecap="round" x1="-114.83459118601152" x2="-265.8345911860115" y1="-328.0377851638811" y2="-328.0377851638818"/><line fill="none" stroke="#f0f" stroke-linecap="round" x1="-265.8345911860115" x2="-397.4704525612465" y1="-328.0377851638818" y2="-252.03778516388235"/><line fill="none" stroke="#00f" stroke-linecap="round" x1="-397.4704525612465" x2="-473.9704525612471" y1="-252.03778516388235" y2="-119.53589838486357"/><line fill="none" stroke="#ff0" stroke-linecap="round" x1="-473.9704525612471" x2="-473.97045256124784" y1="-119.53589838486357" y2="34.46410161513643"/><line fill="none" stroke="#00f" stroke-linecap="round" x1="-473.97045256124784" x2="-396.47045256124846" y1="34.46410161513643" y2="168.69803920172478"/><line fill="none" stroke="#ff0" stroke-linecap="round" x1="-396.47045256124846" x2="-261.37048957087643" y1="168.69803920172478" y2="246.69803920172544"/><line fill="none" stroke="#000080" stroke-linecap="round" x1="-261.37048957087643" x2="-104.37048957087643" y1="246.69803920172544" y2="246.6980392017262"/><polyline fill="none" points="-104.37048957087643,246.6980392017262 32.46152422706527,167.69803920172689 111.96152422706598,30.000000000001535" stroke="#f0f" stroke-linecap="round" stroke-linejoin="round"/><line fill="none" stroke="#f00" stroke-linecap="round" x1="111.96152422706598" x2="111.9615242270668" y1="30.000000000001535" y2="-129.99999999999847"/><line fill="none" stroke="#f0f" stroke-linecap="round" x1="111.9615242270668" x2="31.461524227067542" y1="-129.99999999999847" y2="-269.4300900092935"/><line fill="none" stroke="#ff0" stroke-linecap="round" x1="31.461524227067542" x2="-108.83459118601107" y1="-269.4300900092935" y2="-350.43009000929425"/><line fill="none" stroke="#f0f" stroke-linecap="round" x1="-108.83459118601107" x2="-271.83459118601104" y1="-350.43009000929425" y2="-350.43009000929516"/><line fill="none" stroke="#ff0" stroke-linecap="round" x1="-271.83459118601104" x2="-413.86275740665945" y1="-350.43009000929516" y2="-268.43009000929595"/><polyline fill="none" points="-413.86275740665945,-268.43009000929595 -496.3627574066603,-125.53589838486403 -496.3627574066613,40.464101615135974" stroke="#f0f" stroke-linecap="round" stroke-linejoin="round"/><line fill="none" stroke="#0f0" stroke-linecap="round" x1="-496.3627574066613" x2="-412.8627574066621" y1="40.464101615135974" y2="185.09034404713773"/><line fill="none" stroke="#f00" stroke-linecap="round" x1="-412.8627574066621" x2="-267.37048957087694" y1="185.09034404713773" y2="269.0903440471386"/><line fill="none" stroke="#a020f0" stroke-linecap="round" x1="-267.37048957087694" x2="-98.37048957087694" y1="269.0903440471386" y2="269.09034404713964"/><line fill="none" stroke="#00f" stroke-linecap="round" x1="-98.37048957087694" x2="48.853829072478135" y1="269.09034404713964" y2="184.09034404714055"/><polyline fill="none" points="48.853829072478135,184.09034404714055 134.35382907247904,36.000000000002046 134.35382907248012,-135.99999999999795 47.85382907248106,-285.8223948547064" stroke="#a020f0" stroke-linecap="round" stroke-linejoin="round"/><polyline fill="none" points="47.85382907248106,-285.8223948547064 -102.83459118601073,-372.82239485470734 -277.8345911860107,-372.8223948547085" stroke="#ff0" stroke-linecap="round" stroke-linejoin="round"/><line fill="none" stroke="#f0f" stroke-linecap="round" x1="-277.8345911860107" x2="-430.2550622520725" y1="-372.8223948547085" y2="-284.8223948547095"/><line fill="none" stroke="#a020f0" stroke-linecap="round" x1="-430.2550622520725" x2="-518.7550622520735" y1="-284.8223948547095" y2="-131.53589838486445"/><line fill="none" stroke="#f0f" stroke-linecap="round" x1="-518.7550622520735" x2="-518.7550622520747" y1="-131.53589838486445" y2="46.46410161513555"/><line fill="none" stroke="#a020f0" stroke-linecap="round" x1="-518.7550622520747" x2="-429.25506225207573" y1="46.46410161513555" y2="201.48264889255069"/><line fill="none" stroke="#ff0" stroke-linecap="round" x1="-429.25506225207573" x2="-273.3704895708774" y1="201.48264889255069" y2="291.48264889255177"/><line fill="none" stroke="#0f0" stroke-linecap="round" x1="-273.3704895708774" x2="-92.3704895708774" y1="291.48264889255177" y2="291.482648892553"/><line fill="none" stroke="#000080" stroke-linecap="round" x1="-92.3704895708774" x2="65.24613391789109" y1="291.482648892553" y2="200.48264889255412"/><line fill="none" stroke="#f0f" stroke-linecap="round" x1="65.24613391789109" x2="156.74613391789222" y1="200.48264889255412" y2="42.0000000000025"/><line fill="none" stroke="#ff0" stroke-linecap="round" x1="156.74613391789222" x2="156.74613391789356" y1="42.0000000000025" y2="-141.9999999999975"/><line fill="none" stroke="#a020f0" stroke-linecap="round" x1="156.74613391789356" x2="64.24613391789472" y1="-141.9999999999975" y2="-302.21469970011935"/><line fill="none" stroke="#000080" stroke-linecap="round" x1="64.24613391789472" x2="-96.83459118601019" y1="-302.21469970011935" y2="-395.2146997001206"/><line fill="none" stroke="#a020f0" stroke-linecap="round" x1="-96.83459118601019" x2="-283.8345911860102" y1="-395.2146997001206" y2="-395.214699700122"/><line fill="none" stroke="#f00" stroke-linecap="round" x1="-283.8345911860102" x2="-446.64736709748536" y1="-395.214699700122" y2="-301.2146997001233"/><line fill="none" stroke="#f0f" stroke-linecap="round" x1="-446.64736709748536" x2="-541.1473670974866" y1="-301.2146997001233" y2="-137.5358983848651"/><line fill="none" stroke="#000080" stroke-linecap="round" x1="-541.1473670974866" x2="-541.1473670974881" y1="-137.5358983848651" y2="52.464101615134894"/><line fill="none" stroke="#f0f" stroke-linecap="round" x1="-541.1473670974881" x2="-445.6473670974894" y1="52.464101615134894" y2="217.87495373796344"/><line fill="none" stroke="#a020f0" stroke-linecap="round" x1="-445.6473670974894" x2="-279.3704895708779" y1="217.87495373796344" y2="313.87495373796474"/><line fill="none" stroke="#0f0" stroke-linecap="round" x1="-279.3704895708779" x2="-86.37048957087791" y1="313.87495373796474" y2="313.8749537379663"/><line fill="none" stroke="#a020f0" stroke-linecap="round" x1="-86.37048957087791" x2="81.63843876330398" y1="313.8749537379663" y2="216.87495373796764"/><line fill="none" stroke="#f00" stroke-linecap="round" x1="81.63843876330398" x2="179.13843876330537" y1="216.87495373796764" y2="48.0000000000029"/><line fill="none" stroke="#0f0" stroke-linecap="round" x1="179.13843876330537" x2="179.138438763307" y1="48.0000000000029" y2="-147.9999999999971"/><polyline fill="none" points="179.138438763307,-147.9999999999971 80.63843876330841,-318.60700454553233 -90.83459118600959,-417.60700454553375" stroke="#00f" stroke-linecap="round" stroke-linejoin="round"/><line fill="none" stroke="#0f0" stroke-linecap="round" x1="-90.83459118600959" x2="-289.83459118600956" y1="-417.60700454553375" y2="-417.60700454553546"/><polygon fill="#0f0" fill-rule="evenodd" points="-303.6909976465607,-409.6070045455356 -300.9589468389918,-408.8749537379667 -297.994845223854,-411.7409791417511 -293.89676901250067,-410.6429029303977 -294.1288198200696,-407.0448267190444 -292.26279441628515,-405.8127759114755 -291.16471820493183,-409.9108521228288 -287.20061658979404,-411.04482671904435 -284.73651497465625,-414.77687752661325 -280.638438763303,-413.6788013152599 -279.9063879557341,-416.4108521228287 -283.50446416708735,-416.64290293039767 -283.77241335951845,-421.1070045455354 -287.5044641670873,-423.5711061606732 -285.906387955734,-426.80315696824204 -288.6384387633028,-427.53520777581093 -289.7365149746562,-423.4371315644577 -294.200616589794,-423.16918237202657 -297.1647182049317,-420.30315696824215 -301.26279441628503,-421.4012331795955 -301.1288198200695,-419.1691823720266 -297.8967690125006,-417.5711061606733 -298.994845223854,-413.47302994932 -302.9589468389917,-412.33905535310447" stroke="#0f0" stroke-linejoin="round"/></svg>