<?xml version="1.0" ?><!DOCTYPE svg  PUBLIC '-//W3C//DTD SVG 1.1//EN'  'http://www.w3.org/Graphics/SVG/1.1/DTD/svg11.dtd'><svg height="229.000" viewBox="-112.000 -159.000 212.000 229.000" width="212.000" xmlns="http://www.w3.org/2000/svg"><line fill="none" stroke="none" stroke-linecap="round" stroke-width="2.0" x1="0.0" x2="0.0" y1="0.0" y2="0.0"/><line fill="none" stroke="#f0f" stroke-linecap="round" x1="0.0" x2="0.0" y1="-0.0" y2="-100.0"/><line fill="none" stroke="#f00" stroke-linecap="round" x1="0.0" x2="-59.3663104815398" y1="-100.0" y2="-18.289283568130315"/><polyline fill="none" points="-59.3663104815398,-18.289283568130315 37.64145418056587,-49.80901699437493 -60.317366997834924,-81.63776741499456" stroke="#00f" stroke-linecap="round" stroke-linejoin="round"/><line fill="none" stroke="#800080" stroke-linecap="round" x1="-60.317366997834924" x2="0.8122992405822345" y1="-81.63776741499456" y2="2.5"/><line fill="none" stroke="#008000" stroke-linecap="round" x1="0.8122992405822345" x2="0.8122992405823044" y1="2.5" y2="-102.5"/><line fill="none" stroke="#f0f" stroke-linecap="round" x1="0.8122992405823044" x2="-61.49293750241992" y1="-102.5" y2="-16.74419859625563"/><polyline fill="none" points="-61.49293750241992,-16.74419859625563 40.27010974116155,-49.80901699437489 -62.443994018715,-83.18285238686934" stroke="#008000" stroke-linecap="round" stroke-linejoin="round"/><line fill="none" stroke="#f0f" stroke-linecap="round" x1="-62.443994018715" x2="1.6245984811644547" y1="-83.18285238686934" y2="5.000000000000014"/><polyline fill="none" points="1.6245984811644547,5.000000000000014 1.6245984811646257,-104.99999999999999 -63.61956452330004,-15.199113624380928" stroke="#008000" stroke-linecap="round" stroke-linejoin="round"/><line fill="none" stroke="#f00" stroke-linecap="round" x1="-63.61956452330004" x2="42.89876530175722" y1="-15.199113624380928" y2="-49.80901699437484"/><line fill="none" stroke="#ff0" stroke-linecap="round" x1="42.89876530175722" x2="-64.57062103959507" y1="-49.80901699437484" y2="-84.7279373587441"/><line fill="none" stroke="#f00" stroke-linecap="round" x1="-64.57062103959507" x2="2.436897721746689" y1="-84.7279373587441" y2="7.500000000000043"/><line fill="none" stroke="#008000" stroke-linecap="round" x1="2.436897721746689" x2="2.4368977217469316" y1="7.500000000000043" y2="-107.49999999999996"/><line fill="none" stroke="#f00" stroke-linecap="round" x1="2.4368977217469316" x2="-65.74619154418016" y1="-107.49999999999996" y2="-13.654028652506213"/><line fill="none" stroke="#ff0" stroke-linecap="round" x1="-65.74619154418016" x2="45.52742086235288" y1="-13.654028652506213" y2="-49.80901699437481"/><line fill="none" stroke="#000080" stroke-linecap="round" x1="45.52742086235288" x2="-66.69724806047515" y1="-49.80901699437481" y2="-86.27302233061889"/><line fill="none" stroke="#008000" stroke-linecap="round" x1="-66.69724806047515" x2="3.249196962328895" y1="-86.27302233061889" y2="10.000000000000028"/><polyline fill="none" points="3.249196962328895,10.000000000000028 3.249196962329235,-109.99999999999996 -67.8728185650603,-12.10894368063154" stroke="#800080" stroke-linecap="round" stroke-linejoin="round"/><line fill="none" stroke="#008000" stroke-linecap="round" x1="-67.8728185650603" x2="48.156076422948544" y1="-12.10894368063154" y2="-49.809016994374765"/><line fill="none" stroke="#f00" stroke-linecap="round" x1="48.156076422948544" x2="-68.8238750813552" y1="-49.809016994374765" y2="-87.81810730249367"/><line fill="none" stroke="#f0f" stroke-linecap="round" x1="-68.8238750813552" x2="4.06149620291113" y1="-87.81810730249367" y2="12.500000000000043"/><line fill="none" stroke="#800080" stroke-linecap="round" x1="4.06149620291113" x2="4.061496202911567" y1="12.500000000000043" y2="-112.49999999999994"/><line fill="none" stroke="#00f" stroke-linecap="round" x1="4.061496202911567" x2="-69.99944558594039" y1="-112.49999999999994" y2="-10.563858708756854"/><line fill="none" stroke="#f00" stroke-linecap="round" x1="-69.99944558594039" x2="50.78473198354423" y1="-10.563858708756854" y2="-49.80901699437471"/><polyline fill="none" points="50.78473198354423,-49.80901699437471 -70.95050210223523,-89.36319227436846 4.873795443493336,15.000000000000043" stroke="#ff0" stroke-linecap="round" stroke-linejoin="round"/><polyline fill="none" points="4.873795443493336,15.000000000000043 4.873795443493899,-114.99999999999993 -72.12607260682054,-9.018773736882196" stroke="#00f" stroke-linecap="round" stroke-linejoin="round"/><line fill="none" stroke="#800080" stroke-linecap="round" x1="-72.12607260682054" x2="53.41338754413988" y1="-9.018773736882196" y2="-49.80901699437465"/><line fill="none" stroke="#000080" stroke-linecap="round" x1="53.41338754413988" x2="-73.07712912311531" y1="-49.80901699437465" y2="-90.90827724624326"/><line fill="none" stroke="#008000" stroke-linecap="round" x1="-73.07712912311531" x2="5.6860946840755275" y1="-90.90827724624326" y2="17.500000000000057"/><line fill="none" stroke="#800080" stroke-linecap="round" x1="5.6860946840755275" x2="5.686094684076225" y1="17.500000000000057" y2="-117.49999999999991"/><line fill="none" stroke="#f0f" stroke-linecap="round" x1="5.686094684076225" x2="-74.2526996277007" y1="-117.49999999999991" y2="-7.473688765007509"/><line fill="none" stroke="#f00" stroke-linecap="round" x1="-74.2526996277007" x2="56.042043104735555" y1="-7.473688765007509" y2="-49.80901699437458"/><line fill="none" stroke="#f0f" stroke-linecap="round" x1="56.042043104735555" x2="-75.20375614399536" y1="-49.80901699437458" y2="-92.45336221811806"/><line fill="none" stroke="#000080" stroke-linecap="round" x1="-75.20375614399536" x2="6.498393924657719" y1="-92.45336221811806" y2="20.0000000000001"/><line fill="none" stroke="#f0f" stroke-linecap="round" x1="6.498393924657719" x2="6.498393924658574" y1="20.0000000000001" y2="-119.99999999999987"/><line fill="none" stroke="#ff0" stroke-linecap="round" x1="6.498393924658574" x2="-76.37932664858083" y1="-119.99999999999987" y2="-5.928603793132808"/><line fill="none" stroke="#800080" stroke-linecap="round" x1="-76.37932664858083" x2="58.670698665331244" y1="-5.928603793132808" y2="-49.80901699437449"/><line fill="none" stroke="#000080" stroke-linecap="round" x1="58.670698665331244" x2="-77.33038316487541" y1="-49.80901699437449" y2="-93.99844718999285"/><line fill="none" stroke="#f00" stroke-linecap="round" x1="-77.33038316487541" x2="7.310693165239925" y1="-93.99844718999285" y2="22.500000000000128"/><line fill="none" stroke="#00f" stroke-linecap="round" x1="7.310693165239925" x2="7.310693165240916" y1="22.500000000000128" y2="-122.49999999999984"/><line fill="none" stroke="#f0f" stroke-linecap="round" x1="7.310693165240916" x2="-78.50595366946096" y1="-122.49999999999984" y2="-4.38351882125815"/><line fill="none" stroke="#f00" stroke-linecap="round" x1="-78.50595366946096" x2="61.299354225926905" y1="-4.38351882125815" y2="-49.80901699437441"/><polyline fill="none" points="61.299354225926905,-49.80901699437441 -79.45701018575546,-95.54353216186766 8.122992405822117,25.000000000000142 8.12299240582325,-124.99999999999983 -80.63258069034111,-2.8384338493834917" stroke="#ff0" stroke-linecap="round" stroke-linejoin="round"/><line fill="none" stroke="#800080" stroke-linecap="round" x1="-80.63258069034111" x2="63.92800978652258" y1="-2.8384338493834917" y2="-49.80901699437436"/><line fill="none" stroke="#00f" stroke-linecap="round" x1="63.92800978652258" x2="-81.58363720663553" y1="-49.80901699437436" y2="-97.08861713374247"/><line fill="none" stroke="#f00" stroke-linecap="round" x1="-81.58363720663553" x2="8.935291646404309" y1="-97.08861713374247" y2="27.500000000000156"/><line fill="none" stroke="#800080" stroke-linecap="round" x1="8.935291646404309" x2="8.935291646405592" y1="27.500000000000156" y2="-127.49999999999982"/><line fill="none" stroke="#ff0" stroke-linecap="round" x1="8.935291646405592" x2="-82.75920771122126" y1="-127.49999999999982" y2="-1.2933488775088335"/><line fill="none" stroke="#00f" stroke-linecap="round" x1="-82.75920771122126" x2="66.55666534711823" y1="-1.2933488775088335" y2="-49.809016994374275"/><line fill="none" stroke="#800080" stroke-linecap="round" x1="66.55666534711823" x2="-83.71026422751557" y1="-49.809016994374275" y2="-98.63370210561726"/><polyline fill="none" points="-83.71026422751557,-98.63370210561726 9.747590886986487,30.00000000000017 9.747590886987943,-129.9999999999998" stroke="#ff0" stroke-linecap="round" stroke-linejoin="round"/><line fill="none" stroke="#f0f" stroke-linecap="round" x1="9.747590886987943" x2="-84.88583473210142" y1="-129.9999999999998" y2="0.2517360943658389"/><line fill="none" stroke="#ff0" stroke-linecap="round" x1="-84.88583473210142" x2="69.1853209077139" y1="0.2517360943658389" y2="-49.80901699437418"/><line fill="none" stroke="#f00" stroke-linecap="round" x1="69.1853209077139" x2="-85.8368912483956" y1="-49.80901699437418" y2="-100.17878707749207"/><line fill="none" stroke="#00f" stroke-linecap="round" x1="-85.8368912483956" x2="10.559890127568664" y1="-100.17878707749207" y2="32.50000000000023"/><line fill="none" stroke="#000080" stroke-linecap="round" x1="10.559890127568664" x2="10.559890127570313" y1="32.50000000000023" y2="-132.49999999999974"/><line fill="none" stroke="#00f" stroke-linecap="round" x1="10.559890127570313" x2="-87.01246175298158" y1="-132.49999999999974" y2="1.7968210662405113"/><polyline fill="none" points="-87.01246175298158,1.7968210662405113 71.81397646830956,-49.809016994374055 -87.96351826927565,-101.72387204936688" stroke="#f00" stroke-linecap="round" stroke-linejoin="round"/><line fill="none" stroke="#800080" stroke-linecap="round" x1="-87.96351826927565" x2="11.372189368150842" y1="-101.72387204936688" y2="35.00000000000027"/><line fill="none" stroke="#ff0" stroke-linecap="round" x1="11.372189368150842" x2="11.372189368152663" y1="35.00000000000027" y2="-134.99999999999972"/><line fill="none" stroke="#800080" stroke-linecap="round" x1="11.372189368152663" x2="-89.13908877386173" y1="-134.99999999999972" y2="3.3419060381151553"/><line fill="none" stroke="#ff0" stroke-linecap="round" x1="-89.13908877386173" x2="74.44263202890524" y1="3.3419060381151553" y2="-49.809016994373984"/><polyline fill="none" points="74.44263202890524,-49.809016994373984 -90.09014529015569,-103.26895702124172 12.18448860873302,37.50000000000027" stroke="#00f" stroke-linecap="round" stroke-linejoin="round"/><polyline fill="none" points="12.18448860873302,37.50000000000027 12.18448860873503,-137.49999999999972 -91.26571579474188,4.886991009989799" stroke="#f00" stroke-linecap="round" stroke-linejoin="round"/><line fill="none" stroke="#000080" stroke-linecap="round" x1="-91.26571579474188" x2="77.07128758950091" y1="4.886991009989799" y2="-49.8090169943739"/><line fill="none" stroke="#800080" stroke-linecap="round" x1="77.07128758950091" x2="-92.21677231103573" y1="-49.8090169943739" y2="-104.81404199311655"/><line fill="none" stroke="#000080" stroke-linecap="round" x1="-92.21677231103573" x2="12.996787849315183" y1="-104.81404199311655" y2="40.000000000000284"/><line fill="none" stroke="#ff0" stroke-linecap="round" x1="12.996787849315183" x2="12.996787849317391" y1="40.000000000000284" y2="-139.9999999999997"/><line fill="none" stroke="#00f" stroke-linecap="round" x1="12.996787849317391" x2="-93.39234281562204" y1="-139.9999999999997" y2="6.432075981864443"/><line fill="none" stroke="#008000" stroke-linecap="round" x1="-93.39234281562204" x2="79.69994315009657" y1="6.432075981864443" y2="-49.80901699437379"/><line fill="none" stroke="#00f" stroke-linecap="round" x1="79.69994315009657" x2="-94.34339933191575" y1="-49.80901699437379" y2="-106.35912696499136"/><line fill="none" stroke="#000080" stroke-linecap="round" x1="-94.34339933191575" x2="13.809087089897346" y1="-106.35912696499136" y2="42.50000000000031"/><line fill="none" stroke="#800080" stroke-linecap="round" x1="13.809087089897346" x2="13.80908708989977" y1="42.50000000000031" y2="-142.49999999999966"/><line fill="none" stroke="#000080" stroke-linecap="round" x1="13.80908708989977" x2="-95.51896983650221" y1="-142.49999999999966" y2="7.977160953739087"/><line fill="none" stroke="#008000" stroke-linecap="round" x1="-95.51896983650221" x2="82.32859871069223" y1="7.977160953739087" y2="-49.809016994373685"/><line fill="none" stroke="#f00" stroke-linecap="round" x1="82.32859871069223" x2="-96.4700263527958" y1="-49.809016994373685" y2="-107.9042119368662"/><line fill="none" stroke="#f0f" stroke-linecap="round" x1="-96.4700263527958" x2="14.621386330479481" y1="-107.9042119368662" y2="45.00000000000034"/><polyline fill="none" points="14.621386330479481,45.00000000000034 14.621386330482117,-144.9999999999996 -97.64559685738237,9.52224592561376" stroke="#000080" stroke-linecap="round" stroke-linejoin="round"/><line fill="none" stroke="#f00" stroke-linecap="round" x1="-97.64559685738237" x2="84.9572542712879" y1="9.52224592561376" y2="-49.809016994373565"/><line fill="none" stroke="#00f" stroke-linecap="round" x1="84.9572542712879" x2="-98.59665337367585" y1="-49.809016994373565" y2="-109.44929690874099"/><line fill="none" stroke="#f00" stroke-linecap="round" x1="-98.59665337367585" x2="15.433685571061659" y1="-109.44929690874099" y2="47.5000000000004"/><line fill="none" stroke="#000080" stroke-linecap="round" x1="15.433685571061659" x2="15.433685571064473" y1="47.5000000000004" y2="-147.49999999999955"/><line fill="none" stroke="#00f" stroke-linecap="round" x1="15.433685571064473" x2="-99.77222387826255" y1="-147.49999999999955" y2="11.067330897488432"/><line fill="none" stroke="#ff0" stroke-linecap="round" x1="-99.77222387826255" x2="87.58590983188354" y1="11.067330897488432" y2="-49.80901699437345"/><line fill="none" stroke="#800080" stroke-linecap="round" x1="87.58590983188354" x2="-100.72328039455591" y1="-49.80901699437345" y2="-110.9943818806158"/><line fill="none" stroke="#008000" stroke-linecap="round" x1="-100.72328039455591" x2="16.245984811643808" y1="-110.9943818806158" y2="50.000000000000426"/><polygon fill="#008000" fill-rule="evenodd" points="16.24598481164405,34.000000000000426 14.245984811644018,36.0000000000004 15.245984811643957,40.00000000000041 12.245984811643913,43.00000000000037 9.245984811643943,41.00000000000032 7.245984811643929,42.00000000000029 10.245984811643883,45.000000000000334 9.245984811643822,49.00000000000032 11.245984811643762,53.00000000000035 8.245984811643718,56.000000000000306 10.245984811643687,58.000000000000334 12.245984811643734,55.00000000000037 16.2459848116437,57.000000000000426 20.245984811643734,55.00000000000048 22.245984811643687,58.00000000000052 24.24598481164372,56.00000000000055 21.245984811643762,53.000000000000504 23.245984811643822,49.00000000000053 22.245984811643883,45.00000000000052 25.24598481164393,42.00000000000056 23.245984811643943,41.00000000000053 20.245984811643915,43.00000000000048 17.245984811643957,40.00000000000044 18.245984811644018,36.000000000000455" stroke="#008000" stroke-linejoin="round"/></svg>