<?xml version="1.0" ?><!DOCTYPE svg  PUBLIC '-//W3C//DTD SVG 1.1//EN'  'http://www.w3.org/Graphics/SVG/1.1/DTD/svg11.dtd'><svg height="343.000" viewBox="-248.000 -220.000 338.000 343.000" width="338.000" xmlns="http://www.w3.org/2000/svg"><line fill="none" stroke="none" stroke-linecap="round" stroke-width="2.0" x1="0.0" x2="0.0" y1="0.0" y2="0.0"/><line fill="none" stroke="#0f0" stroke-linecap="round" x1="0.0" x2="0.0" y1="0.0" y2="-100.0"/><line fill="none" stroke="#00f" stroke-linecap="round" x1="0.0" x2="-96.0567081458105" y1="-100.0" y2="-131.21071643186968"/><polyline fill="none" points="-96.0567081458105,-131.21071643186968 -156.01080387964276,-48.69098300562506 -95.46892289351804,34.63776741499453" stroke="#000080" stroke-linecap="round" stroke-linejoin="round"/><line fill="none" stroke="#a020f0" stroke-linecap="round" x1="-95.46892289351804" x2="3.440954801177938" y1="34.63776741499453" y2="2.500000000000007"/><line fill="none" stroke="#000080" stroke-linecap="round" x1="3.440954801177938" x2="3.440954801177961" y1="2.500000000000007" y2="-102.5"/><polyline fill="none" points="3.440954801177961,-102.5 -97.37103592610829,-135.25580140374444 -160.26405792140292,-48.6909830056251" stroke="#a020f0" stroke-linecap="round" stroke-linejoin="round"/><line fill="none" stroke="#f00" stroke-linecap="round" x1="-160.26405792140292" x2="-96.78325067381587" y1="-48.6909830056251" y2="38.68285238686924"/><polyline fill="none" points="-96.78325067381587,38.68285238686924 6.881909602355876,5.000000000000028 6.881909602355931,-104.99999999999996" stroke="#00f" stroke-linecap="round" stroke-linejoin="round"/><line fill="none" stroke="#f0f" stroke-linecap="round" x1="6.881909602355931" x2="-98.68536370640608" y1="-104.99999999999996" y2="-139.30088637561917"/><line fill="none" stroke="#f00" stroke-linecap="round" x1="-98.68536370640608" x2="-164.51731196316314" y1="-139.30088637561917" y2="-48.6909830056251"/><polyline fill="none" points="-164.51731196316314,-48.6909830056251 -98.09757845411373,42.727937358743986 10.32286440353377,7.50000000000005" stroke="#0f0" stroke-linecap="round" stroke-linejoin="round"/><line fill="none" stroke="#a020f0" stroke-linecap="round" x1="10.32286440353377" x2="10.322864403533842" y1="7.50000000000005" y2="-107.49999999999991"/><polyline fill="none" points="10.322864403533842,-107.49999999999991 -99.99969148670391,-143.34597134749387 -168.7705660049233,-48.69098300562513" stroke="#f00" stroke-linecap="round" stroke-linejoin="round"/><polyline fill="none" points="-168.7705660049233,-48.69098300562513 -99.41190623441157,46.77302233061867 13.76381920471168,10.000000000000036 13.763819204711787,-109.99999999999991" stroke="#ff0" stroke-linecap="round" stroke-linejoin="round"/><line fill="none" stroke="#f00" stroke-linecap="round" x1="13.763819204711787" x2="-101.3140192670017" y1="-109.99999999999991" y2="-147.39105631936866"/><polyline fill="none" points="-101.3140192670017,-147.39105631936866 -173.02382004668345,-48.690983005625185 -100.72623401470939,50.818107302493345" stroke="#0f0" stroke-linecap="round" stroke-linejoin="round"/><line fill="none" stroke="#000080" stroke-linecap="round" x1="-100.72623401470939" x2="17.204774005889618" y1="50.818107302493345" y2="12.500000000000007"/><line fill="none" stroke="#0f0" stroke-linecap="round" x1="17.204774005889618" x2="17.20477400588975" y1="12.500000000000007" y2="-112.49999999999991"/><line fill="none" stroke="#a020f0" stroke-linecap="round" x1="17.20477400588975" x2="-102.62834704729947" y1="-112.49999999999991" y2="-151.4361412912434"/><line fill="none" stroke="#ff0" stroke-linecap="round" x1="-102.62834704729947" x2="-177.2770740884436" y1="-151.4361412912434" y2="-48.69098300562521"/><line fill="none" stroke="#0f0" stroke-linecap="round" x1="-177.2770740884436" x2="-102.04056179500722" y1="-48.69098300562521" y2="54.86319227436806"/><polyline fill="none" points="-102.04056179500722,54.86319227436806 20.64572880706754,15.000000000000021 20.6457288070677,-114.99999999999986" stroke="#ff0" stroke-linecap="round" stroke-linejoin="round"/><line fill="none" stroke="#000080" stroke-linecap="round" x1="20.6457288070677" x2="-103.94267482759726" y1="-114.99999999999986" y2="-155.4812262631181"/><line fill="none" stroke="#0f0" stroke-linecap="round" x1="-103.94267482759726" x2="-181.53032813020377" y1="-155.4812262631181" y2="-48.69098300562523"/><line fill="none" stroke="#a020f0" stroke-linecap="round" x1="-181.53032813020377" x2="-103.35488957530507" y1="-48.69098300562523" y2="58.908277246242776"/><polyline fill="none" points="-103.35488957530507,58.908277246242776 24.086683608245437,17.500000000000043 24.086683608245625,-117.49999999999982" stroke="#000080" stroke-linecap="round" stroke-linejoin="round"/><polyline fill="none" points="24.086683608245625,-117.49999999999982 -105.25700260789505,-159.52631123499282 -185.78358217196393,-48.69098300562527" stroke="#0f0" stroke-linecap="round" stroke-linejoin="round"/><line fill="none" stroke="#f00" stroke-linecap="round" x1="-185.78358217196393" x2="-104.66921735560291" y1="-48.69098300562527" y2="62.95336221811745"/><line fill="none" stroke="#00f" stroke-linecap="round" x1="-104.66921735560291" x2="27.527638409423332" y1="62.95336221811745" y2="20.00000000000003"/><line fill="none" stroke="#a020f0" stroke-linecap="round" x1="27.527638409423332" x2="27.527638409423567" y1="20.00000000000003" y2="-119.99999999999977"/><line fill="none" stroke="#00f" stroke-linecap="round" x1="27.527638409423567" x2="-106.57133038819285" y1="-119.99999999999977" y2="-163.57139620686752"/><line fill="none" stroke="#f0f" stroke-linecap="round" x1="-106.57133038819285" x2="-190.03683621372414" y1="-163.57139620686752" y2="-48.6909830056253"/><polyline fill="none" points="-190.03683621372414,-48.6909830056253 -105.98354513590081,66.99844718999218 30.9685932106012,22.500000000000064" stroke="#00f" stroke-linecap="round" stroke-linejoin="round"/><line fill="none" stroke="#f00" stroke-linecap="round" x1="30.9685932106012" x2="30.968593210601473" y1="22.500000000000064" y2="-122.49999999999974"/><line fill="none" stroke="#0f0" stroke-linecap="round" x1="30.968593210601473" x2="-107.88565816849068" y1="-122.49999999999974" y2="-167.61648117874228"/><line fill="none" stroke="#f0f" stroke-linecap="round" x1="-107.88565816849068" x2="-194.29009025548433" y1="-167.61648117874228" y2="-48.69098300562534"/><line fill="none" stroke="#ff0" stroke-linecap="round" x1="-194.29009025548433" x2="-107.29787291619867" y1="-48.69098300562534" y2="71.04353216186686"/><line fill="none" stroke="#f00" stroke-linecap="round" x1="-107.29787291619867" x2="34.40954801177908" y1="71.04353216186686" y2="25.000000000000043"/><line fill="none" stroke="#ff0" stroke-linecap="round" x1="34.40954801177908" x2="34.40954801177938" y1="25.000000000000043" y2="-124.99999999999973"/><polyline fill="none" points="34.40954801177938,-124.99999999999973 -109.19998594878851,-171.661566150617 -198.54334429724454,-48.69098300562537" stroke="#a020f0" stroke-linecap="round" stroke-linejoin="round"/><line fill="none" stroke="#000080" stroke-linecap="round" x1="-198.54334429724454" x2="-108.61220069649654" y1="-48.69098300562537" y2="75.0886171337416"/><line fill="none" stroke="#ff0" stroke-linecap="round" x1="-108.61220069649654" x2="37.850502812957004" y1="75.0886171337416" y2="27.50000000000007"/><line fill="none" stroke="#f00" stroke-linecap="round" x1="37.850502812957004" x2="37.85050281295734" y1="27.50000000000007" y2="-127.4999999999997"/><polyline fill="none" points="37.85050281295734,-127.4999999999997 -110.5143137290863,-175.70665112249173 -202.79659833900473,-48.6909830056254" stroke="#000080" stroke-linecap="round" stroke-linejoin="round"/><line fill="none" stroke="#f00" stroke-linecap="round" x1="-202.79659833900473" x2="-109.92652847679442" y1="-48.6909830056254" y2="79.1337021056163"/><line fill="none" stroke="#00f" stroke-linecap="round" x1="-109.92652847679442" x2="41.29145761413487" y1="79.1337021056163" y2="30.000000000000078"/><line fill="none" stroke="#0f0" stroke-linecap="round" x1="41.29145761413487" x2="41.29145761413524" y1="30.000000000000078" y2="-129.99999999999966"/><line fill="none" stroke="#00f" stroke-linecap="round" x1="41.29145761413524" x2="-111.82864150938413" y1="-129.99999999999966" y2="-179.7517360943665"/><line fill="none" stroke="#ff0" stroke-linecap="round" x1="-111.82864150938413" x2="-207.04985238076495" y1="-179.7517360943665" y2="-48.69098300562544"/><line fill="none" stroke="#f00" stroke-linecap="round" x1="-207.04985238076495" x2="-111.24085625709229" y1="-48.69098300562544" y2="83.17878707749102"/><line fill="none" stroke="#ff0" stroke-linecap="round" x1="-111.24085625709229" x2="44.732412415312794" y1="83.17878707749102" y2="32.50000000000011"/><line fill="none" stroke="#f0f" stroke-linecap="round" x1="44.732412415312794" x2="44.7324124153132" y1="32.50000000000011" y2="-132.4999999999996"/><line fill="none" stroke="#ff0" stroke-linecap="round" x1="44.7324124153132" x2="-113.1429692896819" y1="-132.4999999999996" y2="-183.7968210662412"/><line fill="none" stroke="#0f0" stroke-linecap="round" x1="-113.1429692896819" x2="-211.3031064225251" y1="-183.7968210662412" y2="-48.69098300562544"/><polyline fill="none" points="-211.3031064225251,-48.69098300562544 -112.55518403739013,87.22387204936575 48.17336721649069,35.00000000000015" stroke="#f00" stroke-linecap="round" stroke-linejoin="round"/><line fill="none" stroke="#000080" stroke-linecap="round" x1="48.17336721649069" x2="48.173367216491144" y1="35.00000000000015" y2="-134.99999999999957"/><line fill="none" stroke="#f00" stroke-linecap="round" x1="48.173367216491144" x2="-114.4572970699797" y1="-134.99999999999957" y2="-187.84190603811595"/><line fill="none" stroke="#a020f0" stroke-linecap="round" x1="-114.4572970699797" x2="-215.5563604642853" y1="-187.84190603811595" y2="-48.6909830056255"/><polyline fill="none" points="-215.5563604642853,-48.6909830056255 -113.869511817688,91.26895702124045 51.6143220176686,37.500000000000156" stroke="#0f0" stroke-linecap="round" stroke-linejoin="round"/><line fill="none" stroke="#f00" stroke-linecap="round" x1="51.6143220176686" x2="51.614322017669096" y1="37.500000000000156" y2="-137.49999999999955"/><line fill="none" stroke="#0f0" stroke-linecap="round" x1="51.614322017669096" x2="-115.77162485027749" y1="-137.49999999999955" y2="-191.88699100999068"/><line fill="none" stroke="#f00" stroke-linecap="round" x1="-115.77162485027749" x2="-219.80961450604548" y1="-191.88699100999068" y2="-48.690983005625554"/><line fill="none" stroke="#ff0" stroke-linecap="round" x1="-219.80961450604548" x2="-115.1838395979859" y1="-48.690983005625554" y2="95.31404199311513"/><polyline fill="none" points="-115.1838395979859,95.31404199311513 55.05527681884644,40.00000000000017 55.055276818847,-139.99999999999946" stroke="#0f0" stroke-linecap="round" stroke-linejoin="round"/><line fill="none" stroke="#f0f" stroke-linecap="round" x1="55.055276818847" x2="-117.08595263057526" y1="-139.99999999999946" y2="-195.93207598186538"/><line fill="none" stroke="#000080" stroke-linecap="round" x1="-117.08595263057526" x2="-224.06286854780564" y1="-195.93207598186538" y2="-48.69098300562561"/><line fill="none" stroke="#f0f" stroke-linecap="round" x1="-224.06286854780564" x2="-116.49816737828378" y1="-48.69098300562561" y2="99.3591269649898"/><line fill="none" stroke="#f00" stroke-linecap="round" x1="-116.49816737828378" x2="58.49623162002429" y1="99.3591269649898" y2="42.50000000000019"/><line fill="none" stroke="#ff0" stroke-linecap="round" x1="58.49623162002429" x2="58.49623162002493" y1="42.50000000000019" y2="-142.4999999999994"/><line fill="none" stroke="#000080" stroke-linecap="round" x1="58.49623162002493" x2="-118.40028041087302" y1="-142.4999999999994" y2="-199.9771609537401"/><line fill="none" stroke="#a020f0" stroke-linecap="round" x1="-118.40028041087302" x2="-228.3161225895658" y1="-199.9771609537401" y2="-48.6909830056257"/><line fill="none" stroke="#f0f" stroke-linecap="round" x1="-228.3161225895658" x2="-117.81249515858165" y1="-48.6909830056257" y2="103.40421193686447"/><line fill="none" stroke="#00f" stroke-linecap="round" x1="-117.81249515858165" x2="61.937186421202156" y1="103.40421193686447" y2="45.0000000000002"/><line fill="none" stroke="#ff0" stroke-linecap="round" x1="61.937186421202156" x2="61.93718642120285" y1="45.0000000000002" y2="-144.99999999999935"/><line fill="none" stroke="#00f" stroke-linecap="round" x1="61.93718642120285" x2="-119.71460819117081" y1="-144.99999999999935" y2="-204.0222459256148"/><line fill="none" stroke="#ff0" stroke-linecap="round" x1="-119.71460819117081" x2="-232.56937663132595" y1="-204.0222459256148" y2="-48.6909830056257"/><line fill="none" stroke="#a020f0" stroke-linecap="round" x1="-232.56937663132595" x2="-119.12682293887951" y1="-48.6909830056257" y2="107.4492969087392"/><line fill="none" stroke="#f0f" stroke-linecap="round" x1="-119.12682293887951" x2="65.37814122238004" y1="107.4492969087392" y2="47.500000000000256"/><line fill="none" stroke="#0f0" stroke-linecap="round" x1="65.37814122238004" x2="65.37814122238079" y1="47.500000000000256" y2="-147.49999999999923"/><line fill="none" stroke="#000080" stroke-linecap="round" x1="65.37814122238079" x2="-121.02893597146858" y1="-147.49999999999923" y2="-208.0673308974895"/><line fill="none" stroke="#00f" stroke-linecap="round" x1="-121.02893597146858" x2="-236.8226306730861" y1="-208.0673308974895" y2="-48.69098300562575"/><polyline fill="none" points="-236.8226306730861,-48.69098300562575 -120.44115071917736,111.49438188061387 68.81909602355796,50.000000000000234" stroke="#a020f0" stroke-linecap="round" stroke-linejoin="round"/><polygon fill="#a020f0" fill-rule="evenodd" points="68.81909602355802,34.000000000000234 66.81909602355802,36.00000000000023 67.819096023558,40.00000000000023 64.81909602355799,43.00000000000022 61.819096023558,41.000000000000206 59.81909602355799,42.0000000000002 62.81909602355798,45.00000000000021 61.81909602355796,49.000000000000206 63.81909602355795,53.00000000000021 60.81909602355794,56.0000000000002 62.81909602355793,58.00000000000021 64.81909602355795,55.00000000000022 68.81909602355793,57.000000000000234 72.81909602355795,55.00000000000025 74.81909602355793,58.000000000000256 76.81909602355793,56.00000000000027 73.81909602355795,53.000000000000256 75.81909602355796,49.00000000000026 74.81909602355798,45.000000000000256 77.81909602355799,42.00000000000027 75.81909602355799,41.00000000000026 72.81909602355799,43.00000000000025 69.819096023558,40.00000000000024 70.81909602355802,36.00000000000024" stroke="#a020f0" stroke-linejoin="round"/></svg>