<?xml version="1.0" ?><!DOCTYPE svg  PUBLIC '-//W3C//DTD SVG 1.1//EN'  'http://www.w3.org/Graphics/SVG/1.1/DTD/svg11.dtd'><svg height="225.000" viewBox="-106.000 -104.000 231.000 225.000" width="231.000" xmlns="http://www.w3.org/2000/svg"><line fill="none" stroke="none" stroke-linecap="round" stroke-width="2.0" x1="0.0" x2="0.0" y1="0.0" y2="0.0"/><line fill="none" stroke="none" stroke-linecap="round" stroke-width="2.0" x1="0.0" x2="0.0" y1="0.0" y2="0.0"/><line fill="none" stroke="none" stroke-linecap="round" stroke-width="2.0" x1="0.0" x2="0.0" y1="0.0" y2="0.0"/><polyline fill="none" points="6.12323399574e-15,100.0 6.12323399574e-15,100.0 6.12323399574e-15,100.0 6.12323399574e-15,100.0 6.12323399574e-15,100.0 6.12323399574e-15,100.0" stroke="#000" stroke-linecap="round" stroke-linejoin="round"/><polyline fill="none" points="2.0,100.0 2.0,100.0 2.0,100.0 2.0,100.0 2.0,100.0 2.0,100.0 2.0,100.0" stroke="#f00" stroke-linecap="round" stroke-linejoin="round"/><polyline fill="none" points="-75.7145961457,62.932039105 79.7145961457,62.932039105 47.399049974,-89.1006524188 -94.5925826289,-25.8819045103 -3.23359562429,99.8629534755 100.76883406,-15.643446504 -33.8367949545,-93.3580426497 -81.8670567945,54.4639035015" stroke="#f0f" stroke-linecap="round" stroke-linejoin="round"/><polyline fill="none" points="3.0,100.0 3.0,100.0 3.0,100.0 3.0,100.0 3.0,100.0 3.0,100.0 3.0,100.0 3.0,100.0 3.0,100.0 3.0,100.0" stroke="#ff0" stroke-linecap="round" stroke-linejoin="round"/><polyline fill="none" points="-91.5925826289,25.8819045103 100.53429408,46.0752529608 -55.7557876744,-67.4761381395 22.8196979346,109.007292066 43.0130463851,-83.1195846435 -70.5383447151,73.1704971112 105.94508549,-5.40498849779 -86.1817912191,-25.5983369483 70.1082905356,87.9530541519 -8.46719507342,-88.5303760533 -28.6605435239,103.596500656 84.8908475763,-52.6935810988 -91.5925826289,25.8819045103" stroke="#00f" stroke-linecap="round" stroke-linejoin="round"/><polyline fill="none" points="-71.8010753607,61.5661475326 86.000378176,78.1517486303 61.1788171007,-78.5654202052 -83.774050965,-14.0282453246 16.0806359055,109.282023559 109.344914562,-19.0852434094 -38.7869153969,-75.9477253744 -55.3725164946,81.8537281622 101.344652341,57.0321670869 36.8074774603,-87.9207009788 -86.5027914228,11.9339858918 41.8644755451,105.198264548 98.7269575101,-42.9335654106 -59.0744960265,-59.5191665084 -34.2529349512,97.1980023272 110.699933115,32.6608274466 10.8452462439,-90.6494414366 -82.4190324121,37.7178255314 65.7127975463,94.5803074964 82.2983986441,-63.2211460403 -74.4187701915,-38.399584965 -9.88159531085,106.553283101 113.428673572,6.69859623018 -14.9385933957,-86.5656824258 -71.8010753607,61.5661475326" stroke="#008000" stroke-linecap="round" stroke-linejoin="round"/><polygon fill="#008000" fill-rule="evenodd" points="-55.8887250348,63.2386029448 -57.668711899,61.0405022276 -61.7513279437,61.6169102699 -64.42130824,58.319759194 -62.1186790595,55.5452504344 -62.9041440283,53.4516781804 -66.2012951042,56.1216584767 -70.0748542224,54.7090227283 -74.2619987304,56.2799526659 -76.9319790267,52.98280159 -79.130079744,54.7627884542 -76.3555709844,57.0654176348 -78.7627286283,60.8344482897 -77.1917986906,65.0215927977 -80.3844213032,66.6970511986 -78.604434439,68.8951519159 -75.3072833631,66.2251716196 -71.5382527082,68.6323292634 -67.4556366634,68.0559212211 -64.7856563671,71.353072297 -63.5820775452,69.4685569696 -65.2575359462,66.2759343569 -61.9603848703,63.6059540606 -58.0868257521,65.018589809" stroke="#008000" stroke-linejoin="round"/><polygon fill="#000" fill-rule="evenodd" points="0.0,-16.0 -2.0,-14.0 -1.0,-10.0 -4.0,-7.0 -7.0,-9.0 -9.0,-8.0 -6.0,-5.0 -7.0,-1.0 -5.0,3.0 -8.0,6.0 -6.0,8.0 -4.0,5.0 0.0,7.0 4.0,5.0 6.0,8.0 8.0,6.0 5.0,3.0 7.0,-1.0 6.0,-5.0 9.0,-8.0 7.0,-9.0 4.0,-7.0 1.0,-10.0 2.0,-14.0" stroke="#000" stroke-linejoin="round"/></svg>