<?xml version="1.0" ?><!DOCTYPE svg  PUBLIC '-//W3C//DTD SVG 1.1//EN'  'http://www.w3.org/Graphics/SVG/1.1/DTD/svg11.dtd'><svg height="243.000" viewBox="-121.000 -121.000 243.000 243.000" width="243.000" xmlns="http://www.w3.org/2000/svg"><line fill="none" stroke="none" stroke-linecap="round" stroke-width="2.0" x1="0.0" x2="0.0" y1="0.0" y2="0.0"/><line fill="none" stroke="none" stroke-linecap="round" stroke-width="2.0" x1="0.0" x2="0.0" y1="0.0" y2="0.0"/><line fill="none" stroke="none" stroke-linecap="round" stroke-width="2.0" x1="0.0" x2="0.0" y1="0.0" y2="0.0"/><line fill="none" stroke="none" stroke-linecap="round" stroke-width="2.0" x1="0.0" x2="0.0" y1="0.0" y2="0.0"/><line fill="none" stroke="none" stroke-linecap="round" stroke-width="2.0" x1="0.0" x2="0.0" y1="0.0" y2="0.0"/><line fill="none" stroke="none" stroke-linecap="round" stroke-width="2.0" x1="0.0" x2="0.0" y1="0.0" y2="0.0"/><line fill="none" stroke="none" stroke-linecap="round" stroke-width="2.0" x1="0.0" x2="0.0" y1="0.0" y2="0.0"/><line fill="none" stroke="none" stroke-linecap="round" stroke-width="2.0" x1="0.0" x2="0.0" y1="0.0" y2="0.0"/><line fill="none" stroke="none" stroke-linecap="round" stroke-width="2.0" x1="0.0" x2="0.0" y1="0.0" y2="0.0"/><line fill="none" stroke="#000" stroke-linecap="round" x1="0.0" x2="0.0" y1="-100.0" y2="-110.0"/><line fill="none" stroke="#000" stroke-linecap="round" x1="2.571758278209442e-14" x2="2.6942229581241774e-14" y1="100.0" y2="110.0"/><line fill="none" stroke="#000" stroke-linecap="round" x1="10.452846326765322" x2="10.975488643103589" y1="-99.45218953682733" y2="-104.4247990136687"/><line fill="none" stroke="#000" stroke-linecap="round" x1="-10.452846326765293" x2="-10.975488643103558" y1="99.45218953682732" y2="104.42479901366869"/><line fill="none" stroke="#000" stroke-linecap="round" x1="20.791169081775884" x2="21.83072753586468" y1="-97.81476007338055" y2="-102.70549807704958"/><line fill="none" stroke="#000" stroke-linecap="round" x1="-20.79116908177585" x2="-21.830727535864643" y1="97.81476007338055" y2="102.70549807704958"/><line fill="none" stroke="#000" stroke-linecap="round" x1="30.901699437494674" x2="32.44678440936941" y1="-95.10565162951535" y2="-99.86093421099112"/><line fill="none" stroke="#000" stroke-linecap="round" x1="-30.901699437494635" x2="-32.44678440936937" y1="95.10565162951535" y2="99.86093421099112"/><line fill="none" stroke="#000" stroke-linecap="round" x1="40.67366430757993" x2="42.70734752295892" y1="-91.3545457642601" y2="-95.9222730524731"/><line fill="none" stroke="#000" stroke-linecap="round" x1="-40.6736643075799" x2="-42.70734752295889" y1="91.3545457642601" y2="95.9222730524731"/><line fill="none" stroke="#000" stroke-linecap="round" x1="49.99999999999988" x2="54.999999999999865" y1="-86.60254037844388" y2="-95.26279441628827"/><line fill="none" stroke="#000" stroke-linecap="round" x1="-49.99999999999985" x2="-54.99999999999984" y1="86.6025403784439" y2="95.2627944162883"/><line fill="none" stroke="#000" stroke-linecap="round" x1="58.77852522924718" x2="61.717451490709536" y1="-80.9016994374948" y2="-84.94678440936954"/><line fill="none" stroke="#000" stroke-linecap="round" x1="-58.77852522924714" x2="-61.71745149070949" y1="80.90169943749483" y2="84.94678440936957"/><line fill="none" stroke="#000" stroke-linecap="round" x1="66.91306063588569" x2="70.25871366767997" y1="-74.31448254773952" y2="-78.0302066751265"/><line fill="none" stroke="#000" stroke-linecap="round" x1="-66.91306063588563" x2="-70.25871366767991" y1="74.31448254773954" y2="78.03020667512652"/><line fill="none" stroke="#000" stroke-linecap="round" x1="74.31448254773927" x2="78.03020667512624" y1="-66.91306063588593" y2="-70.25871366768023"/><line fill="none" stroke="#000" stroke-linecap="round" x1="-74.31448254773922" x2="-78.03020667512618" y1="66.91306063588598" y2="70.25871366768028"/><line fill="none" stroke="#000" stroke-linecap="round" x1="80.90169943749459" x2="84.94678440936931" y1="-58.778525229247464" y2="-61.717451490709834"/><line fill="none" stroke="#000" stroke-linecap="round" x1="-80.90169943749453" x2="-84.94678440936926" y1="58.77852522924752" y2="61.7174514907099"/><line fill="none" stroke="#000" stroke-linecap="round" x1="86.60254037844369" x2="95.26279441628806" y1="-50.00000000000019" y2="-55.00000000000021"/><line fill="none" stroke="#000" stroke-linecap="round" x1="-86.60254037844365" x2="-95.26279441628802" y1="50.00000000000025" y2="55.00000000000027"/><line fill="none" stroke="#000" stroke-linecap="round" x1="91.35454576425992" x2="95.92227305247292" y1="-40.67366430758026" y2="-42.707347522959274"/><line fill="none" stroke="#000" stroke-linecap="round" x1="-91.3545457642599" x2="-95.92227305247289" y1="40.67366430758032" y2="42.70734752295933"/><line fill="none" stroke="#000" stroke-linecap="round" x1="95.10565162951521" x2="99.86093421099096" y1="-30.90169943749501" y2="-32.44678440936976"/><line fill="none" stroke="#000" stroke-linecap="round" x1="-95.1056516295152" x2="-99.86093421099095" y1="30.90169943749508" y2="32.44678440936983"/><line fill="none" stroke="#000" stroke-linecap="round" x1="97.81476007338046" x2="102.70549807704947" y1="-20.79116908177624" y2="-21.83072753586505"/><line fill="none" stroke="#000" stroke-linecap="round" x1="-97.81476007338043" x2="-102.70549807704944" y1="20.79116908177631" y2="21.830727535865122"/><line fill="none" stroke="#000" stroke-linecap="round" x1="99.45218953682725" x2="104.4247990136686" y1="-10.452846326765686" y2="-10.97548864310397"/><line fill="none" stroke="#000" stroke-linecap="round" x1="-99.45218953682723" x2="-104.42479901366859" y1="10.452846326765762" y2="10.975488643104049"/><line fill="none" stroke="#000" stroke-linecap="round" x1="99.99999999999996" x2="109.99999999999996" y1="-3.702593787124897e-13" y2="-4.0994985184283905e-13"/><line fill="none" stroke="#000" stroke-linecap="round" x1="-99.99999999999993" x2="-109.99999999999993" y1="4.492676666765916e-13" y2="4.901827866060883e-13"/><line fill="none" stroke="#000" stroke-linecap="round" x1="99.45218953682733" x2="104.4247990136687" y1="10.452846326764949" y2="10.975488643103194"/><line fill="none" stroke="#000" stroke-linecap="round" x1="-99.4521895368273" x2="-104.42479901366868" y1="-10.452846326764869" y2="-10.975488643103114"/><line fill="none" stroke="#000" stroke-linecap="round" x1="97.81476007338061" x2="102.70549807704964" y1="20.791169081775507" y2="21.83072753586428"/><line fill="none" stroke="#000" stroke-linecap="round" x1="-97.81476007338058" x2="-102.70549807704961" y1="-20.791169081775436" y2="-21.83072753586421"/><line fill="none" stroke="#000" stroke-linecap="round" x1="95.10565162951545" x2="99.86093421099122" y1="30.901699437494294" y2="32.44678440936901"/><line fill="none" stroke="#000" stroke-linecap="round" x1="-95.10565162951542" x2="-99.86093421099119" y1="-30.901699437494216" y2="-32.44678440936893"/><line fill="none" stroke="#000" stroke-linecap="round" x1="91.35454576426024" x2="95.92227305247324" y1="40.673664307579564" y2="42.70734752295854"/><line fill="none" stroke="#000" stroke-linecap="round" x1="-91.35454576426021" x2="-95.92227305247322" y1="-40.67366430757948" y2="-42.70734752295846"/><line fill="none" stroke="#000" stroke-linecap="round" x1="86.60254037844405" x2="95.26279441628844" y1="49.99999999999953" y2="54.99999999999948"/><line fill="none" stroke="#000" stroke-linecap="round" x1="-86.60254037844406" x2="-95.26279441628847" y1="-49.999999999999446" y2="-54.999999999999396"/><line fill="none" stroke="#000" stroke-linecap="round" x1="80.90169943749498" x2="84.94678440936973" y1="58.778525229246846" y2="61.71745149070919"/><line fill="none" stroke="#000" stroke-linecap="round" x1="-80.90169943749503" x2="-84.94678440936977" y1="-58.77852522924676" y2="-61.7174514907091"/><line fill="none" stroke="#000" stroke-linecap="round" x1="74.31448254773974" x2="78.03020667512673" y1="66.91306063588536" y2="70.25871366767963"/><line fill="none" stroke="#000" stroke-linecap="round" x1="-74.31448254773977" x2="-78.03020667512676" y1="-66.91306063588526" y2="-70.25871366767953"/><line fill="none" stroke="#000" stroke-linecap="round" x1="66.91306063588621" x2="70.25871366768052" y1="74.31448254773898" y2="78.03020667512592"/><line fill="none" stroke="#000" stroke-linecap="round" x1="-66.91306063588624" x2="-70.25871366768055" y1="-74.31448254773886" y2="-78.03020667512581"/><line fill="none" stroke="#000" stroke-linecap="round" x1="58.77852522924778" x2="61.71745149071017" y1="80.90169943749432" y2="84.94678440936903"/><line fill="none" stroke="#000" stroke-linecap="round" x1="-58.778525229247805" x2="-61.7174514907102" y1="-80.90169943749423" y2="-84.94678440936895"/><line fill="none" stroke="#000" stroke-linecap="round" x1="50.000000000000526" x2="55.00000000000058" y1="86.60254037844345" y2="95.26279441628779"/><line fill="none" stroke="#000" stroke-linecap="round" x1="-50.00000000000056" x2="-55.00000000000062" y1="-86.6025403784434" y2="-95.26279441628773"/><line fill="none" stroke="#000" stroke-linecap="round" x1="40.67366430758061" x2="42.70734752295964" y1="91.3545457642597" y2="95.92227305247268"/><line fill="none" stroke="#000" stroke-linecap="round" x1="-40.673664307580644" x2="-42.70734752295967" y1="-91.35454576425968" y2="-95.92227305247266"/><line fill="none" stroke="#000" stroke-linecap="round" x1="30.90169943749539" x2="32.44678440937016" y1="95.10565162951502" y2="99.86093421099078"/><line fill="none" stroke="#000" stroke-linecap="round" x1="-30.90169943749543" x2="-32.4467844093702" y1="-95.105651629515" y2="-99.86093421099075"/><line fill="none" stroke="#000" stroke-linecap="round" x1="20.791169081776644" x2="21.830727535865478" y1="97.8147600733803" y2="102.70549807704931"/><line fill="none" stroke="#000" stroke-linecap="round" x1="-20.79116908177668" x2="-21.830727535865513" y1="-97.81476007338027" y2="-102.70549807704928"/><line fill="none" stroke="#000" stroke-linecap="round" x1="10.452846326766105" x2="10.975488643104411" y1="99.45218953682713" y2="104.42479901366849"/><line fill="none" stroke="#000" stroke-linecap="round" x1="-10.452846326766144" x2="-10.97548864310445" y1="-99.4521895368271" y2="-104.42479901366846"/><line fill="none" stroke="none" stroke-linecap="round" stroke-width="2.0" x1="0.0" x2="0.0" y1="0.0" y2="0.0"/><text fill="#000" font-family="Liberation Sans" font-size="8.0pt" text-anchor="middle" x="-1.000000000000007" y="-53">Vienes</text><text fill="#000" font-family="Liberation Sans" font-size="8.0pt" text-anchor="middle" x="-1.000000000000007" y="47">Mayo 29,2016</text><polygon fill="#00f" fill-rule="evenodd" points="0.0,0.0 -25.6550858707008,65.12922975874172 -19.142162894826626,67.6947383458118 -28.22059445777088,71.64215273461589 -32.16800884657497,62.56372117167164 -25.6550858707008,65.12922975874172" stroke="#bebebe" stroke-linejoin="round" stroke-width="3.0"/><polygon fill="#a020f0" fill-rule="evenodd" points="0.0,0.0 -88.68671086351411,15.318854924942945 -87.15482537101981,24.187526011294356 -97.55538194986552,16.85074041743724 -90.2185963560084,6.450183838591535 -88.68671086351411,15.318854924942945" stroke="#ff0" stroke-linejoin="round" stroke-width="2.0"/><polygon fill="#f00" fill-rule="evenodd" points="0.0,0.0 74.31448254773943,66.91306063588583 81.00578861132801,59.48161238111189 81.74593080251337,73.60436669947441 67.62317648415085,74.34450889065977 74.31448254773943,66.91306063588583" stroke="#0f0" stroke-linejoin="round"/><polygon fill="#000" fill-rule="evenodd" points="-6.0,6.0 -6.0,-6.0 6.0,-6.0 6.0,6.0" stroke="#ffa500" stroke-linejoin="round" stroke-width="2.0"/><polygon fill="#000" fill-rule="evenodd" points="0.0,0.0 4.999999999999927,-9.00000000000004 -5.653810752903617e-14,-7.0 -5.000000000000073,-8.99999999999996" stroke="#000" stroke-linejoin="round"/></svg>