<?xml version="1.0" ?><!DOCTYPE svg  PUBLIC '-//W3C//DTD SVG 1.1//EN'  'http://www.w3.org/Graphics/SVG/1.1/DTD/svg11.dtd'><svg height="605.000" viewBox="-40.000 -584.000 999.000 605.000" width="999.000" xmlns="http://www.w3.org/2000/svg"><line fill="none" stroke="none" stroke-linecap="round" stroke-width="2.0" x1="0.0" x2="0.0" y1="0.0" y2="0.0"/><line fill="none" stroke="#800000" stroke-linecap="round" stroke-width="10.0" x1="0.0" x2="0.0" y1="0.0" y2="-564.2857142857143"/><line fill="none" stroke="none" stroke-linecap="round" stroke-width="2.0" x1="0.0" x2="0.0" y1="0.0" y2="0.0"/><polygon fill="#800000" fill-rule="evenodd" points="2.3894564255768733e-15,-330.14285714285717 -5.999999999999998,-324.14285714285717 -2.9999999999999987,-312.14285714285717 -11.999999999999998,-303.14285714285717 -21.0,-309.1428571428571 -27.0,-306.1428571428572 -18.0,-297.14285714285717 -21.0,-285.14285714285717 -14.999999999999998,-273.14285714285717 -24.0,-264.14285714285717 -18.0,-258.14285714285717 -12.0,-267.14285714285717 -1.045387186189882e-15,-261.14285714285717 12.0,-267.14285714285717 18.0,-258.14285714285717 24.0,-264.14285714285717 14.999999999999998,-273.14285714285717 21.0,-285.14285714285717 18.0,-297.14285714285717 27.0,-306.1428571428572 21.0,-309.1428571428571 12.000000000000002,-303.14285714285717 3.0000000000000013,-312.14285714285717 6.000000000000002,-324.14285714285717" stroke="#800000" stroke-linejoin="round" stroke-width="5.0"/><line fill="none" stroke="none" stroke-linecap="round" stroke-width="2.0" x1="0.0" x2="0.0" y1="0.0" y2="0.0"/><line fill="none" stroke="#008000" stroke-linecap="round" stroke-width="10.0" x1="458.75" x2="458.75" y1="0.0" y2="-564.2857142857143"/><line fill="none" stroke="none" stroke-linecap="round" stroke-width="2.0" x1="0.0" x2="0.0" y1="0.0" y2="0.0"/><polygon fill="#008000" fill-rule="evenodd" points="458.75,-330.14285714285717 452.75,-324.14285714285717 455.75,-312.14285714285717 446.75,-303.14285714285717 437.75,-309.1428571428571 431.75,-306.1428571428572 440.75,-297.14285714285717 437.75,-285.14285714285717 443.75,-273.14285714285717 434.75,-264.14285714285717 440.75,-258.14285714285717 446.75,-267.14285714285717 458.75,-261.14285714285717 470.75,-267.14285714285717 476.74999999999994,-258.14285714285717 482.75000000000006,-264.14285714285717 473.75,-273.14285714285717 479.75,-285.14285714285717 476.74999999999994,-297.14285714285717 485.75,-306.1428571428572 479.75,-309.1428571428571 470.75,-303.14285714285717 461.75000000000006,-312.14285714285717 464.75,-324.14285714285717" stroke="#008000" stroke-linejoin="round" stroke-width="5.0"/><line fill="none" stroke="none" stroke-linecap="round" stroke-width="2.0" x1="0.0" x2="0.0" y1="0.0" y2="0.0"/><line fill="none" stroke="#000080" stroke-linecap="round" stroke-width="10.0" x1="917.5" x2="917.5" y1="0.0" y2="-564.2857142857143"/><line fill="none" stroke="none" stroke-linecap="round" stroke-width="2.0" x1="0.0" x2="0.0" y1="0.0" y2="0.0"/><polygon fill="#000080" fill-rule="evenodd" points="917.5,-330.14285714285717 911.5,-324.14285714285717 914.5,-312.14285714285717 905.5,-303.14285714285717 896.5,-309.1428571428571 890.5,-306.1428571428572 899.5,-297.14285714285717 896.5,-285.14285714285717 902.5,-273.14285714285717 893.5,-264.14285714285717 899.5,-258.14285714285717 905.5,-267.14285714285717 917.5,-261.14285714285717 929.5,-267.14285714285717 935.5000000000001,-258.14285714285717 941.5,-264.14285714285717 932.5,-273.14285714285717 938.4999999999999,-285.14285714285717 935.5000000000001,-297.14285714285717 944.5,-306.1428571428572 938.4999999999999,-309.1428571428571 929.5,-303.14285714285717 920.5,-312.14285714285717 923.5000000000001,-324.14285714285717" stroke="#000080" stroke-linejoin="round" stroke-width="5.0"/></svg>