<?xml version="1.0" ?><!DOCTYPE svg  PUBLIC '-//W3C//DTD SVG 1.1//EN'  'http://www.w3.org/Graphics/SVG/1.1/DTD/svg11.dtd'><svg height="845.000" viewBox="-423.000 -423.000 845.000 845.000" width="845.000" xmlns="http://www.w3.org/2000/svg"><line fill="none" stroke="none" stroke-linecap="round" stroke-width="2.0" x1="0.0" x2="0.0" y1="0.0" y2="0.0"/><line fill="none" stroke="#bebebe" stroke-linecap="round" x1="-400.0" x2="-400.0" y1="400.0" y2="-400.0"/><line fill="none" stroke="#bebebe" stroke-linecap="round" x1="-390.0" x2="-390.0" y1="400.0" y2="-400.0"/><line fill="none" stroke="#bebebe" stroke-linecap="round" x1="-380.0" x2="-380.0" y1="400.0" y2="-400.0"/><line fill="none" stroke="#bebebe" stroke-linecap="round" x1="-370.0" x2="-370.0" y1="400.0" y2="-400.0"/><line fill="none" stroke="#bebebe" stroke-linecap="round" x1="-360.0" x2="-360.0" y1="400.0" y2="-400.0"/><line fill="none" stroke="#bebebe" stroke-linecap="round" x1="-350.0" x2="-350.0" y1="400.0" y2="-400.0"/><line fill="none" stroke="#bebebe" stroke-linecap="round" x1="-340.0" x2="-340.0" y1="400.0" y2="-400.0"/><line fill="none" stroke="#bebebe" stroke-linecap="round" x1="-330.0" x2="-330.0" y1="400.0" y2="-400.0"/><line fill="none" stroke="#bebebe" stroke-linecap="round" x1="-320.0" x2="-320.0" y1="400.0" y2="-400.0"/><line fill="none" stroke="#bebebe" stroke-linecap="round" x1="-310.0" x2="-310.0" y1="400.0" y2="-400.0"/><line fill="none" stroke="#bebebe" stroke-linecap="round" x1="-300.0" x2="-300.0" y1="400.0" y2="-400.0"/><line fill="none" stroke="#bebebe" stroke-linecap="round" x1="-290.0" x2="-290.0" y1="400.0" y2="-400.0"/><line fill="none" stroke="#bebebe" stroke-linecap="round" x1="-280.0" x2="-280.0" y1="400.0" y2="-400.0"/><line fill="none" stroke="#bebebe" stroke-linecap="round" x1="-270.0" x2="-270.0" y1="400.0" y2="-400.0"/><line fill="none" stroke="#bebebe" stroke-linecap="round" x1="-260.0" x2="-260.0" y1="400.0" y2="-400.0"/><line fill="none" stroke="#bebebe" stroke-linecap="round" x1="-250.0" x2="-250.0" y1="400.0" y2="-400.0"/><line fill="none" stroke="#bebebe" stroke-linecap="round" x1="-240.0" x2="-240.0" y1="400.0" y2="-400.0"/><line fill="none" stroke="#bebebe" stroke-linecap="round" x1="-230.0" x2="-230.0" y1="400.0" y2="-400.0"/><line fill="none" stroke="#bebebe" stroke-linecap="round" x1="-220.0" x2="-220.0" y1="400.0" y2="-400.0"/><line fill="none" stroke="#bebebe" stroke-linecap="round" x1="-210.0" x2="-210.0" y1="400.0" y2="-400.0"/><line fill="none" stroke="#bebebe" stroke-linecap="round" x1="-200.0" x2="-200.0" y1="400.0" y2="-400.0"/><line fill="none" stroke="#bebebe" stroke-linecap="round" x1="-190.0" x2="-190.0" y1="400.0" y2="-400.0"/><line fill="none" stroke="#bebebe" stroke-linecap="round" x1="-180.0" x2="-180.0" y1="400.0" y2="-400.0"/><line fill="none" stroke="#bebebe" stroke-linecap="round" x1="-170.0" x2="-170.0" y1="400.0" y2="-400.0"/><line fill="none" stroke="#bebebe" stroke-linecap="round" x1="-160.0" x2="-160.0" y1="400.0" y2="-400.0"/><line fill="none" stroke="#bebebe" stroke-linecap="round" x1="-150.0" x2="-150.0" y1="400.0" y2="-400.0"/><line fill="none" stroke="#bebebe" stroke-linecap="round" x1="-140.0" x2="-140.0" y1="400.0" y2="-400.0"/><line fill="none" stroke="#bebebe" stroke-linecap="round" x1="-130.0" x2="-130.0" y1="400.0" y2="-400.0"/><line fill="none" stroke="#bebebe" stroke-linecap="round" x1="-120.0" x2="-120.0" y1="400.0" y2="-400.0"/><line fill="none" stroke="#bebebe" stroke-linecap="round" x1="-110.0" x2="-110.0" y1="400.0" y2="-400.0"/><line fill="none" stroke="#bebebe" stroke-linecap="round" x1="-100.0" x2="-100.0" y1="400.0" y2="-400.0"/><line fill="none" stroke="#bebebe" stroke-linecap="round" x1="-90.0" x2="-90.0" y1="400.0" y2="-400.0"/><line fill="none" stroke="#bebebe" stroke-linecap="round" x1="-80.0" x2="-80.0" y1="400.0" y2="-400.0"/><line fill="none" stroke="#bebebe" stroke-linecap="round" x1="-70.0" x2="-70.0" y1="400.0" y2="-400.0"/><line fill="none" stroke="#bebebe" stroke-linecap="round" x1="-60.0" x2="-60.0" y1="400.0" y2="-400.0"/><line fill="none" stroke="#bebebe" stroke-linecap="round" x1="-50.0" x2="-50.0" y1="400.0" y2="-400.0"/><line fill="none" stroke="#bebebe" stroke-linecap="round" x1="-40.0" x2="-40.0" y1="400.0" y2="-400.0"/><line fill="none" stroke="#bebebe" stroke-linecap="round" x1="-30.0" x2="-30.0" y1="400.0" y2="-400.0"/><line fill="none" stroke="#bebebe" stroke-linecap="round" x1="-20.0" x2="-20.0" y1="400.0" y2="-400.0"/><line fill="none" stroke="#bebebe" stroke-linecap="round" x1="-10.0" x2="-10.0" y1="400.0" y2="-400.0"/><line fill="none" stroke="#bebebe" stroke-linecap="round" x1="0.0" x2="0.0" y1="400.0" y2="-400.0"/><line fill="none" stroke="#bebebe" stroke-linecap="round" x1="10.0" x2="10.0" y1="400.0" y2="-400.0"/><line fill="none" stroke="#bebebe" stroke-linecap="round" x1="20.0" x2="20.0" y1="400.0" y2="-400.0"/><line fill="none" stroke="#bebebe" stroke-linecap="round" x1="30.0" x2="30.0" y1="400.0" y2="-400.0"/><line fill="none" stroke="#bebebe" stroke-linecap="round" x1="40.0" x2="40.0" y1="400.0" y2="-400.0"/><line fill="none" stroke="#bebebe" stroke-linecap="round" x1="50.0" x2="50.0" y1="400.0" y2="-400.0"/><line fill="none" stroke="#bebebe" stroke-linecap="round" x1="60.0" x2="60.0" y1="400.0" y2="-400.0"/><line fill="none" stroke="#bebebe" stroke-linecap="round" x1="70.0" x2="70.0" y1="400.0" y2="-400.0"/><line fill="none" stroke="#bebebe" stroke-linecap="round" x1="80.0" x2="80.0" y1="400.0" y2="-400.0"/><line fill="none" stroke="#bebebe" stroke-linecap="round" x1="90.0" x2="90.0" y1="400.0" y2="-400.0"/><line fill="none" stroke="#bebebe" stroke-linecap="round" x1="100.0" x2="100.0" y1="400.0" y2="-400.0"/><line fill="none" stroke="#bebebe" stroke-linecap="round" x1="110.0" x2="110.0" y1="400.0" y2="-400.0"/><line fill="none" stroke="#bebebe" stroke-linecap="round" x1="120.0" x2="120.0" y1="400.0" y2="-400.0"/><line fill="none" stroke="#bebebe" stroke-linecap="round" x1="130.0" x2="130.0" y1="400.0" y2="-400.0"/><line fill="none" stroke="#bebebe" stroke-linecap="round" x1="140.0" x2="140.0" y1="400.0" y2="-400.0"/><line fill="none" stroke="#bebebe" stroke-linecap="round" x1="150.0" x2="150.0" y1="400.0" y2="-400.0"/><line fill="none" stroke="#bebebe" stroke-linecap="round" x1="160.0" x2="160.0" y1="400.0" y2="-400.0"/><line fill="none" stroke="#bebebe" stroke-linecap="round" x1="170.0" x2="170.0" y1="400.0" y2="-400.0"/><line fill="none" stroke="#bebebe" stroke-linecap="round" x1="180.0" x2="180.0" y1="400.0" y2="-400.0"/><line fill="none" stroke="#bebebe" stroke-linecap="round" x1="190.0" x2="190.0" y1="400.0" y2="-400.0"/><line fill="none" stroke="#bebebe" stroke-linecap="round" x1="200.0" x2="200.0" y1="400.0" y2="-400.0"/><line fill="none" stroke="#bebebe" stroke-linecap="round" x1="210.0" x2="210.0" y1="400.0" y2="-400.0"/><line fill="none" stroke="#bebebe" stroke-linecap="round" x1="220.0" x2="220.0" y1="400.0" y2="-400.0"/><line fill="none" stroke="#bebebe" stroke-linecap="round" x1="230.0" x2="230.0" y1="400.0" y2="-400.0"/><line fill="none" stroke="#bebebe" stroke-linecap="round" x1="240.0" x2="240.0" y1="400.0" y2="-400.0"/><line fill="none" stroke="#bebebe" stroke-linecap="round" x1="250.0" x2="250.0" y1="400.0" y2="-400.0"/><line fill="none" stroke="#bebebe" stroke-linecap="round" x1="260.0" x2="260.0" y1="400.0" y2="-400.0"/><line fill="none" stroke="#bebebe" stroke-linecap="round" x1="270.0" x2="270.0" y1="400.0" y2="-400.0"/><line fill="none" stroke="#bebebe" stroke-linecap="round" x1="280.0" x2="280.0" y1="400.0" y2="-400.0"/><line fill="none" stroke="#bebebe" stroke-linecap="round" x1="290.0" x2="290.0" y1="400.0" y2="-400.0"/><line fill="none" stroke="#bebebe" stroke-linecap="round" x1="300.0" x2="300.0" y1="400.0" y2="-400.0"/><line fill="none" stroke="#bebebe" stroke-linecap="round" x1="310.0" x2="310.0" y1="400.0" y2="-400.0"/><line fill="none" stroke="#bebebe" stroke-linecap="round" x1="320.0" x2="320.0" y1="400.0" y2="-400.0"/><line fill="none" stroke="#bebebe" stroke-linecap="round" x1="330.0" x2="330.0" y1="400.0" y2="-400.0"/><line fill="none" stroke="#bebebe" stroke-linecap="round" x1="340.0" x2="340.0" y1="400.0" y2="-400.0"/><line fill="none" stroke="#bebebe" stroke-linecap="round" x1="350.0" x2="350.0" y1="400.0" y2="-400.0"/><line fill="none" stroke="#bebebe" stroke-linecap="round" x1="360.0" x2="360.0" y1="400.0" y2="-400.0"/><line fill="none" stroke="#bebebe" stroke-linecap="round" x1="370.0" x2="370.0" y1="400.0" y2="-400.0"/><line fill="none" stroke="#bebebe" stroke-linecap="round" x1="380.0" x2="380.0" y1="400.0" y2="-400.0"/><line fill="none" stroke="#bebebe" stroke-linecap="round" x1="390.0" x2="390.0" y1="400.0" y2="-400.0"/><line fill="none" stroke="#bebebe" stroke-linecap="round" x1="400.0" x2="400.0" y1="400.0" y2="-400.0"/><line fill="none" stroke="#bebebe" stroke-linecap="round" x1="-400.0" x2="400.0" y1="400.0" y2="400.0"/><line fill="none" stroke="#bebebe" stroke-linecap="round" x1="-400.0" x2="400.0" y1="390.0" y2="390.0"/><line fill="none" stroke="#bebebe" stroke-linecap="round" x1="-400.0" x2="400.0" y1="380.0" y2="380.0"/><line fill="none" stroke="#bebebe" stroke-linecap="round" x1="-400.0" x2="400.0" y1="370.0" y2="370.0"/><line fill="none" stroke="#bebebe" stroke-linecap="round" x1="-400.0" x2="400.0" y1="360.0" y2="360.0"/><line fill="none" stroke="#bebebe" stroke-linecap="round" x1="-400.0" x2="400.0" y1="350.0" y2="350.0"/><line fill="none" stroke="#bebebe" stroke-linecap="round" x1="-400.0" x2="400.0" y1="340.0" y2="340.0"/><line fill="none" stroke="#bebebe" stroke-linecap="round" x1="-400.0" x2="400.0" y1="330.0" y2="330.0"/><line fill="none" stroke="#bebebe" stroke-linecap="round" x1="-400.0" x2="400.0" y1="320.0" y2="320.0"/><line fill="none" stroke="#bebebe" stroke-linecap="round" x1="-400.0" x2="400.0" y1="310.0" y2="310.0"/><line fill="none" stroke="#bebebe" stroke-linecap="round" x1="-400.0" x2="400.0" y1="300.0" y2="300.0"/><line fill="none" stroke="#bebebe" stroke-linecap="round" x1="-400.0" x2="400.0" y1="290.0" y2="290.0"/><line fill="none" stroke="#bebebe" stroke-linecap="round" x1="-400.0" x2="400.0" y1="280.0" y2="280.0"/><line fill="none" stroke="#bebebe" stroke-linecap="round" x1="-400.0" x2="400.0" y1="270.0" y2="270.0"/><line fill="none" stroke="#bebebe" stroke-linecap="round" x1="-400.0" x2="400.0" y1="260.0" y2="260.0"/><line fill="none" stroke="#bebebe" stroke-linecap="round" x1="-400.0" x2="400.0" y1="250.0" y2="250.0"/><line fill="none" stroke="#bebebe" stroke-linecap="round" x1="-400.0" x2="400.0" y1="240.0" y2="240.0"/><line fill="none" stroke="#bebebe" stroke-linecap="round" x1="-400.0" x2="400.0" y1="230.0" y2="230.0"/><line fill="none" stroke="#bebebe" stroke-linecap="round" x1="-400.0" x2="400.0" y1="220.0" y2="220.0"/><line fill="none" stroke="#bebebe" stroke-linecap="round" x1="-400.0" x2="400.0" y1="210.0" y2="210.0"/><line fill="none" stroke="#bebebe" stroke-linecap="round" x1="-400.0" x2="400.0" y1="200.0" y2="200.0"/><line fill="none" stroke="#bebebe" stroke-linecap="round" x1="-400.0" x2="400.0" y1="190.0" y2="190.0"/><line fill="none" stroke="#bebebe" stroke-linecap="round" x1="-400.0" x2="400.0" y1="180.0" y2="180.0"/><line fill="none" stroke="#bebebe" stroke-linecap="round" x1="-400.0" x2="400.0" y1="170.0" y2="170.0"/><line fill="none" stroke="#bebebe" stroke-linecap="round" x1="-400.0" x2="400.0" y1="160.0" y2="160.0"/><line fill="none" stroke="#bebebe" stroke-linecap="round" x1="-400.0" x2="400.0" y1="150.0" y2="150.0"/><line fill="none" stroke="#bebebe" stroke-linecap="round" x1="-400.0" x2="400.0" y1="140.0" y2="140.0"/><line fill="none" stroke="#bebebe" stroke-linecap="round" x1="-400.0" x2="400.0" y1="130.0" y2="130.0"/><line fill="none" stroke="#bebebe" stroke-linecap="round" x1="-400.0" x2="400.0" y1="120.0" y2="120.0"/><line fill="none" stroke="#bebebe" stroke-linecap="round" x1="-400.0" x2="400.0" y1="110.0" y2="110.0"/><line fill="none" stroke="#bebebe" stroke-linecap="round" x1="-400.0" x2="400.0" y1="100.0" y2="100.0"/><line fill="none" stroke="#bebebe" stroke-linecap="round" x1="-400.0" x2="400.0" y1="90.0" y2="90.0"/><line fill="none" stroke="#bebebe" stroke-linecap="round" x1="-400.0" x2="400.0" y1="80.0" y2="80.0"/><line fill="none" stroke="#bebebe" stroke-linecap="round" x1="-400.0" x2="400.0" y1="70.0" y2="70.0"/><line fill="none" stroke="#bebebe" stroke-linecap="round" x1="-400.0" x2="400.0" y1="60.0" y2="60.0"/><line fill="none" stroke="#bebebe" stroke-linecap="round" x1="-400.0" x2="400.0" y1="50.0" y2="50.0"/><line fill="none" stroke="#bebebe" stroke-linecap="round" x1="-400.0" x2="400.0" y1="40.0" y2="40.0"/><line fill="none" stroke="#bebebe" stroke-linecap="round" x1="-400.0" x2="400.0" y1="30.0" y2="30.0"/><line fill="none" stroke="#bebebe" stroke-linecap="round" x1="-400.0" x2="400.0" y1="20.0" y2="20.0"/><line fill="none" stroke="#bebebe" stroke-linecap="round" x1="-400.0" x2="400.0" y1="10.0" y2="10.0"/><line fill="none" stroke="#bebebe" stroke-linecap="round" x1="-400.0" x2="400.0" y1="0.0" y2="0.0"/><line fill="none" stroke="#bebebe" stroke-linecap="round" x1="-400.0" x2="400.0" y1="-10.0" y2="-10.0"/><line fill="none" stroke="#bebebe" stroke-linecap="round" x1="-400.0" x2="400.0" y1="-20.0" y2="-20.0"/><line fill="none" stroke="#bebebe" stroke-linecap="round" x1="-400.0" x2="400.0" y1="-30.0" y2="-30.0"/><line fill="none" stroke="#bebebe" stroke-linecap="round" x1="-400.0" x2="400.0" y1="-40.0" y2="-40.0"/><line fill="none" stroke="#bebebe" stroke-linecap="round" x1="-400.0" x2="400.0" y1="-50.0" y2="-50.0"/><line fill="none" stroke="#bebebe" stroke-linecap="round" x1="-400.0" x2="400.0" y1="-60.0" y2="-60.0"/><line fill="none" stroke="#bebebe" stroke-linecap="round" x1="-400.0" x2="400.0" y1="-70.0" y2="-70.0"/><line fill="none" stroke="#bebebe" stroke-linecap="round" x1="-400.0" x2="400.0" y1="-80.0" y2="-80.0"/><line fill="none" stroke="#bebebe" stroke-linecap="round" x1="-400.0" x2="400.0" y1="-90.0" y2="-90.0"/><line fill="none" stroke="#bebebe" stroke-linecap="round" x1="-400.0" x2="400.0" y1="-100.0" y2="-100.0"/><line fill="none" stroke="#bebebe" stroke-linecap="round" x1="-400.0" x2="400.0" y1="-110.0" y2="-110.0"/><line fill="none" stroke="#bebebe" stroke-linecap="round" x1="-400.0" x2="400.0" y1="-120.0" y2="-120.0"/><line fill="none" stroke="#bebebe" stroke-linecap="round" x1="-400.0" x2="400.0" y1="-130.0" y2="-130.0"/><line fill="none" stroke="#bebebe" stroke-linecap="round" x1="-400.0" x2="400.0" y1="-140.0" y2="-140.0"/><line fill="none" stroke="#bebebe" stroke-linecap="round" x1="-400.0" x2="400.0" y1="-150.0" y2="-150.0"/><line fill="none" stroke="#bebebe" stroke-linecap="round" x1="-400.0" x2="400.0" y1="-160.0" y2="-160.0"/><line fill="none" stroke="#bebebe" stroke-linecap="round" x1="-400.0" x2="400.0" y1="-170.0" y2="-170.0"/><line fill="none" stroke="#bebebe" stroke-linecap="round" x1="-400.0" x2="400.0" y1="-180.0" y2="-180.0"/><line fill="none" stroke="#bebebe" stroke-linecap="round" x1="-400.0" x2="400.0" y1="-190.0" y2="-190.0"/><line fill="none" stroke="#bebebe" stroke-linecap="round" x1="-400.0" x2="400.0" y1="-200.0" y2="-200.0"/><line fill="none" stroke="#bebebe" stroke-linecap="round" x1="-400.0" x2="400.0" y1="-210.0" y2="-210.0"/><line fill="none" stroke="#bebebe" stroke-linecap="round" x1="-400.0" x2="400.0" y1="-220.0" y2="-220.0"/><line fill="none" stroke="#bebebe" stroke-linecap="round" x1="-400.0" x2="400.0" y1="-230.0" y2="-230.0"/><line fill="none" stroke="#bebebe" stroke-linecap="round" x1="-400.0" x2="400.0" y1="-240.0" y2="-240.0"/><line fill="none" stroke="#bebebe" stroke-linecap="round" x1="-400.0" x2="400.0" y1="-250.0" y2="-250.0"/><line fill="none" stroke="#bebebe" stroke-linecap="round" x1="-400.0" x2="400.0" y1="-260.0" y2="-260.0"/><line fill="none" stroke="#bebebe" stroke-linecap="round" x1="-400.0" x2="400.0" y1="-270.0" y2="-270.0"/><line fill="none" stroke="#bebebe" stroke-linecap="round" x1="-400.0" x2="400.0" y1="-280.0" y2="-280.0"/><line fill="none" stroke="#bebebe" stroke-linecap="round" x1="-400.0" x2="400.0" y1="-290.0" y2="-290.0"/><line fill="none" stroke="#bebebe" stroke-linecap="round" x1="-400.0" x2="400.0" y1="-300.0" y2="-300.0"/><line fill="none" stroke="#bebebe" stroke-linecap="round" x1="-400.0" x2="400.0" y1="-310.0" y2="-310.0"/><line fill="none" stroke="#bebebe" stroke-linecap="round" x1="-400.0" x2="400.0" y1="-320.0" y2="-320.0"/><line fill="none" stroke="#bebebe" stroke-linecap="round" x1="-400.0" x2="400.0" y1="-330.0" y2="-330.0"/><line fill="none" stroke="#bebebe" stroke-linecap="round" x1="-400.0" x2="400.0" y1="-340.0" y2="-340.0"/><line fill="none" stroke="#bebebe" stroke-linecap="round" x1="-400.0" x2="400.0" y1="-350.0" y2="-350.0"/><line fill="none" stroke="#bebebe" stroke-linecap="round" x1="-400.0" x2="400.0" y1="-360.0" y2="-360.0"/><line fill="none" stroke="#bebebe" stroke-linecap="round" x1="-400.0" x2="400.0" y1="-370.0" y2="-370.0"/><line fill="none" stroke="#bebebe" stroke-linecap="round" x1="-400.0" x2="400.0" y1="-380.0" y2="-380.0"/><line fill="none" stroke="#bebebe" stroke-linecap="round" x1="-400.0" x2="400.0" y1="-390.0" y2="-390.0"/><line fill="none" stroke="#bebebe" stroke-linecap="round" x1="-400.0" x2="400.0" y1="-400.0" y2="-400.0"/><polyline fill="none" points="0.0,400.0 0.0,400.0 0.0,300.0 0.0,200.0 0.0,100.0 0.0,0.0 0.0,-100.0 0.0,-200.0 0.0,-300.0 0.0,-400.0" stroke="#bebebe" stroke-linecap="round" stroke-linejoin="round" stroke-width="2.0"/><text fill="#bebebe" font-family="Liberation Sans" font-size="8.0pt" text-anchor="middle" x="-1.0" y="397">-400</text><polygon fill="#bebebe" fill-rule="evenodd" points="10.0,402.0 10.0,398.0 -10.0,398.0 -10.0,402.0" stroke="#bebebe" stroke-linejoin="round"/><text fill="#bebebe" font-family="Liberation Sans" font-size="8.0pt" text-anchor="middle" x="-1.0" y="297">-300</text><polygon fill="#bebebe" fill-rule="evenodd" points="10.0,302.0 10.0,298.0 -10.0,298.0 -10.0,302.0" stroke="#bebebe" stroke-linejoin="round"/><text fill="#bebebe" font-family="Liberation Sans" font-size="8.0pt" text-anchor="middle" x="-1.0" y="197">-200</text><polygon fill="#bebebe" fill-rule="evenodd" points="10.0,202.0 10.0,198.0 -10.0,198.0 -10.0,202.0" stroke="#bebebe" stroke-linejoin="round"/><text fill="#bebebe" font-family="Liberation Sans" font-size="8.0pt" text-anchor="middle" x="-1.0" y="97">-100</text><polygon fill="#bebebe" fill-rule="evenodd" points="10.0,102.0 10.0,98.0 -10.0,98.0 -10.0,102.0" stroke="#bebebe" stroke-linejoin="round"/><text fill="#bebebe" font-family="Liberation Sans" font-size="8.0pt" text-anchor="middle" x="-1.0" y="-3">0</text><polygon fill="#bebebe" fill-rule="evenodd" points="10.0,2.0 10.0,-2.0 -10.0,-2.0 -10.0,2.0" stroke="#bebebe" stroke-linejoin="round"/><text fill="#bebebe" font-family="Liberation Sans" font-size="8.0pt" text-anchor="middle" x="-1.0" y="-103">100</text><polygon fill="#bebebe" fill-rule="evenodd" points="10.0,-98.0 10.0,-102.0 -10.0,-102.0 -10.0,-98.0" stroke="#bebebe" stroke-linejoin="round"/><text fill="#bebebe" font-family="Liberation Sans" font-size="8.0pt" text-anchor="middle" x="-1.0" y="-203">200</text><polygon fill="#bebebe" fill-rule="evenodd" points="10.0,-198.0 10.0,-202.0 -10.0,-202.0 -10.0,-198.0" stroke="#bebebe" stroke-linejoin="round"/><text fill="#bebebe" font-family="Liberation Sans" font-size="8.0pt" text-anchor="middle" x="-1.0" y="-303">300</text><polygon fill="#bebebe" fill-rule="evenodd" points="10.0,-298.0 10.0,-302.0 -10.0,-302.0 -10.0,-298.0" stroke="#bebebe" stroke-linejoin="round"/><text fill="#bebebe" font-family="Liberation Sans" font-size="8.0pt" text-anchor="middle" x="-1.0" y="-403">400</text><polygon fill="#bebebe" fill-rule="evenodd" points="10.0,-398.0 10.0,-402.0 -10.0,-402.0 -10.0,-398.0" stroke="#bebebe" stroke-linejoin="round"/><polyline fill="none" points="-400.0,0.0 -400.0,0.0 -300.0,0.0 -200.0,0.0 -100.0,0.0 0.0,0.0 100.0,0.0 200.0,0.0 300.0,0.0 400.0,0.0" stroke="#bebebe" stroke-linecap="round" stroke-linejoin="round" stroke-width="2.0"/><text fill="#bebebe" font-family="Liberation Sans" font-size="8.0pt" text-anchor="middle" x="-401.0" y="-3">-400</text><polygon fill="#bebebe" fill-rule="evenodd" points="-398.0,10.0 -398.0,-10.0 -402.0,-10.0 -402.0,10.0" stroke="#bebebe" stroke-linejoin="round"/><text fill="#bebebe" font-family="Liberation Sans" font-size="8.0pt" text-anchor="middle" x="-301.0" y="-3">-300</text><polygon fill="#bebebe" fill-rule="evenodd" points="-298.0,10.0 -298.0,-10.0 -302.0,-10.0 -302.0,10.0" stroke="#bebebe" stroke-linejoin="round"/><text fill="#bebebe" font-family="Liberation Sans" font-size="8.0pt" text-anchor="middle" x="-201.0" y="-3">-200</text><polygon fill="#bebebe" fill-rule="evenodd" points="-198.0,10.0 -198.0,-10.0 -202.0,-10.0 -202.0,10.0" stroke="#bebebe" stroke-linejoin="round"/><text fill="#bebebe" font-family="Liberation Sans" font-size="8.0pt" text-anchor="middle" x="-101.0" y="-3">-100</text><polygon fill="#bebebe" fill-rule="evenodd" points="-98.0,10.0 -98.0,-10.0 -102.0,-10.0 -102.0,10.0" stroke="#bebebe" stroke-linejoin="round"/><text fill="#bebebe" font-family="Liberation Sans" font-size="8.0pt" text-anchor="middle" x="-1.0" y="-3">0</text><polygon fill="#bebebe" fill-rule="evenodd" points="2.0,10.0 2.0,-10.0 -2.0,-10.0 -2.0,10.0" stroke="#bebebe" stroke-linejoin="round"/><text fill="#bebebe" font-family="Liberation Sans" font-size="8.0pt" text-anchor="middle" x="99.0" y="-3">100</text><polygon fill="#bebebe" fill-rule="evenodd" points="102.0,10.0 102.0,-10.0 98.0,-10.0 98.0,10.0" stroke="#bebebe" stroke-linejoin="round"/><text fill="#bebebe" font-family="Liberation Sans" font-size="8.0pt" text-anchor="middle" x="199.0" y="-3">200</text><polygon fill="#bebebe" fill-rule="evenodd" points="202.0,10.0 202.0,-10.0 198.0,-10.0 198.0,10.0" stroke="#bebebe" stroke-linejoin="round"/><text fill="#bebebe" font-family="Liberation Sans" font-size="8.0pt" text-anchor="middle" x="299.0" y="-3">300</text><polygon fill="#bebebe" fill-rule="evenodd" points="302.0,10.0 302.0,-10.0 298.0,-10.0 298.0,10.0" stroke="#bebebe" stroke-linejoin="round"/><text fill="#bebebe" font-family="Liberation Sans" font-size="8.0pt" text-anchor="middle" x="399.0" y="-3">400</text><polygon fill="#bebebe" fill-rule="evenodd" points="402.0,10.0 402.0,-10.0 398.0,-10.0 398.0,10.0" stroke="#bebebe" stroke-linejoin="round"/><polyline fill="none" points="400.0,0.0 397.80875814730933,-41.81138530706138 391.2590402935223,-83.16467632710372 380.42260651806146,-123.60679774997894 365.4181830570404,-162.69465723032005 346.4101615137755,-199.99999999999994 323.606797749979,-235.11410091698917 297.2579301909578,-267.6522425435432 267.65224254354337,-297.2579301909576 235.11410091698934,-323.60679774997885 200.0000000000001,-346.41016151377534 162.69465723032022,-365.4181830570402 123.60679774997914,-380.4226065180613 83.16467632710393,-391.2590402935221 41.811385307061634,-397.80875814730916 2.913225216616411e-13,-399.99999999999983 -41.811385307061045,-397.80875814730916 -83.16467632710334,-391.2590402935221 -123.60679774997851,-380.4226065180613 -162.69465723031956,-365.41818305704027 -199.99999999999943,-346.4101615137754 -235.11410091698863,-323.60679774997897 -267.6522425435426,-297.2579301909577 -297.257930190957,-267.65224254354337 -323.6067977499782,-235.1141009169894 -346.4101615137747,-200.00000000000023 -365.4181830570396,-162.6946572303204 -380.42260651806066,-123.60679774997936 -391.2590402935215,-83.16467632710422 -397.80875814730854,-41.81138530706197 -399.9999999999992,-6.821210263296962e-13 -397.80875814730854,41.811385307060604 -391.2590402935215,83.16467632710285 -380.4226065180607,123.606797749978 -365.4181830570397,162.69465723031902 -346.4101615137749,199.99999999999886 -323.60679774997845,235.11410091698804 -297.25793019095727,267.652242543542 -267.65224254354297,297.25793019095636 -235.11410091698903,323.60679774997755 -199.9999999999999,346.41016151377397 -162.6946572303201,365.41818305703885 -123.60679774997912,380.42260651805987" stroke="#8080ff" stroke-linecap="round" stroke-linejoin="round" stroke-width="2.0"/><polygon fill="none" fill-rule="evenodd" points="0.0,0.0 0.0,0.0 0.0,0.0" stroke-linejoin="round"/><polyline fill="none" points="300.0,0.0 298.356568610482,-31.358538980296036 293.44428022014165,-62.37350724532779 285.31695488854604,-92.70509831248421 274.06363729278024,-122.02099292274004 259.80762113533154,-149.99999999999997 242.70509831248418,-176.3355756877419 222.94344764321824,-200.7391819076574 200.73918190765744,-222.9434476432182 176.33557568774194,-242.70509831248415 150.0,-259.8076211353315 122.02099292274008,-274.06363729278013 92.70509831248427,-285.3169548885459 62.37350724532787,-293.44428022014154 31.358538980296146,-298.3565686104819 1.4210854715202004e-13,-299.9999999999999 -31.358538980295858,-298.3565686104819 -62.37350724532757,-293.4442802201416 -92.70509831248395,-285.316954888546 -122.02099292273975,-274.0636372927802 -149.99999999999966,-259.80762113533154 -176.33557568774154,-242.7050983124842 -200.739181907657,-222.9434476432183 -222.94344764321778,-200.73918190765752 -242.7050983124837,-176.33557568774205 -259.80762113533103,-150.00000000000017 -274.0636372927797,-122.02099292274029 -285.31695488854547,-92.70509831248452 -293.4442802201411,-62.37350724532817 -298.3565686104814,-31.358538980296483 -299.99999999999943,-5.151434834260726e-13 -298.3565686104815,31.358538980295453 -293.4442802201412,62.37350724532714 -285.3169548885456,92.7050983124835 -274.06363729277984,122.02099292273927 -259.8076211353312,149.99999999999915 -242.7050983124839,176.33557568774103 -222.943447643218,200.73918190765647 -200.73918190765727,222.9434476432172 -176.33557568774182,242.70509831248313 -149.99999999999997,259.80762113533046 -122.02099292274013,274.0636372927791 -92.7050983124844,285.3169548885449" stroke="#ff8080" stroke-linecap="round" stroke-linejoin="round" stroke-width="2.0"/><polygon fill="#8080ff" fill-rule="evenodd" points="400.0,-2.0 400.0,2.0 410.0,-6.123233995736766e-16" stroke="#8080ff" stroke-linejoin="round"/><text fill="#8080ff" font-family="Liberation Sans" font-size="8.0pt" text-anchor="middle" x="399.0" y="-3">90.0</text><polygon fill="#ff8080" fill-rule="evenodd" points="300.0,-2.0 300.0,2.0 310.0,-6.123233995736766e-16" stroke="#ff8080" stroke-linejoin="round"/><text fill="#ff8080" font-family="Liberation Sans" font-size="8.0pt" text-anchor="middle" x="299.0" y="-3">0</text><polygon fill="#8080ff" fill-rule="evenodd" points="345.4101615137755,-201.7320508075688 347.4101615137755,-198.26794919243108 355.0704155516199,-204.99999999999994" stroke="#8080ff" stroke-linejoin="round"/><text fill="#8080ff" font-family="Liberation Sans" font-size="8.0pt" text-anchor="middle" x="345.4101615137755" y="-203">60.0</text><polygon fill="#ff8080" fill-rule="evenodd" points="258.80762113533154,-151.73205080756884 260.80762113533154,-148.2679491924311 268.4678751731759,-154.99999999999997" stroke="#ff8080" stroke-linejoin="round"/><text fill="#ff8080" font-family="Liberation Sans" font-size="8.0pt" text-anchor="middle" x="258.80762113533154" y="-153">30</text><polygon fill="#8080ff" fill-rule="evenodd" points="198.26794919243125,-347.41016151377534 201.73205080756898,-345.41016151377534 205.0000000000001,-355.0704155516197" stroke="#8080ff" stroke-linejoin="round"/><text fill="#8080ff" font-family="Liberation Sans" font-size="8.0pt" text-anchor="middle" x="199.0000000000001" y="-349">30.0</text><polygon fill="#ff8080" fill-rule="evenodd" points="148.26794919243113,-260.8076211353315 151.73205080756887,-258.8076211353315 155.0,-268.46787517317586" stroke="#ff8080" stroke-linejoin="round"/><text fill="#ff8080" font-family="Liberation Sans" font-size="8.0pt" text-anchor="middle" x="149.0" y="-263">60</text><polygon fill="#8080ff" fill-rule="evenodd" points="-1.9999999999997087,-399.99999999999983 2.0000000000002913,-399.99999999999983 2.9320820006747403e-13,-409.99999999999983" stroke="#8080ff" stroke-linejoin="round"/><text fill="#8080ff" font-family="Liberation Sans" font-size="8.0pt" text-anchor="middle" x="-0.9999999999997087" y="-403">0.0</text><polygon fill="#ff8080" fill-rule="evenodd" points="-1.999999999999858,-299.9999999999999 2.000000000000142,-299.9999999999999 1.4399422555785296e-13,-309.9999999999999" stroke="#ff8080" stroke-linejoin="round"/><text fill="#ff8080" font-family="Liberation Sans" font-size="8.0pt" text-anchor="middle" x="-0.9999999999998579" y="-303">90</text><polygon fill="#8080ff" fill-rule="evenodd" points="-201.7320508075683,-345.4101615137754 -198.26794919243056,-347.4101615137754 -204.99999999999943,-355.07041555161976" stroke="#8080ff" stroke-linejoin="round"/><text fill="#8080ff" font-family="Liberation Sans" font-size="8.0pt" text-anchor="middle" x="-200.99999999999943" y="-349">30.0</text><polygon fill="#ff8080" fill-rule="evenodd" points="-151.73205080756853,-258.80762113533154 -148.2679491924308,-260.80762113533154 -154.99999999999966,-268.4678751731759" stroke="#ff8080" stroke-linejoin="round"/><text fill="#ff8080" font-family="Liberation Sans" font-size="8.0pt" text-anchor="middle" x="-150.99999999999966" y="-263">120</text><polygon fill="#8080ff" fill-rule="evenodd" points="-347.4101615137747,-198.26794919243136 -345.4101615137747,-201.7320508075691 -355.0704155516191,-205.00000000000023" stroke="#8080ff" stroke-linejoin="round"/><text fill="#8080ff" font-family="Liberation Sans" font-size="8.0pt" text-anchor="middle" x="-347.4101615137747" y="-203">60.0</text><polygon fill="#ff8080" fill-rule="evenodd" points="-260.80762113533103,-148.2679491924313 -258.80762113533103,-151.73205080756904 -268.4678751731754,-155.00000000000017" stroke="#ff8080" stroke-linejoin="round"/><text fill="#ff8080" font-family="Liberation Sans" font-size="8.0pt" text-anchor="middle" x="-260.80762113533103" y="-153">150</text><polygon fill="#8080ff" fill-rule="evenodd" points="-399.9999999999992,1.9999999999993179 -399.9999999999992,-2.000000000000682 -409.9999999999992,-6.851863166991933e-13" stroke="#8080ff" stroke-linejoin="round"/><text fill="#8080ff" font-family="Liberation Sans" font-size="8.0pt" text-anchor="middle" x="-400.9999999999992" y="-3">90.0</text><polygon fill="#ff8080" fill-rule="evenodd" points="-299.99999999999943,1.9999999999994849 -299.99999999999943,-2.000000000000515 -309.99999999999943,-5.182087737955698e-13" stroke="#ff8080" stroke-linejoin="round"/><text fill="#ff8080" font-family="Liberation Sans" font-size="8.0pt" text-anchor="middle" x="-300.99999999999943" y="-3">180</text><polygon fill="#8080ff" fill-rule="evenodd" points="-345.4101615137749,201.73205080756773 -347.4101615137749,198.26794919243 -355.07041555161925,204.99999999999886" stroke="#8080ff" stroke-linejoin="round"/><text fill="#8080ff" font-family="Liberation Sans" font-size="8.0pt" text-anchor="middle" x="-347.4101615137749" y="197">120.0</text><polygon fill="#ff8080" fill-rule="evenodd" points="-258.8076211353312,151.73205080756802 -260.8076211353312,148.26794919243028 -268.46787517317557,154.99999999999915" stroke="#ff8080" stroke-linejoin="round"/><text fill="#ff8080" font-family="Liberation Sans" font-size="8.0pt" text-anchor="middle" x="-260.8076211353312" y="147">210</text><polygon fill="#8080ff" fill-rule="evenodd" points="-198.26794919243102,347.41016151377397 -201.73205080756875,345.41016151377397 -204.9999999999999,355.07041555161834" stroke="#8080ff" stroke-linejoin="round"/><text fill="#8080ff" font-family="Liberation Sans" font-size="8.0pt" text-anchor="middle" x="-200.9999999999999" y="343">150.0</text><polyline fill="none" points="-123.60679774997912,380.42260651805987 -83.16467632710402,391.2590402935207 -41.81138530706181,397.80875814730774 -5.684341886080801e-13,399.9999999999984 41.811385307060675,397.80875814730774 83.16467632710288,391.2590402935207 123.60679774997797,380.4226065180599 162.69465723031897,365.4181830570389 199.99999999999875,346.4101615137741 235.11410091698787,323.6067977499777 267.6522425435418,297.25793019095653 297.2579301909561,267.65224254354223 323.60679774997726,235.11410091698832 346.4101615137737,199.9999999999992 365.4181830570385,162.69465723031945 380.4226065180595,123.6067977499785 391.25904029352034,83.16467632710344 397.8087581473074,41.811385307061265 399.99999999999807,5.684341886080802e-14" stroke="#8080ff" stroke-linecap="round" stroke-linejoin="round" stroke-width="2.0"/><polygon fill="#ff8080" fill-rule="evenodd" points="-148.2679491924311,260.80762113533046 -151.73205080756884,258.80762113533046 -154.99999999999997,268.46787517317483" stroke="#ff8080" stroke-linejoin="round"/><text fill="#ff8080" font-family="Liberation Sans" font-size="8.0pt" text-anchor="middle" x="-150.99999999999997" y="257">240</text><polyline fill="none" points="-92.7050983124844,285.3169548885449 -62.37350724532807,293.4442802201405 -31.35853898029642,298.3565686104808 -4.867217739956686e-13,299.9999999999988 31.358538980295446,298.35656861048085 62.3735072453271,293.44428022014057 92.70509831248341,285.316954888545 122.02099292273914,274.0636372927793 149.99999999999898,259.8076211353307 176.33557568774083,242.70509831248341 200.73918190765627,222.94344764321755 222.943447643217,200.73918190765684 242.7050983124829,176.33557568774143 259.80762113533024,149.9999999999996 274.0636372927789,122.02099292273978 285.31695488854467,92.70509831248407 293.4442802201403,62.37350724532777 298.35656861048056,31.358538980296142 299.9999999999986,2.3447910280083306e-13" stroke="#ff8080" stroke-linecap="round" stroke-linejoin="round" stroke-width="2.0"/><polygon fill="#8080ff" fill-rule="evenodd" points="1.9999999999994316,399.9999999999984 -2.0000000000005684,399.9999999999984 -5.720545904898899e-13,409.9999999999984" stroke="#8080ff" stroke-linejoin="round"/><text fill="#8080ff" font-family="Liberation Sans" font-size="8.0pt" text-anchor="middle" x="-1.0000000000005684" y="397">180.0</text><polygon fill="#ff8080" fill-rule="evenodd" points="1.9999999999995133,299.9999999999988 -2.0000000000004867,299.9999999999988 -4.903421758774783e-13,309.9999999999988" stroke="#ff8080" stroke-linejoin="round"/><text fill="#ff8080" font-family="Liberation Sans" font-size="8.0pt" text-anchor="middle" x="-1.0000000000004867" y="297">270</text><polygon fill="#8080ff" fill-rule="evenodd" points="201.73205080756762,345.4101615137741 198.26794919242988,347.4101615137741 204.99999999999875,355.07041555161845" stroke="#8080ff" stroke-linejoin="round"/><text fill="#8080ff" font-family="Liberation Sans" font-size="8.0pt" text-anchor="middle" x="198.99999999999875" y="343">150.0</text><polygon fill="#ff8080" fill-rule="evenodd" points="151.73205080756784,258.8076211353307 148.2679491924301,260.8076211353307 154.99999999999898,268.46787517317506" stroke="#ff8080" stroke-linejoin="round"/><text fill="#ff8080" font-family="Liberation Sans" font-size="8.0pt" text-anchor="middle" x="148.99999999999898" y="257">300</text><polygon fill="#8080ff" fill-rule="evenodd" points="347.4101615137737,198.26794919243034 345.4101615137737,201.73205080756807 355.07041555161805,204.9999999999992" stroke="#8080ff" stroke-linejoin="round"/><text fill="#8080ff" font-family="Liberation Sans" font-size="8.0pt" text-anchor="middle" x="345.4101615137737" y="197">120.0</text><polygon fill="#ff8080" fill-rule="evenodd" points="260.80762113533024,148.26794919243073 258.80762113533024,151.73205080756847 268.4678751731746,154.9999999999996" stroke="#ff8080" stroke-linejoin="round"/><text fill="#ff8080" font-family="Liberation Sans" font-size="8.0pt" text-anchor="middle" x="258.80762113533024" y="147">330</text><polygon fill="#8080ff" fill-rule="evenodd" points="399.99999999999807,-1.9999999999999432 399.99999999999807,2.000000000000057 409.99999999999807,6.143526588916479e-14" stroke="#8080ff" stroke-linejoin="round"/><polygon fill="#ff8080" fill-rule="evenodd" points="299.9999999999986,-1.9999999999997655 299.9999999999986,2.0000000000002345 309.9999999999986,2.3907094982918983e-13" stroke="#ff8080" stroke-linejoin="round"/></svg>