<?xml version="1.0" ?><!DOCTYPE svg  PUBLIC '-//W3C//DTD SVG 1.1//EN'  'http://www.w3.org/Graphics/SVG/1.1/DTD/svg11.dtd'><svg height="423.000" viewBox="-211.000 -211.000 423.000 423.000" width="423.000" xmlns="http://www.w3.org/2000/svg"><line fill="none" stroke="none" stroke-linecap="round" stroke-width="2.0" x1="0.0" x2="0.0" y1="0.0" y2="0.0"/><polygon fill="#00f" fill-rule="evenodd" points="200.0,0.0 198.05361374831406,-27.834620192013087 192.25233918766378,-55.12747116339983 182.7090915285202,-81.34732861516004 169.6096192312852,-105.98385284664099 153.20888862379562,-128.55752193730785 133.82612127177165,-148.62896509547883 111.83858069414937,-165.80751451100832 87.67422935781548,-179.75880925983338 61.80339887498947,-190.2113032590307 34.729635533386045,-196.9615506024416 6.979899340500161,-199.87816540381914 -20.90569265353074,-198.90437907365467 -48.384379119933605,-194.0591452551993 -74.92131868318248,-185.4367709133575 -100.00000000000009,-173.20508075688775 -123.13229506513176,-157.6021507213444 -143.86796006773034,-138.93167409179947 -161.80339887498963,-117.55705045849463 -176.58951857178553,-93.89431255717815 -187.93852415718183,-68.40402866513372 -195.6295201467613,-41.582338163551825 -199.51281005196503,-13.951294748825 -199.51281005196503,13.951294748825145 -195.6295201467613,41.58233816355198 -187.93852415718186,68.4040286651339 -176.58951857178556,93.89431255717832 -161.80339887498965,117.55705045849483 -143.8679600677304,138.9316740917997 -123.13229506513181,157.60215072134466 -100.00000000000014,173.205080756888 -74.92131868318253,185.43677091335778 -48.38437911993364,194.0591452551996 -20.90569265353076,198.904379073655 6.979899340500161,199.8781654038195 34.72963553338607,196.96155060244197 61.803398874989526,190.21130325903107 87.67422935781556,179.75880925983375 111.83858069414948,165.8075145110087 133.8261212717718,148.6289650954792 153.20888862379581,128.5575219373082 169.60961923128545,105.9838528466413 182.70909152852047,81.34732861516032 192.2523391876641,55.12747116340009 198.0536137483144,27.8346201920133 200.00000000000037,1.7053025658242404e-13" stroke-linejoin="round"/><polyline fill="none" points="200.0,0.0 198.05361374831406,-27.834620192013087 192.25233918766378,-55.12747116339983 182.7090915285202,-81.34732861516004 169.6096192312852,-105.98385284664099 153.20888862379562,-128.55752193730785 133.82612127177165,-148.62896509547883 111.83858069414937,-165.80751451100832 87.67422935781548,-179.75880925983338 61.80339887498947,-190.2113032590307 34.729635533386045,-196.9615506024416 6.979899340500161,-199.87816540381914 -20.90569265353074,-198.90437907365467 -48.384379119933605,-194.0591452551993 -74.92131868318248,-185.4367709133575 -100.00000000000009,-173.20508075688775 -123.13229506513176,-157.6021507213444 -143.86796006773034,-138.93167409179947 -161.80339887498963,-117.55705045849463 -176.58951857178553,-93.89431255717815 -187.93852415718183,-68.40402866513372 -195.6295201467613,-41.582338163551825 -199.51281005196503,-13.951294748825 -199.51281005196503,13.951294748825145 -195.6295201467613,41.58233816355198 -187.93852415718186,68.4040286651339 -176.58951857178556,93.89431255717832 -161.80339887498965,117.55705045849483 -143.8679600677304,138.9316740917997 -123.13229506513181,157.60215072134466 -100.00000000000014,173.205080756888 -74.92131868318253,185.43677091335778 -48.38437911993364,194.0591452551996 -20.90569265353076,198.904379073655 6.979899340500161,199.8781654038195 34.72963553338607,196.96155060244197 61.803398874989526,190.21130325903107 87.67422935781556,179.75880925983375 111.83858069414948,165.8075145110087 133.8261212717718,148.6289650954792 153.20888862379581,128.5575219373082 169.60961923128545,105.9838528466413 182.70909152852047,81.34732861516032" stroke="#f00" stroke-linecap="round" stroke-linejoin="round"/><polyline fill="none" points="182.70909152852047,81.34732861516032 192.2523391876641,55.12747116340009 198.0536137483144,27.8346201920133 200.00000000000037,1.7053025658242404e-13" stroke="#f00" stroke-linecap="round" stroke-linejoin="round"/><polygon fill="#0f0" fill-rule="evenodd" points="0.0,0.0 20.905692653530725,1.0905135718480313e-14 41.35454576426015,-4.346537907311961 60.452846326765446,-12.849649158383457 77.36590696265131,-25.13770698908791 91.35454576426027,-40.67366430758004 101.80739209102563,-58.77852522924736 108.26760640014614,-78.66102045505147 110.4528463267656,-99.45218953682743 108.26760640014616,-120.2433586186034 101.80739209102569,-140.12585384440752 91.35454576426034,-158.23071476607484 77.36590696265141,-173.76667208456698 60.45284632676557,-186.05472991527145 41.35454576426028,-194.55784116634297 20.90569265353085,-198.90437907365498 1.1368683772161603e-13,-198.904379073655 -20.448853110729328,-194.55784116634305 -39.54715367323463,-186.05472991527157 -56.4602143091205,-173.76667208456712 -70.44885311072947,-158.23071476607498 -80.90169943749487,-140.12585384440766 -87.36191374661539,-120.24335861860354 -89.54715367323485,-99.45218953682756 -87.36191374661543,-78.66102045505158 -80.90169943749497,-58.77852522924745 -70.44885311072963,-40.67366430758011 -56.4602143091207,-25.137706989087953 -39.54715367323486,-12.849649158383464 -20.448853110729573,-4.346537907311927 -1.3855583347321954e-13,8.881784197001252e-14 18.104860921667207,-10.452846326765252 33.640818240159376,-24.441485128374175 45.92887607086387,-41.35454576426001 54.431987321935416,-60.4528463267653 58.778525229247435,-80.90169943749473 58.77852522924747,-101.80739209102546 54.43198732193552,-122.25624520175492 45.92887607086404,-141.35454576426025 33.640818240159604,-158.26760640014612 18.10486092166748,-172.25624520175512 1.6342482922482304e-13,-182.70909152852053 -19.88249522580396,-189.16930583764105 -40.67366430757994,-191.35454576426054 -61.46483338935593,-189.16930583764113 -81.34732861516008,-182.70909152852067 -99.45218953682745,-172.25624520175535 -114.98814685531963,-158.26760640014643 -127.27620468602413,-141.3545457642606 -135.7793159370957,-122.2562452017553 -140.12585384440774,-101.80739209102586 -140.1258538444078,-80.90169943749511 -135.77931593709587,-60.45284632676565 -127.2762046860244,-41.35454576426032 -114.98814685531997,-24.441485128374424 -99.45218953682785,-10.452846326765425 -81.34732861516052,-1.7763568394002505e-15 -61.46483338935639,6.460214309120542 -40.6736643075804,8.645454235740038 -19.8824952258044,6.46021430912065 -2.3803181647963356e-13,2.0872192862952943e-13 10.452846326765192,-18.104860921667107 16.913060635885742,-37.98735614747123 19.098300562505244,-58.77852522924722 16.913060635885863,-79.56969431102323 10.452846326765426,-99.45218953682739 9.947598300641403e-14,-117.55705045849477 -13.988638801608822,-133.09300777698698 -30.90169943749466,-145.3810656076915 -49.99999999999996,-153.88417685876308 -70.4488531107294,-158.23071476607515 -91.35454576426017,-158.2307147660752 -111.80339887498965,-153.88417685876328 -130.901699437495,-145.38106560769182 -147.81476007338094,-133.0930077769874 -161.80339887498997,-117.55705045849528 -172.2562452017554,-99.45218953682796 -178.71645951087598,-79.56969431102382 -180.9016994374955,-58.77852522924782 -178.71645951087612,-37.9873561474718 -172.2562452017557,-18.104860921667616 -161.80339887499036,-2.1671553440683056e-13 -147.81476007338145,15.535957318492006 -130.9016994374956,27.824015149196562 -111.80339887499031,36.32712640026816 -91.35454576426085,40.67366430758024 -70.44885311073007,40.673664307580324 -50.00000000000057,36.32712640026841 -30.901699437495196,27.82401514919696 -13.988638801609252,15.535957318492533 -2.0605739337042905e-13,4.1033842990145786e-13 -1.2018046245058804e-13,-20.90569265353038 -4.346537907312031,-41.35454576425989 -12.849649158383484,-60.45284632676527 -25.13770698908791,-77.36590696265122 -40.67366430758004,-91.35454576426028 -58.77852522924738,-101.80739209102575 -78.66102045505153,-108.26760640014633 -99.45218953682755,-110.45284632676587 -120.2433586186036,-108.2676064001465 -140.1258538444078,-101.80739209102609 -158.23071476607524,-91.35454576426076 -173.7666720845675,-77.36590696265183 -186.05472991527208,-60.45284632676598 -194.5578411663437,-41.35454576426066 -198.9043790736558,-20.905692653531183 -198.9043790736559,-3.801403636316536e-13 -194.557841166344,20.448853110729143 -186.05472991527253,39.54715367323454 -173.76667208456809,56.4602143091205 -158.23071476607595,70.44885311072957 -140.1258538444086,80.90169943749505 -120.24335861860443,87.36191374661566 -99.4521895368284,89.5471536732352 -78.66102045505234,87.36191374661584 -58.77852522924811,80.90169943749542 -40.673664307580665,70.4488531107301 -25.1377069890884,56.46021430912117 -12.849649158383807,39.547153673235314 -4.346537907312172,20.44885311072999 -6.927791673660977e-14,4.973799150320701e-13 -10.452846326765387,-18.104860921666955 -24.44148512837431,-33.64081824015923 -41.354545764260166,-45.92887607086383 -60.452846326765496,-54.43198732193547 -80.90169943749498,-58.778525229247585 -101.8073920910258,-58.7785252292477 -122.25624520175535,-54.43198732193581 -141.35454576426076,-45.92887607086436 -158.26760640014675,-33.64081824015994 -172.25624520175583,-18.104860921667804 -182.70909152852136,-4.547473508864641e-13 -189.16930583764199,19.882495225803726 -191.35454576426156,40.673664307579784 -189.1693058376422,61.46483338935587 -182.7090915285218,81.34732861516012 -172.25624520175649,99.4521895368276 -158.26760640014754,114.9881468553199 -141.35454576426167,127.27620468602451 -122.25624520175633,135.7793159370962 -101.80739209102681,140.1258538444083 -80.90169943749598,140.12585384440843 -60.45284632676641,135.77931593709653 -41.35454576426097,127.27620468602508 -24.441485128374953,114.98814685532065 -10.45284632676584,99.45218953682851 -3.1086244689504383e-13,81.34732861516115 6.460214309120328,61.464833389356954 8.645454235739903,40.67366430758088 6.460214309120574,19.882495225804774 1.6964207816272392e-13,5.009326287108706e-13 -18.104860921667196,-10.452846326765034 -37.987356147471395,-16.913060635885678 -58.77852522924748,-19.098300562505255 -79.56969431102358,-16.913060635885927 -99.45218953682786,-10.452846326765524 -117.55705045849535,-2.078337502098293e-13 -133.09300777698766,13.988638801608726 -145.3810656076923,30.901699437494603 -153.884176858764,49.99999999999996 -158.23071476607612,70.44885311072949 -158.23071476607626,91.35454576426035 -153.8841768587644,111.80339887498994 -145.38106560769296,130.9016994374954 -133.09300777698851,147.81476007338145 -117.55705045849636,161.8033988749906 -99.452189536829,172.25624520175614 -79.56969431102479,178.7164595108768 -58.7785252292487,180.9016994374964 -37.98735614747258,178.7164595108771 -18.104860921668287,172.25624520175668 -7.744915819785092e-13,161.80339887499136 15.53595731849156,147.81476007338242 27.824015149196214,130.90169943749652 36.32712640026791,111.80339887499116 40.67366430758006,91.35454576426162 40.673664307580204,70.44885311073074 36.32712640026833,50.00000000000114 27.82401514919689,30.901699437495648 15.535957318492454,13.98863880160959 2.9665159217984183e-13,4.3165471197426086e-13 -20.905692653530593,2.8543182959723424e-13 -41.35454576426021,4.346537907312158 -60.45284632676571,12.849649158383595 -77.36590696265178,25.13770698908803 -91.35454576426095,40.67366430758019 -101.80739209102653,58.77852522924758 -108.2676064001472,78.66102045505181 -110.4528463267668,99.45218953682793 -108.2676064001475,120.24335861860408 -101.80739209102711,140.1258538444084 -91.35454576426179,158.23071476607595 -77.36590696265284,173.7666720845683 -60.452846326766945,186.054729915273 -41.354545764261566,194.5578411663447 -20.905692653532004,198.90437907365688 -1.1084466677857563e-12,198.90437907365705 20.448853110728518,194.55784116634518 39.54715367323402,186.05472991527375 56.460214309120104,173.7666720845693 70.44885311072929,158.23071476607714 80.90169943749488,140.12585384440976 87.36191374661557,120.24335861860553 89.54715367323519,99.4521895368294 87.36191374661588,78.66102045505323 80.9016994374955,58.7785252292489 70.44885311073018,40.67366430758135 56.46021430912124,25.13770698908897 39.54715367323534,12.849649158384269 20.448853110729956,4.346537907312538 3.836930773104541e-13,3.5438318946034997e-13 -18.10486092166718,10.452846326765663 -33.64081824015956,24.4414851283746 -45.92887607086427,41.3545457642605 -54.431987321936006,60.452846326765886 -58.778525229248196,80.90169943749547 -58.778525229248366,101.80739209102639 -54.43198732193651,122.25624520175603 -45.92887607086509,141.35454576426156 -33.640818240160655,158.26760640014766 -18.104860921668497,172.25624520175685 -1.0977885267493548e-12,182.70909152852246 19.88249522580315,189.16930583764318 40.67366430757929,191.3545457642628 61.46483338935546,189.16930583764352 81.34732861515982,182.70909152852315 99.4521895368274,172.25624520175785 114.98814685531981,158.2676064001489 127.27620468602453,141.354545764263 135.77931593709627,122.25624520175762 140.12585384440848,101.80739209102803 140.12585384440865,80.9016994374971 135.7793159370968,60.452846326767435 127.2762046860254,41.354545764261886 114.98814685532096,24.441485128375763 99.4521895368288,10.452846326766545 81.34732861516139,9.183764859699295e-13 61.464833389357125,-6.460214309119807 40.67366430758097,-8.645454235739454 19.882495225804778,-6.460214309120179 4.014566457044566e-13,1.9095836023552692e-13 -10.452846326765231,18.104860921667598 -16.913060635885962,37.98735614747186 -19.098300562505614,58.77852522924802 -16.913060635886342,79.56969431102422 -10.452846326765973,99.4521895368286 -6.696865284538944e-13,117.5570504584962 13.988638801608275,133.09300777698863 30.901699437494184,145.38106560769336 49.99999999999959,153.88417685876513 70.44885311072919,158.23071476607734 91.35454576426014,158.23071476607754 111.80339887498982,153.8841768587657 130.9016994374954,145.38106560769427 147.81476007338156,133.09300777698985 161.80339887499082,117.55705045849768 172.25624520175646,99.45218953683028 178.7164595108772,79.569694311026 180.90169943749686,58.77852522924982 178.7164595108776,37.987356147473605 172.25624520175722,18.104860921669204 161.80339887499193,1.580957587066223e-12 147.81476007338298,-15.535957318490864 130.90169943749706,-27.824015149195624 111.80339887499164,-36.32712640026741 91.35454576426203,-40.67366430757964 70.44885311073108,-40.67366430757985 50.00000000000138,-36.32712640026802 30.90169943749579,-27.82401514919661 13.988638801609625,-15.535957318492184 3.659295089164516e-13,-1.4210854715202004e-14 1.5123718161684906e-13,20.905692653530952 4.346537907311974,41.354545764260656 12.849649158383379,60.45284632676625 25.137706989087803,77.36590696265242 40.67366430757997,91.35454576426169 58.77852522924739,101.80739209102737 78.66102045505167,108.26760640014814 99.45218953682786,110.45284632676783 120.24335861860409,108.26760640014858 140.1258538444085,101.80739209102823 158.23071476607615,91.35454576426294 173.76667208456863,77.365906962654 186.0547299152734,60.45284632676808 194.5578411663452,41.35454576426266 198.90437907365748,20.905692653533034 198.9043790736577,2.05702122002549e-12 194.5578411663459,-20.44885311072766 186.0547299152745,-39.54715367323327 173.76667208457008,-56.46021430911945 158.2307147660779,-70.44885311072873 140.12585384441047,-80.90169943749443 120.24335861860618,-87.36191374661522 99.45218953682999,-89.54715367323492 78.66102045505374,-87.36191374661568 58.77852522924931,-80.90169943749534 40.673664307581646,-70.44885311073004 25.13770698908916,-56.4602143091211 12.849649158384358,-39.54715367323518 4.3465379073125305,-20.44885311072975 2.6290081223123707e-13,-1.1723955140041653e-13 10.45284632676555,18.10486092166755 24.44148512837449,33.640818240160044 41.35454576426041,45.92887607086486 60.45284632676584,54.431987321936695 80.90169943749548,58.77852522924897 101.80739209102647,58.77852522924921 122.25624520175622,54.43198732193741 141.35454576426184,45.928876070866025 158.26760640014805,33.6408182401616 172.25624520175737,18.104860921669427 182.7090915285231,1.993072373807081e-12 189.1693058376439,-19.88249522580231 191.3545457642636,-40.67366430757852 189.16930583764437,-61.46483338935478 182.70909152852403,-81.34732861515923 172.25624520175873,-99.4521895368269 158.2676064001498,-114.98814685531941 141.35454576426386,-127.27620468602424 122.25624520175842,-135.7793159370961 101.80739209102877,-140.1258538444084 80.90169943749777,-140.12585384440865 60.45284632676801,-135.77931593709687 41.35454576426237,-127.27620468602548 24.441485128376144,-114.98814685532106 10.452846326766824,-99.45218953682888 1.0977885267493548e-12,-81.34732861516144 -6.46021430911972,-61.46483338935714 -8.645454235739447,-40.67366430758092 -6.460214309120236,-19.882495225804643 8.881784197001252e-14,-1.7053025658242404e-13 18.104860921667527,10.452846326765563 37.987356147471836,16.91306063588639 58.77852522924806,19.09830056250612 79.56969431102434,16.913060635886914 99.45218953682881,10.452846326766593 117.55705045849652,1.3162804179955856e-12 133.09300777698905,-13.988638801607623 145.3810656076939,-30.901699437493548 153.88417685876578,-49.99999999999899 158.2307147660781,-70.44885311072865 158.2307147660784,-91.35454576425967 153.8841768587666,-111.80339887498944 145.38106560769523,-130.90169943749513 133.09300777699082,-147.81476007338136 117.55705045849864,-161.8033988749907 99.45218953683118,-172.25624520175646 79.56969431102686,-178.71645951087729 58.778525229250626,-180.90169943749703 37.98735614747433,-178.71645951087783 18.104860921669836,-172.2562452017575 2.113864638886298e-12,-161.80339887499224 -15.535957318490437,-147.8147600733833 -27.824015149195304,-130.90169943749737 -36.32712640026719,-111.80339887499191 -40.673664307579514,-91.35454576426224 -40.6736643075798,-70.4488531107312 -36.32712640026803,-50.00000000000142 -27.824015149196658,-30.901699437495733 -15.535957318492246,-13.988638801609465 -6.927791673660977e-14,-9.947598300641403e-14" stroke-linejoin="round"/><polyline fill="none" points="0.0,0.0 20.905692653530725,1.0905135718480313e-14 41.35454576426015,-4.346537907311961 60.452846326765446,-12.849649158383457 77.36590696265131,-25.13770698908791 91.35454576426027,-40.67366430758004 101.80739209102563,-58.77852522924736 108.26760640014614,-78.66102045505147 110.4528463267656,-99.45218953682743 108.26760640014616,-120.2433586186034 101.80739209102569,-140.12585384440752 91.35454576426034,-158.23071476607484 77.36590696265141,-173.76667208456698 60.45284632676557,-186.05472991527145 41.35454576426028,-194.55784116634297 20.90569265353085,-198.90437907365498 1.1368683772161603e-13,-198.904379073655 -20.448853110729328,-194.55784116634305 -39.54715367323463,-186.05472991527157 -56.4602143091205,-173.76667208456712 -70.44885311072947,-158.23071476607498 -80.90169943749487,-140.12585384440766 -87.36191374661539,-120.24335861860354 -89.54715367323485,-99.45218953682756 -87.36191374661543,-78.66102045505158 -80.90169943749497,-58.77852522924745 -70.44885311072963,-40.67366430758011 -56.4602143091207,-25.137706989087953 -39.54715367323486,-12.849649158383464 -20.448853110729573,-4.346537907311927 -1.3855583347321954e-13,8.881784197001252e-14" stroke="#ff0" stroke-linecap="round" stroke-linejoin="round"/><polyline fill="none" points="-1.3855583347321954e-13,8.881784197001252e-14 18.104860921667207,-10.452846326765252 33.640818240159376,-24.441485128374175 45.92887607086387,-41.35454576426001 54.431987321935416,-60.4528463267653 58.778525229247435,-80.90169943749473 58.77852522924747,-101.80739209102546 54.43198732193552,-122.25624520175492 45.92887607086404,-141.35454576426025 33.640818240159604,-158.26760640014612 18.10486092166748,-172.25624520175512 1.6342482922482304e-13,-182.70909152852053 -19.88249522580396,-189.16930583764105 -40.67366430757994,-191.35454576426054 -61.46483338935593,-189.16930583764113 -81.34732861516008,-182.70909152852067 -99.45218953682745,-172.25624520175535 -114.98814685531963,-158.26760640014643 -127.27620468602413,-141.3545457642606 -135.7793159370957,-122.2562452017553 -140.12585384440774,-101.80739209102586 -140.1258538444078,-80.90169943749511 -135.77931593709587,-60.45284632676565 -127.2762046860244,-41.35454576426032 -114.98814685531997,-24.441485128374424 -99.45218953682785,-10.452846326765425 -81.34732861516052,-1.7763568394002505e-15 -61.46483338935639,6.460214309120542 -40.6736643075804,8.645454235740038 -19.8824952258044,6.46021430912065 -2.3803181647963356e-13,2.0872192862952943e-13" stroke="#000080" stroke-linecap="round" stroke-linejoin="round"/><polyline fill="none" points="-2.3803181647963356e-13,2.0872192862952943e-13 10.452846326765192,-18.104860921667107 16.913060635885742,-37.98735614747123 19.098300562505244,-58.77852522924722 16.913060635885863,-79.56969431102323 10.452846326765426,-99.45218953682739 9.947598300641403e-14,-117.55705045849477 -13.988638801608822,-133.09300777698698 -30.90169943749466,-145.3810656076915 -49.99999999999996,-153.88417685876308 -70.4488531107294,-158.23071476607515 -91.35454576426017,-158.2307147660752 -111.80339887498965,-153.88417685876328 -130.901699437495,-145.38106560769182 -147.81476007338094,-133.0930077769874 -161.80339887498997,-117.55705045849528 -172.2562452017554,-99.45218953682796 -178.71645951087598,-79.56969431102382 -180.9016994374955,-58.77852522924782 -178.71645951087612,-37.9873561474718 -172.2562452017557,-18.104860921667616 -161.80339887499036,-2.1671553440683056e-13 -147.81476007338145,15.535957318492006 -130.9016994374956,27.824015149196562 -111.80339887499031,36.32712640026816 -91.35454576426085,40.67366430758024 -70.44885311073007,40.673664307580324 -50.00000000000057,36.32712640026841 -30.901699437495196,27.82401514919696 -13.988638801609252,15.535957318492533 -2.0605739337042905e-13,4.1033842990145786e-13" stroke="#f00" stroke-linecap="round" stroke-linejoin="round"/><polyline fill="none" points="-2.0605739337042905e-13,4.1033842990145786e-13 -1.2018046245058804e-13,-20.90569265353038 -4.346537907312031,-41.35454576425989 -12.849649158383484,-60.45284632676527 -25.13770698908791,-77.36590696265122 -40.67366430758004,-91.35454576426028 -58.77852522924738,-101.80739209102575 -78.66102045505153,-108.26760640014633 -99.45218953682755,-110.45284632676587 -120.2433586186036,-108.2676064001465 -140.1258538444078,-101.80739209102609 -158.23071476607524,-91.35454576426076 -173.7666720845675,-77.36590696265183 -186.05472991527208,-60.45284632676598 -194.5578411663437,-41.35454576426066 -198.9043790736558,-20.905692653531183 -198.9043790736559,-3.801403636316536e-13 -194.557841166344,20.448853110729143 -186.05472991527253,39.54715367323454 -173.76667208456809,56.4602143091205 -158.23071476607595,70.44885311072957 -140.1258538444086,80.90169943749505 -120.24335861860443,87.36191374661566 -99.4521895368284,89.5471536732352 -78.66102045505234,87.36191374661584 -58.77852522924811,80.90169943749542 -40.673664307580665,70.4488531107301 -25.1377069890884,56.46021430912117 -12.849649158383807,39.547153673235314 -4.346537907312172,20.44885311072999 -6.927791673660977e-14,4.973799150320701e-13" stroke="#00f" stroke-linecap="round" stroke-linejoin="round"/><polyline fill="none" points="-6.927791673660977e-14,4.973799150320701e-13 -10.452846326765387,-18.104860921666955 -24.44148512837431,-33.64081824015923 -41.354545764260166,-45.92887607086383 -60.452846326765496,-54.43198732193547 -80.90169943749498,-58.778525229247585 -101.8073920910258,-58.7785252292477 -122.25624520175535,-54.43198732193581 -141.35454576426076,-45.92887607086436 -158.26760640014675,-33.64081824015994 -172.25624520175583,-18.104860921667804 -182.70909152852136,-4.547473508864641e-13 -189.16930583764199,19.882495225803726 -191.35454576426156,40.673664307579784 -189.1693058376422,61.46483338935587 -182.7090915285218,81.34732861516012 -172.25624520175649,99.4521895368276 -158.26760640014754,114.9881468553199 -141.35454576426167,127.27620468602451 -122.25624520175633,135.7793159370962 -101.80739209102681,140.1258538444083 -80.90169943749598,140.12585384440843 -60.45284632676641,135.77931593709653 -41.35454576426097,127.27620468602508 -24.441485128374953,114.98814685532065 -10.45284632676584,99.45218953682851 -3.1086244689504383e-13,81.34732861516115 6.460214309120328,61.464833389356954 8.645454235739903,40.67366430758088 6.460214309120574,19.882495225804774 1.6964207816272392e-13,5.009326287108706e-13" stroke="#000080" stroke-linecap="round" stroke-linejoin="round"/><polyline fill="none" points="1.6964207816272392e-13,5.009326287108706e-13 -18.104860921667196,-10.452846326765034 -37.987356147471395,-16.913060635885678 -58.77852522924748,-19.098300562505255 -79.56969431102358,-16.913060635885927 -99.45218953682786,-10.452846326765524 -117.55705045849535,-2.078337502098293e-13 -133.09300777698766,13.988638801608726 -145.3810656076923,30.901699437494603 -153.884176858764,49.99999999999996 -158.23071476607612,70.44885311072949 -158.23071476607626,91.35454576426035 -153.8841768587644,111.80339887498994 -145.38106560769296,130.9016994374954 -133.09300777698851,147.81476007338145 -117.55705045849636,161.8033988749906 -99.452189536829,172.25624520175614 -79.56969431102479,178.7164595108768 -58.7785252292487,180.9016994374964 -37.98735614747258,178.7164595108771 -18.104860921668287,172.25624520175668 -7.744915819785092e-13,161.80339887499136 15.53595731849156,147.81476007338242 27.824015149196214,130.90169943749652 36.32712640026791,111.80339887499116 40.67366430758006,91.35454576426162 40.673664307580204,70.44885311073074 36.32712640026833,50.00000000000114 27.82401514919689,30.901699437495648 15.535957318492454,13.98863880160959 2.9665159217984183e-13,4.3165471197426086e-13 -20.905692653530593,2.8543182959723424e-13 -41.35454576426021,4.346537907312158 -60.45284632676571,12.849649158383595 -77.36590696265178,25.13770698908803 -91.35454576426095,40.67366430758019 -101.80739209102653,58.77852522924758 -108.2676064001472,78.66102045505181 -110.4528463267668,99.45218953682793 -108.2676064001475,120.24335861860408 -101.80739209102711,140.1258538444084 -91.35454576426179,158.23071476607595 -77.36590696265284,173.7666720845683" stroke="#f0f" stroke-linecap="round" stroke-linejoin="round"/><polyline fill="none" points="-77.36590696265284,173.7666720845683 -60.452846326766945,186.054729915273 -41.354545764261566,194.5578411663447 -20.905692653532004,198.90437907365688 -1.1084466677857563e-12,198.90437907365705 20.448853110728518,194.55784116634518 39.54715367323402,186.05472991527375 56.460214309120104,173.7666720845693 70.44885311072929,158.23071476607714 80.90169943749488,140.12585384440976 87.36191374661557,120.24335861860553 89.54715367323519,99.4521895368294 87.36191374661588,78.66102045505323 80.9016994374955,58.7785252292489 70.44885311073018,40.67366430758135 56.46021430912124,25.13770698908897 39.54715367323534,12.849649158384269 20.448853110729956,4.346537907312538 3.836930773104541e-13,3.5438318946034997e-13" stroke="#f0f" stroke-linecap="round" stroke-linejoin="round"/><polyline fill="none" points="3.836930773104541e-13,3.5438318946034997e-13 -18.10486092166718,10.452846326765663 -33.64081824015956,24.4414851283746 -45.92887607086427,41.3545457642605 -54.431987321936006,60.452846326765886 -58.778525229248196,80.90169943749547 -58.778525229248366,101.80739209102639 -54.43198732193651,122.25624520175603 -45.92887607086509,141.35454576426156 -33.640818240160655,158.26760640014766 -18.104860921668497,172.25624520175685 -1.0977885267493548e-12,182.70909152852246 19.88249522580315,189.16930583764318 40.67366430757929,191.3545457642628 61.46483338935546,189.16930583764352 81.34732861515982,182.70909152852315 99.4521895368274,172.25624520175785 114.98814685531981,158.2676064001489 127.27620468602453,141.354545764263 135.77931593709627,122.25624520175762 140.12585384440848,101.80739209102803 140.12585384440865,80.9016994374971 135.7793159370968,60.452846326767435 127.2762046860254,41.354545764261886 114.98814685532096,24.441485128375763 99.4521895368288,10.452846326766545 81.34732861516139,9.183764859699295e-13 61.464833389357125,-6.460214309119807 40.67366430758097,-8.645454235739454 19.882495225804778,-6.460214309120179 4.014566457044566e-13,1.9095836023552692e-13 -10.452846326765231,18.104860921667598 -16.913060635885962,37.98735614747186 -19.098300562505614,58.77852522924802 -16.913060635886342,79.56969431102422 -10.452846326765973,99.4521895368286 -6.696865284538944e-13,117.5570504584962 13.988638801608275,133.09300777698863 30.901699437494184,145.38106560769336 49.99999999999959,153.88417685876513 70.44885311072919,158.23071476607734 91.35454576426014,158.23071476607754 111.80339887498982,153.8841768587657" stroke="#a020f0" stroke-linecap="round" stroke-linejoin="round"/><polyline fill="none" points="111.80339887498982,153.8841768587657 130.9016994374954,145.38106560769427 147.81476007338156,133.09300777698985 161.80339887499082,117.55705045849768 172.25624520175646,99.45218953683028 178.7164595108772,79.569694311026 180.90169943749686,58.77852522924982 178.7164595108776,37.987356147473605 172.25624520175722,18.104860921669204 161.80339887499193,1.580957587066223e-12 147.81476007338298,-15.535957318490864 130.90169943749706,-27.824015149195624 111.80339887499164,-36.32712640026741 91.35454576426203,-40.67366430757964 70.44885311073108,-40.67366430757985 50.00000000000138,-36.32712640026802 30.90169943749579,-27.82401514919661 13.988638801609625,-15.535957318492184 3.659295089164516e-13,-1.4210854715202004e-14" stroke="#a020f0" stroke-linecap="round" stroke-linejoin="round"/><polyline fill="none" points="3.659295089164516e-13,-1.4210854715202004e-14 1.5123718161684906e-13,20.905692653530952 4.346537907311974,41.354545764260656 12.849649158383379,60.45284632676625 25.137706989087803,77.36590696265242 40.67366430757997,91.35454576426169 58.77852522924739,101.80739209102737 78.66102045505167,108.26760640014814 99.45218953682786,110.45284632676783 120.24335861860409,108.26760640014858 140.1258538444085,101.80739209102823 158.23071476607615,91.35454576426294 173.76667208456863,77.365906962654 186.0547299152734,60.45284632676808 194.5578411663452,41.35454576426266 198.90437907365748,20.905692653533034 198.9043790736577,2.05702122002549e-12 194.5578411663459,-20.44885311072766 186.0547299152745,-39.54715367323327 173.76667208457008,-56.46021430911945 158.2307147660779,-70.44885311072873 140.12585384441047,-80.90169943749443 120.24335861860618,-87.36191374661522 99.45218953682999,-89.54715367323492 78.66102045505374,-87.36191374661568 58.77852522924931,-80.90169943749534 40.673664307581646,-70.44885311073004 25.13770698908916,-56.4602143091211 12.849649158384358,-39.54715367323518 4.3465379073125305,-20.44885311072975 2.6290081223123707e-13,-1.1723955140041653e-13 10.45284632676555,18.10486092166755 24.44148512837449,33.640818240160044 41.35454576426041,45.92887607086486 60.45284632676584,54.431987321936695 80.90169943749548,58.77852522924897 101.80739209102647,58.77852522924921 122.25624520175622,54.43198732193741 141.35454576426184,45.928876070866025 158.26760640014805,33.6408182401616 172.25624520175737,18.104860921669427 182.7090915285231,1.993072373807081e-12 189.1693058376439,-19.88249522580231" stroke="#f0f" stroke-linecap="round" stroke-linejoin="round"/><polyline fill="none" points="189.1693058376439,-19.88249522580231 191.3545457642636,-40.67366430757852 189.16930583764437,-61.46483338935478 182.70909152852403,-81.34732861515923 172.25624520175873,-99.4521895368269 158.2676064001498,-114.98814685531941 141.35454576426386,-127.27620468602424 122.25624520175842,-135.7793159370961 101.80739209102877,-140.1258538444084 80.90169943749777,-140.12585384440865 60.45284632676801,-135.77931593709687 41.35454576426237,-127.27620468602548 24.441485128376144,-114.98814685532106 10.452846326766824,-99.45218953682888 1.0977885267493548e-12,-81.34732861516144 -6.46021430911972,-61.46483338935714 -8.645454235739447,-40.67366430758092 -6.460214309120236,-19.882495225804643 8.881784197001252e-14,-1.7053025658242404e-13" stroke="#f0f" stroke-linecap="round" stroke-linejoin="round"/><polyline fill="none" points="8.881784197001252e-14,-1.7053025658242404e-13 18.104860921667527,10.452846326765563 37.987356147471836,16.91306063588639 58.77852522924806,19.09830056250612 79.56969431102434,16.913060635886914 99.45218953682881,10.452846326766593 117.55705045849652,1.3162804179955856e-12 133.09300777698905,-13.988638801607623 145.3810656076939,-30.901699437493548 153.88417685876578,-49.99999999999899 158.2307147660781,-70.44885311072865 158.2307147660784,-91.35454576425967 153.8841768587666,-111.80339887498944 145.38106560769523,-130.90169943749513 133.09300777699082,-147.81476007338136 117.55705045849864,-161.8033988749907 99.45218953683118,-172.25624520175646 79.56969431102686,-178.71645951087729 58.778525229250626,-180.90169943749703 37.98735614747433,-178.71645951087783 18.104860921669836,-172.2562452017575 2.113864638886298e-12,-161.80339887499224 -15.535957318490437,-147.8147600733833 -27.824015149195304,-130.90169943749737 -36.32712640026719,-111.80339887499191 -40.673664307579514,-91.35454576426224 -40.6736643075798,-70.4488531107312 -36.32712640026803,-50.00000000000142 -27.824015149196658,-30.901699437495733 -15.535957318492246,-13.988638801609465 -6.927791673660977e-14,-9.947598300641403e-14" stroke="#000080" stroke-linecap="round" stroke-linejoin="round"/><line fill="none" stroke="none" stroke-linecap="round" stroke-width="2.0" x1="0.0" x2="0.0" y1="0.0" y2="0.0"/><polygon fill="#0f0" fill-rule="evenodd" points="-6.927791673660977e-14,-9.947598300641403e-14 -9.0,-5.000000000000223 -7.000000000000069,-1.95843341543876e-13 -9.000000000000139,4.999999999999777" stroke="#f00" stroke-linejoin="round"/></svg>