<?xml version="1.0" ?><!DOCTYPE svg  PUBLIC '-//W3C//DTD SVG 1.1//EN'  'http://www.w3.org/Graphics/SVG/1.1/DTD/svg11.dtd'><svg height="341.000" viewBox="-109.000 -111.000 219.000 341.000" width="219.000" xmlns="http://www.w3.org/2000/svg"><line fill="none" stroke="#008200" stroke-linecap="round" stroke-width="3.0" x1="-2.842170943040401e-14" x2="-5.062616992290714e-14" y1="7.105427357601002e-15" y2="199.9999999999999"/><line fill="none" stroke="#00f" stroke-linecap="round" stroke-width="20.0" x1="-5.062616992290714e-14" x2="-2.842170943040401e-14" y1="199.9999999999999" y2="-0.0"/><line fill="none" stroke="none" stroke-linecap="round" stroke-width="20.0" x1="0.0" x2="0.0" y1="0.0" y2="0.0"/><polygon fill="#f00" fill-rule="evenodd" points="-2.842170943040401e-14,-0.0 34.202014332566755,-93.96926207859087 17.364817766692905,-98.48077530122083 -1.334488075599437e-13,-100.00000000000001 -17.364817766693168,-98.4807753012208 -34.202014332566996,-93.96926207859082 -3.5527136788005035e-14,-2.8421709430404e-14 -98.48077530122082,17.3648177666931 -93.96926207859083,34.20201433256693 -86.60254037844385,50.00000000000006 -76.60444431189778,64.27876096865397 -64.2787609686539,76.60444431189782 -7.105427357601002e-14,4.0231906166271546e-29 64.2787609686539,76.60444431189771 76.60444431189775,64.27876096865383 86.60254037844379,49.999999999999886 93.96926207859075,34.20201433256677 98.4807753012207,17.364817766692934 -5.684341886080801e-14,7.105427357601029e-15" stroke="#00f" stroke-linejoin="round"/></svg>