<?xml version="1.0" ?><!DOCTYPE svg  PUBLIC '-//W3C//DTD SVG 1.1//EN'  'http://www.w3.org/Graphics/SVG/1.1/DTD/svg11.dtd'><svg height="229.000" viewBox="-109.000 -214.000 229.000 229.000" width="229.000" xmlns="http://www.w3.org/2000/svg"><line fill="none" stroke="none" stroke-linecap="round" stroke-width="4.0" x1="0.0" x2="0.0" y1="0.0" y2="0.0"/><polyline fill="none" points="0.0,0.0 10.471975511965978,0.0 20.886584446376524,-1.0946195076423022 31.12972216834921,-3.271865642537319 41.08916271748773,-6.507884040413096 50.6557883789888,-10.76722020652212 59.72478520015989,-16.00320796250511 68.19679135401866,-22.15848073080663 75.97898576826216,-29.165600054903535 82.98610509235907,-36.947794469147034 89.1413778606606,-45.4198006230058 94.37736561664359,-54.48879744417688 98.63670178275261,-64.05542310567795 101.87272018062839,-74.01486365481647 104.0499663155234,-84.25800137678915 105.14458582316571,-94.67261031119969 105.14458582316571,-105.14458582316567 104.0499663155234,-115.55919475757621 101.87272018062839,-125.8023324795489 98.63670178275262,-135.7617730286874 94.3773656166436,-145.32839869018846 89.14137786066061,-154.39739551135955 82.9861050923591,-162.8694016652183 75.97898576826219,-170.6515960794618 68.1967913540187,-177.65871540355872 59.72478520015994,-183.81398817186025 50.65578837898886,-189.04997592784324 41.0891627174878,-193.30931209395226 31.129722168349293,-196.54533049182803 20.886584446376617,-198.72257662672305 10.471975511966079,-199.81719613436536 1.1368683772161603e-13,-199.81719613436536 -10.414608934410422,-198.72257662672305 -20.657746656383097,-196.54533049182805 -30.617187205521603,-193.3093120939523 -40.18381286702266,-189.04997592784326 -49.252809688193736,-183.81398817186027 -57.72481584205249,-177.65871540355877 -65.50701025629598,-170.65159607946188 -72.51412958039289,-162.8694016652184 -78.6694023486944,-154.39739551135963 -83.9053901046774,-145.32839869018855 -88.16472627078642,-135.7617730286875" stroke="#0f0" stroke-linecap="round" stroke-linejoin="round" stroke-width="4.0"/><polygon fill="#000" fill-rule="evenodd" points="0.0,0.0 0.0,-50.0 -3.090169943749474,-47.55282581475768 -6.180339887498948,-50.0 -8.968022466674205,-57.101976096010304 -11.180339887498947,-68.163563200134 -12.60073510670101,-82.1019760960103 -13.090169943749475,-97.55282581475767 -12.600735106701011,-113.00367553350503 -11.18033988749895,-126.94208842938131 -8.96802246667421,-138.00367553350503 -6.180339887498954,-145.10565162951534" stroke="#f00" stroke-linejoin="round" stroke-width="2.0"/><polygon fill="#000" fill-rule="evenodd" points="-6.180339887498954,-145.10565162951534 -3.0901699437494816,-147.55282581475765 -8.881784197001252e-15,-145.10565162951534 2.7876825791752466,-138.00367553350503 4.9999999999999885,-126.94208842938133 6.4203952192020495,-113.00367553350506 6.909830056250515,-97.55282581475771 6.420395219202052,-82.10197609601036 4.999999999999993,-68.16356320013408 2.7876825791752533,-57.101976096010375 0.0,-50.000000000000064" stroke="#00f" stroke-linejoin="round" stroke-width="2.0"/><polygon fill="#000" fill-rule="evenodd" points="10.471975511965978,0.0 5.2455523485833035,-49.726094768413674 2.4281100360471566,-46.969315743954155 -0.9009309903522915,-49.080073337501624 -4.415701000158352,-55.851751889286774 -7.77214981596857,-66.62149232160205 -10.641724841937434,-80.33507740373862 -12.743532081018254,-95.65012587969127 -13.87183199649767,-111.06749409841659 -13.916178731320793,-125.07802263954497 -12.872231318101269,-136.31026335237843 -10.842178603254341,-143.66472625632196" stroke="#f00" stroke-linejoin="round" stroke-width="2.0"/><polygon fill="#000" fill-rule="evenodd" points="-10.842178603254341,-143.66472625632196 -8.024736290718197,-146.42150528078147 -4.695695264318749,-144.310747687234 -1.1809252545126903,-137.53906913544887 2.1755235612975277,-126.76932870313357 5.045098587266385,-113.05574362099702 7.146905826347203,-97.74069514504438 8.275205741826621,-82.32332692631908 8.319552476649747,-68.3127983851907 7.27560506343022,-57.08055767235729 5.245552348583296,-49.72609476841374" stroke="#00f" stroke-linejoin="round" stroke-width="2.0"/><polygon fill="#000" fill-rule="evenodd" points="20.886584446376524,-1.0946195076423022 10.490999905488557,-50.00199954433259 7.977153711729592,-46.96581952854094 4.4457152728120235,-48.71703462849425 0.24236638811550648,-55.08422370877602 -4.2214398670721,-65.44412193939337 -8.508755035326068,-78.78263029987815 -12.199906836496432,-93.79408265705362 -14.933579614517797,-109.00905346326081 -16.442182431259234,-122.9381953670531 -16.578042731964196,-134.218026908849 -15.327861563805307,-141.74439958612984" stroke="#f00" stroke-linejoin="round" stroke-width="2.0"/><polygon fill="#000" fill-rule="evenodd" points="-15.327861563805307,-141.74439958612984 -12.814015370046342,-144.7805796019215 -9.282576931128773,-143.0293645019682 -5.079228046432256,-136.6621754216864 -0.6154217912446533,-126.30227719106905 3.6718933770093045,-112.9637688305843 7.363045178179668,-97.95231647340886 10.096717956201033,-82.73734566720168 11.60532077294247,-68.80820376340938 11.741181073647432,-57.52837222161352 10.490999905488543,-50.001999544332655" stroke="#00f" stroke-linejoin="round" stroke-width="2.0"/><polygon fill="#000" fill-rule="evenodd" points="31.12972216834921,-3.271865642537319 15.678872449601842,-50.82469145729501 13.496164599575017,-47.542375473785754 9.80101992667711,-48.91486140104448 4.955144937078174,-54.807800753839366 -0.5671123620434741,-64.64435156979604 -6.225194950420779,-77.46164371976924 -11.465250282123883,-92.00503134479395 -15.7743452316734,-106.85090633439289 -18.73067556217749,-120.5460510072908 -20.04485506292182,-131.7498891832207 -19.588242687946547,-139.36571111979183" stroke="#f00" stroke-linejoin="round" stroke-width="2.0"/><polygon fill="#000" fill-rule="evenodd" points="-19.588242687946547,-139.36571111979183 -17.405534837919717,-142.64802710330108 -13.710390165021813,-141.27554117604237 -8.864515175422873,-135.38260182324748 -3.3422578763012396,-125.5460510072908 2.3158247120760613,-112.72875885731764 7.555880043779169,-98.18537123229294 11.864974993328673,-83.33949624269403 14.821305323832767,-69.64435156979611 16.135484824577098,-58.44051339386623 15.67887244960182,-50.82469145729507" stroke="#00f" stroke-linejoin="round" stroke-width="2.0"/><polygon fill="#000" fill-rule="evenodd" points="41.08916271748773,-6.507884040413096 20.752330563697722,-52.18515692254315 18.92467526136891,-48.692666712100404 15.106309132785675,-49.67138622363436 9.671000458734898,-55.025511572216274 3.150795122255026,-64.23094366434208 -3.816063749377456,-76.38659066881777 -10.547611468847101,-90.30257316347246 -16.3849172439214,-104.61669782337799 -20.75658491443526,-117.927798394452 -23.23468518959907,-128.93289160890657 -23.576644348539908,-136.55472226591775" stroke="#f00" stroke-linejoin="round" stroke-width="2.0"/><polygon fill="#000" fill-rule="evenodd" points="-23.576644348539908,-136.55472226591775 -21.7489890462111,-140.0472124763605 -17.930622917627865,-139.06849296482653 -12.495314243577084,-133.71436761624463 -5.975108907097216,-124.50893552411881 0.9917499645352521,-112.35328851964314 7.723297684004891,-98.43730602498849 13.560603459079193,-84.12318136508293 17.932271129593047,-70.81208079400895 20.410371404756848,-59.80698757955439 20.752330563697694,-52.18515692254321" stroke="#00f" stroke-linejoin="round" stroke-width="2.0"/><polygon fill="#000" fill-rule="evenodd" points="50.6557883789888,-10.76722020652212 25.655788378988806,-54.06849039574406 24.20320979831179,-50.40409041196399 20.30345703239246,-50.978320451994584 14.338265053134208,-55.734970878621716 6.891548413403264,-64.20842760655482 -1.3077563777778352,-75.5692496532193 -9.457044239532586,-88.70536060118593 -16.7586060965252,-102.33090638620104 -22.49771420122039,-115.11212365206754 -26.112584665613156,-125.7978978008254 -27.24936878236521,-133.34223080662778" stroke="#f00" stroke-linejoin="round" stroke-width="2.0"/><polygon fill="#000" fill-rule="evenodd" points="-27.24936878236521,-133.34223080662778 -25.796790201688196,-137.00663079040783 -21.897037435768866,-136.43240075037724 -15.931845456510615,-131.67575032375012 -8.485128816779671,-123.20229359581703 -0.2858240255985862,-111.84147154915257 7.863463836156157,-98.70536060118596 15.165025693148763,-85.07981481617087 20.904133797843958,-72.29859755030435 24.519004262236713,-61.61282340154651 25.655788378988774,-54.068490395744114" stroke="#00f" stroke-linejoin="round" stroke-width="2.0"/><polygon fill="#000" fill-rule="evenodd" points="59.72478520015989,-16.00320796250511 30.335522585536243,-56.45405768125249 29.273935481412526,-52.65789585718239 25.33552258553624,-52.82134504122569 18.90580319269194,-56.928405688430814 10.614163035540457,-64.57705008707515 1.2722456239177475,-75.01857563218029 -8.20549707696059,-87.23089305300502 -16.89131757621626,-100.0185756321803 -23.934987245712172,-112.12987590183283 -28.647022622065712,-122.37925540717819 -30.56617685195848,-129.76343347060703" stroke="#f00" stroke-linejoin="round" stroke-width="2.0"/><polygon fill="#000" fill-rule="evenodd" points="-30.56617685195848,-129.76343347060703 -29.504589747834764,-133.5595952946771 -25.566176851958495,-133.39614611063382 -19.13645745911419,-129.2890854634287 -10.8448173019627,-121.64044106478437 -1.5028998903400108,-111.19891551967925 7.97484281053832,-98.98659809885453 16.660663309793982,-86.19891551967928 23.70433297928988,-74.08761525002674 28.41636835564344,-63.83823574468139 30.335522585536204,-56.45405768125254" stroke="#00f" stroke-linejoin="round" stroke-width="2.0"/><polygon fill="#000" fill-rule="evenodd" points="68.19679135401866,-22.15848073080663 34.74026103607575,-59.315722004676346 34.0812963789695,-55.42938988365865 30.14737342898937,-55.18026742825034 23.323571973732307,-58.59274048012498 14.277853243859283,-65.33277240086726 3.8956752138786186,-74.74060190551121 -6.806682193747349,-85.89532509393979 -16.781597668251436,-97.70503994094314 -25.05265698366641,-109.01372927417486 -30.810231226340647,-118.71441978942661 -33.49072891402257,-125.85754031038037" stroke="#f00" stroke-linejoin="round" stroke-width="2.0"/><polygon fill="#000" fill-rule="evenodd" points="-33.49072891402257,-125.85754031038037 -32.8317642569163,-129.74387243139807 -28.897841306936172,-129.9929948868064 -22.074039851679117,-126.58052183493174 -13.028321121806101,-119.84048991418946 -2.6461430918254365,-110.43266040954552 8.056214315800503,-99.27793722111697 18.031129790304576,-87.46822237411364 26.302189105719563,-76.1595330408819 32.05976334839378,-66.45884252563016 34.74026103607571,-59.315722004676395" stroke="#00f" stroke-linejoin="round" stroke-width="2.0"/><polygon fill="#000" fill-rule="evenodd" points="75.97898576826216,-29.165600054903535 38.821744494392455,-62.622130372846456 38.572622038984136,-58.68820742286633 34.68628991796645,-58.029242765760074 27.543169397012676,-60.709740453441995 17.842478881760954,-66.4673146961162 6.5337895485291995,-74.7383740115312 -5.275925298474149,-84.71328948603528 -16.43064848690271,-95.41564689366125 -25.83847799154664,-105.79782492364191 -32.57850991228895,-114.84354365351496 -35.99098296416358,-121.66734510877201" stroke="#f00" stroke-linejoin="round" stroke-width="2.0"/><polygon fill="#000" fill-rule="evenodd" points="-35.99098296416358,-121.66734510877201 -35.74186050875525,-125.60126805875214 -31.855528387737564,-126.2602327158584 -24.712407866783806,-123.57973502817647 -15.01171735153207,-117.82216078550225 -3.7030280183003583,-109.55110147008727 8.10668682870299,-99.57618599558319 19.261410017131546,-88.87382858795725 28.66923952177548,-78.49165055797658 35.40927144251776,-69.44593182810357 38.82174449439241,-62.6221303728465" stroke="#00f" stroke-linejoin="round" stroke-width="2.0"/><polygon fill="#000" fill-rule="evenodd" points="82.98610509235907,-36.947794469147034 42.5352553736117,-66.3370570837707 42.69870455765499,-62.39864418789441 38.902542733584895,-61.337057083770695 31.518364670156046,-63.25621131366346 21.268985164810708,-67.96824669001701 9.157684895158141,-75.01191635951292 -3.6299976840170984,-83.6977368587686 -15.842315104841845,-93.17547955964693 -26.28384064994698,-102.51739697126965 -33.93248504859132,-110.80903712842112 -38.039545695796434,-117.23875652126543" stroke="#f00" stroke-linejoin="round" stroke-width="2.0"/><polygon fill="#000" fill-rule="evenodd" points="-38.039545695796434,-117.23875652126543 -38.202994879839736,-121.17716941714173 -34.406833055769624,-122.23875652126543 -27.02265499234079,-120.31960229137266 -16.77327548699546,-115.6075669150191 -4.661975217342928,-108.56389724552321 8.125707361832326,-99.87807674626757 20.33802478265705,-90.40033404538922 30.779550327762188,-81.05841663376651 38.42819472640652,-72.76677647661504 42.53525537361164,-66.33705708377073" stroke="#00f" stroke-linejoin="round" stroke-width="2.0"/><polygon fill="#000" fill-rule="evenodd" points="89.1413778606606,-45.4198006230058 45.840107671438666,-70.41980062300581 46.414337711469265,-66.52004785708647 42.74993772768919,-65.06746927640945 35.205604721886814,-66.20425339316151 24.51983057312897,-69.81912385755427 11.73861330726244,-75.55823196224947 -1.8869324777526657,-82.85979381924209 -15.023043425719294,-91.00908168099684 -26.383865472383732,-99.20838647217792 -34.857322200316844,-106.65510311190889 -39.613972626943976,-112.62029509116712" stroke="#f00" stroke-linejoin="round" stroke-width="2.0"/><polygon fill="#000" fill-rule="evenodd" points="-39.613972626943976,-112.62029509116712 -40.18820266697456,-116.52004785708645 -36.5238026831945,-117.97262643776347 -28.979469677392117,-116.83584232101141 -18.293695528634274,-113.22097185661866 -5.512478262767786,-107.48186375192347 8.113067522247306,-100.18030189493086 21.24917847021392,-92.03101403317612 32.61000051687838,-83.83170924199503 41.08345724481148,-76.38499260226409 45.84010767143861,-70.41980062300584" stroke="#00f" stroke-linejoin="round" stroke-width="2.0"/><polygon fill="#000" fill-rule="evenodd" points="94.37736561664359,-54.48879744417688 48.70009273451355,-74.8256295979669 49.6788122460475,-71.00726346938366 46.18632203560475,-69.17960816705485 38.56449137859358,-69.52156732599569 27.559398164139026,-71.9996676011595 14.248297593065018,-76.37133527167336 -0.06582706684052653,-82.20864104674766 -13.981809561495197,-88.9401887662173 -26.13745656597088,-95.90704763784977 -35.3428886580967,-102.42725297432966 -40.6970140066786,-107.86256164838044" stroke="#f00" stroke-linejoin="round" stroke-width="2.0"/><polygon fill="#000" fill-rule="evenodd" points="-40.6970140066786,-107.86256164838044 -41.67573351821257,-111.68092777696367 -38.183243307769814,-113.50858307929248 -30.561412650758626,-113.16662392035163 -19.556319436304094,-110.68852364518783 -6.245218865230115,-106.31685597467398 8.06890579467543,-100.47955019959969 21.984888289330087,-93.74800248013004 34.140535293805755,-86.78114360849757 43.34596738593156,-80.2609382720177 48.70009273451348,-74.82562959796692" stroke="#00f" stroke-linejoin="round" stroke-width="2.0"/><polygon fill="#000" fill-rule="evenodd" points="98.63670178275261,-64.05542310567795 51.08387596799493,-79.50627282442532 52.45636189525366,-75.81112815152741 49.1740459117444,-73.6284203015006 41.55822397517324,-73.1718079265253 30.35438579924336,-74.48598742726963 16.65924112634545,-77.44231775777374 1.8133661367465095,-81.75141270732325 -12.730021488278197,-86.99146803902636 -25.54731363825138,-92.64955062740367 -35.38386445420808,-98.17180792652532 -41.27680380700296,-103.01768291612424" stroke="#f00" stroke-linejoin="round" stroke-width="2.0"/><polygon fill="#000" fill-rule="evenodd" points="-41.27680380700296,-103.01768291612424 -42.6492897342617,-106.71282758902217 -39.36697375075242,-108.89553543904898 -31.751151814181284,-109.35214781402426 -20.547313638251396,-108.03796831327993 -6.852168965353499,-105.08163798277585 7.993706024245412,-100.77254303322633 22.53709364927012,-95.53248770152322 35.354385799243296,-89.87440511314593 45.19093661519999,-84.35214781402428 51.083875967994864,-79.50627282442534" stroke="#00f" stroke-linejoin="round" stroke-width="2.0"/><polygon fill="#000" fill-rule="evenodd" points="101.87272018062839,-74.01486365481647 52.96534014393811,-84.41044819570445 54.71655524389141,-80.87900975678687 51.68037522809976,-78.3651635630279 44.1540025508189,-77.11498239486902 32.87417100902303,-77.25084269557398 18.94502910523073,-78.75944551231541 3.730058299023554,-81.49311829033678 -11.281394058151918,-85.18427009150714 -24.619902418636684,-89.47158525976111 -34.97980064925403,-93.93539151494872 -41.34698972953581,-98.13874039964523" stroke="#f00" stroke-linejoin="round" stroke-width="2.0"/><polygon fill="#000" fill-rule="evenodd" points="-41.34698972953581,-98.13874039964523 -43.098204829489134,-101.6701788385628 -40.06202481369746,-104.18402503232177 -32.535652136416616,-105.43420620048066 -21.255820594620758,-105.2983458997757 -7.326678690828473,-103.78974308303427 7.888292115378704,-101.0560703050129 22.89974447255416,-97.36491850384253 36.2382528330389,-93.07760333558858 46.59815106365626,-88.61379708040097 52.96534014393804,-84.41044819570445" stroke="#00f" stroke-linejoin="round" stroke-width="2.0"/><polygon fill="#000" fill-rule="evenodd" points="104.0499663155234,-84.25800137678915 54.32387154710974,-89.48442454017183 56.434629140657215,-86.15538351377238 53.67785011619769,-83.33794120123623 46.32338721225415,-81.30788848638932 35.09114649942072,-80.26394107316979 21.080617958292336,-80.30828780799291 5.663249739567021,-81.43658772347233 -9.65179873638563,-83.53839496255316 -23.36538381852219,-86.40796998852201 -34.13512425083748,-89.76441880433222 -40.90680280262261,-93.27918881413828" stroke="#f00" stroke-linejoin="round" stroke-width="2.0"/><polygon fill="#000" fill-rule="evenodd" points="-40.90680280262261,-93.27918881413828 -43.01756039617011,-96.60822984053773 -40.260781371710564,-99.42567215307388 -32.906318467767036,-101.45572486792081 -21.67407775493362,-102.49967228114033 -7.66354921380524,-102.4553255463172 7.753819004920047,-101.3270256308378 23.068867480872697,-99.22521839175697 36.78245256300923,-96.35564336578811 47.552192995324525,-92.9991945499779 54.323871547109675,-89.48442454017184" stroke="#00f" stroke-linejoin="round" stroke-width="2.0"/><polygon fill="#000" fill-rule="evenodd" points="105.14458582316571,-94.67261031119969 55.14458582316571,-94.67261031119969 57.59176000840803,-91.58244036745022 55.14458582316571,-88.49227042370075 48.04260972715541,-85.70458784452549 36.981022623031706,-83.49227042370075 23.04260972715541,-82.0718752044987 7.591760008408045,-81.58244036745023 -7.859089710339319,-82.0718752044987 -21.797502606215602,-83.49227042370076 -32.85908971033932,-85.7045878445255 -39.96106580634962,-88.49227042370076" stroke="#f00" stroke-linejoin="round" stroke-width="2.0"/><polygon fill="#000" fill-rule="evenodd" points="-39.96106580634962,-88.49227042370076 -42.40823999159194,-91.58244036745023 -39.96106580634962,-94.6726103111997 -32.85908971033932,-97.46029289037496 -21.797502606215616,-99.67261031119969 -7.859089710339347,-101.09300553040175 7.591760008408002,-101.58244036745022 23.04260972715535,-101.09300553040175 36.981022623031635,-99.67261031119969 48.04260972715534,-97.46029289037496 55.14458582316565,-94.67261031119969" stroke="#00f" stroke-linejoin="round" stroke-width="2.0"/><polygon fill="#000" fill-rule="evenodd" points="105.14458582316571,-105.14458582316567 55.41849105475204,-99.91816265978301 58.17527007921156,-97.10072034724686 56.06451248566408,-93.77167932084741 49.29283393387894,-90.25690931104134 38.52309350156365,-86.90046049523113 24.80950841942709,-84.03088546926227 9.494459943474439,-81.92907823018146 -5.922908275250876,-80.80077831470204 -19.933436816379256,-80.75643157987892 -31.165677529212715,-81.80037899309843 -38.52014043315624,-83.83043170794537" stroke="#f00" stroke-linejoin="round" stroke-width="2.0"/><polygon fill="#000" fill-rule="evenodd" points="-38.52014043315624,-83.83043170794537 -41.27691945761576,-86.64787402048151 -39.166161864068286,-89.97691504688096 -32.39448331228316,-93.49168505668702 -21.624742879967854,-96.84813387249724 -7.911157797831308,-99.7177088984661 7.4038906781213285,-101.81951613754691 22.82125889684663,-102.94781605302633 36.83178743797501,-102.99216278784945 48.064028150808426,-101.94821537462992 55.418491054751975,-99.918162659783" stroke="#00f" stroke-linejoin="round" stroke-width="2.0"/><polygon fill="#000" fill-rule="evenodd" points="104.0499663155234,-115.55919475757621 55.142586278833114,-105.16361021668826 58.178766294624765,-102.64976402292928 56.42755119467146,-99.11832558401171 50.06036211438968,-94.91497669931519 39.70046388377233,-90.4511704441276 26.361955523287563,-86.16385527587363 11.350503166112091,-82.47270347470327 -3.8644676400951,-79.73903069668191 -17.7936095438874,-78.23042787994046 -29.073441085683285,-78.0945675792355 -36.59981376296413,-79.34474874739439" stroke="#f00" stroke-linejoin="round" stroke-width="2.0"/><polygon fill="#000" fill-rule="evenodd" points="-36.59981376296413,-79.34474874739439 -39.635993778755775,-81.85859494115337 -37.884778678802476,-85.39003338007093 -31.5175895985207,-89.59338226476744 -21.15769136790334,-94.05718851995505 -7.819183007418587,-98.344503688209 7.19226934975687,-102.03565548937937 22.407240155964047,-104.76932826740072 36.33638205975633,-106.27793108414217 47.61621360155219,-106.41379138484712 55.14258627883305,-105.16361021668823" stroke="#00f" stroke-linejoin="round" stroke-width="2.0"/><polygon fill="#000" fill-rule="evenodd" points="101.87272018062839,-125.8023324795489 54.3198943658707,-110.35148276080153 57.60221034937996,-108.1687749107747 56.22972442212123,-104.47363023787679 50.336785069326346,-99.62775524827786 40.50023425336966,-94.10549794915622 27.68294210339647,-88.44741536077892 13.13955447837175,-83.2073600290758 -1.706320511227176,-78.8982650795263 -15.401465184125087,-75.94193474902221 -26.60530336005499,-74.62775524827788 -34.221125296626155,-75.08436762325314" stroke="#f00" stroke-linejoin="round" stroke-width="2.0"/><polygon fill="#000" fill-rule="evenodd" points="-34.221125296626155,-75.08436762325314 -37.50344128013538,-77.26707547327999 -36.13095535287667,-80.96222014617788 -30.238016000081785,-85.80809513577682 -20.401465184125087,-91.33035243489846 -7.584173034151931,-96.98843502327576 6.959214590872776,-102.22849035497886 21.805089580471687,-106.53758530452836 35.5002342533696,-109.49391563503247 46.70407242929949,-110.8080951357768 54.319894365870645,-110.35148276080152" stroke="#00f" stroke-linejoin="round" stroke-width="2.0"/><polygon fill="#000" fill-rule="evenodd" points="98.63670178275262,-135.7617730286874 52.95942890062258,-115.4249408748974 56.45191911106532,-113.5972855725686 55.47319959953137,-109.77891944398536 50.11907425094945,-104.34361076993457 40.913642158823635,-97.8234054334547 28.757995154347967,-90.85654656182223 14.842012659693282,-84.12499884235258 0.5278879997877368,-78.28769306727828 -12.78321257128627,-73.91602539676444 -23.788305785740818,-71.43792512160063 -31.41013644275202,-71.09596596265979" stroke="#f00" stroke-linejoin="round" stroke-width="2.0"/><polygon fill="#000" fill-rule="evenodd" points="-31.41013644275202,-71.09596596265979 -34.902626653194744,-72.9236212649886 -33.923907141660806,-76.74198739357183 -28.56978179307886,-82.1772960676226 -19.36434970095307,-88.69750140410247 -7.208702696477403,-95.66436027573494 6.70727979817724,-102.39590799520458 21.0214044580828,-108.23321377027887 34.33250502915679,-112.60488144079272 45.33759824361134,-115.08298171595652 52.95942890062252,-115.42494087489737" stroke="#00f" stroke-linejoin="round" stroke-width="2.0"/><polygon fill="#000" fill-rule="evenodd" points="94.3773656166436,-145.32839869018846 51.076095427421656,-120.32839869018846 54.74049541120173,-118.87582010951145 54.16626537117113,-114.97606734359212 49.409614944543996,-109.01087536433387 40.9361582166109,-101.56415872460292 29.575336169946425,-93.36485393342183 16.439225221979783,-85.21556607166708 2.8136794369646765,-77.91400421467446 -9.967537828901825,-72.17489610997927 -20.653311977659683,-68.5600256455865 -28.19764498346207,-67.42324152883445" stroke="#f00" stroke-linejoin="round" stroke-width="2.0"/><polygon fill="#000" fill-rule="evenodd" points="-28.19764498346207,-67.42324152883445 -31.86204496724214,-68.87582010951147 -31.287814927211542,-72.7755728754308 -26.53116450058441,-78.74076485468905 -18.057707772651312,-86.18748149442 -6.69688572598686,-94.38678628560109 6.439225221979754,-102.53607414735583 20.064771006994846,-109.83763600434844 32.84598827286137,-115.57674410904362 43.53176242161921,-119.19161457343638 51.0760954274216,-120.32839869018844" stroke="#00f" stroke-linejoin="round" stroke-width="2.0"/><polygon fill="#000" fill-rule="evenodd" points="89.14137786066061,-154.39739551135955 48.69052814191323,-125.0081328967359 52.48668996598333,-123.94654579261218 52.32324078194003,-120.0081328967359 48.216180134734905,-113.5784135038916 40.567535736090576,-105.28677334674012 30.126010190985433,-95.9448559351174 17.913692770160694,-86.46711323423906 5.126010190985426,-77.7812927349834 -6.98529007866712,-70.73762306548748 -17.234669584012465,-66.02558768913394 -24.6188476474413,-64.10643345924117" stroke="#f00" stroke-linejoin="round" stroke-width="2.0"/><polygon fill="#000" fill-rule="evenodd" points="-24.6188476474413,-64.10643345924117 -28.415009471511397,-65.16802056336489 -28.25156028746811,-69.10643345924116 -24.144499640262993,-75.53615285208546 -16.495855241618642,-83.82779300923696 -6.05432969651352,-93.16971042085964 6.157987724311198,-102.64745312173798 18.94567030348645,-111.33327362099364 31.056970573138983,-118.37694329048954 41.30635007848433,-123.08897866684309 48.69052814191318,-125.00813289673586" stroke="#00f" stroke-linejoin="round" stroke-width="2.0"/><polygon fill="#000" fill-rule="evenodd" points="82.9861050923591,-162.8694016652183 45.828863818489374,-129.4128713472754 49.71519593950707,-128.75390669016915 49.96431839491538,-124.81998374018902 46.55184534304074,-117.99618228493196 39.811813422298464,-108.95046355505895 30.403983917654507,-98.56828552507827 19.24926072922593,-87.86592811745231 7.439545882222589,-77.89101264294823 -3.869143451009151,-69.61995332753325 -13.569833966260902,-63.862379084859015 -20.71295448721466,-61.181881397177094" stroke="#f00" stroke-linejoin="round" stroke-width="2.0"/><polygon fill="#000" fill-rule="evenodd" points="-20.71295448721466,-61.181881397177094 -24.59928660823236,-61.84084605428336 -24.848409063640673,-65.77476900426349 -21.43593601176603,-72.59857045952054 -14.695904091023749,-81.64428918939356 -5.288074586379807,-92.02646721937423 5.866648602048755,-102.72882462700017 17.67636344905209,-112.70374010150424 28.985052782283823,-120.97479941691921 38.68574329753555,-126.73237365959343 45.828863818489324,-129.41287134727537" stroke="#00f" stroke-linejoin="round" stroke-width="2.0"/><polygon fill="#000" fill-rule="evenodd" points="75.97898576826219,-170.6515960794618 42.52245545031927,-133.49435480559208 46.4563784002994,-133.24523235018378 47.11534305740565,-129.35890022916607 44.434845369723725,-122.21577970821232 38.67727112704951,-112.51508919296059 30.406211811634506,-101.20639985972885 20.431296337130426,-89.3966850127255 9.728938929504466,-78.24196182429694 -0.653239100476199,-68.83413231965301 -9.698957830349244,-62.0941003989107 -16.5227592856063,-58.68162734703607" stroke="#f00" stroke-linejoin="round" stroke-width="2.0"/><polygon fill="#000" fill-rule="evenodd" points="-16.5227592856063,-58.68162734703607 -20.456682235586428,-58.930749802444396 -21.11564689269268,-62.817081923462084 -18.43514920501076,-69.96020244441584 -12.677574962336536,-79.66089295966758 -4.406515646921548,-90.96958229289929 5.568399827582525,-102.77929713990264 16.27075723520847,-113.93402032833119 26.652935265189143,-123.34184983297513 35.69865399506216,-130.0818817537174 42.52245545031923,-133.49435480559205" stroke="#00f" stroke-linejoin="round" stroke-width="2.0"/><polygon fill="#000" fill-rule="evenodd" points="68.1967913540187,-177.65871540355872 38.807528739395025,-137.20786568481134 42.74594163527131,-137.37131486885465 43.807528739395025,-133.57515304478454 41.888374509502256,-126.19097498135571 37.17633913314871,-115.94159547601038 30.13266946365279,-103.83029520635782 21.44684896439712,-91.04261262718256 11.96910626351876,-78.83029520635783 2.627188851896051,-68.3887696612527 -5.66445130525544,-60.74012526260836 -12.094170698099731,-56.63306461540324" stroke="#f00" stroke-linejoin="round" stroke-width="2.0"/><polygon fill="#000" fill-rule="evenodd" points="-12.094170698099731,-56.63306461540324 -16.032583593976014,-56.46961543135994 -17.094170698099717,-60.26577725543005 -15.175016468206962,-67.64995531885889 -10.462981091853408,-77.89933482420422 -3.4193114223575094,-90.01063509385675 5.266509076898153,-102.798317673032 14.744251777776498,-115.0106350938567 24.0861691893992,-125.45216063896186 32.37780934655069,-133.10080503760616 38.80752873939499,-137.2078656848113" stroke="#00f" stroke-linejoin="round" stroke-width="2.0"/><polygon fill="#000" fill-rule="evenodd" points="59.72478520015994,-183.81398817186025 34.72478520015993,-140.51271798263832 38.62453796607926,-141.08694802266893 40.07711654675627,-137.42254803888886 38.94033243000422,-129.87821503308646 35.32546196561145,-119.19244088432862 29.586353860916255,-106.41122361846209 22.284792003923634,-92.785677833447 14.135504142168884,-79.64956688548037 5.936199350987785,-68.28874483881593 -1.5105172887431664,-59.815288110882804 -7.47570926800141,-55.05863768425567" stroke="#f00" stroke-linejoin="round" stroke-width="2.0"/><polygon fill="#000" fill-rule="evenodd" points="-7.47570926800141,-55.05863768425567 -11.37546203392074,-54.48440764422509 -12.828040614597754,-58.14880762800516 -11.6912564978457,-65.69314063380754 -8.076386033452948,-76.37891478256539 -2.337277928757757,-89.16013204843188 4.964283928234849,-102.78567783344697 13.1135717899896,-115.92178878141358 21.3128765811707,-127.28261082807805 28.759593220901642,-135.75606755601115 34.72478520015989,-140.51271798263826" stroke="#00f" stroke-linejoin="round" stroke-width="2.0"/><polygon fill="#000" fill-rule="evenodd" points="50.65578837898886,-189.04997592784324 30.318956225198832,-143.3727030457132 34.137322353782075,-144.35142255724713 35.964977656110875,-140.8589323468044 35.62301849717004,-133.23710168979323 33.14491822200623,-122.23200847533867 28.773250551492364,-108.92090790426468 22.935944776418058,-94.60678324435912 16.20439705694841,-80.69080074970447 9.237538185315934,-68.53515374522878 2.717332848836051,-59.32972165310298 -2.7179758252147224,-53.975596304521076" stroke="#f00" stroke-linejoin="round" stroke-width="2.0"/><polygon fill="#000" fill-rule="evenodd" points="-2.7179758252147224,-53.975596304521076 -6.536341953797965,-52.99687679298711 -8.363997256126765,-56.48936700342986 -8.02203809718592,-64.11119766044104 -5.543937822022116,-75.11629087489557 -1.1722701515082647,-88.42739144596955 4.665035623566041,-102.74151610587509 11.39658334303568,-116.65749860052973 18.363442214668154,-128.81314560500542 24.88364755114803,-138.0185776971312 30.318956225198807,-143.37270304571314" stroke="#00f" stroke-linejoin="round" stroke-width="2.0"/><polygon fill="#000" fill-rule="evenodd" points="41.0891627174878,-193.30931209395226 25.638312998740414,-145.75648627919458 29.33345767163832,-147.1289722064533 31.516165521665144,-143.84665622294403 31.972777896640423,-136.2308342863729 30.658598395896092,-125.02699611044301 27.70226806539199,-111.3318514375451 23.393173115842476,-96.48597644794616 18.15311778413936,-81.94258882292145 12.495035195762057,-69.12529667294827 6.972777896640402,-59.28874585699157 2.126902907041462,-53.395806504196685" stroke="#f00" stroke-linejoin="round" stroke-width="2.0"/><polygon fill="#000" fill-rule="evenodd" points="2.126902907041462,-53.395806504196685 -1.5682417658564418,-52.02332057693795 -3.7509496158832647,-55.305636560447226 -4.207561990858544,-62.921458497018364 -2.893382490114213,-74.12529667294825 0.06294784038988865,-87.82044134584615 4.3720427899394,-102.66631633544507 9.612098121642507,-117.20970396046977 15.270180710019812,-130.02699611044295 20.792438009141456,-139.86354692639964 25.638312998740396,-145.75648627919452" stroke="#00f" stroke-linejoin="round" stroke-width="2.0"/><polygon fill="#000" fill-rule="evenodd" points="31.129722168349293,-196.54533049182803 20.73413762746131,-147.63795045513774 24.26557606637888,-149.38916555509104 26.779422260137842,-146.3529855392994 28.02960342829673,-138.82661286201852 27.893743127591772,-127.54678132022266 26.385140310850332,-113.61763941643036 23.651467532828956,-98.40266861022319 19.96031573165859,-83.39121625304772 15.673000563404624,-70.05270789256295 11.209194308217015,-59.6928096619456 7.005845423520498,-53.32562058166383" stroke="#f00" stroke-linejoin="round" stroke-width="2.0"/><polygon fill="#000" fill-rule="evenodd" points="7.005845423520498,-53.32562058166383 3.4744069846029255,-51.5744054817105 0.9605607908439637,-54.61058549750217 -0.2896203773149253,-62.13695817478302 -0.15376007660996294,-73.41678971657888 1.354842740131474,-87.34593162037116 4.0885155181528425,-102.56090242657834 7.779667319323206,-117.5723547837538 12.066982487577175,-130.91086314423853 16.530788742764777,-141.2707613748559 20.734137627461294,-147.63795045513768" stroke="#00f" stroke-linejoin="round" stroke-width="2.0"/><polygon fill="#000" fill-rule="evenodd" points="20.886584446376617,-198.72257662672305 15.660161282993926,-148.99648185830938 18.989202309393377,-151.10723945185686 21.80664462192952,-148.35046042739734 23.836697336776446,-140.9959975234538 24.880644749995973,-129.76375681062035 24.836298015172844,-115.75322826949198 23.70799809969342,-100.33586005076667 21.6061908606126,-85.02081157481402 18.736615834643736,-71.30722649267746 15.380167018833516,-60.53748606036217 11.865397009027454,-53.76580750857704" stroke="#f00" stroke-linejoin="round" stroke-width="2.0"/><polygon fill="#000" fill-rule="evenodd" points="11.865397009027454,-53.76580750857704 8.536355982628006,-51.65504991502954 5.718913670091862,-54.411828939489084 3.688860955244941,-61.76629184343261 2.6449135420254137,-72.99853255626603 2.689260276848543,-87.00906109739441 3.81756019232796,-102.4264293161197 5.91936743140878,-117.74147779207235 8.788942457377644,-131.45506287420886 12.145391273187862,-142.22480330652417 15.660161282993919,-148.99648185830932" stroke="#00f" stroke-linejoin="round" stroke-width="2.0"/><polygon fill="#000" fill-rule="evenodd" points="10.471975511966079,-199.81719613436536 10.471975511966063,-149.81719613436536 13.562145455715537,-152.26437031960768 16.65231539946501,-149.81719613436536 19.439997978640264,-142.71522003835506 21.652315399465003,-131.65363293423135 23.07271061866706,-117.71522003835506 23.562145455715523,-102.26437031960769 23.072710618667053,-86.81352060086033 21.65231539946499,-72.87510770498405 19.439997978640243,-61.81352060086033 16.652315399464985,-54.711544504850025" stroke="#f00" stroke-linejoin="round" stroke-width="2.0"/><polygon fill="#000" fill-rule="evenodd" points="16.652315399464985,-54.711544504850025 13.56214545571551,-52.26437031960771 10.47197551196604,-54.711544504850025 7.684292932790786,-61.81352060086033 5.471975511966048,-72.87510770498403 4.051580292763992,-86.8135206008603 3.562145455715531,-102.26437031960765 4.051580292763999,-117.715220038355 5.471975511966063,-131.65363293423127 7.6842929327908065,-142.71522003835497 10.471975511966063,-149.8171961343653" stroke="#00f" stroke-linejoin="round" stroke-width="2.0"/><polygon fill="#000" fill-rule="evenodd" points="1.1368683772161603e-13,-199.81719613436536 5.226423163382771,-150.0911013659517 8.043865475918919,-152.8478803904112 11.372906502318367,-150.73712279686373 14.887676512124425,-143.96544424507857 18.24412532793464,-133.1957038127633 21.113700353903496,-119.48211873062674 23.21550759298431,-104.16707025467407 24.343807508463723,-88.74970203594877 24.38815424328684,-74.73917349482038 23.344206830067314,-63.50693278198693 21.314154115220383,-56.152469878043405" stroke="#f00" stroke-linejoin="round" stroke-width="2.0"/><polygon fill="#000" fill-rule="evenodd" points="21.314154115220383,-56.152469878043405 18.49671180268424,-53.395690853583886 15.16767077628479,-55.50644844713136 11.652900766478735,-62.27812699891649 8.296451950668523,-73.0478674312318 5.426876924699669,-86.76145251336834 3.325069685618856,-102.07650098932098 2.1967697701394435,-117.49386920804628 2.152423035316322,-131.50439774917464 3.1963704485358524,-142.73663846200807 5.226423163382778,-150.09110136595163" stroke="#00f" stroke-linejoin="round" stroke-width="2.0"/><polygon fill="#000" fill-rule="evenodd" points="-10.414608934410422,-198.72257662672305 -0.019024393522471428,-149.81519659003277 2.4948218002364957,-152.8513766058244 6.026260239154064,-151.1001615058711 10.229609123850578,-144.73297242558934 14.69341537903818,-134.373074194972 18.98073054729214,-121.03456583448721 22.671882348462496,-106.02311347731174 25.40555512648386,-90.80814267110455 26.914157943225298,-76.87900076731225 27.050018243930253,-65.59916922551636 25.799837075771357,-58.072796548235516" stroke="#f00" stroke-linejoin="round" stroke-width="2.0"/><polygon fill="#000" fill-rule="evenodd" points="25.799837075771357,-58.072796548235516 23.285990882012392,-55.03661653244387 19.754552443094823,-56.78783163239717 15.551203558398315,-63.15502071267895 11.087397303210713,-73.51491894329631 6.800082134956755,-86.85342730378106 3.108930333786402,-101.86487966095652 0.3752575557650406,-117.0798504671637 -1.1333452609763928,-131.00899237095598 -1.269205561681348,-142.28882391275184 -0.019024393522458993,-149.8151965900327" stroke="#00f" stroke-linejoin="round" stroke-width="2.0"/><polygon fill="#000" fill-rule="evenodd" points="-20.657746656383097,-196.54533049182805 -5.206896937635744,-148.99250467707037 -3.0241890876089172,-152.27482066057962 0.6709555852889864,-150.90233473332088 5.516830574887919,-145.00939538052603 11.03908787400956,-135.17284456456935 16.697170462386865,-122.35555241459615 21.93722579408997,-107.81216478957143 26.24632074363948,-92.9662897999725 29.20265107414356,-79.27114512707459 30.51683057488789,-68.0673069511447 30.06021819991261,-60.451485014573535" stroke="#f00" stroke-linejoin="round" stroke-width="2.0"/><polygon fill="#000" fill-rule="evenodd" points="30.06021819991261,-60.451485014573535 27.87751034988578,-57.169169031064285 24.182365676987878,-58.54165495832302 19.336490687388945,-64.4345943111179 13.814233388267311,-74.27114512707459 8.156150799890021,-87.08843727704775 2.916095468186917,-101.63182490207245 -1.3929994813625868,-116.47769989167136 -4.349329811866678,-130.1728445645693 -5.663509312611001,-141.37668274049915 -5.206896937635724,-148.99250467707031" stroke="#00f" stroke-linejoin="round" stroke-width="2.0"/><polygon fill="#000" fill-rule="evenodd" points="-30.617187205521603,-193.3093120939523 -10.280355051731608,-147.63203921182225 -8.4526997494028,-151.12452942226497 -4.634333620819561,-150.14580991073103 0.8009750532312125,-144.7916845621491 7.321180389711088,-135.58625247002328 14.288039261343556,-123.43060546554761 21.0195869808132,-109.51462297089293 26.8568927558875,-95.20049831098738 31.228560426401344,-81.88939773991338 33.706660701565156,-70.88430452545882 34.048619860505994,-63.26247386844764" stroke="#f00" stroke-linejoin="round" stroke-width="2.0"/><polygon fill="#000" fill-rule="evenodd" points="34.048619860505994,-63.26247386844764 32.22096455817718,-59.76998365800489 28.402598429593944,-60.74870316953886 22.96728975554317,-66.10282851812077 16.4470844190633,-75.30826061024658 9.480225547430841,-87.46390761472225 2.7486778279612025,-101.3798901093769 -3.0886279471130926,-115.69401476928245 -7.46029561762694,-129.00511534035644 -9.938395892790737,-140.010208554811 -10.280355051731583,-147.6320392118222" stroke="#00f" stroke-linejoin="round" stroke-width="2.0"/><polygon fill="#000" fill-rule="evenodd" points="-40.18381286702266,-189.04997592784326 -15.18381286702267,-145.7487057386213 -13.731234286345654,-149.41310572240138 -9.831481520426319,-148.8388756823708 -3.866289541168072,-144.08222525574365 3.580427098562872,-135.60876852781055 11.779731889743964,-124.24794648114609 19.92901975149872,-111.11183553317944 27.230581608491327,-97.48628974816434 32.96968971318652,-84.70507248229784 36.584560177579284,-74.01929833353998 37.72134429433134,-66.47496532773759" stroke="#f00" stroke-linejoin="round" stroke-width="2.0"/><polygon fill="#000" fill-rule="evenodd" points="37.72134429433134,-66.47496532773759 36.268765713654325,-62.81056534395752 32.369012947734994,-63.38479538398812 26.403820968476744,-68.14144581061525 18.957104328745793,-76.61490253854835 10.757799537564708,-87.9757245852128 2.6085116758099716,-101.11183553317942 -4.693050181182642,-114.73738131819451 -10.432158285877822,-127.51859858406104 -14.04702875027058,-138.20437273281888 -15.183812867022638,-145.74870573862125" stroke="#00f" stroke-linejoin="round" stroke-width="2.0"/><polygon fill="#000" fill-rule="evenodd" points="-49.252809688193736,-183.81398817186027 -19.86354707357009,-143.3631384531129 -18.801959969446372,-147.15930027718298 -14.86354707357009,-146.9958510931397 -8.433827680725791,-142.88879044593457 -0.1421875235743073,-135.24014604729024 9.199729888048402,-124.79862050218509 18.677472588926747,-112.58630308136034 27.363293088182402,-99.79862050218509 34.406962757678315,-87.68732023253254 39.118998134031855,-77.4379407271872 41.038152363924624,-70.05376266375836" stroke="#f00" stroke-linejoin="round" stroke-width="2.0"/><polygon fill="#000" fill-rule="evenodd" points="41.038152363924624,-70.05376266375836 39.97656525980091,-66.25760083968827 36.03815236392464,-66.42105002373155 29.608432971080333,-70.52811067093667 21.316792813928842,-78.17675506958102 11.974875402306154,-88.61828061468614 2.497132701427823,-100.83059803551086 -6.188687797827839,-113.61828061468611 -13.232357467323737,-125.72958088433865 -17.94439284367728,-135.978960389684 -19.863547073570054,-143.36313845311284" stroke="#00f" stroke-linejoin="round" stroke-width="2.0"/><polygon fill="#000" fill-rule="evenodd" points="-57.72481584205249,-177.65871540355877 -24.268285524109594,-140.50147412968906 -23.609320867003333,-144.38780625070675 -19.675397917023204,-144.63692870611504 -12.85159646176615,-141.22445565424042 -3.8058777318931263,-134.48442373349815 6.576300298087546,-125.07659422885419 17.2786577057135,-113.9218710404256 27.253573180217586,-102.11215619342227 35.52463249563256,-90.80346686019053 41.2822067383068,-81.10277634493877 43.96270442598872,-73.95965582398502" stroke="#f00" stroke-linejoin="round" stroke-width="2.0"/><polygon fill="#000" fill-rule="evenodd" points="43.96270442598872,-73.95965582398502 43.30373976888245,-70.07332370296731 39.36981681890232,-69.824201247559 32.54601536364527,-73.23667429943364 23.50029663377225,-79.97670622017593 13.118118603791586,-89.38453572481987 2.415761196165647,-100.53925891324843 -7.559154278338426,-112.34897376025177 -15.830213593753406,-123.6576630934835 -21.587787836427623,-133.35835360873523 -24.26828552410955,-140.501474129689" stroke="#00f" stroke-linejoin="round" stroke-width="2.0"/><polygon fill="#000" fill-rule="evenodd" points="-65.50701025629598,-170.65159607946188 -28.349768982426284,-137.19506576151895 -28.100646527017965,-141.1289887114991 -24.21431440600027,-141.78795336860534 -17.071193885046505,-139.1074556809234 -7.3705033697947755,-133.3498814382492 3.9381859634369647,-125.0788221228342 15.747900810440314,-115.10390664833011 26.902623998868876,-104.40154924070416 36.310453503512804,-94.01937121072349 43.050485424255115,-84.97365248085045 46.46295847612974,-78.14985102559339" stroke="#f00" stroke-linejoin="round" stroke-width="2.0"/><polygon fill="#000" fill-rule="evenodd" points="46.46295847612974,-78.14985102559339 46.213836020721416,-74.21592807561326 42.32750389970373,-73.55696341850701 35.18438337874997,-76.23746110618893 25.483692863498234,-81.99503534886315 14.175003530266522,-90.26609466427814 2.3652886832631737,-100.24101013878222 -8.789434505165374,-110.94336754640815 -18.19726400980931,-121.32554557638883 -24.937295930551592,-130.37126430626185 -28.349768982426234,-137.19506576151892" stroke="#00f" stroke-linejoin="round" stroke-width="2.0"/><polygon fill="#000" fill-rule="evenodd" points="-72.51412958039289,-162.8694016652184 -32.063279861645526,-133.48013905059472 -32.22672904568882,-137.418551946471 -28.430567221618723,-138.48013905059472 -21.046389158189882,-136.56098482070195 -10.797009652844544,-131.84894944434842 1.3142906168080088,-124.8052797748525 14.101973195983263,-116.11945927559682 26.314290616807995,-106.64171657471846 36.75581616191313,-97.29979916309577 44.40446056055747,-89.00815900594426 48.511521207762584,-82.57843961309997" stroke="#f00" stroke-linejoin="round" stroke-width="2.0"/><polygon fill="#000" fill-rule="evenodd" points="48.511521207762584,-82.57843961309997 48.674970391805886,-78.64002671722369 44.878808567735774,-77.57843961309999 37.49463050430694,-79.49759384299274 27.24525099896161,-84.2096292193463 15.133950729309078,-91.2532988888422 2.346268150133824,-99.93911938809785 -9.866049270690887,-109.4168620889762 -20.307574815796023,-118.7587795005989 -27.956219214440353,-127.05041965775038 -32.063279861645476,-133.4801390505947" stroke="#00f" stroke-linejoin="round" stroke-width="2.0"/><polygon fill="#000" fill-rule="evenodd" points="-78.6694023486944,-154.39739551135963 -35.36813215947248,-129.39739551135963 -35.94236219950308,-133.29714827727895 -32.27796221572301,-134.74972685795598 -24.733629209920622,-133.6129427412039 -14.047855061162778,-129.99807227681114 -1.2666377952962478,-124.25896417211595 12.358907989718844,-116.95740231512335 25.495018937685472,-108.80811445336857 36.85584098434991,-100.6088096621875 45.32929771228302,-93.16209302245653 50.08594813891017,-87.1969010431983" stroke="#f00" stroke-linejoin="round" stroke-width="2.0"/><polygon fill="#000" fill-rule="evenodd" points="50.08594813891017,-87.1969010431983 50.660178178940754,-83.29714827727896 46.99577819516068,-81.84456969660195 39.451445189358296,-82.981353813354 28.765671040600452,-86.59622427774676 15.984453774733964,-92.33533238244195 2.3589079897188725,-99.63689423943455 -10.777202958247742,-107.7861821011893 -22.1380250049122,-115.9854868923704 -30.61148173284529,-123.43220353210134 -35.368132159472424,-129.3973955113596" stroke="#00f" stroke-linejoin="round" stroke-width="2.0"/><polygon fill="#000" fill-rule="evenodd" points="-83.9053901046774,-145.32839869018855 -38.22811722254735,-124.99156653639852 -39.20683673408131,-128.80993266498177 -35.714346523638554,-130.63758796731057 -28.092515866627373,-130.2956288083697 -17.08742265217282,-127.81752853320592 -3.776322081098826,-123.44586086269206 10.537802578806748,-117.60855508761776 24.453785073461404,-110.8770073681481 36.609432077937086,-103.91014849651563 45.81486417006289,-97.38994316003574 51.16898951864482,-91.95463448598497" stroke="#f00" stroke-linejoin="round" stroke-width="2.0"/><polygon fill="#000" fill-rule="evenodd" points="51.16898951864482,-91.95463448598497 52.14770903017876,-88.13626835740172 48.655218819736035,-86.30861305507293 41.03338816272483,-86.65057221401376 30.0282949482703,-89.12867248917757 16.71719437719632,-93.50034015969143 2.4030697172907765,-99.33764593476573 -11.51291277736388,-106.06919365423536 -23.668559781839555,-113.03605252586785 -32.87399187396537,-119.55625786234772 -38.22811722254729,-124.9915665363985" stroke="#00f" stroke-linejoin="round" stroke-width="2.0"/><polyline fill="none" points="-88.16472627078642,-135.7617730286875 -91.4007446686622,-125.80233247954898 -93.57799080355721,-115.55919475757631 -94.67261031119952,-105.14458582316578 -94.67261031119952,-94.67261031119983 -93.57799080355723,-84.25800137678931 -91.40074466866221,-74.01486365481664 -88.16472627078645,-64.05542310567813 -83.90539010467744,-54.48879744417708 -78.66940234869446,-45.41980062300601 -72.51412958039296,-36.94779446914726 -65.50701025629607,-29.165600054903773 -57.724815842052585,-22.158480730806875 -49.25280968819384,-16.003207962505364 -40.18381286702278,-10.767220206522383 -30.617187205521738,-6.507884040413363 -20.657746656383246,-3.2718656425375885 -10.414608934410586,-1.0946195076425718 -6.394884621840902e-14,-2.673417043297377e-13" stroke="#0f0" stroke-linecap="round" stroke-linejoin="round" stroke-width="4.0"/><polygon fill="#000" fill-rule="evenodd" points="-88.16472627078642,-135.7617730286875 -40.61190045602874,-120.3109233099401 -41.984386383287465,-124.006067982838 -38.702070399778215,-126.18877583286483 -31.086248463207056,-126.64538820784011 -19.882410287277168,-125.33120870709578 -6.187265614379257,-122.37487837659168 8.658609375219683,-118.06578342704216 23.201997000244376,-112.82572809533904 36.01928915021756,-107.16764550696175 45.85583996617427,-101.64538820784009 51.748779318969156,-96.79951321824115" stroke="#f00" stroke-linejoin="round" stroke-width="2.0"/><polygon fill="#000" fill-rule="evenodd" points="51.748779318969156,-96.79951321824115 53.121265246227864,-93.10436854534325 49.838949262718614,-90.92166069531643 42.22312732614748,-90.46504832034115 31.019289150217574,-91.77922782108548 17.324144477319678,-94.73555815158957 2.478269487720752,-99.04465310113909 -12.065118137303926,-104.2847084328422 -24.882410287277104,-109.9427910212195 -34.7189611032338,-115.46504832034114 -40.61190045602868,-120.31092330994008" stroke="#00f" stroke-linejoin="round" stroke-width="2.0"/><polygon fill="#000" fill-rule="evenodd" points="-91.4007446686622,-125.80233247954898 -42.493364631971914,-115.406747938661 -44.24457973192522,-118.93818637757857 -41.20839971613356,-121.45203257133754 -33.68202703885271,-122.70221373949643 -22.402195497056837,-122.56635343879147 -8.473053593264538,-121.05775062205002 6.741917212942639,-118.32407784402865 21.75336957011811,-114.63292604285829 35.09187793060288,-110.34561087460432 45.451776161220224,-105.88180461941671 51.818965241502,-101.67845573472019" stroke="#f00" stroke-linejoin="round" stroke-width="2.0"/><polygon fill="#000" fill-rule="evenodd" points="51.818965241502,-101.67845573472019 53.57018034145533,-98.14701729580261 50.534000325663655,-95.63317110204366 43.00762764838281,-94.38298993388477 31.72779610658695,-94.51885023458973 17.798654202794665,-96.02745305133116 2.583683396587489,-98.76112582935254 -12.427768960587969,-102.4522776305229 -25.766277321072707,-106.73959279877687 -36.12617555169007,-111.20339905396447 -42.49336463197185,-115.40674793866098" stroke="#00f" stroke-linejoin="round" stroke-width="2.0"/><polygon fill="#000" fill-rule="evenodd" points="-93.57799080355721,-115.55919475757631 -43.85189603514354,-110.33277159419362 -45.962653628691015,-113.66181262059307 -43.20587460423149,-116.47925493312921 -35.85141170028795,-118.50930764797614 -24.619170987454524,-119.55325506119567 -10.60864244632613,-119.50890832637253 4.808725772399185,-118.38060841089312 20.123774248351836,-116.27880117181229 33.8373593304884,-113.40922614584343 44.6070997628037,-110.05277733003321 51.37877831458883,-106.53800732022715" stroke="#f00" stroke-linejoin="round" stroke-width="2.0"/><polygon fill="#000" fill-rule="evenodd" points="51.37877831458883,-106.53800732022715 53.48953590813633,-103.2089662938277 50.732756883676785,-100.39152398129156 43.37829397973326,-98.36147126644462 32.14605326689983,-97.31752385322511 18.135524725771447,-97.36187058804823 2.71815650704616,-98.49017050352765 -12.59689196890649,-100.59197774260848 -26.310477051043037,-103.46155276857733 -37.080217483358325,-106.81800158438756 -43.851896035143476,-110.33277159419362" stroke="#00f" stroke-linejoin="round" stroke-width="2.0"/><polygon fill="#000" fill-rule="evenodd" points="-94.67261031119952,-105.14458582316578 -44.67261031119952,-105.14458582316577 -47.11978449644184,-108.23475576691524 -44.67261031119952,-111.32492571066471 -37.570634215189216,-114.11260828983997 -26.509047111065513,-116.32492571066471 -12.570634215189216,-117.74532092986676 2.880215503558148,-118.23475576691523 18.33106522230551,-117.74532092986676 32.269478118181794,-116.3249257106647 43.33106522230551,-114.11260828983995 50.433041318315816,-111.3249257106647" stroke="#f00" stroke-linejoin="round" stroke-width="2.0"/><polygon fill="#000" fill-rule="evenodd" points="50.433041318315816,-111.3249257106647 52.880215503558134,-108.23475576691523 50.433041318315816,-105.14458582316576 43.33106522230551,-102.3569032439905 32.26947811818181,-100.14458582316576 18.33106522230554,-98.7241906039637 2.8802155035581904,-98.23475576691524 -12.570634215189159,-98.7241906039637 -26.509047111065442,-100.14458582316577 -37.570634215189145,-102.35690324399052 -44.672610311199456,-105.14458582316577" stroke="#00f" stroke-linejoin="round" stroke-width="2.0"/><polygon fill="#000" fill-rule="evenodd" points="-94.67261031119952,-94.67261031119983 -44.94651554278585,-99.8990334745825 -47.70329456724537,-102.71647578711864 -45.5925369736979,-106.04551681351809 -38.82085842191275,-109.56028682332415 -28.051117989597458,-112.91673563913436 -14.337532907460911,-115.78631066510322 0.9775155684917536,-117.88811790418403 16.394883787217054,-119.01641781966345 30.40541232834545,-119.06076455448657 41.63765304117888,-118.01681714126704 48.99211594512241,-115.98676442642011" stroke="#f00" stroke-linejoin="round" stroke-width="2.0"/><polygon fill="#000" fill-rule="evenodd" points="48.99211594512241,-115.98676442642011 51.748894969581926,-113.16932211388396 49.63813737603445,-109.84028108748451 42.86645882424932,-106.32551107767846 32.09671839193403,-102.96906226186825 18.383133309797486,-100.09948723589939 3.06808483384485,-97.99767999681858 -12.34928338488045,-96.86938008133916 -26.359811926008817,-96.82503334651605 -37.59205263884224,-97.86898075973558 -44.94651554278579,-99.8990334745825" stroke="#00f" stroke-linejoin="round" stroke-width="2.0"/><polygon fill="#000" fill-rule="evenodd" points="-93.57799080355723,-84.25800137678931 -44.67061076686693,-94.65358591767726 -47.70679078265859,-97.16743211143623 -45.95557568270527,-100.6988705503538 -39.5883866024235,-104.90221943505031 -29.228488371806137,-109.36602569023792 -15.88998001132137,-113.65334085849187 -0.8785276541458984,-117.34449265966224 14.336443152061292,-120.07816543768361 28.26558505585359,-121.58676825442504 39.545416597649464,-121.72262855513 47.07178927493034,-120.47244738697111" stroke="#f00" stroke-linejoin="round" stroke-width="2.0"/><polygon fill="#000" fill-rule="evenodd" points="47.07178927493034,-120.47244738697111 50.107969290721954,-117.95860119321213 48.35675419076868,-114.42716275429457 41.98956511048688,-110.22381386959806 31.629666879869532,-105.76000761441045 18.29115851938478,-101.4726924461565 3.2797061622093224,-97.78154064498614 -11.935264643997854,-95.04786786696478 -25.86440654779014,-93.53926505022335 -37.144238089586004,-93.40340474951839 -44.67061076686687,-94.65358591767728" stroke="#00f" stroke-linejoin="round" stroke-width="2.0"/><polygon fill="#000" fill-rule="evenodd" points="-91.40074466866221,-74.01486365481664 -43.847918853904524,-89.465713373564 -47.13023483741378,-91.64842122359082 -45.75774891015505,-95.34356589648873 -39.86480955736017,-100.18944088608765 -30.028258741403477,-105.7116981852093 -17.210966591430292,-111.3697807735866 -2.6675789664055714,-116.60983610528972 12.178296023193354,-120.91893105483922 25.873440696091265,-123.87526138534331 37.07727887202117,-125.18944088608764 44.693100808592334,-124.73282851111236" stroke="#f00" stroke-linejoin="round" stroke-width="2.0"/><polygon fill="#000" fill-rule="evenodd" points="44.693100808592334,-124.73282851111236 47.975416792101555,-122.55012066108554 46.60293086484285,-118.85497598818762 40.709991512047964,-114.00910099858869 30.873440696091265,-108.48684369946706 18.05614854611811,-102.82876111108976 3.5127609210934025,-97.58870577938666 -11.333114068505509,-93.27961082983715 -25.02825874140342,-90.32328049933307 -36.23209691733331,-89.00910099858874 -43.84791885390447,-89.46571337356401" stroke="#00f" stroke-linejoin="round" stroke-width="2.0"/><polygon fill="#000" fill-rule="evenodd" points="-88.16472627078645,-64.05542310567813 -42.48745338865639,-84.39225525946813 -45.97994359909914,-86.21991056179694 -45.00122408756518,-90.03827669038017 -39.64709873898327,-95.47358536443095 -30.44166664685745,-101.99379070091082 -18.286019642381774,-108.9606495725433 -4.370037147727089,-115.69219729201293 9.944087512178456,-121.52950306708723 23.255188083252463,-125.90117073760109 34.260281297707024,-128.3792710127649 41.8821119547182,-128.7212301717057" stroke="#f00" stroke-linejoin="round" stroke-width="2.0"/><polygon fill="#000" fill-rule="evenodd" points="41.8821119547182,-128.7212301717057 45.37460216516095,-126.89357486937692 44.395882653626984,-123.07520874079368 39.04175730504507,-117.63990006674291 29.836325212919263,-111.11969473026303 17.680678208443595,-104.15283585863058 3.7646957137889387,-97.42128813916094 -10.549428946116606,-91.58398236408665 -23.8605295171906,-87.2123146935728 -34.86562273164515,-84.734214418409 -42.487453388656334,-84.39225525946816" stroke="#00f" stroke-linejoin="round" stroke-width="2.0"/><polygon fill="#000" fill-rule="evenodd" points="-83.90539010467744,-54.48879744417708 -40.6041199154555,-79.48879744417707 -44.268519899235564,-80.9413760248541 -43.69428985920497,-84.84112879077341 -38.93763943257784,-90.80632077003168 -30.46418270464474,-98.25303740976261 -19.10336065798026,-106.4523422009437 -5.967249710013633,-114.60163006269846 7.6582960750014735,-121.90319191969107 20.439513340867975,-127.64230002438626 31.125287489625833,-131.25717048877902 38.66962049542822,-132.39395460553106" stroke="#f00" stroke-linejoin="round" stroke-width="2.0"/><polygon fill="#000" fill-rule="evenodd" points="38.66962049542822,-132.39395460553106 42.33402047920828,-130.94137602485407 41.75979043917769,-127.04162325893473 37.00314001255056,-121.07643127967648 28.529683284617462,-113.62971463994553 17.16886123795301,-105.43040984876444 4.032750289986396,-97.28112198700971 -9.592795495028696,-89.9795601300171 -22.374012760895212,-84.24045202532191 -33.05978690965305,-80.62558156092916 -40.60411991545544,-79.4887974441771" stroke="#00f" stroke-linejoin="round" stroke-width="2.0"/><polygon fill="#000" fill-rule="evenodd" points="-78.66940234869446,-45.41980062300601 -38.21855262994708,-74.80906323762966 -42.01471445401718,-75.87065034175338 -41.85126526997388,-79.80906323762966 -37.744204622768756,-86.23878263047396 -30.095560224124426,-94.53042278762544 -19.654034679019276,-103.87234019924816 -7.4417172581945294,-113.3500829001265 5.345965320980724,-122.03590339938215 17.45726559063327,-129.07957306887806 27.706645095978615,-133.7916084452316 35.09082315940745,-135.71076267512439" stroke="#f00" stroke-linejoin="round" stroke-width="2.0"/><polygon fill="#000" fill-rule="evenodd" points="35.09082315940745,-135.71076267512439 38.88698498347755,-134.64917557100065 38.72353579943426,-130.71076267512439 34.61647515222914,-124.28104328228008 26.967830753584792,-115.98940312512859 16.52630520847967,-106.6474857135059 4.313987787654952,-97.16974301262758 -8.473694791520302,-88.48392251337191 -20.584995061172833,-81.44025284387601 -30.83437456651818,-76.72821746752247 -38.21855262994703,-74.80906323762969" stroke="#00f" stroke-linejoin="round" stroke-width="2.0"/><polygon fill="#000" fill-rule="evenodd" points="-72.51412958039296,-36.94779446914726 -35.35688830652324,-70.40432478709016 -39.24322042754093,-71.06328944419641 -39.492342882949245,-74.99721239417653 -36.0798698310746,-81.8210138494336 -29.339837910332328,-90.86673257930661 -19.932008405688364,-101.2489106092873 -8.777285217259795,-111.95126801691325 3.032429629743561,-121.92618349141733 14.341118962975287,-130.1972428068323 24.041809478227037,-135.95481704950652 31.184929999180795,-138.63531473718845" stroke="#f00" stroke-linejoin="round" stroke-width="2.0"/><polygon fill="#000" fill-rule="evenodd" points="31.184929999180795,-138.63531473718845 35.0712621201985,-137.9763500800822 35.32038457560681,-134.04242713010206 31.907911523732167,-127.21862567484499 25.167879602989885,-118.172906944972 15.760050098345943,-107.79072891499132 4.60532690991738,-97.0883715073654 -7.204387937085954,-87.11345603286132 -18.513077270317687,-78.84239671744635 -28.213767785569416,-73.08482247477212 -35.35688830652319,-70.40432478709019" stroke="#00f" stroke-linejoin="round" stroke-width="2.0"/><polygon fill="#000" fill-rule="evenodd" points="-65.50701025629607,-29.165600054903773 -32.050479938353135,-66.32284132877348 -35.984402888333264,-66.57196378418179 -36.64336754543952,-70.45829590519949 -33.96286985775759,-77.60141642615325 -28.205295615083365,-87.30210694140499 -19.934236299668363,-98.61079627463674 -9.959320825164276,-110.42051112164008 0.7430365824616842,-121.57523431006864 11.125214612442349,-130.98306381471258 20.170933342315394,-137.72309573545488 26.99473479757245,-141.1355687873295" stroke="#f00" stroke-linejoin="round" stroke-width="2.0"/><polygon fill="#000" fill-rule="evenodd" points="26.99473479757245,-141.1355687873295 30.928657747552577,-140.88644633192118 31.58762240465883,-137.0001142109035 28.90712471697691,-129.85699368994972 23.149550474302686,-120.156303174698 14.878491158887698,-108.84761384146627 4.903575684383625,-97.03789899446294 -5.798781723242335,-85.88317580603439 -16.180959753223007,-76.47534630139045 -25.226678483096023,-69.73531438064816 -32.05047993835309,-66.32284132877352" stroke="#00f" stroke-linejoin="round" stroke-width="2.0"/><polygon fill="#000" fill-rule="evenodd" points="-57.724815842052585,-22.158480730806875 -28.33555322742891,-62.609330449554236 -32.2739661233052,-62.445881265510934 -33.33555322742891,-66.24204308958103 -31.416398997536145,-73.62622115300988 -26.70436362118259,-83.87560065835521 -19.660693951686675,-95.98690092800777 -10.974873452431005,-108.77458350718301 -1.4971307515526462,-120.98690092800774 7.8447866600700635,-131.4284264731129 16.136426817221555,-139.07707087175723 22.566146210065845,-143.18413151896235" stroke="#f00" stroke-linejoin="round" stroke-width="2.0"/><polygon fill="#000" fill-rule="evenodd" points="22.566146210065845,-143.18413151896235 26.50455910594213,-143.34758070300563 27.56614621006583,-139.55141887893552 25.646991980173077,-132.1672408155067 20.934956603819522,-121.91786131016136 13.891286934323624,-109.80656104050883 5.205466435067962,-97.01887846133357 -4.272276265810383,-84.80656104050887 -13.614193677433086,-74.36503549540373 -21.905833834584577,-66.71639109675941 -28.335553227428875,-62.60933044955428" stroke="#00f" stroke-linejoin="round" stroke-width="2.0"/><polygon fill="#000" fill-rule="evenodd" points="-49.25280968819384,-16.003207962505364 -24.25280968819382,-59.30447815172729 -28.152562454113152,-58.73024811169669 -29.60514103479017,-62.39464809547677 -28.46835691803811,-69.93898110127915 -24.85348645364535,-80.624755250037 -19.114378348950147,-93.40597251590353 -11.812816491957527,-107.0315183009186 -3.6635286302027694,-120.16762924888525 4.53577616097833,-131.5284512955497 11.98249280070928,-140.0019080234828 17.94768477996754,-144.75855845010994" stroke="#f00" stroke-linejoin="round" stroke-width="2.0"/><polygon fill="#000" fill-rule="evenodd" points="17.94768477996754,-144.75855845010994 21.84743754588687,-145.33278849014053 23.300016126563882,-141.66838850636046 22.163232009811814,-134.12405550055806 18.548361545419063,-123.43828135180021 12.809253440723872,-110.65706408593374 5.507691583731258,-97.03151830091863 -2.641596278023492,-83.89540735295202 -10.840901069204591,-72.53458530628757 -18.287617708935535,-64.06112857835447 -24.25280968819379,-59.304478151727345" stroke="#00f" stroke-linejoin="round" stroke-width="2.0"/><polygon fill="#000" fill-rule="evenodd" points="-40.18381286702278,-10.767220206522383 -19.846980713232746,-56.44449308865242 -23.66534684181599,-55.46577357711847 -25.493002144144793,-58.958263787561215 -25.151042985203947,-66.5800944445724 -22.672942710040143,-77.58518765902694 -18.301275039526278,-90.89628823010094 -12.463969264451972,-105.2104128900065 -5.732421544982323,-119.12639538466115 1.2344373266501592,-131.28204238913685 7.754642663130042,-140.48747448126264 13.189951337180823,-145.84159982984454" stroke="#f00" stroke-linejoin="round" stroke-width="2.0"/><polygon fill="#000" fill-rule="evenodd" points="13.189951337180823,-145.84159982984454 17.00831746576406,-146.8203193413785 18.835972768092866,-143.32782913093575 18.494013609152013,-135.70599847392458 16.01591333398821,-124.70090525947005 11.644245663474358,-111.38980468839607 5.806939888400052,-97.07568002849052 -0.9246078310695935,-83.15969753383588 -7.891466702702068,-71.00405052936021 -14.411672039181944,-61.798618437234396 -19.84698071323272,-56.44449308865248" stroke="#00f" stroke-linejoin="round" stroke-width="2.0"/><polygon fill="#000" fill-rule="evenodd" points="-30.617187205521738,-6.507884040413363 -15.16633748677434,-54.06070985517105 -18.86148215967225,-52.68822392791232 -21.044190009699072,-55.970539911421575 -21.500802384674348,-63.586361847992734 -20.186622883930017,-74.79020002392261 -17.230292553425915,-88.48534469682053 -12.921197603876394,-103.33121968641946 -7.681142272173275,-117.87460731144418 -2.023059683795971,-130.69189946141736 3.4991976153256843,-140.52845027737405 8.345072604924617,-146.42138963016893" stroke="#f00" stroke-linejoin="round" stroke-width="2.0"/><polygon fill="#000" fill-rule="evenodd" points="8.345072604924617,-146.42138963016893 12.040217277822535,-147.79387555742767 14.22292512784935,-144.5115595739184 14.679537502824623,-136.89573763734725 13.365358002080292,-125.69189946141736 10.409027671576197,-111.99675478851947 6.099932722026686,-97.15087979892054 0.8598773903235681,-82.60749217389585 -4.798205198053736,-69.79020002392268 -10.320462497175381,-59.95364920796599 -15.16633748677432,-54.06070985517111" stroke="#00f" stroke-linejoin="round" stroke-width="2.0"/><polygon fill="#000" fill-rule="evenodd" points="-20.657746656383246,-3.2718656425375885 -10.262162115495256,-52.17924567922787 -13.793600554412828,-50.42803057927456 -16.30744674817179,-53.46421059506622 -17.55762791633068,-60.99058327234708 -17.42176761562572,-72.27041481414294 -15.913164798884273,-86.19955671793524 -13.179492020862899,-101.41452752414243 -9.488340219692528,-116.4259798813179 -5.201025051438561,-129.76448824180264 -0.73721879625095,-140.12438647242 3.466130088445567,-146.4915755527018" stroke="#f00" stroke-linejoin="round" stroke-width="2.0"/><polygon fill="#000" fill-rule="evenodd" points="3.466130088445567,-146.4915755527018 6.997568527363139,-148.24279065265512 9.511414721122101,-145.20661063686345 10.76159588928099,-137.6802379595826 10.625735588576024,-126.40040641778673 9.117132771834584,-112.47126451399444 6.3834599938132115,-97.25629370778728 2.692308192642848,-82.24484135061182 -1.5950069756111205,-68.90633299012707 -6.058813230798725,-58.546434759509715 -10.262162115495244,-52.17924567922793" stroke="#00f" stroke-linejoin="round" stroke-width="2.0"/><polygon fill="#000" fill-rule="evenodd" points="-10.414608934410586,-1.0946195076425718 -5.188185771027888,-50.820714276056236 -8.517226797427337,-48.70995668250877 -11.334669109963482,-51.46673570696829 -13.364721824810406,-58.82119861091183 -14.40866923802993,-70.05343932374527 -14.364322503206798,-84.06396786487365 -13.236022587727376,-99.48133608359896 -11.134215348646551,-114.79638455955161 -8.264640322677685,-128.50996964168817 -4.908191506867464,-139.27971007400345 -1.3934214970614018,-146.05138862578858" stroke="#f00" stroke-linejoin="round" stroke-width="2.0"/><polygon fill="#000" fill-rule="evenodd" points="-1.3934214970614018,-146.05138862578858 1.9356195293380463,-148.16214621933608 4.753061841874191,-145.40536719487653 6.783114556721111,-138.050904290933 7.827061969940635,-126.8186635780996 7.782715235117509,-112.80813503697122 6.654415319638085,-97.39076681824592 4.5526080805572615,-82.07571834229329 1.6830330545883978,-68.36213326015675 -1.6734157612218201,-57.59239282784145 -5.188185771027881,-50.8207142760563" stroke="#00f" stroke-linejoin="round" stroke-width="2.0"/><polygon fill="#000" fill-rule="evenodd" points="-6.394884621840902e-14,-2.673417043297377e-13 -3.9662717554733654e-14,-50.00000000000027 -3.090169943749515,-47.55282581475795 -6.180339887498988,-50.00000000000027 -8.96802246667424,-57.10197609601058 -11.180339887498977,-68.16356320013428 -12.600735106701034,-82.10197609601057 -13.09016994374949,-97.55282581475794 -12.60073510670102,-113.0036755335053 -11.180339887498953,-126.94208842938158 -8.968022466674206,-138.0036755335053 -6.180339887498948,-145.1056516295156" stroke="#f00" stroke-linejoin="round" stroke-width="2.0"/><polygon fill="#000" fill-rule="evenodd" points="-6.180339887498948,-145.1056516295156 -3.090169943749474,-147.5528258147579 -2.349539909392981e-15,-145.1056516295156 2.7876825791752498,-138.0036755335053 4.999999999999986,-126.9420884293816 6.420395219202041,-113.00367553350533 6.909830056250498,-97.55282581475798 6.420395219202028,-82.10197609601063 4.999999999999962,-68.16356320013435 2.787682579175217,-57.101976096010645 -3.966271755473362e-14,-50.000000000000334" stroke="#00f" stroke-linejoin="round" stroke-width="2.0"/></svg>