<?xml version="1.0" ?><!DOCTYPE svg  PUBLIC '-//W3C//DTD SVG 1.1//EN'  'http://www.w3.org/Graphics/SVG/1.1/DTD/svg11.dtd'><svg height="429.000" viewBox="-431.000 -278.000 1221.000 429.000" width="1221.000" xmlns="http://www.w3.org/2000/svg"><line fill="none" stroke="none" stroke-linecap="round" stroke-width="2.0" x1="0.0" x2="0.0" y1="0.0" y2="0.0"/><line fill="none" stroke="none" stroke-linecap="round" stroke-width="2.0" x1="0.0" x2="0.0" y1="0.0" y2="0.0"/><polygon fill="#f00" fill-rule="evenodd" points="-400.0,-180.0 -393.82,-180.98 -388.24,-183.82 -383.82,-188.24 -380.98,-193.82 -380.0,-200.0 -380.98,-206.18 -383.82,-211.76 -388.24,-216.18 -393.82,-219.02 -400.0,-220.0 -406.18,-219.02 -411.76,-216.18 -416.18,-211.76 -419.02,-206.18 -420.0,-200.0 -419.02,-193.82 -416.18,-188.24 -411.76,-183.82 -406.18,-180.98" stroke="#f00" stroke-linejoin="round"/><line fill="none" stroke="none" stroke-linecap="round" stroke-width="2.0" x1="0.0" x2="0.0" y1="0.0" y2="0.0"/><line fill="none" stroke="none" stroke-linecap="round" stroke-width="2.0" x1="0.0" x2="0.0" y1="0.0" y2="0.0"/><polygon fill="#0f0" fill-rule="evenodd" points="-408.655,-85.0 -382.675,-100.0 -408.655,-115.0" stroke="#0f0" stroke-linejoin="round"/><line fill="none" stroke="none" stroke-linecap="round" stroke-width="2.0" x1="0.0" x2="0.0" y1="0.0" y2="0.0"/><line fill="none" stroke="none" stroke-linecap="round" stroke-width="2.0" x1="0.0" x2="0.0" y1="0.0" y2="0.0"/><polygon fill="#00f" fill-rule="evenodd" points="-410.0,-30.0 -390.0,-30.0 -390.0,-50.0 -410.0,-50.0" stroke="#00f" stroke-linejoin="round"/><line fill="none" stroke="none" stroke-linecap="round" stroke-width="2.0" x1="0.0" x2="0.0" y1="0.0" y2="0.0"/><line fill="none" stroke="none" stroke-linecap="round" stroke-width="2.0" x1="0.0" x2="0.0" y1="0.0" y2="0.0"/><polygon fill="#ffc0cb" fill-rule="evenodd" points="-392.0,-10.0 -393.0,-11.0 -395.0,-10.5 -396.5,-12.0 -395.5,-13.5 -396.0,-14.5 -397.5,-13.0 -399.5,-13.5 -401.5,-12.5 -403.0,-14.0 -404.0,-13.0 -402.5,-12.0 -403.5,-10.0 -402.5,-8.0 -404.0,-7.0 -403.0,-6.0 -401.5,-7.5 -399.5,-6.5 -397.5,-7.0 -396.0,-5.5 -395.5,-6.5 -396.5,-8.0 -395.0,-9.5 -393.0,-9.0" stroke="#ffc0cb" stroke-linejoin="round"/><polyline fill="none" points="-176.0,-244.0 -178.0,-245.0 -179.0,-244.0 -180.0,-243.0 -181.0,-242.0 -182.0,-240.0 -184.0,-238.0 -185.0,-234.0 -186.0,-231.0 -186.0,-229.0 -188.0,-224.0 -188.0,-221.0 -188.0,-218.0 -189.0,-215.0 -190.0,-212.0 -190.0,-209.0 -191.0,-208.0 -191.0,-204.0 -191.0,-200.0 -191.0,-199.0 -193.0,-195.0 -194.0,-189.0 -194.0,-188.0 -194.0,-186.0 -195.0,-181.0 -195.0,-175.0 -196.0,-174.0 -196.0,-173.0 -196.0,-171.0 -196.0,-170.0 -196.0,-168.0 -196.0,-166.0 -198.0,-164.0 -198.0,-163.0 -198.0,-161.0 -199.0,-158.0 -200.0,-155.0 -201.0,-153.0 -201.0,-150.0 -203.0,-146.0 -205.0,-142.0 -205.0,-140.0 -206.0,-138.0" stroke="#f00" stroke-linecap="round" stroke-linejoin="round" stroke-width="20.0"/><polyline fill="none" points="-206.0,-138.0 -208.0,-133.0 -208.0,-130.0 -209.0,-127.0 -211.0,-120.0 -211.0,-119.0 -213.0,-117.0 -213.0,-114.0 -214.0,-113.0 -214.0,-110.0 -214.0,-109.0 -215.0,-107.0 -215.0,-106.0 -215.0,-105.0 -216.0,-104.0 -216.0,-103.0 -218.0,-101.0 -218.0,-100.0 -219.0,-99.0" stroke="#f00" stroke-linecap="round" stroke-linejoin="round" stroke-width="20.0"/><polyline fill="none" points="-169.0,-247.0 -168.0,-244.0 -167.0,-242.0 -166.0,-239.0 -166.0,-238.0 -165.0,-235.0 -164.0,-232.0 -163.0,-230.0 -162.0,-229.0 -162.0,-227.0 -162.0,-225.0 -161.0,-223.0 -161.0,-220.0 -160.0,-218.0 -159.0,-214.0 -157.0,-212.0 -156.0,-208.0 -152.0,-197.0 -151.0,-192.0 -149.0,-186.0 -147.0,-181.0 -144.0,-175.0 -143.0,-167.0 -142.0,-165.0 -141.0,-162.0 -140.0,-161.0 -140.0,-158.0 -139.0,-157.0 -139.0,-155.0 -138.0,-153.0 -138.0,-152.0 -137.0,-151.0 -137.0,-150.0 -136.0,-147.0 -135.0,-146.0 -134.0,-143.0 -133.0,-138.0 -132.0,-135.0 -130.0,-133.0 -129.0,-131.0 -129.0,-130.0 -128.0,-127.0 -128.0,-126.0" stroke="#f00" stroke-linecap="round" stroke-linejoin="round" stroke-width="20.0"/><polyline fill="none" points="-128.0,-126.0 -128.0,-125.0 -127.0,-122.0 -127.0,-120.0 -125.0,-118.0 -125.0,-117.0 -125.0,-115.0 -125.0,-113.0 -124.0,-112.0 -124.0,-111.0 -123.0,-110.0 -122.0,-106.0 -120.0,-104.0 -120.0,-103.0" stroke="#f00" stroke-linecap="round" stroke-linejoin="round" stroke-width="20.0"/><polyline fill="none" points="-204.0,-145.0 -203.0,-144.0 -202.0,-144.0 -199.0,-143.0 -197.0,-143.0 -196.0,-143.0 -192.0,-143.0 -187.0,-143.0 -186.0,-143.0 -185.0,-143.0 -184.0,-143.0 -182.0,-143.0 -180.0,-143.0 -177.0,-143.0 -175.0,-143.0 -167.0,-143.0 -164.0,-143.0 -161.0,-143.0 -160.0,-143.0 -159.0,-143.0 -157.0,-143.0 -155.0,-143.0 -154.0,-143.0 -152.0,-143.0 -151.0,-143.0 -150.0,-143.0 -149.0,-143.0 -147.0,-143.0 -145.0,-143.0 -144.0,-143.0 -142.0,-143.0 -141.0,-143.0" stroke="#f00" stroke-linecap="round" stroke-linejoin="round" stroke-width="20.0"/><polyline fill="none" points="-50.0,-229.0 -50.0,-218.0 -50.0,-206.0 -50.0,-201.0 -50.0,-195.0 -50.0,-189.0 -50.0,-184.0 -50.0,-178.0 -50.0,-174.0 -50.0,-171.0 -50.0,-167.0 -50.0,-163.0 -50.0,-159.0 -50.0,-156.0 -50.0,-154.0 -50.0,-152.0 -50.0,-151.0 -50.0,-150.0 -50.0,-149.0 -50.0,-147.0 -50.0,-145.0 -50.0,-142.0 -50.0,-141.0 -50.0,-140.0 -50.0,-139.0 -50.0,-136.0 -50.0,-135.0 -50.0,-134.0 -50.0,-132.0 -50.0,-130.0 -50.0,-127.0 -50.0,-126.0 -50.0,-125.0 -50.0,-124.0 -50.0,-122.0 -51.0,-121.0 -51.0,-120.0 -51.0,-119.0 -53.0,-117.0 -53.0,-116.0 -53.0,-115.0 -53.0,-114.0 -53.0,-112.0" stroke="#0f0" stroke-linecap="round" stroke-linejoin="round" stroke-width="15.0"/><polyline fill="none" points="-53.0,-112.0 -53.0,-111.0 -53.0,-110.0 -53.0,-109.0 -52.0,-108.0 -49.0,-106.0 -45.0,-105.0 -37.0,-103.0 -28.0,-103.0 -17.0,-101.0 -6.0,-98.0 4.0,-98.0 14.0,-97.0 25.0,-95.0 36.0,-95.0 46.0,-93.0 55.0,-93.0 59.0,-93.0 63.0,-93.0 67.0,-93.0 68.0,-93.0 70.0,-93.0" stroke="#0f0" stroke-linecap="round" stroke-linejoin="round" stroke-width="15.0"/><polyline fill="none" points="95.0,-242.0 95.0,-241.0 95.0,-240.0 95.0,-237.0 95.0,-235.0 94.0,-231.0 94.0,-227.0 94.0,-224.0 94.0,-220.0 94.0,-215.0 94.0,-208.0 94.0,-201.0 94.0,-194.0 94.0,-190.0 94.0,-185.0 94.0,-179.0 94.0,-175.0 94.0,-170.0 94.0,-166.0 94.0,-162.0 94.0,-158.0 94.0,-154.0 94.0,-150.0 94.0,-146.0 94.0,-145.0 94.0,-141.0 94.0,-139.0 94.0,-136.0 94.0,-132.0 94.0,-130.0 94.0,-127.0 94.0,-124.0 94.0,-122.0 94.0,-120.0 94.0,-119.0 94.0,-117.0 94.0,-116.0 94.0,-115.0 94.0,-112.0 94.0,-111.0 94.0,-110.0 94.0,-109.0 94.0,-107.0" stroke="#00f" stroke-linecap="round" stroke-linejoin="round" stroke-width="10.0"/><polyline fill="none" points="94.0,-107.0 94.0,-105.0 111.0,-101.0 202.0,-92.0 201.0,-92.0 181.0,-95.0 168.0,-95.0 147.0,-97.0" stroke="#00f" stroke-linecap="round" stroke-linejoin="round" stroke-width="10.0"/><polyline fill="none" points="90.0,-243.0 96.0,-243.0 111.0,-243.0 121.0,-243.0 133.0,-243.0 156.0,-243.0 168.0,-243.0 169.0,-243.0 145.0,-243.0 171.0,-243.0 174.0,-243.0 178.0,-243.0 201.0,-243.0 224.0,-241.0 233.0,-241.0 237.0,-239.0" stroke="#00f" stroke-linecap="round" stroke-linejoin="round" stroke-width="10.0"/><polyline fill="none" points="97.0,-175.0 120.0,-173.0 137.0,-169.0 141.0,-169.0 144.0,-169.0 145.0,-169.0 146.0,-169.0 148.0,-169.0 149.0,-169.0 150.0,-169.0 153.0,-169.0 155.0,-169.0 161.0,-169.0 165.0,-169.0 169.0,-167.0 177.0,-166.0 183.0,-166.0 186.0,-166.0 187.0,-166.0" stroke="#00f" stroke-linecap="round" stroke-linejoin="round" stroke-width="10.0"/><polyline fill="none" points="276.0,-244.0 276.0,-243.0 276.0,-242.0 276.0,-239.0 276.0,-237.0 277.0,-232.0 282.0,-221.0 286.0,-214.0 292.0,-206.0 303.0,-189.0 308.0,-177.0 310.0,-173.0 310.0,-170.0 310.0,-169.0 310.0,-167.0 313.0,-163.0 314.0,-160.0 317.0,-155.0 318.0,-153.0 319.0,-150.0 321.0,-148.0 323.0,-145.0 325.0,-142.0 327.0,-140.0 327.0,-139.0 327.0,-138.0 328.0,-137.0 329.0,-136.0 329.0,-134.0 330.0,-133.0 330.0,-132.0 332.0,-129.0 334.0,-125.0 337.0,-122.0 341.0,-119.0 344.0,-114.0 345.0,-112.0 345.0,-111.0 345.0,-109.0 345.0,-108.0 345.0,-107.0 345.0,-106.0 345.0,-104.0" stroke="#ffc0cb" stroke-linecap="round" stroke-linejoin="round" stroke-width="5.0"/><polyline fill="none" points="345.0,-104.0 350.0,-98.0 352.0,-95.0 353.0,-93.0 354.0,-92.0" stroke="#ffc0cb" stroke-linecap="round" stroke-linejoin="round" stroke-width="5.0"/><polyline fill="none" points="362.0,-238.0 362.0,-236.0 362.0,-233.0 362.0,-231.0 361.0,-227.0 359.0,-225.0 358.0,-222.0 356.0,-219.0 353.0,-214.0 352.0,-212.0 351.0,-210.0 347.0,-203.0 346.0,-201.0 344.0,-199.0 343.0,-196.0 342.0,-194.0 342.0,-193.0 341.0,-191.0 339.0,-189.0 338.0,-187.0 337.0,-185.0 336.0,-183.0 336.0,-182.0 333.0,-179.0 333.0,-177.0 332.0,-176.0 331.0,-175.0 329.0,-173.0 329.0,-172.0 328.0,-171.0 326.0,-168.0 325.0,-166.0 323.0,-164.0 320.0,-160.0 318.0,-158.0 317.0,-157.0 316.0,-154.0 315.0,-152.0 314.0,-151.0 313.0,-150.0 312.0,-148.0 311.0,-147.0 309.0,-144.0" stroke="#ffc0cb" stroke-linecap="round" stroke-linejoin="round" stroke-width="5.0"/><polyline fill="none" points="309.0,-144.0 308.0,-143.0 307.0,-141.0 306.0,-140.0 306.0,-138.0 304.0,-135.0 303.0,-134.0 302.0,-132.0 301.0,-130.0 301.0,-128.0 299.0,-126.0 298.0,-125.0 297.0,-123.0 293.0,-119.0 292.0,-117.0 290.0,-115.0 287.0,-111.0 286.0,-110.0 284.0,-107.0 283.0,-106.0 281.0,-101.0" stroke="#ffc0cb" stroke-linecap="round" stroke-linejoin="round" stroke-width="5.0"/><polyline fill="none" points="399.0,-235.0 397.0,-233.0 397.0,-231.0 397.0,-227.0 397.0,-224.0 397.0,-222.0 397.0,-218.0 397.0,-216.0 397.0,-209.0 397.0,-206.0 397.0,-204.0 397.0,-202.0 397.0,-199.0 396.0,-196.0 396.0,-193.0 396.0,-192.0 395.0,-186.0 395.0,-183.0 395.0,-181.0 395.0,-176.0 394.0,-172.0 394.0,-171.0 394.0,-169.0 394.0,-167.0 394.0,-166.0 394.0,-164.0 394.0,-163.0 394.0,-162.0 394.0,-159.0 394.0,-158.0 394.0,-157.0 394.0,-156.0 394.0,-154.0 394.0,-151.0 394.0,-148.0 394.0,-147.0 394.0,-146.0 394.0,-144.0 394.0,-142.0 394.0,-141.0 394.0,-139.0 394.0,-138.0 394.0,-137.0" stroke="#00f" stroke-linecap="round" stroke-linejoin="round" stroke-width="10.0"/><polyline fill="none" points="394.0,-137.0 394.0,-134.0 394.0,-132.0 394.0,-131.0 394.0,-128.0 395.0,-127.0 395.0,-126.0 395.0,-124.0 395.0,-123.0 395.0,-122.0 395.0,-121.0 395.0,-119.0 395.0,-118.0 395.0,-117.0 395.0,-116.0 395.0,-114.0 395.0,-113.0 395.0,-112.0 395.0,-111.0 397.0,-109.0 397.0,-108.0 402.0,-106.0 408.0,-106.0 412.0,-105.0 414.0,-105.0 419.0,-103.0 426.0,-101.0 510.0,-91.0 502.0,-93.0 482.0,-95.0 457.0,-98.0 515.0,-91.0 517.0,-91.0 518.0,-91.0 520.0,-92.0 521.0,-93.0 522.0,-93.0 523.0,-94.0 524.0,-94.0 526.0,-95.0 527.0,-95.0 528.0,-95.0 529.0,-96.0" stroke="#00f" stroke-linecap="round" stroke-linejoin="round" stroke-width="10.0"/><polyline fill="none" points="529.0,-96.0 514.0,-91.0 513.0,-91.0 511.0,-91.0 527.0,-96.0" stroke="#00f" stroke-linecap="round" stroke-linejoin="round" stroke-width="10.0"/><polyline fill="none" points="402.0,-231.0 401.0,-232.0 403.0,-232.0 410.0,-232.0 426.0,-232.0 449.0,-232.0 443.0,-232.0 450.0,-232.0 457.0,-232.0 570.0,-226.0 565.0,-228.0 556.0,-228.0 526.0,-232.0 571.0,-226.0 509.0,-232.0 490.0,-232.0 570.0,-223.0 569.0,-222.0 568.0,-222.0 567.0,-222.0 566.0,-222.0 565.0,-221.0 560.0,-220.0 558.0,-220.0 557.0,-220.0 555.0,-220.0 553.0,-220.0 552.0,-219.0 551.0,-218.0 571.0,-224.0 572.0,-225.0" stroke="#00f" stroke-linecap="round" stroke-linejoin="round" stroke-width="10.0"/><polyline fill="none" points="393.0,-167.0 399.0,-167.0 407.0,-167.0 427.0,-167.0 437.0,-167.0 451.0,-167.0 512.0,-162.0 521.0,-162.0 523.0,-161.0 524.0,-161.0 525.0,-161.0 501.0,-165.0 527.0,-161.0 526.0,-161.0 489.0,-165.0 476.0,-167.0" stroke="#00f" stroke-linecap="round" stroke-linejoin="round" stroke-width="10.0"/><polyline fill="none" points="611.0,-240.0 609.0,-239.0 611.0,-239.0 614.0,-238.0 615.0,-238.0 616.0,-238.0 620.0,-237.0 627.0,-235.0 638.0,-234.0 646.0,-233.0 648.0,-232.0 649.0,-232.0" stroke="#f00" stroke-linecap="round" stroke-linejoin="round" stroke-width="20.0"/><polyline fill="none" points="637.0,-231.0 639.0,-231.0 640.0,-230.0 641.0,-229.0 641.0,-228.0 642.0,-226.0 642.0,-225.0 642.0,-221.0 642.0,-218.0 642.0,-214.0 642.0,-213.0 642.0,-210.0 642.0,-209.0 642.0,-206.0 642.0,-204.0 642.0,-203.0 642.0,-201.0 642.0,-199.0 642.0,-198.0 642.0,-196.0 642.0,-194.0 642.0,-191.0 642.0,-189.0 642.0,-186.0 642.0,-185.0 642.0,-184.0 642.0,-181.0 642.0,-179.0 642.0,-176.0 640.0,-171.0 639.0,-169.0 638.0,-165.0 638.0,-164.0 636.0,-158.0 634.0,-155.0 633.0,-151.0 633.0,-150.0 633.0,-148.0 632.0,-146.0 630.0,-143.0 629.0,-140.0 629.0,-138.0 628.0,-134.0" stroke="#f00" stroke-linecap="round" stroke-linejoin="round" stroke-width="20.0"/><polyline fill="none" points="628.0,-134.0 628.0,-133.0 627.0,-131.0 627.0,-129.0 627.0,-128.0 627.0,-126.0 626.0,-125.0 625.0,-124.0 625.0,-123.0 624.0,-121.0 624.0,-120.0 624.0,-119.0 624.0,-118.0 623.0,-115.0 623.0,-114.0 622.0,-112.0 622.0,-111.0 622.0,-110.0 622.0,-109.0 622.0,-108.0 622.0,-106.0 622.0,-105.0 622.0,-104.0 622.0,-103.0 622.0,-101.0 622.0,-100.0 622.0,-98.0 623.0,-95.0 623.0,-93.0 623.0,-91.0 624.0,-90.0 620.0,-91.0 618.0,-92.0" stroke="#f00" stroke-linecap="round" stroke-linejoin="round" stroke-width="20.0"/><polyline fill="none" points="615.0,-96.0 624.0,-96.0 626.0,-96.0 629.0,-96.0 632.0,-96.0 634.0,-96.0 635.0,-96.0 636.0,-96.0 639.0,-96.0 640.0,-96.0 641.0,-96.0 642.0,-96.0 644.0,-96.0 647.0,-96.0 649.0,-96.0 650.0,-96.0 651.0,-97.0 655.0,-96.0 656.0,-95.0" stroke="#f00" stroke-linecap="round" stroke-linejoin="round" stroke-width="20.0"/><polyline fill="none" points="764.0,-244.0 764.0,-241.0 764.0,-238.0 764.0,-233.0 764.0,-230.0 764.0,-228.0 764.0,-226.0 764.0,-221.0 764.0,-219.0 764.0,-214.0 763.0,-210.0 763.0,-209.0 763.0,-205.0 762.0,-200.0 761.0,-194.0 761.0,-188.0 759.0,-183.0 758.0,-178.0 758.0,-174.0 758.0,-171.0 757.0,-169.0 757.0,-166.0 757.0,-163.0 757.0,-160.0 756.0,-158.0 756.0,-156.0 756.0,-154.0 756.0,-153.0 754.0,-150.0 754.0,-148.0 754.0,-145.0 753.0,-141.0 752.0,-138.0 752.0,-135.0 752.0,-134.0 751.0,-133.0 751.0,-130.0 751.0,-129.0 751.0,-128.0 751.0,-126.0 749.0,-124.0 749.0,-123.0 749.0,-121.0" stroke="#0f0" stroke-linecap="round" stroke-linejoin="round" stroke-width="15.0"/><polyline fill="none" points="749.0,-121.0 749.0,-120.0 749.0,-119.0 749.0,-118.0 748.0,-117.0 748.0,-116.0 748.0,-114.0 748.0,-113.0 748.0,-111.0 748.0,-110.0 748.0,-109.0 747.0,-108.0 747.0,-106.0" stroke="#0f0" stroke-linecap="round" stroke-linejoin="round" stroke-width="15.0"/><polyline fill="none" points="732.0,-62.0 733.0,-63.0 734.0,-63.0 738.0,-63.0 739.0,-64.0 741.0,-64.0 743.0,-63.0 743.0,-62.0 743.0,-61.0 743.0,-60.0 743.0,-58.0 743.0,-57.0 742.0,-56.0 741.0,-54.0 741.0,-53.0 738.0,-53.0 737.0,-54.0 736.0,-54.0 735.0,-55.0 733.0,-55.0 732.0,-56.0 733.0,-58.0" stroke="#0f0" stroke-linecap="round" stroke-linejoin="round" stroke-width="15.0"/><polyline fill="none" points="-133.0,-89.0 -83.0,-89.0 -57.99999999999999,-45.69872981077807 -82.99999999999999,-2.3974596215561306 -133.0,-2.397459621556111 -158.00000000000003,-45.698729810778026 -133.00000000000006,-88.99999999999997" stroke="#ffc0cb" stroke-linecap="round" stroke-linejoin="round" stroke-width="5.0"/><polyline fill="none" points="116.0,48.0 166.0,47.99999999999996 191.00000000000006,91.30127018922187 166.0000000000001,134.60254037844385 116.00000000000011,134.6025403784439 91.00000000000006,91.30127018922201 115.99999999999999,48.000000000000036" stroke="#ffc0cb" stroke-linecap="round" stroke-linejoin="round" stroke-width="5.0"/><polyline fill="none" points="405.0,1.0 455.0,0.999999999999914 480.00000000000006,44.3012701892218 455.0000000000001,87.60254037844379 405.0000000000001,87.60254037844389 380.0,44.301270189222016 404.9999999999999,1.0000000000000284" stroke="#0f0" stroke-linecap="round" stroke-linejoin="round" stroke-width="15.0"/><line fill="none" stroke="none" stroke-linecap="round" stroke-width="15.0" x1="0.0" x2="0.0" y1="0.0" y2="0.0"/><polygon fill="#0f0" fill-rule="evenodd" points="396.3449999999999,16.00000000000005 422.3249999999999,0.9999999999999871 396.34499999999986,-13.99999999999995" stroke="#0f0" stroke-linejoin="round"/></svg>