<?xml version="1.0" ?><!DOCTYPE svg  PUBLIC '-//W3C//DTD SVG 1.1//EN'  'http://www.w3.org/Graphics/SVG/1.1/DTD/svg11.dtd'><svg height="427.000" viewBox="-213.000 -213.000 377.000 427.000" width="377.000" xmlns="http://www.w3.org/2000/svg"><line fill="none" stroke="none" stroke-linecap="round" stroke-width="2.0" x1="0.0" x2="0.0" y1="0.0" y2="0.0"/><polyline fill="none" points="50.0,-50.0 47.65318932344487,-40.269679690691184 44.55018094838644,-30.753483355092698 40.71010595331193,-21.51008150806991 36.1566396775205,-12.596462795752732 30.917855754783588,-4.067582641581609 25.026053030057298,4.023975572152546 18.517556426362788,11.628324698345914 11.432492989556579,18.698581395932827 3.814544491749251,25.19115518127373 -4.289321881345277,31.066017177982125 -12.82914309872785,36.28694690825845 -21.75226832281458,40.82175560418025 -31.003683519358738,44.642484662160236 -40.52635063726589,47.725578017034636 -50.26155926714599,50.052027373038065 -60.14928861051045,51.60748939626785 -70.12857752795378,52.382374146107175 -80.13790038484963,52.37190420039795 -90.11554637734763,51.57614410983708 -100.00000000000004,49.99999999999996" stroke="#0f0" stroke-linecap="round" stroke-linejoin="round"/><polyline fill="none" points="50.0,-50.0 78.48991849192679,-40.71010595330187 104.02397557214368,-25.02605303003822 125.19115518125736,-3.8145444917227103 140.82175560415482,21.75226832284662 150.05202737300255,50.26155926718127 152.37190420035188,80.1379003848857 147.6531893233883,109.73032030934323 136.15663967745414,137.4035372042776 118.51755642628788,161.62832469836997 95.71067811857299,181.0660171779981 68.99631648055477,194.64248466216677 39.85071138940062,201.6074893962641 9.884453622563498,201.57614410982274 -19.246516644993704,194.55018094836177 -45.93241735849995,180.9178557547495 -68.69858139600747,161.43249298951446 -86.2869469083245,137.17085690122386 -97.72557801709088,109.47364936268181 -102.38237414615297,79.8714224719923 -100.0000000000352,49.99999999994692" stroke="#0f0" stroke-linecap="round" stroke-linejoin="round"/><polyline fill="none" points="-100.0,50.0 -97.653189323438,40.269679690692854 -94.55018094837284,30.753483355096574 -90.7101059532918,21.51008150807651 -86.15663967749407,12.596462795762564 -80.91785575475113,4.0675826415951555 -75.02605303001913,-4.023975572134825 -68.51755642631926,-11.628324698323581 -61.43249298950806,-18.698581395905478 -53.81454449169616,-25.191155181240987 -45.7106781185975,-31.06601717794365 -37.17085690121125,-36.286946908213935 -28.24773167712133,-40.821755604129415 -18.99631648057449,-44.64248466210286 -9.473649362665173,-47.72557801697052 0.2615592672165583,-50.052027372967075 10.149288610582108,-51.60748939618988 20.128577528025968,-52.38237414602215 30.137900384921792,-52.37190420030585 40.115546377419214,-51.57614410973793 50.00000000007051,-49.999999999893824" stroke="#0f0" stroke-linecap="round" stroke-linejoin="round"/><polyline fill="none" points="50.0,-50.0 -4.289321881289638,31.06601717801921 -99.99999999993129,50.00000000010263" stroke="#0f0" stroke-linecap="round" stroke-linejoin="round"/><polyline fill="none" points="-100.0,50.0 -145.7106781187314,-181.06601717796653 49.99999999996655,-50.000000000049624" stroke="#0f0" stroke-linecap="round" stroke-linejoin="round"/><polyline fill="none" points="50.0,-50.0 24.999999999997417,74.99999999999929 -100.00000000000188,49.99999999999672" stroke="#0f0" stroke-linecap="round" stroke-linejoin="round"/><polyline fill="none" points="50.0,-50.0 40.11554637734818,-51.57614410984082 30.137900384850496,-52.37190420040542 20.12857752795467,-52.38237414611839 10.149288610511064,-51.607489396282794 0.2615592671460316,-50.0520273730567 -9.473649362734927,-47.72557801705691 -18.996316480643216,-44.64248466218608 -28.24773167718879,-40.82175560420955 -37.170856901277205,-36.2869469082911 -45.71067811866172,-31.066017178017972 -53.814544491758426,-25.191155181312617 -61.43249298956817,-18.698581395974575 -68.51755642637701,-11.628324698390324 -75.02605303007435,-4.023975572199404 -80.91785575480365,4.067582641532532 -86.15663967754375,12.59646279570168 -90.71010595333851,21.510081508017137 -94.55018094841647,30.753483355038473 -97.65318932347846,40.269679690635776 -100.00000000003722,49.9999999999437" stroke="#f00" stroke-linecap="round" stroke-linejoin="round"/><polyline fill="none" points="50.0,-50.0 52.38237414612893,-79.87142247204446 47.725578017077915,-109.47364936273567 36.286946908321895,-137.17085690128195 18.698581396013953,-161.4324929895791 -4.067582641486254,-180.9178557548226 -30.75348335498736,-194.55018094844482 -59.8844536225419,-201.57614410991667 -89.85071138937897,-201.60748939636923 -118.99631648053568,-194.6424846622828 -145.71067811855895,-181.06601717812416 -168.5175564262811,-161.62832469850457 -186.15663967745635,-137.40353720441883 -197.65318932340082,-109.73032030948882 -202.37190420037544,-80.1379003850331 -200.05202737303728,-50.261559267327875 -190.8217556042002,-21.75226832298985 -175.19115518131233,3.8145444915852593 -154.02397557220664,25.026053029908628 -128.48991849199567,40.71010595318178 -100.00000000007242,49.999999999890534" stroke="#f00" stroke-linecap="round" stroke-linejoin="round"/><polyline fill="none" points="-100.0,50.0 -90.11554637734656,51.57614410983055 -80.13790038484807,52.37190420038478 -70.12857752795225,52.38237414608736 -60.149288610509466,51.6074893962414 -50.26155926714607,50.05202737300504 -40.52635063726754,47.725578016995144 -31.00368351936247,44.64248466211442 -21.752268322820882,40.82175560412829 -12.829143098737193,36.286946908200576 -4.289321881358118,31.06601717791859 3.8145444917324784,25.19115518120482 11.432492989535465,18.698581395858874 18.517556426336952,11.628324698267273 25.026053030026386,4.0239755720696015 30.91785575474728,-4.067582641668445 36.15663967747851,-12.596462795843024 40.710105953264,-21.510081508163196 44.55018094833235,-30.753483355188507 47.653189323384446,-40.269679690789026 49.999999999933095,-50.00000000009938" stroke="#f00" stroke-linecap="round" stroke-linejoin="round"/><polyline fill="none" points="50.0,-50.0 -45.71067811864856,-31.0660171779524 -99.99999999996841,50.000000000046356" stroke="#f00" stroke-linecap="round" stroke-linejoin="round"/><polyline fill="none" points="-100.0,50.0 95.71067811864853,181.06601717798995 50.00000000000374,-49.99999999999329" stroke="#f00" stroke-linecap="round" stroke-linejoin="round"/><polyline fill="none" points="50.0,-50.0 -74.99999999998965,-75.00000000004935 -100.00000000003902,49.9999999999403" stroke="#f00" stroke-linecap="round" stroke-linejoin="round"/><polygon fill="#000" fill-rule="evenodd" points="-100.00000000003902,49.9999999999403 -100.8320502943728,39.73804636977323 -103.88290137361332,44.17564793957386 -109.15255323775344,45.28504833202223" stroke="#f00" stroke-linejoin="round"/></svg>