<?xml version="1.0" ?><!DOCTYPE svg  PUBLIC '-//W3C//DTD SVG 1.1//EN'  'http://www.w3.org/Graphics/SVG/1.1/DTD/svg11.dtd'><svg height="227.000" viewBox="-111.000 -111.000 223.000 227.000" width="223.000" xmlns="http://www.w3.org/2000/svg"><line fill="none" stroke="none" stroke-linecap="round" stroke-width="2.0" x1="0.0" x2="0.0" y1="0.0" y2="0.0"/><polyline fill="none" points="-86.60254037844388,49.99999999999999 86.60254037844385,49.999999999999986 1.4210854715202004e-14,-100.00000000000001 -86.6025403784439,49.99999999999993" stroke="#000080" stroke-linecap="round" stroke-linejoin="round"/><polyline fill="none" points="-70.71067811865474,70.71067811865476 70.71067811865471,70.71067811865484 70.71067811865481,-70.71067811865461 -70.71067811865464,-70.71067811865471 -70.71067811865476,70.71067811865474" stroke="#f00" stroke-linecap="round" stroke-linejoin="round"/><polyline fill="none" points="-58.7785252292473,80.90169943749474 58.7785252292473,80.90169943749484 95.10565162951545,-30.901699437494585 1.8474111129762605e-13,-99.99999999999993 -95.10565162951522,-30.901699437494784 -58.77852522924731,80.9016994374947" stroke="#800080" stroke-linecap="round" stroke-linejoin="round"/><polyline fill="none" points="-49.99999999999998,86.60254037844388 49.999999999999964,86.60254037844398 100.00000000000003,2.1316282072803006e-13 50.00000000000017,-86.60254037844366 -49.99999999999977,-86.6025403784438 -99.99999999999989,-7.105427357601002e-14 -50.00000000000006,86.60254037844382" stroke="#00f" stroke-linecap="round" stroke-linejoin="round"/><polyline fill="none" points="-38.268343236508976,92.38795325112868 38.26834323650895,92.3879532511288 92.38795325112872,38.26834323650923 92.38795325112886,-38.26834323650869 38.268343236509295,-92.38795325112847 -38.26834323650863,-92.38795325112862 -92.38795325112841,-38.26834323650907 -92.38795325112858,38.268343236508855 -38.26834323650903,92.38795325112865" stroke="#008000" stroke-linecap="round" stroke-linejoin="round"/><polyline fill="none" points="-8.715574274765823,99.61946980917456 8.715574274765805,99.6194698091746 25.881904510252063,96.59258262890692 42.26182617406994,90.63077870366513 57.357643635104615,81.91520442889936 70.71067811865478,70.71067811865497 81.91520442889924,57.357643635104864 90.6307787036651,42.26182617407023 96.59258262890697,25.88190451025239 99.61946980917473,8.715574274766151 99.61946980917477,-8.71557427476547 96.5925826289071,-25.881904510251722 90.63077870366531,-42.26182617406959 81.91520442889954,-57.35764363510427 70.71067811865515,-70.71067811865443 57.35764363510505,-81.91520442889887 42.26182617407042,-90.63077870366472 25.881904510252586,-96.59258262890658 8.715574274766354,-99.61946980917435 -8.715574274765263,-99.61946980917439 -25.88190451025151,-96.59258262890671 -42.26182617406937,-90.63077870366493 -57.35764363510404,-81.91520442889916 -70.7106781186542,-70.71067811865478 -81.91520442889865,-57.357643635104694 -90.63077870366449,-42.26182617407007 -96.59258262890636,-25.881904510252244 -99.61946980917412,-8.71557427476602 -99.61946980917418,8.715574274765586 -96.59258262890651,25.88190451025183 -90.63077870366473,42.26182617406968 -81.91520442889897,57.35764363510435 -70.71067811865461,70.7106781186545 -57.35764363510452,81.91520442889895 -42.26182617406991,90.63077870366479 -25.881904510252088,96.59258262890665 -8.715574274765867,99.61946980917443" stroke="#ff0" stroke-linecap="round" stroke-linejoin="round"/><polyline fill="none" points="-30.901699437494734,95.10565162951536 30.901699437494628,95.10565162951555 80.90169943749464,58.77852522924773 100.00000000000004,5.897504706808832e-13 80.90169943749501,-58.77852522924666 30.901699437495225,-95.1056516295148 -30.901699437494145,-95.105651629515 -80.90169943749416,-58.77852522924717 -99.99999999999956,-2.842170943040401e-14 -80.90169943749451,58.778525229247236 -30.901699437494713,95.10565162951538" stroke="#f0f" stroke-linecap="round" stroke-linejoin="round"/><polygon fill="#f0f" fill-rule="evenodd" points="-14.901699437494713,95.10565162951544 -16.901699437494706,93.10565162951542 -20.90169943749471,94.1056516295154 -23.9016994374947,91.1056516295154 -21.901699437494692,88.1056516295154 -22.901699437494685,86.1056516295154 -25.901699437494695,89.10565162951539 -29.901699437494692,88.10565162951538 -33.9016994374947,90.10565162951536 -36.901699437494685,87.10565162951536 -38.90169943749469,89.10565162951535 -35.9016994374947,91.10565162951536 -37.90169943749471,95.10565162951535 -35.90169943749473,99.10565162951536 -38.901699437494734,101.10565162951535 -36.90169943749474,103.10565162951536 -33.90169943749473,100.10565162951536 -29.901699437494734,102.10565162951538 -25.90169943749473,101.10565162951539 -22.90169943749474,104.1056516295154 -21.901699437494734,102.1056516295154 -23.901699437494727,99.1056516295154 -20.901699437494717,96.1056516295154 -16.90169943749472,97.10565162951542" stroke="#f0f" stroke-linejoin="round"/></svg>