<?xml version="1.0" ?><!DOCTYPE svg  PUBLIC '-//W3C//DTD SVG 1.1//EN'  'http://www.w3.org/Graphics/SVG/1.1/DTD/svg11.dtd'><svg height="342.000" viewBox="-221.000 -221.000 1016.000 342.000" width="1016.000" xmlns="http://www.w3.org/2000/svg"><line fill="none" stroke="#0f0" stroke-linecap="round" stroke-width="10.0" x1="-200.0" x2="600.0" y1="-200.0" y2="-200.0"/><line fill="none" stroke="#0f0" stroke-linecap="round" stroke-width="10.0" x1="-200.0" x2="600.0" y1="100.0" y2="100.0"/><line fill="none" stroke="none" stroke-linecap="round" stroke-width="10.0" x1="0.0" x2="0.0" y1="0.0" y2="0.0"/><line fill="none" stroke="none" stroke-linecap="round" stroke-width="2.0" x1="0.0" x2="0.0" y1="0.0" y2="0.0"/><line fill="none" stroke="none" stroke-linecap="round" stroke-width="2.0" x1="0.0" x2="0.0" y1="0.0" y2="0.0"/><line fill="none" stroke="none" stroke-linecap="round" stroke-width="2.0" x1="0.0" x2="0.0" y1="0.0" y2="0.0"/><line fill="none" stroke="none" stroke-linecap="round" stroke-width="2.0" x1="0.0" x2="0.0" y1="0.0" y2="0.0"/><line fill="none" stroke="none" stroke-linecap="round" stroke-width="2.0" x1="0.0" x2="0.0" y1="0.0" y2="0.0"/><polygon fill="#f00" fill-rule="evenodd" points="423.0825429619757,0.0 423.08254296197566,-100.0 379.6941690502199,-90.09688679024191 344.8993947151727,-62.348980185873344 325.5897517437934,-22.25209339563143 325.5897517437934,22.252093395631444 344.8993947151728,62.348980185873344 379.69416905021995,90.0968867902419 423.0825429619757,99.99999999999999" stroke="#00f" stroke-linejoin="round"/><polygon fill="#00f" fill-rule="evenodd" points="423.0825429619757,0.0 423.0825429619757,-99.99999999999999 466.4709168737315,-90.0968867902419 501.26569120877866,-62.348980185873344 520.575334180158,-22.252093395631455 520.575334180158,22.252093395631412 501.2656912087787,62.34898018587333 466.47091687373154,90.0968867902419 423.0825429619758,99.99999999999999" stroke="#f00" stroke-linejoin="round"/><polygon fill="#000" fill-rule="evenodd" points="623.0825429619757,10.0 623.0825429619757,-10.0 423.0825429619757,-10.0 423.0825429619757,10.0" stroke="#000" stroke-linejoin="round"/><polygon fill="#a020f0" fill-rule="evenodd" points="783.0825429619757,-9.797174393178826e-15 763.0825429619757,-20.000000000000007 723.0825429619757,-10.000000000000005 693.0825429619757,-40.00000000000001 713.0825429619757,-70.0 703.0825429619757,-90.0 673.0825429619757,-60.0 633.0825429619757,-70.0 593.0825429619757,-50.0 563.0825429619757,-80.0 543.0825429619757,-59.99999999999999 573.0825429619757,-40.0 553.0825429619757,4.2862637970157365e-15 573.0825429619757,40.0 543.0825429619757,60.00000000000001 563.0825429619757,80.0 593.0825429619757,50.0 633.0825429619757,70.0 673.0825429619757,60.0 703.0825429619757,90.0 713.0825429619757,70.0 693.0825429619757,39.99999999999999 723.0825429619757,9.999999999999995 763.0825429619757,19.999999999999993" stroke="#a020f0" stroke-linejoin="round"/></svg>