<?xml version="1.0" ?><!DOCTYPE svg  PUBLIC '-//W3C//DTD SVG 1.1//EN'  'http://www.w3.org/Graphics/SVG/1.1/DTD/svg11.dtd'><svg height="375.000" viewBox="-187.000 -187.000 375.000 375.000" width="375.000" xmlns="http://www.w3.org/2000/svg"><line fill="none" stroke="none" stroke-linecap="round" stroke-width="2.0" x1="0.0" x2="0.0" y1="0.0" y2="0.0"/><polyline fill="none" points="0.0,0.0 100.0,0.0 158.77852522924732,-80.90169943749474 58.77852522924732,-80.90169943749476 0.0,-2.842170943040401e-14" stroke="#000080" stroke-linecap="round" stroke-linejoin="round"/><polyline fill="none" points="0.0,-2.842170943040401e-14 80.90169943749474,-58.77852522924731 80.90169943749477,-158.7785252292473 4.263256414560601e-14,-100.00000000000003 9.325873406851315e-15,-5.684341886080802e-14" stroke="#0f0" stroke-linecap="round" stroke-linejoin="round"/><polyline fill="none" points="9.325873406851315e-15,-5.684341886080802e-14 30.901699437494784,-95.10565162951538 -27.876825791752488,-176.00735106701012 -58.778525229247265,-80.9016994374948 7.105427357601002e-15,-5.684341886080802e-14" stroke="#00f" stroke-linecap="round" stroke-linejoin="round"/><polyline fill="none" points="7.105427357601002e-15,-5.684341886080802e-14 -30.90169943749469,-95.10565162951539 -126.00735106701,-126.00735106701016 -95.10565162951532,-30.901699437494827 0.0,-4.973799150320701e-14" stroke="#0f0" stroke-linecap="round" stroke-linejoin="round"/><polyline fill="none" points="0.0,-4.973799150320701e-14 -80.90169943749468,-58.778525229247386 -176.00735106701,-27.8768257917527 -95.10565162951532,30.90169943749465 2.842170943040401e-14,-1.7763568394002505e-14 -99.99999999999994,-8.992806499463768e-14 -158.7785252292473,80.9016994374946 -58.77852522924732,80.90169943749468 3.552713678800501e-14,0.0" stroke="#ff0" stroke-linecap="round" stroke-linejoin="round"/><polyline fill="none" points="3.552713678800501e-14,0.0 -80.90169943749473,58.77852522924722 -80.90169943749481,158.77852522924718 -4.263256414560601e-14,99.99999999999996 4.063416270128073e-14,-1.4210854715202004e-14" stroke="#a020f0" stroke-linecap="round" stroke-linejoin="round"/><polyline fill="none" points="4.063416270128073e-14,-1.4210854715202004e-14 -30.901699437494777,95.10565162951528 27.876825791752445,176.00735106701006 58.778525229247265,80.90169943749477 4.263256414560601e-14,-1.4210854715202004e-14" stroke="#00f" stroke-linecap="round" stroke-linejoin="round"/><polyline fill="none" points="4.263256414560601e-14,-1.4210854715202004e-14 30.90169943749468,95.10565162951535 126.00735106700998,126.00735106701018 95.10565162951535,30.901699437494813 5.684341886080802e-14,-2.1316282072803006e-14" stroke="#f00" stroke-linecap="round" stroke-linejoin="round"/><polyline fill="none" points="5.684341886080802e-14,-2.1316282072803006e-14 80.90169943749471,58.77852522924736 176.00735106701006,27.87682579175272 95.1056516295154,-30.90169943749466 4.263256414560601e-14,-2.1316282072803006e-14" stroke="#f0f" stroke-linecap="round" stroke-linejoin="round"/><polygon fill="#f0f" fill-rule="evenodd" points="4.263256414560601e-14,-2.1316282072803006e-14 -8.999999999999952,-5.000000000000031 -6.999999999999957,-2.8699265186560297e-14 -8.999999999999963,4.999999999999969" stroke="#f0f" stroke-linejoin="round"/></svg>