<?xml version="1.0" ?><!DOCTYPE svg  PUBLIC '-//W3C//DTD SVG 1.1//EN'  'http://www.w3.org/Graphics/SVG/1.1/DTD/svg11.dtd'><svg height="249.000" viewBox="-106.000 -163.000 246.000 249.000" width="246.000" xmlns="http://www.w3.org/2000/svg"><line fill="none" stroke="none" stroke-linecap="round" stroke-width="2.0" x1="0.0" x2="0.0" y1="0.0" y2="0.0"/><line fill="none" stroke="#000080" stroke-linecap="round" x1="0.0" x2="50.0" y1="0.0" y2="0.0"/><line fill="none" stroke="#ff0" stroke-linecap="round" x1="50.0" x2="66.99593469062211" y1="0.0" y2="-52.30810839623344"/><line fill="none" stroke="#f00" stroke-linecap="round" x1="66.99593469062211" x2="18.454915028125264" y1="-52.30810839623344" y2="-87.57522353378184"/><line fill="none" stroke="#ff0" stroke-linecap="round" x1="18.454915028125264" x2="-34.13118960624632" y1="-87.57522353378184" y2="-49.369182134771094"/><line fill="none" stroke="#f0f" stroke-linecap="round" x1="-34.13118960624632" x2="-12.500000000000014" y1="-49.369182134771094" y2="17.20477400588966"/><line fill="none" stroke="#00f" stroke-linecap="round" x1="-12.500000000000014" x2="62.499999999999986" y1="17.20477400588966" y2="17.20477400588968"/><line fill="none" stroke="#a020f0" stroke-linecap="round" x1="62.499999999999986" x2="87.2213595499958" y1="17.20477400588968" y2="-58.8797472977226"/><line fill="none" stroke="#00f" stroke-linecap="round" x1="87.2213595499958" x2="18.454915028125285" y1="-58.8797472977226" y2="-108.84149374258284"/><line fill="none" stroke="#f0f" stroke-linecap="round" x1="18.454915028125285" x2="-54.35661446562" y1="-108.84149374258284" y2="-55.940821036260296"/><line fill="none" stroke="#000080" stroke-linecap="round" x1="-54.35661446562" x2="-25.00000000000004" y1="-55.940821036260296" y2="34.4095480117793"/><line fill="none" stroke="#a020f0" stroke-linecap="round" x1="-25.00000000000004" x2="74.99999999999994" y1="34.4095480117793" y2="34.40954801177935"/><line fill="none" stroke="#f00" stroke-linecap="round" x1="74.99999999999994" x2="107.44678440936947" y1="34.40954801177935" y2="-65.45138619921175"/><line fill="none" stroke="#0f0" stroke-linecap="round" x1="107.44678440936947" x2="18.4549150281253" y1="-65.45138619921175" y2="-130.10776395138384"/><line fill="none" stroke="#00f" stroke-linecap="round" x1="18.4549150281253" x2="-74.58203932499369" y1="-130.10776395138384" y2="-62.5124599377495"/><line fill="none" stroke="#ff0" stroke-linecap="round" x1="-74.58203932499369" x2="-37.50000000000007" y1="-62.5124599377495" y2="51.614322017668925"/><line fill="none" stroke="#000080" stroke-linecap="round" x1="-37.50000000000007" x2="87.49999999999989" y1="51.614322017668925" y2="51.614322017669004"/><line fill="none" stroke="#f00" stroke-linecap="round" x1="87.49999999999989" x2="127.6722092687431" y1="51.614322017669004" y2="-72.02302510070089"/><line fill="none" stroke="#0f0" stroke-linecap="round" x1="127.6722092687431" x2="18.454915028125313" y1="-72.02302510070089" y2="-151.3740341601848"/><line fill="none" stroke="#ff0" stroke-linecap="round" x1="18.454915028125313" x2="-94.80746418436733" y1="-151.3740341601848" y2="-69.08409883923869"/><line fill="none" stroke="#a020f0" stroke-linecap="round" x1="-94.80746418436733" x2="-50.00000000000009" y1="-69.08409883923869" y2="68.81909602355856"/><polygon fill="#a020f0" fill-rule="evenodd" points="-50.00000000000009,68.81909602355856 -59.000000000000085,63.81909602355855 -57.00000000000009,68.81909602355856 -59.0000000000001,73.81909602355854" stroke="#a020f0" stroke-linejoin="round"/></svg>