<?xml version="1.0" ?><!DOCTYPE svg  PUBLIC '-//W3C//DTD SVG 1.1//EN'  'http://www.w3.org/Graphics/SVG/1.1/DTD/svg11.dtd'><svg height="389.000" viewBox="-237.000 -145.000 475.000 389.000" width="475.000" xmlns="http://www.w3.org/2000/svg"><line fill="none" stroke="none" stroke-linecap="round" stroke-width="2.0" x1="0.0" x2="0.0" y1="0.0" y2="0.0"/><polygon fill="none" fill-rule="evenodd" points="0.0,0.0 0.0,0.0 0.0,0.0" stroke-linejoin="round"/><polyline fill="none" points="0.0,0.0 -2.4474590350452465,-17.8065868963636 -9.608319299931756,-34.29254070233861 -20.95149254756883,-48.23517364235619 -35.63570750974396,-58.60042441455676 -52.57190313852617,-64.6195497870333 -70.50399928206828,-65.84613876657558 -88.10205440328508,-62.189220859842145 -104.06090125958121,-53.92001293868917 -117.19694518649169,-41.651804325519485 -126.53594589935987,-26.294471929851944 -131.3852724383978,-8.986998840352292 -131.3852724383978,8.98699884035225 -126.53594589935987,26.294471929851902 -117.19694518649169,41.651804325519436 -104.06090125958121,53.92001293868911 -88.10205440328508,62.18922085984208 -70.50399928206829,65.8461387665755 -52.571903138526196,64.61954978703324 -35.635707509744,58.6004244145567 -20.95149254756889,48.23517364235613 -9.60831929993183,34.29254070233857 -2.4474590350453322,17.806586896363573 -9.237055564881302e-14,-1.0658141036401503e-14 2.4474590350451577,17.80658689636357 9.608319299931665,34.29254070233856 20.951492547568733,48.235173642356116 35.635707509743845,58.60042441455667 52.57190313852604,64.6195497870332 70.50399928206812,65.84613876657546 88.1020544032849,62.189220859842024 104.06090125958102,53.92001293868905 117.19694518649146,41.65180432551937 126.53594589935963,26.294471929851845 131.38527243839755,8.98699884035221 131.38527243839755,-8.986998840352307 126.53594589935962,-26.294471929851934 117.19694518649143,-41.65180432551945 104.06090125958097,-53.920012938689105 88.10205440328485,-62.18922085984205 70.5039992820681,-65.84613876657546 52.57190313852602,-64.61954978703318 35.63570750974385,-58.600424414556635" stroke="#000" stroke-linecap="round" stroke-linejoin="round" stroke-width="3.0"/><polyline fill="none" points="35.63570750974385,-58.600424414556635 20.951492547568762,-48.23517364235607 9.608319299931724,-34.29254070233851 2.447459035045246,-17.80658689636353 2.2648549702353193e-14,3.197442310920451e-14" stroke="#000" stroke-linecap="round" stroke-linejoin="round" stroke-width="3.0"/><polygon fill="#00f" fill-rule="evenodd" points="32.999999999999986,33.99999999999992 35.22841642965625,45.92097498417594 41.612705731718236,56.23195624033625 51.29063425937421,63.540388614716896 62.95514413771098,66.85922781773596 75.03087867237865,65.74024622470284 85.88694300051534,60.33456850024773 94.05716547907713,51.372261374952586 98.43811228956861,40.06373408794669 98.43811228956861,27.93626591205308 94.05716547907713,16.62773862504719 85.88694300051534,7.665431499752051 75.03087867237865,2.2597537752969385 62.95514413771098,1.1407721822638297 51.290634259374215,4.4596113852829005 41.61270573171825,11.768043759663545 35.22841642965627,22.079025015823856 33.000000000000014,33.99999999999987" stroke-linejoin="round"/><polyline fill="none" points="32.999999999999986,33.99999999999992 35.22841642965625,45.92097498417594 41.612705731718236,56.23195624033625 51.29063425937421,63.540388614716896 62.95514413771098,66.85922781773596 75.03087867237865,65.74024622470284 85.88694300051534,60.33456850024773 94.05716547907713,51.372261374952586 98.43811228956861,40.06373408794669 98.43811228956861,27.93626591205308 94.05716547907713,16.62773862504719 85.88694300051534,7.665431499752051 75.03087867237865,2.2597537752969385 62.95514413771098,1.1407721822638297 51.290634259374215,4.4596113852829005 41.61270573171825,11.768043759663545 35.22841642965627,22.079025015823856 33.000000000000014,33.99999999999987" stroke="#000" stroke-linecap="round" stroke-linejoin="round" stroke-width="3.0"/><polygon fill="#000" fill-rule="evenodd" points="37.0,48.99999999999983 38.259983717814684,54.11195489248127 41.75128778595727,58.05282252483003 46.674096517191416,59.9197976150784 51.90065375746785,59.28517866953938 56.23361822988206,56.29434924064857 58.680359991686515,51.63247230716297 58.680359991686515,46.36752769283672 56.23361822988206,41.705650759351116 51.90065375746786,38.7148213304603 46.67409651719143,38.08020238492127 41.75128778595728,39.94717747516964 38.25998371781469,43.888045107518394 37.0,48.99999999999984" stroke-linejoin="round"/><polyline fill="none" points="37.0,48.99999999999983 38.259983717814684,54.11195489248127 41.75128778595727,58.05282252483003 46.674096517191416,59.9197976150784 51.90065375746785,59.28517866953938 56.23361822988206,56.29434924064857 58.680359991686515,51.63247230716297 58.680359991686515,46.36752769283672 56.23361822988206,41.705650759351116 51.90065375746786,38.7148213304603 46.67409651719143,38.08020238492127 41.75128778595728,39.94717747516964 38.25998371781469,43.888045107518394 37.0,48.99999999999984" stroke="#000" stroke-linecap="round" stroke-linejoin="round" stroke-width="3.0"/><polygon fill="#00f" fill-rule="evenodd" points="-32.999999999999936,33.99999999999989 -35.22841642965618,22.079025015823877 -41.612705731718144,11.768043759663557 -51.2906342593741,4.459611385282899 -62.95514413771086,1.140772182263813 -75.03087867237853,2.2597537752969075 -85.88694300051523,7.665431499752007 -94.05716547907703,16.627738625047137 -98.43811228956852,27.93626591205302 -98.43811228956854,40.06373408794663 -94.05716547907707,51.37226137495253 -85.8869430005153,60.334568500247684 -75.03087867237862,65.74024622470282 -62.95514413771096,66.85922781773594 -51.29063425937419,63.54038861471689 -41.612705731718215,56.23195624033626 -35.22841642965622,45.92097498417596 -32.99999999999994,33.99999999999996" stroke-linejoin="round"/><polyline fill="none" points="-32.999999999999936,33.99999999999989 -35.22841642965618,22.079025015823877 -41.612705731718144,11.768043759663557 -51.2906342593741,4.459611385282899 -62.95514413771086,1.140772182263813 -75.03087867237853,2.2597537752969075 -85.88694300051523,7.665431499752007 -94.05716547907703,16.627738625047137 -98.43811228956852,27.93626591205302 -98.43811228956854,40.06373408794663 -94.05716547907707,51.37226137495253 -85.8869430005153,60.334568500247684 -75.03087867237862,65.74024622470282 -62.95514413771096,66.85922781773594 -51.29063425937419,63.54038861471689 -41.612705731718215,56.23195624033626 -35.22841642965622,45.92097498417596 -32.99999999999994,33.99999999999996" stroke="#000" stroke-linecap="round" stroke-linejoin="round" stroke-width="3.0"/><polygon fill="#000" fill-rule="evenodd" points="-36.99999999999996,48.99999999999991 -38.259983717814634,43.888045107518465 -41.75128778595721,39.9471774751697 -46.67409651719135,38.08020238492133 -51.90065375746778,38.714821330460346 -56.23361822988199,41.705650759351144 -58.68035999168645,46.36752769283674 -58.68035999168646,51.63247230716299 -56.23361822988201,56.29434924064859 -51.90065375746781,59.285178669539405 -46.67409651719138,59.919797615078444 -41.75128778595723,58.052822524830084 -38.25998371781464,54.111954892481336 -36.99999999999994,48.9999999999999" stroke-linejoin="round"/><polyline fill="none" points="-36.99999999999996,48.99999999999991 -38.259983717814634,43.888045107518465 -41.75128778595721,39.9471774751697 -46.67409651719135,38.08020238492133 -51.90065375746778,38.714821330460346 -56.23361822988199,41.705650759351144 -58.68035999168645,46.36752769283674 -58.68035999168646,51.63247230716299 -56.23361822988201,56.29434924064859 -51.90065375746781,59.285178669539405 -46.67409651719138,59.919797615078444 -41.75128778595723,58.052822524830084 -38.25998371781464,54.111954892481336 -36.99999999999994,48.9999999999999" stroke="#000" stroke-linecap="round" stroke-linejoin="round" stroke-width="3.0"/><polyline fill="none" points="-1.3486039664514302e-13,69.99999999999982 -1.9265770949306145e-13,99.99999999999974 1.8092213764225307,110.26060429976978 7.018666706430408,119.28362829059589 14.999999999999712,125.98076211353286 24.790554669991764,129.54423259036597 35.209445330007554,129.544232590366 44.99999999999962,125.98076211353295 52.98133329356896,119.283628290596 58.190778623576875,110.26060429976992 59.99999999999964,99.99999999999989" stroke="#000" stroke-linecap="round" stroke-linejoin="round" stroke-width="3.0"/><polyline fill="none" points="-2.042810365310288e-13,99.99999999999976 -1.80922137642297,110.2606042997698 -7.018666706430886,119.28362829059589 -15.00000000000022,125.98076211353283 -24.79055466999229,129.54423259036588 -35.20944533000808,129.54423259036585 -45.000000000000135,125.98076211353276 -52.98133329356944,119.28362829059579 -58.19077862357732,110.26060429976968 -60.00000000000005,99.99999999999964 -58.53169548885467,109.27050983124805 -54.27050983124851,117.63355756877381 -47.63355756877431,124.27050983124803 -39.27050983124856,128.5316954888542 -30.000000000000163,129.99999999999963" stroke="#000" stroke-linecap="round" stroke-linejoin="round" stroke-width="3.0"/><polygon fill="#f00" fill-rule="evenodd" points="-30.000000000000163,129.99999999999963 -28.190778623577437,140.26060429976965 -22.981333293569556,149.28362829059574 -15.000000000000249,155.9807621135327 -5.209445330008192,159.5442325903658 5.2094453300076005,159.54423259036582 14.99999999999967,155.98076211353276 22.981333293569,149.28362829059583 28.190778623576914,140.26060429976974 29.99999999999968,129.99999999999972" stroke-linejoin="round"/><polyline fill="none" points="-30.000000000000163,129.99999999999963 -28.190778623577437,140.26060429976965 -22.981333293569556,149.28362829059574 -15.000000000000249,155.9807621135327 -5.209445330008192,159.5442325903658 5.2094453300076005,159.54423259036582 14.99999999999967,155.98076211353276 22.981333293569,149.28362829059583 28.190778623576914,140.26060429976974 29.99999999999968,129.99999999999972" stroke="#000" stroke-linecap="round" stroke-linejoin="round" stroke-width="3.0"/><polyline fill="none" points="99.99999999999989,-79.99999999999959 113.85857874714743,-92.61373793449772 130.56694834808275,-101.09884104816864 148.92767591095813,-104.84721041803543 167.62490958265136,-103.59021296490037 185.3186812442028,-97.41793348646081 200.74093753825804,-86.77271858155822 212.7864170063937,-72.4174751508877 220.59186047624777,-55.38099541445155 223.59787795528993,-36.884226818645956 221.58903823815155,-18.252770821812682 214.70930813962087,-0.8218814772480059 203.4517348751817,14.159227752941582 188.62311101832785,25.616910942968808" stroke="#000" stroke-linecap="round" stroke-linejoin="round" stroke-width="3.0"/><polyline fill="none" points="-99.99999999999962,-80.00000000000006 -113.85857874714712,-92.61373793449826 -130.5669483480824,-101.09884104816925 -148.92767591095776,-104.84721041803613 -167.62490958265101,-103.59021296490114 -185.31868124420248,-97.41793348646165 -200.74093753825778,-86.77271858155912 -212.78641700639352,-72.41747515088863 -220.59186047624766,-55.38099541445251 -223.5978779552899,-36.88422681864691 -221.5890382381516,-18.252770821813613 -214.70930813962102,-0.821881477248894 -203.4517348751819,14.159227752940753 -188.6231110183281,25.61691094296805" stroke="#000" stroke-linecap="round" stroke-linejoin="round" stroke-width="3.0"/><polyline fill="none" points="-189.9999999999998,39.99999999999954 -188.06607395737709,67.03981927192368 -182.30366498675443,93.52918579987112 -172.83007911735848,118.92885247035787 -159.83817123792448,142.72175531656296 -143.5924191273092,164.4235394496036 -124.42353944960436,183.59241912730852 -102.72175531656382,199.8381712379239 -78.92885247035876,212.830079117358 -53.529185799872046,222.30366498675406 -27.03981927192464,228.06607395737683 -5.115907697472721e-13,229.99999999999966 27.039819271923626,228.06607395737694 53.52918579987106,222.30366498675428 78.92885247035781,212.83007911735834 102.72175531656292,199.83817123792434 124.42353944960354,183.59241912730906 143.59241912730846,164.42353944960422 159.83817123792383,142.72175531656367 172.83007911735794,118.92885247035862 182.303664986754,93.52918579987191 188.06607395737677,67.0398192719245 189.9999999999996,40.000000000000384" stroke="#000" stroke-linecap="round" stroke-linejoin="round" stroke-width="3.0"/><polyline fill="none" points="1.6986412276764895e-13,-79.99999999999984 -1.7037086855463845,-92.94095225512586 -6.69872981077783,-104.99999999999982 -14.644660940672345,-115.35533905932719 -24.99999999999968,-123.30127018922175 -14.644660940672344,-115.35533905932719 -6.698729810777826,-104.99999999999982 -1.7037086855463794,-92.94095225512586 1.7630341631047486e-13,-79.99999999999986 2.0444504226561038,-95.52914270615106 8.038475772933896,-109.99999999999977 17.573593128807367,-122.42640687119258 30.00000000000021,-131.961524227066 17.573593128807367,-122.42640687119258 8.038475772933898,-109.99999999999977 2.044450422656106,-95.52914270615106 1.7763568394002505e-13,-79.99999999999986 1.8092213764229426,-90.2606042997699 7.018666706430859,-99.28362829059598 15.000000000000195,-105.98076211353293" stroke="#000" stroke-linecap="round" stroke-linejoin="round" stroke-width="3.0"/><line fill="none" stroke="#000" stroke-linecap="round" stroke-width="3.0" x1="-20.000000000000178" x2="-21.000000000000174" y1="109.99999999999972" y2="109.99999999999972"/><line fill="none" stroke="#000" stroke-linecap="round" stroke-width="3.0" x1="-40.00000000000013" x2="-41.00000000000013" y1="109.99999999999967" y2="109.99999999999967"/><line fill="none" stroke="#000" stroke-linecap="round" stroke-width="3.0" x1="18.999999999999737" x2="19.999999999999734" y1="109.99999999999979" y2="109.99999999999979"/><line fill="none" stroke="#000" stroke-linecap="round" stroke-width="3.0" x1="38.99999999999969" x2="39.99999999999969" y1="109.99999999999983" y2="109.99999999999983"/><line fill="none" stroke="#000" stroke-linecap="round" stroke-width="3.0" x1="29.999999999999687" x2="28.99999999999969" y1="119.99999999999979" y2="119.99999999999979"/><line fill="none" stroke="#000" stroke-linecap="round" stroke-width="3.0" x1="-31.000000000000174" x2="-32.00000000000017" y1="119.99999999999967" y2="119.99999999999967"/><line fill="none" stroke="none" stroke-linecap="round" stroke-width="2.0" x1="0.0" x2="0.0" y1="0.0" y2="0.0"/></svg>