<?xml version="1.0" ?><!DOCTYPE svg  PUBLIC '-//W3C//DTD SVG 1.1//EN'  'http://www.w3.org/Graphics/SVG/1.1/DTD/svg11.dtd'><svg height="360.000" viewBox="-171.000 -174.000 343.000 360.000" width="343.000" xmlns="http://www.w3.org/2000/svg"><line fill="none" stroke="none" stroke-linecap="round" stroke-width="2.0" x1="0.0" x2="0.0" y1="0.0" y2="0.0"/><polyline fill="none" points="0.0,-0.0 -2.4471741852423214,-15.450849718747373 -9.54915028125263,-29.38926261462366 -20.610737385376343,-40.45084971874738 -34.54915028125263,-47.55282581475769 -50.0,-50.000000000000014 -65.45084971874736,-47.552825814757696 -79.38926261462365,-40.45084971874739 -90.45084971874736,-29.389262614623682 -97.55282581475767,-15.450849718747403 -99.99999999999999,-3.730349362740526e-14 -97.55282581475767,15.450849718747328 -90.45084971874736,29.38926261462361 -79.38926261462366,40.45084971874732 -65.45084971874739,47.55282581475763 -50.000000000000036,49.99999999999996 -34.54915028125268,47.55282581475765 -20.610737385376403,40.45084971874735 -9.549150281252695,29.389262614623654 -2.447174185242388,15.450849718747387 -6.084022174945858e-14,3.375077994860476e-14 2.4471741852422664,-15.45084971874732 9.549150281252572,-29.389262614623586 20.61073738537628,-40.450849718747286 34.54915028125255,-47.55282581475758 49.9999999999999,-49.99999999999989 65.45084971874725,-47.55282581475757 79.38926261462352,-40.450849718747264 90.45084971874722,-29.38926261462356 97.55282581475751,-15.450849718747293 99.99999999999983,5.861977570020827e-14 97.55282581475751,15.450849718747408 90.45084971874721,29.38926261462367 79.3892626146235,40.45084971874737 65.45084971874724,47.55282581475766 49.999999999999886,49.99999999999997 34.54915028125254,47.552825814757654 20.610737385376275,40.45084971874736 9.549150281252578,29.389262614623657 2.4471741852422833,15.450849718747392 -3.1530333899354446e-14,4.440892098500626e-14" stroke="#000" stroke-linecap="round" stroke-linejoin="round"/><polyline fill="none" points="-49.99999999999995,3.1632852521667763e-14 -59.56708580912718,1.9030116872178569 -67.6776695296636,7.322330470336326 -73.09698831278207,15.432914190872754 -74.9999999999999,24.99999999999998 -73.09698831278207,34.56708580912721 -67.6776695296636,42.67766952966363 -59.56708580912718,48.0969883127821 -49.99999999999996,49.99999999999993 -40.43291419087273,48.0969883127821 -32.3223304703363,42.67766952966363 -26.903011687217827,34.56708580912721 -25.0,24.999999999999982 -26.903011687217827,15.432914190872758 -32.3223304703363,7.322330470336331 -40.43291419087272,1.9030116872178615 -49.99999999999994,3.5083047578154947e-14" stroke="#000" stroke-linecap="round" stroke-linejoin="round"/><polyline fill="none" points="49.999999999999844,1.7285464463555655e-14 59.567085809127065,1.9030116872178424 67.67766952966349,7.3223304703363095 73.09698831278196,15.432914190872735 74.99999999999979,24.999999999999957 73.09698831278196,34.56708580912718 67.67766952966349,42.6776695296636 59.567085809127065,48.096988312782074 49.999999999999844,49.9999999999999 40.43291419087262,48.096988312782074 32.3223304703362,42.6776695296636 26.903011687217727,34.56708580912718 24.9999999999999,24.999999999999957 26.903011687217727,15.432914190872735 32.3223304703362,7.322330470336308 40.43291419087262,1.9030116872178375 49.999999999999844,8.881784197001252e-15" stroke="#000" stroke-linecap="round" stroke-linejoin="round"/><polyline fill="none" points="1.138828968255705e-14,49.999999999999886 1.51843862434094e-14,66.66666666666652 1.6505188682930274,73.8980623186258 6.275169969021112,79.69719137446698 12.957984434061416,82.91546520303021 20.37534889927188,82.91546520303021 27.058163364312186,79.69719137446698 31.682814465040266,73.8980623186258 33.33333333333328,66.66666666666652" stroke="#000" stroke-linecap="round" stroke-linejoin="round"/><polyline fill="none" points="8.881784197001252e-15,66.66666666666652 -1.6505188682930019,73.8980623186258 -6.275169969021086,79.697191374467 -12.957984434061391,82.91546520303022 -20.37534889927186,82.91546520303022 -27.05816336431217,79.697191374467 -31.682814465040256,73.89806231862582 -33.33333333333327,66.66666666666653" stroke="#000" stroke-linecap="round" stroke-linejoin="round"/><polyline fill="none" points="1.582067810090848e-14,83.33333333333317 -16.666666666666632,83.33333333333317 -15.01614779837362,90.56472898529246 -10.391496697645533,96.36385804113365 -3.7086822326052227,99.58213186969688 3.7086822326052475,99.58213186969688 10.391496697645557,96.36385804113365 15.016147798373645,90.56472898529246 16.666666666666657,83.33333333333317" stroke="#000" stroke-linecap="round" stroke-linejoin="round"/><polyline fill="none" points="-150.0,25.0 -147.95419551040834,49.68918854211005 -141.8725862550952,73.70492038070246 -131.92106268097336,96.39210895556094 -118.37107640945905,117.13190690345004 -101.5922357438612,135.35858660096957 -82.04222371836408,150.5749717393791 -60.254313697945506,162.3659989982584 -36.82282307112,170.41003989089933 -12.386901820850017,174.48767395100023 12.386901820849634,174.48767395100023 36.82282307111961,170.41003989089933 60.25431369794511,162.3659989982584 82.04222371836367,150.57497173937907 101.59223574386075,135.35858660096955 118.3710764094586,117.13190690345 131.92106268097288,96.3921089555609 141.8725862550947,73.70492038070245 147.95419551040783,49.68918854211006 149.99999999999946,25.000000000000036" stroke="#000" stroke-linecap="round" stroke-linejoin="round"/><polyline fill="none" points="-74.99999999999984,-59.99999999999982 -87.65581407234986,-69.19498715009081 -102.53361580731561,-74.02907797042928 -118.17706231133866,-74.02907797042927 -133.0548640463044,-69.19498715009078 -145.71067811865439,-59.99999999999979 -154.90566526874537,-47.34418592764978 -159.73975608908384,-32.466384192684025 -159.73975608908384,-16.822937688660986 -154.90566526874537,-1.945135953695237 -145.71067811865436,10.710678118654755" stroke="#000" stroke-linecap="round" stroke-linejoin="round"/><polyline fill="none" points="74.99999999999976,-59.999999999999844 87.65581407234976,-69.19498715009084 102.5336158073155,-74.02907797042933 118.17706231133853,-74.02907797042933 133.0548640463043,-69.19498715009085 145.7106781186543,-59.99999999999987 154.90566526874528,-47.34418592764988 159.73975608908376,-32.46638419268414 159.73975608908376,-16.822937688661103 154.90566526874528,-1.945135953695356 145.7106781186543,10.710678118654641" stroke="#000" stroke-linecap="round" stroke-linejoin="round"/><polyline fill="none" points="-1.9984014443252818e-14,-59.9999999999998 -1.7037086855466037,-72.9409522551258 -6.698729810778072,-84.99999999999972 -14.644660940672605,-95.35533905932705 -24.99999999999995,-103.30127018922158 -14.644660940672606,-95.35533905932705 -6.698729810778074,-84.99999999999972 -1.703708685546605,-72.9409522551258 -2.0650148258027912e-14,-59.9999999999998 1.7037086855465549,-72.9409522551258 6.6987298107780155,-84.99999999999972 14.64466094067254,-95.35533905932706 24.99999999999988,-103.3012701892216 14.644660940672539,-95.35533905932706 6.698729810778011,-84.99999999999972 1.7037086855465482,-72.9409522551258 -2.930988785010413e-14,-59.9999999999998" stroke="#000" stroke-linecap="round" stroke-linejoin="round"/><polyline fill="none" points="-1.9984014443252818e-14,-119.99999999999963 -1.703708685546602,-132.94095225512564 -6.698729810778069,-144.99999999999955 -14.644660940672601,-155.3553390593269 -24.999999999999947,-163.3012701892214 -14.644660940672601,-155.3553390593269 -6.698729810778068,-144.99999999999955 -1.7037086855466006,-132.9409522551256 -1.9095836023552692e-14,-119.9999999999996 1.7037086855465602,-132.9409522551256 6.698729810778026,-144.99999999999955 14.644660940672559,-155.3553390593269 24.999999999999904,-163.30127018922144 14.644660940672559,-155.3553390593269 6.698729810778025,-144.99999999999955 1.703708685546558,-132.9409522551256 -2.3314683517128287e-14,-119.9999999999996" stroke="#000" stroke-linecap="round" stroke-linejoin="round"/><polygon fill="#00f" fill-rule="evenodd" points="-2.3314683517128287e-14,-119.9999999999996 -5.000000000000024,-110.9999999999996 -2.3703261575747092e-14,-112.9999999999996 4.999999999999976,-110.9999999999996" stroke="#000" stroke-linejoin="round"/></svg>