<?xml version="1.0" ?><!DOCTYPE svg  PUBLIC '-//W3C//DTD SVG 1.1//EN'  'http://www.w3.org/Graphics/SVG/1.1/DTD/svg11.dtd'><svg height="423.000" viewBox="-127.000 -211.000 370.000 423.000" width="370.000" xmlns="http://www.w3.org/2000/svg"><line fill="none" stroke="none" stroke-linecap="round" stroke-width="2.0" x1="0.0" x2="0.0" y1="0.0" y2="0.0"/><line fill="none" stroke="none" stroke-linecap="round" stroke-width="2.0" x1="0.0" x2="0.0" y1="0.0" y2="0.0"/><polygon fill="#ff8000" fill-rule="evenodd" points="-115.39999999999999,200.0 231.0,0.0 -115.39999999999999,-200.0" stroke="#000" stroke-linejoin="round"/><polygon fill="#d5802a" fill-rule="evenodd" points="-115.41208428704208,154.0069768663767 191.1525,23.00596485153361 -75.57491571295792,-176.9930231336233" stroke="#000" stroke-linejoin="round"/><polygon fill="#b1804e" fill-rule="evenodd" points="-110.84150449505464,115.94654671385346 155.88746250000003,38.07487182928812 -44.91099050494534,-153.98845328614652" stroke="#000" stroke-linejoin="round"/><polygon fill="#94806b" fill-rule="evenodd" points="-103.26880028721448,84.90673815677724 125.2048875,47.03224424423273 -21.827684712785505,-131.89826184322274" stroke="#000" stroke-linejoin="round"/><polygon fill="#7b8084" fill-rule="evenodd" points="-93.91104234023788,59.97548431102018 98.92296580031251,51.388702636194445 -4.926275870637113,-111.31969456397982" stroke="#000" stroke-linejoin="round"/><polygon fill="#678098" fill-rule="evenodd" points="-83.68452123357298,40.276838205679184 76.7408031754547,52.37617859253943 7.0101603119498535,-92.60766945744584" stroke="#000" stroke-linejoin="round"/><polygon fill="#5580aa" fill-rule="evenodd" points="-73.26022930385852,24.994697666641084 58.286717988045424,50.98412856685439 15.023976006711845,-75.93468413084018" stroke="#000" stroke-linejoin="round"/><polygon fill="#4780b8" fill-rule="evenodd" points="-63.112134709953544,13.386912057760807 43.15460082430619,47.99431091437168 19.99489717640433,-61.3396694561893" stroke="#000" stroke-linejoin="round"/><polygon fill="#3b80c4" fill-rule="evenodd" points="-53.5585331533152,4.79214785402025 30.930538545881294,44.01318505110555 22.65477429448662,-48.7672262514019" stroke="#000" stroke-linejoin="round"/><polygon fill="#3180ce" fill-rule="evenodd" points="-44.796950189099675,-1.3685484353214754 21.211618965808636,39.50137332513855 23.603696261356674,-38.09862456659184" stroke="#000" stroke-linejoin="round"/><polygon fill="#2980d6" fill-rule="evenodd" points="-36.933178544680736,-5.593932970948554 13.618557524053209,34.79991352772755 23.326411979522813,-29.17585076151688" stroke="#000" stroke-linejoin="round"/><polygon fill="#2280dd" fill-rule="evenodd" points="-30.005089118833794,-8.30726268261292 7.803531297234945,30.153240373748474 22.208314125752302,-21.819870989513255" stroke="#000" stroke-linejoin="round"/><polygon fill="#1d80e2" fill-rule="evenodd" points="-24.001866686143842,-9.862554353130692 3.4543728489021692,25.728982888679585 20.550484636245052,-15.844152359887696" stroke="#000" stroke-linejoin="round"/><polygon fill="#1880e7" fill-rule="evenodd" points="-18.87930408194219,-10.551679750387166 0.2960689610264059,21.634764424130996 18.58349145767858,-11.064353275974018" stroke="#000" stroke-linejoin="round"/><polygon fill="#1480eb" fill-rule="evenodd" points="-14.571751515417354,-10.611760041629696 -1.9096723283124124,17.932253933743304 16.479770447774516,-7.3049681311320125" stroke="#000" stroke-linejoin="round"/><polygon fill="#1180ee" fill-rule="evenodd" points="-11.001268194892528,-10.232474738296943 -3.366179408858062,14.648750284011975 14.36453316270396,-4.4035926450362295" stroke="#000" stroke-linejoin="round"/><polygon fill="#0e80f1" fill-rule="evenodd" points="-8.084467378574587,-9.563021284962332 -4.244425296989668,11.786593218616686 12.325217848467293,-2.2133670910408307" stroke="#000" stroke-linejoin="round"/><polygon fill="#0c80f3" fill-rule="evenodd" points="-5.73748752825397,-8.71855583778623 -4.686123185669424,9.330691173264595 10.419553464411992,-0.6040568149820311" stroke="#000" stroke-linejoin="round"/><polygon fill="#0a80f5" fill-rule="evenodd" points="-3.8794644830490235,-7.786018100405002 -4.807037729096601,7.254442247610361 8.682340274717834,0.5378567551735265" stroke="#000" stroke-linejoin="round"/><polygon fill="#0880f7" fill-rule="evenodd" points="-2.434824570756306,-6.82929717955613 -4.700314817649967,5.524304029007564 7.131069851767614,1.3097760977598298" stroke="#000" stroke-linejoin="round"/><polygon fill="#0880f7" fill-rule="evenodd" points="-1.6013354101889723,-7.071307910219074 -5.32674633998791,4.923075036941286 6.923469848583818,2.152495275907176" stroke="#000" stroke-linejoin="round"/></svg>