<?xml version="1.0" ?><!DOCTYPE svg  PUBLIC '-//W3C//DTD SVG 1.1//EN'  'http://www.w3.org/Graphics/SVG/1.1/DTD/svg11.dtd'><svg height="146.000" viewBox="-46.000 -13.000 143.000 146.000" width="143.000" xmlns="http://www.w3.org/2000/svg"><line fill="none" stroke="none" stroke-linecap="round" stroke-width="2.0" x1="0.0" x2="0.0" y1="0.0" y2="0.0"/><polygon fill="none" fill-rule="evenodd" points="0.0,0.0 0.0,0.0 0.0,0.0" stroke-linejoin="round"/><polyline fill="none" points="0.0,0.0 50.0,0.0 50.0,50.0 0.0,50.00000000000001 -9.184850993605149e-15,7.105427357601002e-15 49.99999999999999,-5.14104063387253e-15 85.35533905932738,35.355339059327356 50.000000000000014,70.71067811865476 14.644660940672622,35.35533905932739 49.999999999999986,0.0 85.35533905932738,35.35533905932736 85.3553390593274,85.35533905932736 35.355339059327406,85.35533905932739 35.35533905932738,35.35533905932739 85.35533905932738,35.35533905932736 85.3553390593274,85.35533905932736 50.00000000000006,120.71067811865476 14.644660940672658,85.3553390593274 50.00000000000001,50.00000000000001 85.3553390593274,85.35533905932735 50.00000000000006,120.71067811865476 5.684341886080802e-14,120.7106781186548 1.7699553562622042e-14,70.7106781186548 50.000000000000014,70.71067811865476 50.00000000000006,120.71067811865476 5.684341886080802e-14,120.7106781186548 -35.355339059327356,85.35533905932746 -1.4210854715202004e-14,50.00000000000005 35.3553390593274,85.35533905932739 5.684341886080802e-14,120.71067811865481 -35.355339059327356,85.35533905932746 -35.35533905932741,35.35533905932746 14.644660940672587,35.355339059327406 14.64466094067265,85.3553390593274 -35.35533905932735,85.35533905932748 -35.35533905932742,35.35533905932748 -9.947598300641403e-14,4.973799150320701e-14 35.35533905932733,35.35533905932737 7.105427357601002e-15,70.7106781186548 -35.35533905932742,35.35533905932748 -9.947598300641403e-14,4.973799150320701e-14" stroke="#000" stroke-linecap="round" stroke-linejoin="round"/></svg>