<?xml version="1.0" ?><!DOCTYPE svg  PUBLIC '-//W3C//DTD SVG 1.1//EN'  'http://www.w3.org/Graphics/SVG/1.1/DTD/svg11.dtd'><svg height="341.000" viewBox="-109.000 -111.000 219.000 341.000" width="219.000" xmlns="http://www.w3.org/2000/svg"><line fill="none" stroke="#008200" stroke-linecap="round" stroke-width="3.0" x1="-2.84217094304e-14" x2="-5.06261699229e-14" y1="7.1054273576e-15" y2="200.0"/><line fill="none" stroke="#00f" stroke-linecap="round" stroke-width="20.0" x1="-5.06261699229e-14" x2="-2.84217094304e-14" y1="200.0" y2="-0.0"/><line fill="none" stroke="none" stroke-linecap="round" stroke-width="20.0" x1="0.0" x2="0.0" y1="0.0" y2="0.0"/><polygon fill="#f00" fill-rule="evenodd" points="-2.84217094304e-14,-0.0 34.2020143326,-93.9692620786 17.3648177667,-98.4807753012 -1.3344880756e-13,-100.0 -17.3648177667,-98.4807753012 -34.2020143326,-93.9692620786 -3.5527136788e-14,-2.84217094304e-14 -98.4807753012,17.3648177667 -93.9692620786,34.2020143326 -86.6025403784,50.0 -76.6044443119,64.2787609687 -64.2787609687,76.6044443119 -7.1054273576e-14,4.02319061663e-29 64.2787609687,76.6044443119 76.6044443119,64.2787609687 86.6025403784,50.0 93.9692620786,34.2020143326 98.4807753012,17.3648177667 -5.68434188608e-14,7.1054273576e-15" stroke="#00f" stroke-linejoin="round"/></svg>