<?xml version="1.0" ?><!DOCTYPE svg  PUBLIC '-//W3C//DTD SVG 1.1//EN'  'http://www.w3.org/Graphics/SVG/1.1/DTD/svg11.dtd'><svg height="297.000" viewBox="-221.000 -157.000 283.000 297.000" width="283.000" xmlns="http://www.w3.org/2000/svg"><polyline fill="none" points="0.0,0.0 0.0,-15.707963267948966 -2.457266830693193,-31.222535442198858 -7.311294427506859,-46.16169626590664 -14.442560521413455,-60.15759401936041 -23.67546967386574,-72.86560325014857 -34.782677019261655,-83.97281059554449 -47.490686250049805,-93.20571974799677 -61.48658400350357,-100.33698584190337 -76.42574482721136,-105.19101343871704 -91.94031700146125,-107.64828026941024 -107.64828026941022,-107.64828026941024 -123.16285244366011,-105.19101343871705 -138.1020132673679,-100.33698584190338 -152.09791102082167,-93.20571974799678 -164.80592025160982,-83.9728105955445 -175.91312759700574,-72.86560325014858 -185.14603674945803,-60.157594019360424 -192.27730284336462,-46.16169626590665 -197.1313304401783,-31.222535442198858 -199.58859727087147,-15.707963267948955 -199.58859727087147,2.4868995751603507e-14 -197.1313304401783,15.51457217424993 -192.27730284336462,30.453732997957722 -185.14603674945803,44.449630751411505 -175.91312759700574,57.15763998219967 -164.80592025160982,68.26484732759559 -152.09791102082164,77.49775648004788 -138.10201326736785,84.62902257395449 -123.16285244366006,89.48305017076817 -107.64828026941015,91.94031700146137 -91.94031700146117,91.94031700146137 -76.42574482721126,89.48305017076817 -61.48658400350346,84.6290225739545 -47.49068625004968,77.4977564800479 -34.78267701926151,68.2648473275956 -23.67546967386558,57.15763998219967 -14.442560521413284,44.449630751411505 -7.311294427506677,30.453732997957722 -2.457266830693002,15.51457217424992 1.9673151996357774e-13,7.105427357601002e-15" stroke="#0f0" stroke-linecap="round" stroke-linejoin="round" stroke-width="4.0"/><polygon fill="#000" fill-rule="evenodd" points="0.0,0.0 0.0,10.0 -15.45084971874737,9.510565162951536 -29.389262614623654,8.090169943749475 -40.450849718747364,5.877852522924732 -47.552825814757675,3.090169943749475 -49.99999999999999,1.3322676295501878e-15 -47.552825814757675,-3.0901699437494723 -40.45084971874737,-5.877852522924728 -29.389262614623664,-8.090169943749471 -15.450849718747383,-9.510565162951533 -1.9984014443252818e-14,-9.999999999999998" stroke="#f00" stroke-linejoin="round" stroke-width="2.0"/><polygon fill="#000" fill-rule="evenodd" points="-1.9984014443252818e-14,-9.999999999999998 15.450849718747344,-9.510565162951535 29.389262614623625,-8.090169943749475 40.45084971874733,-5.877852522924734 47.552825814757625,-3.0901699437494785 49.99999999999996,-6.661338147750939e-15 47.55282581475764,3.090169943749465 40.450849718747335,5.87785252292472 29.389262614623636,8.090169943749462 15.450849718747367,9.510565162951522 1.3322676295501878e-14,9.999999999999988" stroke="#00f" stroke-linejoin="round" stroke-width="2.0"/><polygon fill="#000" fill-rule="evenodd" points="0.0,-15.707963267948966 -0.7845909572784493,-5.738789930617685 -16.149410248070797,-7.438975700563894 -29.933412744224484,-9.948587587029882 -40.78732424262338,-13.021967293074171 -47.64868826215603,-16.358270999573598 -49.84586668665639,-19.630918054341212 -47.16378438329213,-22.519558961783545 -39.86498225508278,-24.741433423535494 -28.663917908082148,-26.079048886571112 -14.65702956297897,-26.401470229653526 0.7845909572784293,-25.677136605280246" stroke="#f00" stroke-linejoin="round" stroke-width="2.0"/><polygon fill="#000" fill-rule="evenodd" points="0.7845909572784293,-25.677136605280246 16.149410248070776,-23.976950835334037 29.93341274422445,-21.467338948868054 40.78732424262334,-18.39395924282376 47.64868826215599,-15.057655536324344 49.84586668665636,-11.785008481556728 47.163784383292096,-8.896367574114393 39.864982255082744,-6.674493112362448 28.663917908082123,-5.3368776493268335 14.657029562978956,-5.014456306244416 -0.7845909572784353,-5.738789930617697" stroke="#00f" stroke-linejoin="round" stroke-width="2.0"/><polygon fill="#000" fill-rule="evenodd" points="-2.457266830693193,-31.222535442198858 -4.021611481095501,-21.34565203624748 -19.205671123684215,-24.246106528450575 -32.75028026108055,-27.82946249036979 -43.32959818007517,-31.744956073743403 -49.90804753231468,-35.60931148578286 -51.841683860450075,-39.0442586942104 -48.94122936824699,-41.71356113358064 -41.49060075005698,-43.355928883004346 -30.21911744661056,-43.81059554411894 -16.23011077669107,-43.03305517628563 -0.8929221802909049,-41.099418848150236" stroke="#f00" stroke-linejoin="round" stroke-width="2.0"/><polygon fill="#000" fill-rule="evenodd" points="-0.8929221802909049,-41.099418848150236 14.291137462297797,-38.19896435594714 27.83574659969414,-34.61560839402793 38.41506451868876,-30.700114810654323 44.993513870928254,-26.83575939861486 46.927150199063654,-23.40081219018733 44.02669570686056,-20.73150975081709 36.57606708867057,-19.089142001393387 25.304583785224146,-18.634475340278787 11.315577115304672,-19.412015708112097 -4.021611481095487,-21.34565203624749" stroke="#00f" stroke-linejoin="round" stroke-width="2.0"/><polygon fill="#000" fill-rule="evenodd" points="-7.311294427506859,-46.16169626590664 -9.645748066065915,-36.43799706192988 -24.55543328354223,-40.52083800994643 -37.777142042809594,-45.155845466226864 -48.01664136944913,-49.88931260695457 -54.27161772658254,-54.25789468839027 -55.92979044739069,-57.833964458701914 -52.828846032792185,-60.267471292828205 -45.272326527638114,-61.32020658660578 -33.999916710460184,-60.889121274641575 -20.1150385936612,-59.01641299081864 -4.9768407889478254,-55.88539546988341" stroke="#f00" stroke-linejoin="round" stroke-width="2.0"/><polygon fill="#000" fill-rule="evenodd" points="-4.9768407889478254,-55.88539546988341 9.932844428528483,-51.80255452186685 23.154553187795837,-47.16754706558642 33.39405251443539,-42.43407992485872 39.64902887156879,-38.065497843423024 41.307201592376934,-34.489428073111384 38.20625717777844,-32.05592123898509 30.64973767262436,-31.00318594520752 19.377327855446442,-31.434271257171723 5.492449738647468,-33.30697954099466 -9.645748066065899,-36.437997061929885" stroke="#00f" stroke-linejoin="round" stroke-width="2.0"/><polygon fill="#000" fill-rule="evenodd" points="-14.442560521413455,-60.15759401936041 -17.532730465162928,-50.64702885640887 -32.07611809018765,-55.887084188111984 -44.893410240160826,-61.54516677648928 -54.72996105611752,-67.06742407561093 -60.6229004089124,-71.91329906520987 -61.99538633617112,-75.60844373810777 -58.71307035266187,-77.7911515881346 -51.09724841609072,-78.24776396310989 -39.89341024016083,-76.93358446236554 -26.198265567262933,-73.97725413186146 -11.352390577664002,-69.66815918231195" stroke="#f00" stroke-linejoin="round" stroke-width="2.0"/><polygon fill="#000" fill-rule="evenodd" points="-11.352390577664002,-69.66815918231195 3.1909970473607103,-64.42810385060884 16.008289197333887,-58.770021262231545 25.84484001329058,-53.247763963109904 31.737779366085448,-48.40188897351097 33.110265293344185,-44.70674430061307 29.827949309834935,-42.52403645058624 22.212127373263783,-42.06742407561096 11.008289197333902,-43.38160357635529 -2.6868554755639877,-46.33793390685938 -17.532730465162913,-50.64702885640888" stroke="#00f" stroke-linejoin="round" stroke-width="2.0"/><polygon fill="#000" fill-rule="evenodd" points="-23.67546967386574,-72.86560325014857 -27.502303997516638,-63.6268079250357 -41.589729209214354,-69.9917709568102 -53.92358188160662,-76.63804471662364 -63.29653858011502,-82.91504562155325 -68.79110899786019,-88.20833708858758 -69.86944629943008,-91.99977486840305 -66.42599531652922,-93.91822661461097 -58.79782502329775,-93.77590090365322 -47.731633876624755,-91.58672956775989 -34.31065776863408,-87.56500395014179 -19.848635350214863,-82.10439857526144" stroke="#f00" stroke-linejoin="round" stroke-width="2.0"/><polygon fill="#000" fill-rule="evenodd" points="-19.848635350214863,-82.10439857526144 -5.761210138517157,-75.73943554348695 6.572642533875111,-69.09316178367351 15.945599232383493,-62.8161608787439 21.44016965012868,-57.522869411709564 22.518506951698562,-53.7314316318941 19.07505596879772,-51.812979885686175 11.446885675566236,-51.95530559664393 0.38069452889325817,-54.144476932537266 -13.040281579097414,-58.16620255015536 -27.50230399751662,-63.626807925035706" stroke="#00f" stroke-linejoin="round" stroke-width="2.0"/><polygon fill="#000" fill-rule="evenodd" points="-34.782677019261655,-83.97281059554449 -39.32258201665712,-75.0627453536608 -52.86719115405347,-82.51337397185081 -64.64156204571731,-90.10686241526085 -73.49313723190673,-97.09990712810492 -78.55546286084675,-102.80798017048237 -79.33300322868004,-106.67233558252182 -75.74964726676083,-108.31470333194554 -68.15615882335082,-107.57431702039091 -57.295841454235955,-104.52365081860769 -44.23177869178569,-99.46132518966768 -30.242772021866205,-92.88287583742817" stroke="#f00" stroke-linejoin="round" stroke-width="2.0"/><polygon fill="#000" fill-rule="evenodd" points="-30.242772021866205,-92.88287583742817 -16.698162884469866,-85.43224721923816 -4.923791992806024,-77.83875877582815 3.9277831933833767,-70.84571406298407 8.990108822323393,-65.13764102060662 9.76764919015671,-61.273285608567164 6.184293228237493,-59.630917859143466 -1.4091952151725167,-60.37130417069809 -12.26951258428738,-63.421970372481304 -25.333575346737625,-68.48429600142131 -39.32258201665711,-75.06274535366082" stroke="#00f" stroke-linejoin="round" stroke-width="2.0"/><polygon fill="#000" fill-rule="evenodd" points="-47.490686250049805,-93.20571974799677 -52.71567189720929,-84.67931810445585 -65.63395794093262,-93.16967670604478 -76.77625413994531,-101.66356345170664 -85.05187490934543,-109.32953752638714 -89.65074482858378,-115.41719997567455 -90.1226944677544,-119.33064798379421 -86.42152610790885,-120.6868059931158 -78.90953589566506,-119.35292380877847 -68.3220497721109,-115.45957111268882 -55.695444646373275,-109.3878563933234 -42.265700602890334,-101.7321213915377" stroke="#f00" stroke-linejoin="round" stroke-width="2.0"/><polygon fill="#000" fill-rule="evenodd" points="-42.265700602890334,-101.7321213915377 -29.347414559167007,-93.24176278994875 -18.20511836015433,-84.74787604428691 -9.92949759075421,-77.0819019696064 -5.33062767151587,-70.99423952031901 -4.8586780323452246,-67.08079151219935 -8.559846392190792,-65.72463350287777 -16.07183660443458,-67.05851568721509 -26.65932272798873,-70.95186838330474 -39.28592785372635,-77.02358310267016 -52.715671897209276,-84.67931810445585" stroke="#00f" stroke-linejoin="round" stroke-width="2.0"/><polygon fill="#000" fill-rule="evenodd" points="-61.48658400350357,-100.33698584190337 -67.3644365264283,-92.2468158981539 -79.57675394725305,-101.72455859903225 -90.01827949235819,-111.06647601065495 -97.66692389100253,-119.35811616780644 -101.77398453820764,-125.78783556065073 -101.93743372225094,-129.72624845652703 -98.14127189818083,-130.78783556065073 -90.757093834752,-128.86868133075797 -80.50771432940665,-124.15664595440442 -68.39641405975411,-117.11297628490853 -55.60873148057886,-108.42715578565286" stroke="#f00" stroke-linejoin="round" stroke-width="2.0"/><polygon fill="#000" fill-rule="evenodd" points="-55.60873148057886,-108.42715578565286 -43.39641405975412,-98.9494130847745 -32.954888514648985,-89.6074956731518 -25.306244116004656,-81.31585551600033 -21.199183468799532,-74.88613612315604 -21.03573428475623,-70.94772322727974 -24.83189610882632,-69.88613612315602 -32.21607417225516,-71.80529035304879 -42.46545367760051,-76.51732572940233 -54.57675394725304,-83.56099539889823 -67.36443652642829,-92.2468158981539" stroke="#00f" stroke-linejoin="round" stroke-width="2.0"/><polygon fill="#000" fill-rule="evenodd" points="-76.42574482721136,-105.19101343871704 -82.9202253105132,-97.58695378271672 -94.35128111053234,-107.9936471474643 -104.02766052458477,-118.12599919770244 -111.00217211632332,-126.99218471850591 -114.59210209686896,-133.72431969675156 -114.44604310721292,-137.66341585522622 -110.57829241891557,-138.4238870166416 -103.36745241755109,-135.93129296520425 -93.51937036332956,-130.42962617359277 -81.99804514334052,-122.45742811973668 -69.93126434390953,-112.79507309471735" stroke="#f00" stroke-linejoin="round" stroke-width="2.0"/><polygon fill="#000" fill-rule="evenodd" points="-69.93126434390953,-112.79507309471735 -58.50020854389041,-102.38837972996978 -48.82382912983798,-92.25602767973166 -41.84931753809944,-83.38984215892818 -38.2593875575538,-76.65770718068254 -38.405446547209834,-72.71861102220788 -42.273197235507176,-71.9581398607925 -49.48403723687166,-74.45073391222986 -59.33211929109318,-79.95240070384132 -70.8534445110822,-87.92459875769742 -82.92022531051317,-97.58695378271672" stroke="#00f" stroke-linejoin="round" stroke-width="2.0"/><polygon fill="#000" fill-rule="evenodd" points="-91.94031700146125,-107.64828026941024 -99.01138481332673,-100.57721245754476 -109.59070273232135,-111.84869576099119 -118.44227791851077,-122.70901313010606 -124.69965652011999,-132.09508103251991 -127.75032272190322,-139.08812574536398 -127.29565606078862,-143.0036193287376 -123.38016247741501,-143.4582859898522 -116.38711776457093,-140.40761978806898 -107.00104986215709,-134.15024118645977 -96.14073249304222,-125.29866600027034 -84.86924918959579,-114.71934808127573" stroke="#f00" stroke-linejoin="round" stroke-width="2.0"/><polygon fill="#000" fill-rule="evenodd" points="-84.86924918959579,-114.71934808127573 -74.28993127060117,-103.4478647778293 -65.43835608441177,-92.58754740871443 -59.18097748280253,-83.20147950630059 -56.13031128101931,-76.20843479345652 -56.5849779421339,-72.2929412100829 -60.500471525507514,-71.8382745489683 -67.49351623835159,-74.88894075075152 -76.87958414076543,-81.14631935236075 -87.7399015098803,-89.99789453855016 -99.01138481332671,-100.57721245754476" stroke="#00f" stroke-linejoin="round" stroke-width="2.0"/><polygon fill="#000" fill-rule="evenodd" points="-107.64828026941022,-107.64828026941024 -115.25233992541052,-101.1537997861084 -124.91469495042985,-113.22058058553938 -132.88689300428595,-124.74190580552842 -138.3885597958974,-134.58998785974995 -140.8811538473348,-141.80082786111444 -140.1206826859194,-145.6685785494118 -136.18158652744475,-145.8146375390678 -129.4494515491991,-142.2247075585222 -120.58326602839563,-135.25019596678365 -110.4509139781575,-125.57381655273122 -100.04422061340992,-114.14276075271209" stroke="#f00" stroke-linejoin="round" stroke-width="2.0"/><polygon fill="#000" fill-rule="evenodd" points="-100.04422061340992,-114.14276075271209 -90.38186558839061,-102.0759799532811 -82.40966753453452,-90.55465473329207 -76.90800074292305,-80.70657267907055 -74.41540669148569,-73.49573267770607 -75.17587785290107,-69.62798198940871 -79.11497401137571,-69.4819229997527 -85.84710898962136,-73.07185298029832 -94.71329451042483,-80.04636457203685 -104.84564656066294,-89.72274398608927 -115.25233992541051,-101.1537997861084" stroke="#00f" stroke-linejoin="round" stroke-width="2.0"/><polygon fill="#000" fill-rule="evenodd" points="-123.16285244366011,-105.19101343871705 -131.2530223874096,-99.31316091579232 -139.93884288666527,-112.10084349496758 -146.98251255616117,-124.21214376462012 -151.69454793251472,-134.46152326996545 -153.6137021624075,-141.84570133339432 -152.55211505828376,-145.6418631574644 -148.6137021624075,-145.4784139734211 -142.1839827695632,-141.371353326216 -133.8923426124117,-133.72270892757166 -124.55042520078901,-123.28118338246654 -115.07268249991066,-111.06886596164179" stroke="#f00" stroke-linejoin="round" stroke-width="2.0"/><polygon fill="#000" fill-rule="evenodd" points="-115.07268249991066,-111.06886596164179 -106.38686200065499,-98.28118338246655 -99.34319233115909,-86.169883112814 -94.63115695480553,-75.92050360746867 -92.71200272491276,-68.53632554403983 -93.77358982903647,-64.74016371996971 -97.71200272491276,-64.90361290401302 -104.14172211775706,-69.01067355121813 -112.43336227490855,-76.65931794986247 -121.77527968653122,-87.10084349496759 -131.25302238740957,-99.31316091579231" stroke="#00f" stroke-linejoin="round" stroke-width="2.0"/><polygon fill="#000" fill-rule="evenodd" points="-138.1020132673679,-100.33698584190338 -146.62841491090882,-95.1120001947439 -154.28414991269455,-108.54174423822684 -160.35586463205996,-121.16834936396447 -164.2492173281496,-131.75583548751862 -165.58309951248694,-139.26782569976243 -164.22694150316534,-142.96899405960798 -160.3134934950457,-142.49704442043736 -154.2258310457583,-137.898174501199 -146.55985697107778,-129.6225537317989 -138.06597022541595,-118.48025753278621 -129.575611623827,-105.56197148906288" stroke="#f00" stroke-linejoin="round" stroke-width="2.0"/><polygon fill="#000" fill-rule="evenodd" points="-129.575611623827,-105.56197148906288 -121.9198766220413,-92.13222744557996 -115.84816190267588,-79.50562231984233 -111.95480920658622,-68.91813619628817 -110.62092702224889,-61.406145984044386 -111.97708503157048,-57.70497762419882 -115.89053303969014,-58.17692726336945 -121.97819548897752,-62.77579718260779 -129.64416956365804,-71.05141795200791 -138.13805630931986,-82.19371415102057 -146.62841491090882,-95.11200019474389" stroke="#00f" stroke-linejoin="round" stroke-width="2.0"/><polygon fill="#000" fill-rule="evenodd" points="-152.09791102082167,-93.20571974799678 -161.00797626270534,-88.66581475060131 -167.58642561494486,-102.6548214205208 -172.64875124388487,-115.71888418297107 -175.69941744566808,-126.57920155208595 -176.4398037572227,-134.17268999549597 -174.797436007799,-137.75604595741518 -170.93308059575955,-136.97850558958186 -165.2250075533821,-131.91617996064184 -158.23196284053805,-123.06460477445245 -150.638474397128,-111.2902338827886 -143.187845778938,-97.74562474539226" stroke="#f00" stroke-linejoin="round" stroke-width="2.0"/><polygon fill="#000" fill-rule="evenodd" points="-143.187845778938,-97.74562474539226 -136.6093964266985,-83.75661807547277 -131.5470707977585,-70.69255531302252 -128.49640459597526,-59.832237943907664 -127.75601828442063,-52.23874950049764 -129.39838603384433,-48.65539353857842 -133.2627414458838,-49.432933906411726 -138.97081448826123,-54.49525953535174 -145.96385920110532,-63.34683472154114 -153.55734764451532,-75.12120561320498 -161.00797626270534,-88.6658147506013" stroke="#00f" stroke-linejoin="round" stroke-width="2.0"/><polygon fill="#000" fill-rule="evenodd" points="-164.80592025160982,-83.9728105955445 -174.0447155767227,-80.1459762718936 -179.50532095160304,-94.60799869031283 -183.52704656922114,-108.0289747983035 -185.7162179051145,-119.09516594497649 -185.85854361607227,-126.72333623820798 -183.94009186986432,-130.16678722110882 -180.14865409004886,-129.08844991953896 -174.8553626230145,-123.59387950179377 -168.57836171808492,-114.22092280328539 -161.93208795827147,-101.88707013089312 -155.56712492649697,-87.79964491919542" stroke="#f00" stroke-linejoin="round" stroke-width="2.0"/><polygon fill="#000" fill-rule="evenodd" points="-155.56712492649697,-87.79964491919542 -150.1065195516166,-73.3376225007762 -146.0847939339985,-59.91664639278554 -143.89562259810515,-48.85045524611256 -143.7532968871474,-41.22228495288107 -145.67174863335532,-37.77883396998022 -149.46318641317077,-38.85717127155009 -154.75647788020513,-44.35174168929527 -161.03347878513472,-53.72469838780365 -167.67975254494817,-66.0585510601959 -174.04471557672267,-80.14597627189359" stroke="#00f" stroke-linejoin="round" stroke-width="2.0"/><polygon fill="#000" fill-rule="evenodd" points="-175.91312759700574,-72.86560325014858 -185.42369275995728,-69.7754333063991 -189.7327877095068,-84.62130829599803 -192.6891180400109,-98.31645296889593 -194.00329754075526,-109.52029114482582 -193.54668516578,-117.13611308139699 -191.36397731575315,-120.41842906490623 -187.66883264285525,-119.04594313764751 -182.8229576532563,-113.15300378485264 -177.30070035413465,-103.31645296889596 -171.64261776575734,-90.49916081892279 -166.4025624340542,-75.95577319389808" stroke="#f00" stroke-linejoin="round" stroke-width="2.0"/><polygon fill="#000" fill-rule="evenodd" points="-166.4025624340542,-75.95577319389808 -162.09346748450469,-61.10989820429916 -159.13713715400058,-47.41475353140126 -157.82295765325625,-36.21091535547137 -158.27957002823152,-28.59509341890022 -160.46227787825833,-25.312777435390956 -164.15742255115623,-26.68526336264968 -169.00329754075517,-32.578202715444554 -174.52555483987683,-42.41475353140123 -180.18363742825414,-55.23204568137439 -185.42369275995725,-69.7754333063991" stroke="#00f" stroke-linejoin="round" stroke-width="2.0"/><polygon fill="#000" fill-rule="evenodd" points="-185.14603674945803,-60.157594019360424 -194.8697359534348,-57.823140380801355 -198.00075347437004,-72.96133818551473 -199.873461758193,-86.8462163023137 -200.3045470701572,-98.11862611949164 -199.25181177637967,-105.67514562464572 -196.81830494225338,-108.77609003924424 -193.24223517194173,-107.1179173184361 -188.87365309050602,-100.8629409613027 -184.1401859497783,-90.62344163466315 -179.50517849349785,-77.40173287539581 -175.42233754548127,-62.492047657919514" stroke="#f00" stroke-linejoin="round" stroke-width="2.0"/><polygon fill="#000" fill-rule="evenodd" points="-175.42233754548127,-62.492047657919514 -172.29132002454602,-47.35384985320614 -170.41861174072307,-33.46897173640716 -169.98752642875885,-22.196561919229246 -171.0402617225364,-14.640042414075161 -173.4737685566627,-11.539097999476652 -177.04983832697434,-13.197270720284784 -181.41842040841004,-19.452247077418185 -186.15188754913777,-29.691746404057717 -190.78689500541822,-42.913455163325054 -194.86973595343477,-57.82314038080135" stroke="#00f" stroke-linejoin="round" stroke-width="2.0"/><polygon fill="#000" fill-rule="evenodd" points="-192.27730284336462,-46.16169626590665 -202.154186249316,-44.59735161550432 -204.08782257745142,-59.93454021190449 -204.86536294528477,-73.92354688182398 -204.4106962841702,-85.19503018527041 -202.7683285347465,-92.6456588034604 -200.09902609537625,-95.54611329566353 -196.66407888694872,-93.61247696752812 -192.79972347490926,-87.03402761528864 -188.88422989153563,-76.45470969629403 -185.3008739296164,-62.910100558897696 -182.40041943741326,-47.726040916308996" stroke="#f00" stroke-linejoin="round" stroke-width="2.0"/><polygon fill="#000" fill-rule="evenodd" points="-182.40041943741326,-47.726040916308996 -180.46678310927783,-32.388852319908835 -179.6892427414445,-18.39984564998935 -180.14390940255907,-7.128362346542929 -181.78627715198274,0.32226627164708077 -184.45557959135297,3.222720763850184 -187.8905267997805,1.2890844357147913 -191.75488221182,-5.289364916524697 -195.67037579519362,-15.868682835519294 -199.25373175711286,-29.413291972915616 -202.15418624931598,-44.59735161550431" stroke="#00f" stroke-linejoin="round" stroke-width="2.0"/><polygon fill="#000" fill-rule="evenodd" points="-197.1313304401783,-31.222535442198858 -207.10050377750957,-30.437944484920386 -207.8248374018829,-45.879565005177795 -207.50241605880052,-59.88645335028097 -206.16480059576492,-71.08751769728161 -203.942926134013,-78.38631982549097 -201.05428522657064,-81.06840212885525 -197.78163817180302,-78.87122370435489 -194.4453344653036,-72.00985968482226 -191.37195475925927,-61.15594818642337 -188.86234287279325,-47.3719456902697 -187.162157102847,-32.00712639947735" stroke="#f00" stroke-linejoin="round" stroke-width="2.0"/><polygon fill="#000" fill-rule="evenodd" points="-187.162157102847,-32.00712639947735 -186.4378234784737,-16.565505879219952 -186.76024482155609,-2.5586175341167703 -188.09786028459166,8.642446812883858 -190.31973474634358,15.941248941093217 -193.2083756537859,18.6233312444575 -196.48102270855352,16.426152819957135 -199.81732641505297,9.564788800424505 -202.89070612109728,-1.2891226979743706 -205.4003180075633,-15.073125194128036 -207.10050377750954,-30.437944484920372" stroke="#00f" stroke-linejoin="round" stroke-width="2.0"/><polygon fill="#000" fill-rule="evenodd" points="-199.58859727087147,-15.707963267948955 -209.58859727087147,-15.707963267948935 -209.09916243382304,-31.158812986696308 -207.67876721462102,-45.097225882572594 -205.46644979379627,-56.158812986696304 -202.67876721462105,-63.26078908270662 -199.58859727087156,-65.70796326794894 -196.4984273271221,-63.26078908270664 -193.71074474794682,-56.15881298669634 -191.49842732712204,-45.09722588257263 -190.07803210791997,-31.158812986696354 -189.58859727087147,-15.707963267948994" stroke="#f00" stroke-linejoin="round" stroke-width="2.0"/><polygon fill="#000" fill-rule="evenodd" points="-189.58859727087147,-15.707963267948994 -190.0780321079199,-0.25711354920162854 -191.49842732712193,13.681299346674656 -193.71074474794668,24.74288645079836 -196.4984273271219,31.844862546808663 -199.58859727087136,34.292036732051 -202.67876721462085,31.84486254680869 -205.46644979379613,24.742886450798395 -207.67876721462088,13.681299346674695 -209.09916243382298,-0.2571135492015699 -209.58859727087147,-15.707963267948923" stroke="#00f" stroke-linejoin="round" stroke-width="2.0"/><polygon fill="#000" fill-rule="evenodd" points="-199.58859727087147,2.4868995751603507e-14 -209.55777060820276,-0.7845909572784013 -207.85758483825657,-16.149410248070758 -205.34797295179064,-29.933412744224444 -202.27459324574636,-40.78732424262334 -198.93828953924697,-47.648688262156 -195.66564248447935,-49.84586668665638 -192.777001577037,-47.16378438329211 -190.55512711528505,-39.864982255082765 -189.21751165224939,-28.663917908082144 -188.89509030916696,-14.65702956297897 -189.6194239335402,0.7845909572784306" stroke="#f00" stroke-linejoin="round" stroke-width="2.0"/><polygon fill="#000" fill-rule="evenodd" points="-189.6194239335402,0.7845909572784306 -191.31960970348638,16.14941024807078 -193.8292215899523,29.933412744224466 -196.9026012959966,40.78732424262337 -200.23890500249598,47.648688262156 -203.5115520572636,49.84586668665639 -206.40019296470592,47.16378438329214 -208.6220674264579,39.86498225508278 -209.95968288949354,28.663917908082173 -210.282104232576,14.657029562979005 -209.55777060820276,-0.7845909572783871" stroke="#00f" stroke-linejoin="round" stroke-width="2.0"/><polygon fill="#000" fill-rule="evenodd" points="-197.1313304401783,15.51457217424993 -207.00821384612968,13.950227523847639 -204.1077593539266,-1.2338321187410752 -200.52440339200743,-14.778441256137425 -196.60890980863383,-25.35775917513206 -192.74455439659437,-31.936208527371562 -189.30960718816684,-33.86984485550697 -186.64030474879658,-30.96939036330388 -184.99793699937288,-23.518761745113885 -184.54327033825825,-12.24727844166746 -185.32081070609155,1.7417282282520308 -187.2544470342269,17.0789168246522" stroke="#f00" stroke-linejoin="round" stroke-width="2.0"/><polygon fill="#000" fill-rule="evenodd" points="-187.2544470342269,17.0789168246522 -190.15490152642997,32.26297646724091 -193.73825748834915,45.807585604637254 -197.65375107172275,56.38690352363188 -201.5181064837622,62.96535287587138 -204.9530536921897,64.8989892040068 -207.62235613155997,61.99853471180371 -209.2647238809837,54.547906093613705 -209.7193905420983,43.27642279016729 -208.94185017426503,29.287416120247812 -207.00821384612965,13.950227523847655" stroke="#00f" stroke-linejoin="round" stroke-width="2.0"/><polygon fill="#000" fill-rule="evenodd" points="-192.27730284336462,30.453732997957722 -202.0010020473414,28.11927935939869 -197.91816109932486,13.20959414192237 -193.28315364304447,-0.012114617345002188 -188.5496865023168,-10.251613943984559 -184.1811044208811,-16.506590301117974 -180.60503465056948,-18.164763021926134 -178.17152781644316,-15.06381860732764 -177.1187925226656,-7.507299102173562 -177.54987783462974,3.7651107150043686 -179.42258611845267,17.649988831803352 -182.55360363938786,32.788186636516734" stroke="#f00" stroke-linejoin="round" stroke-width="2.0"/><polygon fill="#000" fill-rule="evenodd" points="-182.55360363938786,32.788186636516734 -186.63644458740436,47.69787185399305 -191.27145204368477,60.919580613260415 -196.00491918441244,71.15907993989997 -200.37350126584812,77.41405629703337 -203.94957103615974,79.07222901784155 -206.38307787028606,75.97128460324305 -207.43581316406363,68.41476509808898 -207.00472785209948,57.14235528091106 -205.13201956827658,43.257477164112075 -202.0010020473414,28.119279359398707" stroke="#00f" stroke-linejoin="round" stroke-width="2.0"/><polygon fill="#000" fill-rule="evenodd" points="-185.14603674945803,44.449630751411505 -194.65660191240957,41.359460807662046 -189.4165465807065,26.81607318263732 -183.7584639923292,13.998781032664134 -178.23620669320758,4.162230216707428 -173.39033170360867,-1.7307091360874551 -169.69518703071077,-3.1031950633461918 -167.51247918068393,0.17912092016305792 -167.05586680570863,7.7949428567342025 -168.37004630645293,18.9987810326641 -171.326376636957,32.69392570556201 -175.6354715865065,47.53980069516094" stroke="#f00" stroke-linejoin="round" stroke-width="2.0"/><polygon fill="#000" fill-rule="evenodd" points="-175.6354715865065,47.53980069516094 -180.87552691820957,62.08318832018566 -186.53360950658686,74.90048047015884 -192.05586680570846,84.73703128611554 -196.90174179530737,90.62997063891042 -200.5968864682053,92.00245656616917 -202.7795943182321,88.72014058265992 -203.2362066932074,81.10431864608877 -201.9220271924631,69.9004804701589 -198.96569686195903,56.20533579726099 -194.65660191240957,41.35946080766207" stroke="#00f" stroke-linejoin="round" stroke-width="2.0"/><polygon fill="#000" fill-rule="evenodd" points="-175.91312759700574,57.15763998219967 -185.15192292211862,53.33080565854879 -178.78695989034415,39.24338044685106 -172.14068613053075,26.909527774458784 -165.86368522560116,17.53657107595037 -160.57039375856684,12.042000658205176 -156.77895597875136,10.963663356635287 -154.86050423254343,14.407114339536129 -155.00282994350115,22.035284632767613 -157.19200127939447,33.101475779440605 -161.21372689701255,46.52245188743129 -166.67433227189287,60.984474305850526" stroke="#f00" stroke-linejoin="round" stroke-width="2.0"/><polygon fill="#000" fill-rule="evenodd" points="-166.67433227189287,60.984474305850526 -173.03929530366733,75.07189951754825 -179.68556906348073,87.40575218994053 -185.96256996841032,96.77870888844893 -191.25586143544464,102.27327930619413 -195.0472992152601,103.35161660776403 -196.96575096146802,99.90816562486319 -196.8234252505103,92.27999533163168 -194.63425391461698,81.21380418495872 -190.61252829699893,67.79282807696804 -185.15192292211862,53.33080565854881" stroke="#00f" stroke-linejoin="round" stroke-width="2.0"/><polygon fill="#000" fill-rule="evenodd" points="-164.80592025160982,68.26484732759559 -173.71598549349352,63.72494233020015 -166.26535687530355,50.180333192803786 -158.67186843189356,38.405962301139915 -151.6788237190495,29.554387114950487 -145.97075067667208,24.492061486010456 -142.10639526463262,23.71452111817713 -140.4640275152089,27.29787708009634 -141.2044138267635,34.89136552350636 -144.25508002854667,45.75168289262123 -149.31740565748666,58.81574565507151 -155.89585500972612,72.80475232499101" stroke="#f00" stroke-linejoin="round" stroke-width="2.0"/><polygon fill="#000" fill-rule="evenodd" points="-155.89585500972612,72.80475232499101 -163.3464836279161,86.34936146238738 -170.93997207132608,98.12373235405124 -177.93301678417012,106.97530754024066 -183.64108982654756,112.03763316918068 -187.50544523858701,112.81517353701402 -189.1478129880107,109.23181757509481 -188.4074266764561,101.6383291316848 -185.35676047467294,90.77801176256992 -180.29443484573295,77.71394900011967 -173.71598549349352,63.724942330200165" stroke="#00f" stroke-linejoin="round" stroke-width="2.0"/><polygon fill="#000" fill-rule="evenodd" points="-152.09791102082164,77.49775648004788 -160.62431266436258,72.27277083288843 -152.13395406277368,59.35448478916506 -143.64006731711186,48.21218859015235 -135.97409324243137,39.9365678207522 -129.886430793144,35.33769790151385 -125.97298278502433,34.86574826234319 -124.61682477570272,38.56691662218876 -125.95070696004004,46.078906834432544 -129.84405965612967,56.666392957986716 -135.91577437549503,69.29299808372437 -143.5715093772807,82.72274212720733" stroke="#f00" stroke-linejoin="round" stroke-width="2.0"/><polygon fill="#000" fill-rule="evenodd" points="-143.5715093772807,82.72274212720733 -152.0618679788696,95.64102817093068 -160.5557547245314,106.78332436994339 -168.2217287992119,115.05894513934354 -174.30939124849925,119.65781505858189 -178.22283925661893,120.12976469775253 -179.57899726594053,116.42859633790698 -178.24511508160322,108.9166061256632 -174.3517623855136,98.32912000210902 -168.28004766614822,85.7025148763714 -160.62431266436258,72.27277083288844" stroke="#00f" stroke-linejoin="round" stroke-width="2.0"/><polygon fill="#000" fill-rule="evenodd" points="-138.10201326736785,84.62902257395449 -146.19218321111734,78.75117005102977 -136.71444051023903,66.53885263020501 -127.37252309861637,56.09732708509984 -119.08088294146489,48.448682686455484 -112.65116354862062,44.34162203925034 -108.71275065274432,44.17817285520703 -107.65116354862059,47.974334679277135 -109.57031777851333,55.35851274270597 -114.28235315486685,65.60789224805133 -121.32602282436272,77.7191925177039 -130.01184332361834,90.50687509687917" stroke="#f00" stroke-linejoin="round" stroke-width="2.0"/><polygon fill="#000" fill-rule="evenodd" points="-130.01184332361834,90.50687509687917 -139.48958602449665,102.71919251770395 -148.83150343611933,113.16071806280911 -157.12314359327078,120.80936246145346 -163.55286298611506,124.91642310865859 -167.49127588199136,125.0798722927019 -168.5528629861151,121.28371046863182 -166.63370875622235,113.89953240520298 -161.92167337986882,103.65015289985763 -154.87800371037298,91.53885263020507 -146.19218321111734,78.7511700510298" stroke="#00f" stroke-linejoin="round" stroke-width="2.0"/><polygon fill="#000" fill-rule="evenodd" points="-123.16285244366006,89.48305017076817 -130.76691209966037,82.98856968746635 -120.36021873491285,71.55751388744719 -110.22786668467475,61.881134473394724 -101.36168116387128,54.90662288165615 -94.62954618562563,51.3166929011105 -90.690450027151,51.462751890766526 -89.92997886573559,55.33050257906387 -92.42257291717294,62.54134258042834 -97.92423970878437,72.3894246346499 -105.89643776264045,83.91074985463895 -115.55879278765971,95.97753065406997" stroke="#f00" stroke-linejoin="round" stroke-width="2.0"/><polygon fill="#000" fill-rule="evenodd" points="-115.55879278765971,95.97753065406997 -125.96548615240725,107.40858645408912 -136.09783820264536,117.08496586814158 -144.9640237234488,124.05947745988016 -151.69615870169446,127.6494074404258 -155.63525486016908,127.50334845076978 -156.3957260215845,123.63559776247244 -153.90313197014714,116.42475776110797 -148.40146517853572,106.57667570688642 -140.42926712467965,95.05535048689738 -130.76691209966037,82.98856968746637" stroke="#00f" stroke-linejoin="round" stroke-width="2.0"/><polygon fill="#000" fill-rule="evenodd" points="-107.64828026941015,91.94031700146137 -114.71934808127565,84.86924918959592 -103.44786477782925,74.28993127060126 -92.58754740871441,65.43835608441181 -83.20147950630059,59.18097748280255 -76.2084347934565,56.130311281019296 -72.29294121008289,56.58497794213388 -71.83827454896829,60.50047152550749 -74.88894075075147,67.49351623835159 -81.14631935236068,76.87958414076544 -89.99789453855006,87.73990150988035 -100.57721245754465,99.0113848133268" stroke="#f00" stroke-linejoin="round" stroke-width="2.0"/><polygon fill="#000" fill-rule="evenodd" points="-100.57721245754465,99.0113848133268 -111.84869576099103,109.59070273232146 -122.70901313010587,118.44227791851091 -132.0950810325197,124.69965652012016 -139.08812574536375,127.75032272190342 -143.0036193287374,127.29565606078883 -143.458285989852,123.38016247741523 -140.40761978806879,116.38711776457113 -134.1502411864596,107.00104986215727 -125.29866600027023,96.14073249304238 -114.71934808127565,84.86924918959593" stroke="#00f" stroke-linejoin="round" stroke-width="2.0"/><polygon fill="#000" fill-rule="evenodd" points="-91.94031700146117,91.94031700146137 -98.43479748476302,84.33625734546108 -86.36801668533207,74.67390232044173 -74.84669146534307,66.70170426658558 -64.99860941112155,61.20003747497409 -57.787769409757075,58.7074434235367 -53.920018721459726,59.46791458495207 -53.77395973180368,63.40701074342671 -57.36388971234928,70.13914572167238 -64.3384013040878,79.00533124247588 -74.0147807181402,89.13768329271403 -85.4458365181593,99.54437665746164" stroke="#f00" stroke-linejoin="round" stroke-width="2.0"/><polygon fill="#000" fill-rule="evenodd" points="-85.4458365181593,99.54437665746164 -97.51261731759024,109.20673168248099 -109.03394253757924,117.17892973633712 -118.88202459180076,122.68059652794862 -126.09286459316523,125.17319057938602 -129.9606152814626,124.41271941797065 -130.1066742711186,120.47362325949601 -126.51674429057302,113.74148828125034 -119.54223269883451,104.87530276044684 -109.86585328478212,94.7429507102087 -98.43479748476304,84.33625734546109" stroke="#00f" stroke-linejoin="round" stroke-width="2.0"/><polygon fill="#000" fill-rule="evenodd" points="-76.42574482721126,89.48305017076817 -82.30359735013602,81.39288022701871 -69.51591477096079,72.707059727763 -57.404614501308274,65.66339005826705 -47.15523499596293,60.951354681913465 -39.771056932534094,59.032200452020675 -35.97489510846399,60.093787556144385 -36.13834429250728,64.03220045202067 -40.24540493971237,70.46191984486498 -47.89404933835668,78.75356000201648 -58.33557488346178,88.09547741363922 -70.54789230428649,97.57322011451761" stroke="#f00" stroke-linejoin="round" stroke-width="2.0"/><polygon fill="#000" fill-rule="evenodd" points="-70.54789230428649,97.57322011451761 -83.33557488346172,106.25904061377332 -95.44687515311423,113.30271028326926 -105.69625465845957,118.01474565962285 -113.08043272188839,119.93389988951563 -116.87659454595851,118.87231278539193 -116.71314536191521,114.93389988951566 -112.60608471471011,108.50418049667135 -104.95744031606581,100.21254033951983 -94.51591477096072,90.87062292789712 -82.30359735013602,81.39288022701872" stroke="#00f" stroke-linejoin="round" stroke-width="2.0"/><polygon fill="#000" fill-rule="evenodd" points="-61.48658400350346,84.6290225739545 -66.71156965066298,76.1026209304136 -53.28182560718005,68.44688592862785 -40.65522048144245,62.37517120926239 -30.0677343578883,58.4818185131727 -22.55574414564451,57.14793632883534 -18.854575785798936,58.504094338156925 -19.32652542496956,62.41754234627658 -23.925395344207878,68.505204795564 -32.20101611360798,76.17117887024453 -43.343312312620625,84.66506561590641 -56.261598356343924,93.1554242174954" stroke="#f00" stroke-linejoin="round" stroke-width="2.0"/><polygon fill="#000" fill-rule="evenodd" points="-56.261598356343924,93.1554242174954 -69.69134239982684,100.81115921928114 -82.31794752556445,106.8828739386466 -92.90543364911859,110.77622663473628 -100.41742386136237,112.11010881907364 -104.11859222120795,110.75395080975207 -103.64664258203733,106.8405028016324 -99.047772662799,100.752840352345 -90.77215189339891,93.08686627766446 -79.62985569438626,84.59297953200259 -66.71156965066298,76.10262093041361" stroke="#00f" stroke-linejoin="round" stroke-width="2.0"/><polygon fill="#000" fill-rule="evenodd" points="-47.49068625004968,77.4977564800479 -52.03059124744517,68.58769123816424 -38.041584577525704,62.00924188592468 -24.977521815075466,56.94691625698463 -14.117204445960603,53.89625005520137 -6.523716002550586,53.15586374364672 -2.9403600406313615,54.79823149307041 -3.717900408464665,58.662586905109876 -8.78022603740466,64.37065994748734 -17.631801223594042,71.36370466033144 -29.406172115257856,78.9571931037415 -42.95078125265416,86.40782172193155" stroke="#f00" stroke-linejoin="round" stroke-width="2.0"/><polygon fill="#000" fill-rule="evenodd" points="-42.95078125265416,86.40782172193155 -56.93978792257363,92.9862710741711 -70.00385068502386,98.04859670311116 -80.86416805413872,101.0992629048944 -88.45765649754873,101.83964921644906 -92.04101245946795,100.19728146702538 -91.26347209163465,96.3329260549859 -86.20114646269467,90.62485301260845 -77.34957127650529,83.63180829976434 -65.57520038484148,76.03831985635429 -52.03059124744518,68.58769123816425" stroke="#00f" stroke-linejoin="round" stroke-width="2.0"/><polygon fill="#000" fill-rule="evenodd" points="-34.78267701926151,68.2648473275956 -38.60951134291244,59.02605200248274 -24.14748892449323,53.56544662760234 -10.72651281650256,49.543721009984196 0.3396783301704218,47.354549674090826 7.96784862340192,47.212223963133056 11.411299606302777,49.13067570934096 10.332962304732902,52.92211348915643 4.838391886987743,58.21540495619079 -4.534564811520639,64.49240586112043 -16.86841748391288,71.13867962093391 -30.955842695610567,77.50364265270845" stroke="#f00" stroke-linejoin="round" stroke-width="2.0"/><polygon fill="#000" fill-rule="evenodd" points="-30.955842695610567,77.50364265270845 -45.417865114029766,82.96424802758885 -58.838841222020434,86.985973645207 -69.90503236869341,89.17514498110037 -77.53320266192489,89.31747069205814 -80.97665364482576,87.39901894585023 -79.89831634325589,83.60758116603476 -74.40374592551073,78.31428969900041 -65.03078922700236,72.03728879407078 -52.69693655461013,65.39101503425731 -38.60951134291245,59.026052002482764" stroke="#00f" stroke-linejoin="round" stroke-width="2.0"/><polygon fill="#000" fill-rule="evenodd" points="-23.67546967386558,57.15763998219967 -26.76563961761509,47.64707481924815 -11.919764628016168,43.33797986969857 1.7753800448817287,40.38164953919443 12.979218220811614,39.06747003845007 20.59504015738278,39.52408241342532 23.877356140892037,41.706790263452135 22.50487021363332,45.40193493635004 16.611930860838466,50.24780992594899 6.775380044881793,55.770067225070676 -6.04191210509136,61.42814981344802 -20.585299730116056,66.66820514515119" stroke="#f00" stroke-linejoin="round" stroke-width="2.0"/><polygon fill="#000" fill-rule="evenodd" points="-20.585299730116056,66.66820514515119 -35.43117471971497,70.97730009470075 -49.126319392612864,73.9336304252049 -60.330157568542745,75.24780992594927 -67.9459795051139,74.791197550974 -71.22829548862316,72.60848970094722 -69.85580956136445,68.91334502804929 -63.9628702085696,64.06747003845034 -54.12631939261293,58.54521273932866 -41.309027242639786,52.88713015095132 -26.765639617615097,47.64707481924816" stroke="#00f" stroke-linejoin="round" stroke-width="2.0"/><polygon fill="#000" fill-rule="evenodd" points="-14.442560521413284,44.449630751411505 -16.777014159972374,34.72593154743475 -1.638816355259003,31.59491402649946 12.246061761539977,29.72220574267648 23.518471578717907,29.29112043071224 31.074991083871993,30.343855724489774 34.17593549847051,32.77736255861606 32.51776277766237,36.35343232892771 26.262786420528982,40.72201441036343 16.023287093889454,45.45548155109117 2.801578334622114,50.090489007371644 -12.108106882854177,54.173329955388255" stroke="#f00" stroke-linejoin="round" stroke-width="2.0"/><polygon fill="#000" fill-rule="evenodd" points="-12.108106882854177,54.173329955388255 -27.24630468756754,57.304347476323535 -41.13118280436652,59.17705576014652 -52.40359262154444,59.60814107211077 -59.96011212669852,58.555405778333224 -63.06105654129704,56.12189894420695 -61.40288382048891,52.5458291738953 -55.147907463355516,48.17724709245958 -44.908408136716,43.44377995173185 -31.686699377448665,38.80877249545137 -16.77701415997238,34.72593154743476" stroke="#00f" stroke-linejoin="round" stroke-width="2.0"/><polygon fill="#000" fill-rule="evenodd" points="-7.311294427506677,30.453732997957722 -8.875639077909021,20.57684959200635 6.461549518491145,18.643213263870898 20.45055618841063,17.865672896037537 31.722039491857057,18.320339557152096 39.17266811004707,19.962707306575773 42.07312260225018,22.632009745946007 40.13948627411479,26.06695695437354 33.56103692187531,29.931312366413028 22.981719002880702,33.84680594978668 9.43710986548438,37.43016191170594 -5.746949777104314,40.33061640390909" stroke="#f00" stroke-linejoin="round" stroke-width="2.0"/><polygon fill="#000" fill-rule="evenodd" points="-5.746949777104314,40.33061640390909 -21.08413837350447,42.26425273204454 -35.073145043423956,43.04179309987791 -46.34462834687038,42.58712643876334 -53.79525696506039,40.94475868933967 -56.6957114572635,38.275456249969444 -54.76207512912812,34.8405090415419 -48.18362577688863,30.97615362950242 -37.60430785789403,27.060660046128767 -24.059698720497718,23.477304084209514 -8.875639077909032,20.57684959200636" stroke="#00f" stroke-linejoin="round" stroke-width="2.0"/><polygon fill="#000" fill-rule="evenodd" points="-2.457266830693002,15.51457217424992 -3.2418577879714823,5.545398836918643 12.199762732285922,4.821065212545314 26.206651077389104,5.143486555627685 37.407715424389735,6.481102018663266 44.7065175525991,8.702976480415188 47.38859985596338,11.591617387857518 45.19142143146303,14.864264442625139 38.33005741193039,18.200568149124585 27.47614591353151,21.273947855168906 13.692143417377839,23.783559741634935 -1.672675873414502,25.48374551158119" stroke="#f00" stroke-linejoin="round" stroke-width="2.0"/><polygon fill="#000" fill-rule="evenodd" points="-1.672675873414502,25.48374551158119 -17.1142963936719,26.208079135954524 -31.121184738775078,25.885657792872152 -42.322249085775695,24.548042329836576 -49.62105121398506,22.326167868084653 -52.303133517349345,19.437526960642327 -50.105955092848994,16.164879905874706 -43.24459107331636,12.828576199375263 -32.390679574917485,9.75519649333094 -18.606677078763823,7.245584606864913 -3.2418577879714947,5.5453988369186575" stroke="#00f" stroke-linejoin="round" stroke-width="2.0"/><line fill="none" stroke="none" stroke-linecap="round" stroke-width="4.0" x1="0.0" x2="0.0" y1="0.0" y2="0.0"/><polygon fill="#000" fill-rule="evenodd" points="1.9673151996357774e-13,7.105427357601002e-15 1.6580840725570745e-13,-9.999999999999993 15.45084971874754,-9.510565162951577 29.389262614623824,-8.090169943749558 40.45084971874754,-5.87785252292485 47.55282581475787,-3.090169943749615 50.00000000000019,-1.488424038113006e-13 47.55282581475788,3.0901699437493324 40.45084971874759,5.87785252292461 29.389262614623885,8.090169943749387 15.450849718747609,9.510565162951492 2.4763864711470085e-13,10.000000000000005" stroke="#f00" stroke-linejoin="round" stroke-width="2.0"/><polygon fill="#000" fill-rule="evenodd" points="2.4763864711470085e-13,10.000000000000005 -15.450849718747119,9.51056516295159 -29.389262614623405,8.090169943749572 -40.45084971874711,5.877852522924866 -47.55282581475742,3.0901699437496326 -49.99999999999976,1.6838232904470326e-13 -47.55282581475745,-3.090169943749311 -40.45084971874716,-5.877852522924588 -29.389262614623465,-8.090169943749364 -15.450849718747198,-9.510565162951467 1.524857309602056e-13,-9.99999999999998" stroke="#00f" stroke-linejoin="round" stroke-width="2.0"/></svg>