<?xml version="1.0" ?><!DOCTYPE svg  PUBLIC '-//W3C//DTD SVG 1.1//EN'  'http://www.w3.org/Graphics/SVG/1.1/DTD/svg11.dtd'><svg height="132.000" viewBox="-13.000 -111.000 440.000 132.000" width="440.000" xmlns="http://www.w3.org/2000/svg"><line fill="none" stroke="none" stroke-linecap="round" x1="0.0" x2="0.0" y1="0.0" y2="0.0"/><polyline fill="none" points="0.0,0.0 0.0,0.0 1.0,0.0 2.0,0.0 3.0,0.0 4.0,0.0 5.0,0.0 6.0,0.0 7.0,0.0 8.0,0.0 9.0,0.0 10.0,0.0 11.0,0.0 12.0,0.0 13.0,0.0 14.0,0.0 15.0,0.0 16.0,0.0 17.0,0.0 18.0,0.0 19.0,0.0 20.0,0.0 21.0,0.0 22.0,0.0 23.0,0.0 24.0,0.0 25.0,0.0 26.0,0.0 27.0,0.0 28.0,0.0 29.0,0.0 30.0,0.0 31.0,0.0 32.0,0.0 33.0,0.0 34.0,0.0 35.0,0.0 36.0,0.0 37.0,0.0 38.0,0.0 39.0,0.0 40.0,0.0 41.0,0.0" stroke="#000" stroke-linecap="round" stroke-linejoin="round"/><polyline fill="none" points="41.0,0.0 42.0,0.0 43.0,0.0 44.0,0.0 45.0,0.0 46.0,0.0 47.0,0.0 48.0,0.0 49.0,0.0 50.0,0.0 51.0,0.0 52.0,0.0 53.0,0.0 54.0,0.0 55.0,0.0 56.0,0.0 57.0,0.0 58.0,0.0 59.0,0.0 60.0,0.0 61.0,0.0 62.0,0.0 63.0,0.0 64.0,0.0 65.0,0.0 66.0,0.0 67.0,0.0 68.0,0.0 69.0,0.0 70.0,0.0 71.0,0.0 72.0,0.0 73.0,0.0 74.0,0.0 75.0,0.0 76.0,0.0 77.0,0.0 78.0,0.0 79.0,0.0 80.0,0.0 81.0,0.0 82.0,0.0 83.0,0.0" stroke="#000" stroke-linecap="round" stroke-linejoin="round"/><polyline fill="none" points="83.0,0.0 84.0,0.0 85.0,0.0 86.0,0.0 87.0,0.0 88.0,0.0 89.0,0.0 90.0,0.0 91.0,0.0 92.0,0.0 93.0,0.0 94.0,0.0 95.0,0.0 96.0,0.0 97.0,0.0 98.0,0.0 99.0,0.0 100.0,0.0 101.0,-1.9899999999999949 102.0,-3.9599999999999937 103.0,-5.909999999999997 104.0,-7.840000000000003 105.0,-9.75 106.0,-11.64 107.0,-13.510000000000005 108.0,-15.36 109.0,-17.189999999999998 110.0,-19.0 111.0,-20.790000000000006 112.0,-22.560000000000002 113.0,-24.310000000000002 114.0,-26.040000000000006 115.0,-27.75 116.0,-29.439999999999998 117.0,-31.11 118.0,-32.760000000000005 119.0,-34.39 120.0,-36.0 121.0,-37.59 122.0,-39.16 123.0,-40.71 124.0,-42.24 125.0,-43.75" stroke="#000" stroke-linecap="round" stroke-linejoin="round"/><polyline fill="none" points="125.0,-43.75 126.0,-45.24 127.0,-46.71 128.0,-48.16 129.0,-49.59 130.0,-51.0 131.0,-52.39 132.0,-53.76 133.0,-55.11 134.0,-56.44 135.0,-57.75 136.0,-59.04 137.0,-60.31 138.0,-61.56 139.0,-62.79 140.0,-64.0 141.0,-65.19 142.0,-66.36 143.0,-67.50999999999999 144.0,-68.64 145.0,-69.75 146.0,-70.84 147.0,-71.91 148.0,-72.96000000000001 149.0,-73.99 150.0,-75.0 151.0,-75.99 152.0,-76.96000000000001 153.0,-77.91 154.0,-78.84 155.0,-79.75 156.0,-80.64 157.0,-81.51 158.0,-82.36 159.0,-83.19 160.0,-84.0 161.0,-84.78999999999999 162.0,-85.56 163.0,-86.31 164.0,-87.03999999999999 165.0,-87.75 166.0,-88.44 167.0,-89.11" stroke="#000" stroke-linecap="round" stroke-linejoin="round"/><polyline fill="none" points="167.0,-89.11 168.0,-89.76 169.0,-90.39 170.0,-91.0 171.0,-91.59 172.0,-92.16 173.0,-92.71 174.0,-93.24 175.0,-93.75 176.0,-94.24 177.0,-94.71 178.0,-95.16 179.0,-95.59 180.0,-96.0 181.0,-96.39 182.0,-96.76 183.0,-97.11 184.0,-97.44 185.0,-97.75 186.0,-98.04 187.0,-98.31 188.0,-98.56 189.0,-98.79 190.0,-99.0 191.0,-99.19 192.0,-99.36 193.0,-99.51 194.0,-99.64 195.0,-99.75 196.0,-99.84 197.0,-99.91 198.0,-99.96 199.0,-99.99 200.0,-100.0 201.0,-99.99 202.0,-99.96 203.0,-99.91 204.0,-99.84 205.0,-99.75 206.0,-99.64 207.0,-99.51 208.0,-99.36 209.0,-99.19" stroke="#000" stroke-linecap="round" stroke-linejoin="round"/><polyline fill="none" points="209.0,-99.19 210.0,-99.0 211.0,-98.79 212.0,-98.56 213.0,-98.31 214.0,-98.04 215.0,-97.75 216.0,-97.44 217.0,-97.11 218.0,-96.76 219.0,-96.39 220.0,-96.0 221.0,-95.59 222.0,-95.16 223.0,-94.71 224.0,-94.24 225.0,-93.75 226.0,-93.24 227.0,-92.71 228.0,-92.16 229.0,-91.59 230.0,-91.0 231.0,-90.39 232.0,-89.76 233.0,-89.11 234.0,-88.44 235.0,-87.75 236.0,-87.03999999999999 237.0,-86.31 238.0,-85.56 239.0,-84.78999999999999 240.0,-84.0 241.0,-83.19 242.0,-82.36 243.0,-81.51 244.0,-80.64 245.0,-79.75 246.0,-78.84 247.0,-77.91 248.0,-76.96000000000001 249.0,-75.99 250.0,-75.0 251.0,-73.99" stroke="#000" stroke-linecap="round" stroke-linejoin="round"/><polyline fill="none" points="251.0,-73.99 252.0,-72.96000000000001 253.0,-71.91 254.0,-70.84 255.0,-69.75 256.0,-68.64 257.0,-67.50999999999999 258.0,-66.36 259.0,-65.19 260.0,-64.0 261.0,-62.79 262.0,-61.56 263.0,-60.31 264.0,-59.04 265.0,-57.75 266.0,-56.44 267.0,-55.11 268.0,-53.76 269.0,-52.39 270.0,-51.0 271.0,-49.59 272.0,-48.16 273.0,-46.71 274.0,-45.24 275.0,-43.75 276.0,-42.24 277.0,-40.71 278.0,-39.16 279.0,-37.59 280.0,-36.0 281.0,-34.39 282.0,-32.760000000000005 283.0,-31.11 284.0,-29.439999999999998 285.0,-27.75 286.0,-26.040000000000006 287.0,-24.310000000000002 288.0,-22.560000000000002 289.0,-20.790000000000006 290.0,-19.0 291.0,-17.189999999999998 292.0,-15.36 293.0,-13.510000000000005" stroke="#000" stroke-linecap="round" stroke-linejoin="round"/><polyline fill="none" points="293.0,-13.510000000000005 294.0,-11.64 295.0,-9.75 296.0,-7.840000000000003 297.0,-5.909999999999997 298.0,-3.9599999999999937 299.0,-1.9899999999999949 300.0,0.0 301.0,0.0 302.0,0.0 303.0,0.0 304.0,0.0 305.0,0.0 306.0,0.0 307.0,0.0 308.0,0.0 309.0,0.0 310.0,0.0 311.0,0.0 312.0,0.0 313.0,0.0 314.0,0.0 315.0,0.0 316.0,0.0 317.0,0.0 318.0,0.0 319.0,0.0 320.0,0.0 321.0,0.0 322.0,0.0 323.0,0.0 324.0,0.0 325.0,0.0 326.0,0.0 327.0,0.0 328.0,0.0 329.0,0.0 330.0,0.0 331.0,0.0 332.0,0.0 333.0,0.0 334.0,0.0 335.0,0.0" stroke="#000" stroke-linecap="round" stroke-linejoin="round"/><polyline fill="none" points="335.0,0.0 336.0,0.0 337.0,0.0 338.0,0.0 339.0,0.0 340.0,0.0 341.0,0.0 342.0,0.0 343.0,0.0 344.0,0.0 345.0,0.0 346.0,0.0 347.0,0.0 348.0,0.0 349.0,0.0 350.0,0.0 351.0,0.0 352.0,0.0 353.0,0.0 354.0,0.0 355.0,0.0 356.0,0.0 357.0,0.0 358.0,0.0 359.0,0.0 360.0,0.0 361.0,0.0 362.0,0.0 363.0,0.0 364.0,0.0 365.0,0.0 366.0,0.0 367.0,0.0 368.0,0.0 369.0,0.0 370.0,0.0 371.0,0.0 372.0,0.0 373.0,0.0 374.0,0.0 375.0,0.0 376.0,0.0 377.0,0.0" stroke="#000" stroke-linecap="round" stroke-linejoin="round"/><polyline fill="none" points="377.0,0.0 378.0,0.0 379.0,0.0 380.0,0.0 381.0,0.0 382.0,0.0 383.0,0.0 384.0,0.0 385.0,0.0 386.0,0.0 387.0,0.0 388.0,0.0 389.0,0.0 390.0,0.0 391.0,0.0 392.0,0.0 393.0,0.0 394.0,0.0 395.0,0.0 396.0,0.0 397.0,0.0 398.0,0.0 399.0,0.0" stroke="#000" stroke-linecap="round" stroke-linejoin="round"/><line fill="none" stroke="none" stroke-linecap="round" stroke-width="2.0" x1="0.0" x2="0.0" y1="0.0" y2="0.0"/><polygon fill="#000" fill-rule="evenodd" points="415.0,0.0 413.0,-2.0 409.0,-1.0 406.0,-4.0 408.0,-7.0 407.0,-9.0 404.0,-6.0 400.0,-7.0 396.0,-5.0 393.0,-8.0 391.0,-6.0 394.0,-4.0 392.0,0.0 394.0,4.0 391.0,6.0 393.0,8.0 396.0,5.0 400.0,7.0 404.0,6.0 407.0,9.0 408.0,7.0 406.0,4.0 409.0,1.0 413.0,2.0" stroke="#000" stroke-linejoin="round"/></svg>