<?xml version="1.0" ?><!DOCTYPE svg  PUBLIC '-//W3C//DTD SVG 1.1//EN'  'http://www.w3.org/Graphics/SVG/1.1/DTD/svg11.dtd'><svg height="623.000" viewBox="-311.000 -311.000 623.000 623.000" width="623.000" xmlns="http://www.w3.org/2000/svg"><line fill="none" stroke="none" stroke-linecap="round" stroke-width="2.0" x1="0.0" x2="0.0" y1="0.0" y2="0.0"/><polygon fill="#ff0" fill-rule="evenodd" points="300.0,0.0 298.356568610482,-31.358538980296036 293.4442802201417,-62.37350724532779 285.3169548885461,-92.70509831248421 274.0636372927803,-122.02099292274004 259.80762113533166,-149.99999999999997 242.7050983124843,-176.3355756877419 222.94344764321835,-200.73918190765744 200.73918190765755,-222.94344764321824 176.33557568774205,-242.70509831248418 150.0000000000001,-259.80762113533154 122.02099292274019,-274.06363729278024 92.70509831248438,-285.31695488854604 62.37350724532798,-293.44428022014165 31.358538980296245,-298.356568610482 2.3447910280083306e-13,-300.0 -31.358538980295776,-298.356568610482 -62.3735072453275,-293.4442802201417 -92.7050983124839,-285.3169548885461 -122.02099292273971,-274.0636372927803 -149.9999999999996,-259.80762113533166 -176.3355756877415,-242.70509831248432 -200.739181907657,-222.9434476432184 -222.94344764321778,-200.73918190765764 -242.7050983124837,-176.33557568774216 -259.80762113533103,-150.00000000000028 -274.0636372927797,-122.02099292274039 -285.31695488854547,-92.70509831248461 -293.4442802201411,-62.37350724532824 -298.3565686104814,-31.35853898029654 -299.99999999999943,-5.613287612504791e-13 -298.3565686104815,31.358538980295418 -293.4442802201412,62.37350724532712 -285.3169548885456,92.70509831248349 -274.0636372927798,122.02099292273927 -259.80762113533115,149.99999999999915 -242.70509831248384,176.33557568774103 -222.94344764321795,200.7391819076565 -200.7391819076572,222.94344764321727 -176.33557568774177,242.7050983124832 -149.9999999999999,259.8076211353305 -122.02099292274002,274.06363729277916 -92.70509831248427,285.31695488854496 -62.37350724532793,293.44428022014057 -31.358538980296256,298.3565686104809 -3.019806626980426e-13,299.9999999999989 31.358538980295652,298.35656861048096 62.373507245327325,293.4442802201407 92.70509831248367,285.3169548885451 122.02099292273942,274.0636372927794 149.9999999999993,259.80762113533075 176.33557568774114,242.70509831248344 200.7391819076566,222.94344764321755 222.94344764321733,200.73918190765684 242.70509831248324,176.33557568774143 259.8076211353306,149.9999999999996 274.0636372927792,122.02099292273977 285.316954888545,92.70509831248404 293.4442802201406,62.37350724532773 298.35656861048096,31.358538980296085 299.999999999999,1.5987211554602254e-13" stroke-linejoin="round"/><polyline fill="none" points="300.0,0.0 298.356568610482,-31.358538980296036 293.4442802201417,-62.37350724532779 285.3169548885461,-92.70509831248421 274.0636372927803,-122.02099292274004 259.80762113533166,-149.99999999999997 242.7050983124843,-176.3355756877419 222.94344764321835,-200.73918190765744 200.73918190765755,-222.94344764321824 176.33557568774205,-242.70509831248418 150.0000000000001,-259.80762113533154 122.02099292274019,-274.06363729278024 92.70509831248438,-285.31695488854604 62.37350724532798,-293.44428022014165 31.358538980296245,-298.356568610482 2.3447910280083306e-13,-300.0 -31.358538980295776,-298.356568610482 -62.3735072453275,-293.4442802201417 -92.7050983124839,-285.3169548885461 -122.02099292273971,-274.0636372927803 -149.9999999999996,-259.80762113533166 -176.3355756877415,-242.70509831248432 -200.739181907657,-222.9434476432184 -222.94344764321778,-200.73918190765764 -242.7050983124837,-176.33557568774216 -259.80762113533103,-150.00000000000028 -274.0636372927797,-122.02099292274039 -285.31695488854547,-92.70509831248461 -293.4442802201411,-62.37350724532824 -298.3565686104814,-31.35853898029654 -299.99999999999943,-5.613287612504791e-13 -298.3565686104815,31.358538980295418 -293.4442802201412,62.37350724532712 -285.3169548885456,92.70509831248349 -274.0636372927798,122.02099292273927 -259.80762113533115,149.99999999999915 -242.70509831248384,176.33557568774103 -222.94344764321795,200.7391819076565 -200.7391819076572,222.94344764321727 -176.33557568774177,242.7050983124832 -149.9999999999999,259.8076211353305 -122.02099292274002,274.06363729277916 -92.70509831248427,285.31695488854496" stroke="#f00" stroke-linecap="round" stroke-linejoin="round"/><polyline fill="none" points="-92.70509831248427,285.31695488854496 -62.37350724532793,293.44428022014057 -31.358538980296256,298.3565686104809 -3.019806626980426e-13,299.9999999999989 31.358538980295652,298.35656861048096 62.373507245327325,293.4442802201407 92.70509831248367,285.3169548885451 122.02099292273942,274.0636372927794 149.9999999999993,259.80762113533075 176.33557568774114,242.70509831248344 200.7391819076566,222.94344764321755 222.94344764321733,200.73918190765684 242.70509831248324,176.33557568774143 259.8076211353306,149.9999999999996 274.0636372927792,122.02099292273977 285.316954888545,92.70509831248404 293.4442802201406,62.37350724532773 298.35656861048096,31.358538980296085 299.999999999999,1.5987211554602254e-13" stroke="#f00" stroke-linecap="round" stroke-linejoin="round"/><polygon fill="#a020f0" fill-rule="evenodd" points="0.0,0.0 31.358538980295922,2.049198150207093e-14 62.03181864638991,-6.519806860967899 90.67926949014769,-19.27447373757507 116.04886044397634,-37.70656048363165 137.03181864638967,-61.01049646136971 152.71108813653765,-88.16778784387054 162.40140960021836,-117.99153068257655 165.67926949014753,-149.17828430524034 162.40140960021841,-180.36503792790413 152.71108813653777,-210.18878076661017 137.0318186463898,-237.34607214911102 116.04886044397652,-260.6500081268491 90.67926949014789,-279.0820948729057 62.03181864639011,-291.83676174951296 31.358538980296117,-298.35656861048096 1.7053025658242404e-13,-298.356568610481 -30.673279666093837,-291.83676174951313 -59.32073050985166,-279.08209487290594 -84.69032146368033,-260.65000812684934 -105.67327966609368,-237.34607214911128 -121.35254915624168,-210.18878076661045 -131.0428706199224,-180.3650379279044 -134.3207305098516,-149.1782843052406 -131.0428706199225,-117.99153068257678 -121.35254915624185,-88.16778784387073 -105.6732796660939,-61.01049646136984 -84.69032146368062,-37.706560483631705 -59.320730509851984,-19.274473737575057 -30.673279666094192,-6.519806860967808 -1.8829382497642655e-13,1.8740564655672642e-13 22.173835561069804,-22.173835561069733 39.25291997077935,-48.47331925761324 50.49081528588444,-77.74903745316705 55.39637155571032,-108.7215007821035 53.75519243179495,-140.03706397457964 45.63900531710463,-170.32708665034 31.402526534338058,-198.26774947079898 11.667958520506673,-222.63791139652702 -12.7022034052213,-242.3724794103585 -40.64286622568024,-256.6089581931252 -70.93288890144058,-264.72514530781564 -102.24845209391671,-266.36632443173113 -133.2209154228532,-261.4607681619054 -162.4966336184071,-250.22287284680039 -188.79611731495066,-233.14378843709093 -210.96995287602067,-210.969952876021 -228.04903728573024,-184.6704691794775 -239.28693260083534,-155.39475098392367 -244.19248887066124,-124.42228765498719 -242.5513097467459,-93.10672446251102 -234.43512263205557,-62.81670178675064 -220.198643849289,-34.87603896629163 -200.4640758354576,-10.505877040563554 -176.09391390972962,9.228690973267955 -148.15325108927067,23.465169756034665 -117.86322841351031,31.58135687072513 -86.54766522103415,33.22253599464063 -55.57520189209764,28.31697972481488 -26.299483696543735,17.079084409709903 -1.2079226507921703e-13,4.440892098500626e-13 -3.549558369261819e-14,-31.358538980295563 -6.5198068609679085,-62.03181864638964 -19.274473737575054,-90.67926949014753 -37.70656048363163,-116.0488604439763 -61.01049646136971,-137.03181864638972 -88.16778784387058,-152.71108813653782 -117.99153068257667,-162.4014096002186 -149.17828430524054,-165.67926949014787 -180.36503792790444,-162.4014096002188 -210.1887807666106,-152.7110881365382 -237.34607214911156,-137.03181864639026 -260.6500081268498,-116.04886044397696 -279.0820948729065,-90.6792694901483 -291.8367617495138,-62.03181864639047 -298.3565686104819,-31.358538980296412 -298.356568610482,-3.836930773104541e-13 -291.83676174951415,30.67327966609372 -279.082094872907,59.32073050985164 -260.6500081268504,84.69032146368043 -237.34607214911233,105.67327966609389 -210.18878076661144,121.352549156242 -180.36503792790535,131.04287061992284 -149.17828430524145,134.3207305098521 -117.99153068257753,131.04287061992306 -88.16778784387137,121.35254915624246 -61.010496461370366,105.67327966609454 -37.70656048363212,84.69032146368124 -19.274473737575356,59.32073050985258 -6.519806860968007,30.673279666094736 7.460698725481052e-14,6.572520305780927e-13 -22.173835561069865,-22.173835561069453 -48.47331925761341,-39.25291997077911 -77.74903745316729,-50.490815285884295 -108.72150078210383,-55.39637155571026 -140.03706397458006,-53.75519243179496 -170.32708665034053,-45.63900531710468 -198.26774947079963,-31.402526534338126 -222.63791139652778,-11.667958520506733 -242.37247941035938,12.702203405221272 -256.60895819312617,40.64286622568026 -264.7251453078167,70.93288890144066 -266.36632443173227,102.24845209391688 -261.46076816190657,133.22091542285347 -250.22287284680164,162.49663361840743 -233.14378843709218,188.79611731495112 -210.96995287602223,210.96995287602124 -184.6704691794787,228.04903728573092 -155.3947509839248,239.2869326008361 -124.42228765498825,244.1924888706621 -93.106724462512,242.5513097467468 -62.81670178675152,234.43512263205653 -34.8760389662924,220.19864384929 -10.505877040564211,200.4640758354586 9.228690973267401,176.0939139097306 23.465169756034207,148.15325108927158 31.581356870724754,117.86322841351117 33.222535994640324,86.54766522103492 28.316979724814622,55.575201892098306 17.07908440970968,26.299483696544304 2.273736754432321e-13,5.826450433232822e-13 -31.358538980295865,4.311999151470761e-13 -62.031818646390036,6.519806860968257 -90.67926949014803,19.274473737575377 -116.0488604439769,37.70656048363195 -137.03181864639043,61.01049646137005 -152.71108813653862,88.16778784387097 -162.4014096002195,117.9915306825771 -165.6792694901488,149.17828430524105 -162.4014096002198,180.36503792790504 -152.71108813653922,210.18878076661127 -137.03181864639132,237.34607214911236 -116.04886044397801,260.6500081268507 -90.67926949014932,279.08209487290753 -62.03181864639144,291.83676174951495 -31.35853898029731,298.35656861048307 -1.1972645097557688e-12,298.35656861048324 30.673279666093002,291.8367617495154 59.320730509851025,279.08209487290827 84.69032146367991,260.65000812685173 105.67327966609346,237.34607214911364 121.35254915624166,210.18878076661272 131.04287061992255,180.36503792790657 134.3207305098519,149.1782843052426 131.04287061992292,117.99153068257861 121.35254915624235,88.16778784387236 105.67327966609443,61.01049646137126 84.69032146368113,37.70656048363291 59.32073050985243,19.27447373757606 30.67327966609454,6.519806860968625 4.014566457044566e-13,4.707345624410664e-13 -22.173835561069797,22.17383556107042 -39.252919970779544,48.473319257613994 -50.49081528588481,77.74903745316792 -55.396371555710836,108.72150078210451 -53.755192431795585,140.03706397458083 -45.63900531710534,170.32708665034139 -31.402526534338794,198.26774947080057 -11.667958520507398,222.6379113965288 12.70220340522063,242.37247941036048 40.642866225679654,256.60895819312736 70.93288890144012,264.72514530781797 102.24845209391643,266.3663244317336 133.2209154228531,261.4607681619079 162.49663361840717,250.22287284680294 188.79611731495098,233.1437884370935 210.9699528760212,210.96995287602354 228.04903728573098,184.67046917947994 239.28693260083625,155.394750983926 244.1924888706623,124.42228765498939 242.55130974674705,93.10672446251306 234.43512263205682,62.81670178675249 220.19864384929028,34.87603896629327 200.46407583545889,10.505877040564986 176.09391390973084,-9.228690973266723 148.1532510892718,-23.465169756033614 117.86322841351132,-31.581356870724235 86.547665221035,-33.22253599463986 55.575201892098306,-28.316979724814203 26.299483696544208,-17.07908440970928 3.907985046680551e-13,1.7053025658242404e-13 1.871309185000538e-13,31.358538980296345 6.51980686096798,62.03181864639061 19.274473737575086,90.6792694901487 37.70656048363166,116.04886044397766 61.01049646136979,137.0318186463913 88.16778784387074,152.71108813653956 117.99153068257694,162.40140960022052 149.17828430524094,165.6792694901499 180.365037927905,162.40140960022094 210.18878076661133,152.71108813654038 237.3460721491125,137.03181864639248 260.65000812685093,116.04886044397917 279.0820948729079,90.67926949015045 291.83676174951535,62.031818646392516 298.3565686104836,31.358538980298324 298.3565686104838,2.1280754936015e-12 291.83676174951603,-30.673279666092164 279.08209487290895,-59.320730509850286 260.65000812685236,-84.69032146367928 237.34607214911424,-105.67327966609294 210.18878076661326,-121.35254915624124 180.36503792790705,-131.0428706199222 149.178284305243,-134.32073050985161 117.99153068257893,-131.04287061992267 88.16778784387257,-121.35254915624213 61.01049646137138,-105.67327966609423 37.70656048363294,-84.69032146368092 19.274473737575992,-59.3207305098522 6.519806860968465,-30.67327966609426 2.273736754432321e-13,-6.039613253960852e-14 22.17383556107018,22.173835561070245 48.47331925761378,39.252919970780084 77.74903745316774,50.49081528588544 108.72150078210441,55.39637155571155 140.0370639745808,53.755192431796374 170.32708665034144,45.63900531710618 198.26774947080074,31.40252653433967 222.6379113965291,11.667958520508286 242.37247941036088,-12.702203405219752 256.6089581931279,-40.642866225678816 264.7251453078186,-70.93288890143933 266.36632443173426,-102.24845209391569 261.4607681619087,-133.22091542285244 250.2228728468038,-162.4966336184066 233.14378843709437,-188.7961173149505 210.96995287602442,-210.9699528760208 184.67046917948082,-228.0490372857307 155.39475098392683,-239.28693260083608 124.42228765499014,-244.1924888706622 93.10672446251374,-242.55130974674705 62.81670178675307,-234.43512263205687 34.87603896629376,-220.19864384929036 10.505877040565377,-200.46407583545897 -9.228690973266435,-176.09391390973093 -23.46516975603343,-148.15325108927186 -31.581356870724143,-117.86322841351132 -33.22253599463985,-86.54766522103493 -28.316979724814253,-55.57520189209815 -17.079084409709374,-26.299483696543955 5.3290705182007514e-14,-3.197442310920451e-14" stroke-linejoin="round"/><polyline fill="none" points="0.0,0.0 31.358538980295922,2.049198150207093e-14 62.03181864638991,-6.519806860967899 90.67926949014769,-19.27447373757507 116.04886044397634,-37.70656048363165 137.03181864638967,-61.01049646136971 152.71108813653765,-88.16778784387054 162.40140960021836,-117.99153068257655 165.67926949014753,-149.17828430524034 162.40140960021841,-180.36503792790413 152.71108813653777,-210.18878076661017 137.0318186463898,-237.34607214911102 116.04886044397652,-260.6500081268491 90.67926949014789,-279.0820948729057 62.03181864639011,-291.83676174951296 31.358538980296117,-298.35656861048096 1.7053025658242404e-13,-298.356568610481 -30.673279666093837,-291.83676174951313 -59.32073050985166,-279.08209487290594 -84.69032146368033,-260.65000812684934 -105.67327966609368,-237.34607214911128 -121.35254915624168,-210.18878076661045 -131.0428706199224,-180.3650379279044 -134.3207305098516,-149.1782843052406 -131.0428706199225,-117.99153068257678 -121.35254915624185,-88.16778784387073 -105.6732796660939,-61.01049646136984 -84.69032146368062,-37.706560483631705 -59.320730509851984,-19.274473737575057 -30.673279666094192,-6.519806860967808 -1.8829382497642655e-13,1.8740564655672642e-13 22.173835561069804,-22.173835561069733 39.25291997077935,-48.47331925761324 50.49081528588444,-77.74903745316705 55.39637155571032,-108.7215007821035 53.75519243179495,-140.03706397457964 45.63900531710463,-170.32708665034 31.402526534338058,-198.26774947079898 11.667958520506673,-222.63791139652702 -12.7022034052213,-242.3724794103585 -40.64286622568024,-256.6089581931252 -70.93288890144058,-264.72514530781564 -102.24845209391671,-266.36632443173113" stroke="#f0f" stroke-linecap="round" stroke-linejoin="round"/><polyline fill="none" points="-102.24845209391671,-266.36632443173113 -133.2209154228532,-261.4607681619054 -162.4966336184071,-250.22287284680039 -188.79611731495066,-233.14378843709093 -210.96995287602067,-210.969952876021 -228.04903728573024,-184.6704691794775 -239.28693260083534,-155.39475098392367 -244.19248887066124,-124.42228765498719 -242.5513097467459,-93.10672446251102 -234.43512263205557,-62.81670178675064 -220.198643849289,-34.87603896629163 -200.4640758354576,-10.505877040563554 -176.09391390972962,9.228690973267955 -148.15325108927067,23.465169756034665 -117.86322841351031,31.58135687072513 -86.54766522103415,33.22253599464063 -55.57520189209764,28.31697972481488 -26.299483696543735,17.079084409709903 -1.2079226507921703e-13,4.440892098500626e-13 -3.549558369261819e-14,-31.358538980295563 -6.5198068609679085,-62.03181864638964 -19.274473737575054,-90.67926949014753 -37.70656048363163,-116.0488604439763 -61.01049646136971,-137.03181864638972 -88.16778784387058,-152.71108813653782 -117.99153068257667,-162.4014096002186 -149.17828430524054,-165.67926949014787 -180.36503792790444,-162.4014096002188 -210.1887807666106,-152.7110881365382 -237.34607214911156,-137.03181864639026 -260.6500081268498,-116.04886044397696 -279.0820948729065,-90.6792694901483 -291.8367617495138,-62.03181864639047 -298.3565686104819,-31.358538980296412 -298.356568610482,-3.836930773104541e-13 -291.83676174951415,30.67327966609372 -279.082094872907,59.32073050985164 -260.6500081268504,84.69032146368043 -237.34607214911233,105.67327966609389 -210.18878076661144,121.352549156242 -180.36503792790535,131.04287061992284 -149.17828430524145,134.3207305098521 -117.99153068257753,131.04287061992306" stroke="#f0f" stroke-linecap="round" stroke-linejoin="round"/><polyline fill="none" points="-117.99153068257753,131.04287061992306 -88.16778784387137,121.35254915624246 -61.010496461370366,105.67327966609454 -37.70656048363212,84.69032146368124 -19.274473737575356,59.32073050985258 -6.519806860968007,30.673279666094736 7.460698725481052e-14,6.572520305780927e-13 -22.173835561069865,-22.173835561069453 -48.47331925761341,-39.25291997077911 -77.74903745316729,-50.490815285884295 -108.72150078210383,-55.39637155571026 -140.03706397458006,-53.75519243179496 -170.32708665034053,-45.63900531710468 -198.26774947079963,-31.402526534338126 -222.63791139652778,-11.667958520506733 -242.37247941035938,12.702203405221272 -256.60895819312617,40.64286622568026 -264.7251453078167,70.93288890144066 -266.36632443173227,102.24845209391688 -261.46076816190657,133.22091542285347 -250.22287284680164,162.49663361840743 -233.14378843709218,188.79611731495112 -210.96995287602223,210.96995287602124 -184.6704691794787,228.04903728573092 -155.3947509839248,239.2869326008361 -124.42228765498825,244.1924888706621 -93.106724462512,242.5513097467468 -62.81670178675152,234.43512263205653 -34.8760389662924,220.19864384929 -10.505877040564211,200.4640758354586 9.228690973267401,176.0939139097306 23.465169756034207,148.15325108927158 31.581356870724754,117.86322841351117 33.222535994640324,86.54766522103492 28.316979724814622,55.575201892098306 17.07908440970968,26.299483696544304 2.273736754432321e-13,5.826450433232822e-13 -31.358538980295865,4.311999151470761e-13 -62.031818646390036,6.519806860968257 -90.67926949014803,19.274473737575377 -116.0488604439769,37.70656048363195 -137.03181864639043,61.01049646137005 -152.71108813653862,88.16778784387097" stroke="#f0f" stroke-linecap="round" stroke-linejoin="round"/><polyline fill="none" points="-152.71108813653862,88.16778784387097 -162.4014096002195,117.9915306825771 -165.6792694901488,149.17828430524105 -162.4014096002198,180.36503792790504 -152.71108813653922,210.18878076661127 -137.03181864639132,237.34607214911236 -116.04886044397801,260.6500081268507 -90.67926949014932,279.08209487290753 -62.03181864639144,291.83676174951495 -31.35853898029731,298.35656861048307 -1.1972645097557688e-12,298.35656861048324 30.673279666093002,291.8367617495154 59.320730509851025,279.08209487290827 84.69032146367991,260.65000812685173 105.67327966609346,237.34607214911364 121.35254915624166,210.18878076661272 131.04287061992255,180.36503792790657 134.3207305098519,149.1782843052426 131.04287061992292,117.99153068257861 121.35254915624235,88.16778784387236 105.67327966609443,61.01049646137126 84.69032146368113,37.70656048363291 59.32073050985243,19.27447373757606 30.67327966609454,6.519806860968625 4.014566457044566e-13,4.707345624410664e-13 -22.173835561069797,22.17383556107042 -39.252919970779544,48.473319257613994 -50.49081528588481,77.74903745316792 -55.396371555710836,108.72150078210451 -53.755192431795585,140.03706397458083 -45.63900531710534,170.32708665034139 -31.402526534338794,198.26774947080057 -11.667958520507398,222.6379113965288 12.70220340522063,242.37247941036048 40.642866225679654,256.60895819312736 70.93288890144012,264.72514530781797 102.24845209391643,266.3663244317336 133.2209154228531,261.4607681619079 162.49663361840717,250.22287284680294 188.79611731495098,233.1437884370935 210.9699528760212,210.96995287602354 228.04903728573098,184.67046917947994 239.28693260083625,155.394750983926" stroke="#f0f" stroke-linecap="round" stroke-linejoin="round"/><polyline fill="none" points="239.28693260083625,155.394750983926 244.1924888706623,124.42228765498939 242.55130974674705,93.10672446251306 234.43512263205682,62.81670178675249 220.19864384929028,34.87603896629327 200.46407583545889,10.505877040564986 176.09391390973084,-9.228690973266723 148.1532510892718,-23.465169756033614 117.86322841351132,-31.581356870724235 86.547665221035,-33.22253599463986 55.575201892098306,-28.316979724814203 26.299483696544208,-17.07908440970928 3.907985046680551e-13,1.7053025658242404e-13 1.871309185000538e-13,31.358538980296345 6.51980686096798,62.03181864639061 19.274473737575086,90.6792694901487 37.70656048363166,116.04886044397766 61.01049646136979,137.0318186463913 88.16778784387074,152.71108813653956 117.99153068257694,162.40140960022052 149.17828430524094,165.6792694901499 180.365037927905,162.40140960022094 210.18878076661133,152.71108813654038 237.3460721491125,137.03181864639248 260.65000812685093,116.04886044397917 279.0820948729079,90.67926949015045 291.83676174951535,62.031818646392516 298.3565686104836,31.358538980298324 298.3565686104838,2.1280754936015e-12 291.83676174951603,-30.673279666092164 279.08209487290895,-59.320730509850286 260.65000812685236,-84.69032146367928 237.34607214911424,-105.67327966609294 210.18878076661326,-121.35254915624124 180.36503792790705,-131.0428706199222 149.178284305243,-134.32073050985161 117.99153068257893,-131.04287061992267 88.16778784387257,-121.35254915624213 61.01049646137138,-105.67327966609423 37.70656048363294,-84.69032146368092 19.274473737575992,-59.3207305098522 6.519806860968465,-30.67327966609426 2.273736754432321e-13,-6.039613253960852e-14" stroke="#f0f" stroke-linecap="round" stroke-linejoin="round"/><polyline fill="none" points="2.273736754432321e-13,-6.039613253960852e-14 22.17383556107018,22.173835561070245 48.47331925761378,39.252919970780084 77.74903745316774,50.49081528588544 108.72150078210441,55.39637155571155 140.0370639745808,53.755192431796374 170.32708665034144,45.63900531710618 198.26774947080074,31.40252653433967 222.6379113965291,11.667958520508286 242.37247941036088,-12.702203405219752 256.6089581931279,-40.642866225678816 264.7251453078186,-70.93288890143933 266.36632443173426,-102.24845209391569 261.4607681619087,-133.22091542285244 250.2228728468038,-162.4966336184066 233.14378843709437,-188.7961173149505 210.96995287602442,-210.9699528760208 184.67046917948082,-228.0490372857307 155.39475098392683,-239.28693260083608 124.42228765499014,-244.1924888706622 93.10672446251374,-242.55130974674705 62.81670178675307,-234.43512263205687 34.87603896629376,-220.19864384929036 10.505877040565377,-200.46407583545897 -9.228690973266435,-176.09391390973093 -23.46516975603343,-148.15325108927186 -31.581356870724143,-117.86322841351132 -33.22253599463985,-86.54766522103493 -28.316979724814253,-55.57520189209815 -17.079084409709374,-26.299483696543955 5.3290705182007514e-14,-3.197442310920451e-14" stroke="#f0f" stroke-linecap="round" stroke-linejoin="round"/><line fill="none" stroke="none" stroke-linecap="round" stroke-width="2.0" x1="0.0" x2="0.0" y1="0.0" y2="0.0"/><polygon fill="#a020f0" fill-rule="evenodd" points="5.3290705182007514e-14,-3.197442310920451e-14 -8.999999999999902,-5.000000000000113 -6.999999999999947,-9.492406860545047e-14 -8.999999999999991,4.999999999999887" stroke="#a020f0" stroke-linejoin="round"/></svg>