<?xml version="1.0" ?><!DOCTYPE svg  PUBLIC '-//W3C//DTD SVG 1.1//EN'  'http://www.w3.org/Graphics/SVG/1.1/DTD/svg11.dtd'><svg height="223.000" viewBox="-216.000 -111.000 229.000 223.000" width="229.000" xmlns="http://www.w3.org/2000/svg"><line fill="none" stroke="none" stroke-linecap="round" stroke-width="2.0" x1="0.0" x2="0.0" y1="0.0" y2="0.0"/><polygon fill="#ff0" fill-rule="evenodd" points="0.0,0.0 -2.5072087818176394,-22.25209339563144 -9.903113209758088,-43.38837391175582 -21.81685175319702,-62.348980185873366 -37.65101981412665,-78.183148246803 -56.61162608824419,-90.09688679024194 -77.74790660436857,-97.49279121818239 -100.00000000000001,-100.00000000000003 -122.25209339563146,-97.49279121818239 -143.38837391175585,-90.09688679024194 -162.34898018587342,-78.183148246803 -178.18314824680306,-62.34898018587337 -190.096886790242,-43.38837391175582 -197.49279121818245,-22.252093395631437 -200.00000000000009,1.7763568394002505e-14 -197.55282581475777,15.450849718747406 -190.45084971874746,29.38926261462371 -179.38926261462373,40.45084971874744 -165.45084971874743,47.55282581475777 -150.00000000000006,50.0000000000001 -134.54915028125268,47.55282581475779 -120.61073738537638,40.450849718747484 -109.54915028125265,29.389262614623767 -102.44717418524233,15.450849718747474 -100.0,9.059419880941277e-14 -97.55282581475767,-15.45084971874729 -90.45084971874735,-29.389262614623583 -79.38926261462362,-40.4508497187473 -65.45084971874732,-47.552825814757604 -49.999999999999936,-49.99999999999992 -34.54915028125255,-47.5528258147576 -20.61073738537626,-40.45084971874728 -9.549150281252544,-29.389262614623554 -2.447174185242237,-15.450849718747259 8.126832540256146e-14,1.2079226507921703e-13" stroke-linejoin="round"/><polyline fill="none" points="0.0,0.0 -2.5072087818176394,-22.25209339563144 -9.903113209758088,-43.38837391175582 -21.81685175319702,-62.348980185873366 -37.65101981412665,-78.183148246803 -56.61162608824419,-90.09688679024194 -77.74790660436857,-97.49279121818239 -100.00000000000001,-100.00000000000003 -122.25209339563146,-97.49279121818239 -143.38837391175585,-90.09688679024194 -162.34898018587342,-78.183148246803 -178.18314824680306,-62.34898018587337 -190.096886790242,-43.38837391175582 -197.49279121818245,-22.252093395631437 -200.00000000000009,1.7763568394002505e-14 -197.55282581475777,15.450849718747406 -190.45084971874746,29.38926261462371 -179.38926261462373,40.45084971874744 -165.45084971874743,47.55282581475777 -150.00000000000006,50.0000000000001 -134.54915028125268,47.55282581475779 -120.61073738537638,40.450849718747484 -109.54915028125265,29.389262614623767 -102.44717418524233,15.450849718747474 -100.0,9.059419880941277e-14 -97.55282581475767,-15.45084971874729 -90.45084971874735,-29.389262614623583 -79.38926261462362,-40.4508497187473 -65.45084971874732,-47.552825814757604 -49.999999999999936,-49.99999999999992 -34.54915028125255,-47.5528258147576 -20.61073738537626,-40.45084971874728 -9.549150281252544,-29.389262614623554 -2.447174185242237,-15.450849718747259 8.126832540256146e-14,1.2079226507921703e-13" stroke="#000" stroke-linecap="round" stroke-linejoin="round"/><polygon fill="#00f" fill-rule="evenodd" points="8.126832540256146e-14,1.2079226507921703e-13 -200.0,0.0 -197.49279121818236,22.25209339563145 -190.0968867902419,43.388373911755835 -178.18314824680297,62.34898018587339 -162.34898018587333,78.18314824680303 -143.3883739117558,90.09688679024198 -122.2520933956314,97.49279121818245 -99.99999999999994,100.0000000000001 -77.74790660436848,97.49279121818248 -56.611626088244094,90.09688679024204 -37.651019814126535,78.18314824680311 -21.816851753196886,62.34898018587349 -9.903113209757935,43.388373911755934 -2.507208781817468,22.25209339563155 1.8696155734687636e-13,9.237055564881302e-14 -2.447174185242127,-15.450849718747296 -9.549150281252432,-29.3892626146236 -20.610737385376147,-40.450849718747335 -34.54915028125244,-47.55282581475766 -49.99999999999982,-49.99999999999999 -65.45084971874721,-47.55282581475768 -79.3892626146235,-40.45084971874738 -90.45084971874724,-29.389262614623664 -97.55282581475755,-15.450849718747374 -99.99999999999989,5.329070518200751e-15 -102.44717418524222,15.450849718747387 -109.54915028125254,29.389262614623675 -120.61073738537627,40.45084971874739 -134.54915028125257,47.552825814757696 -149.99999999999994,50.00000000000001 -165.45084971874732,47.552825814757675 -179.38926261462362,40.45084971874736 -190.45084971874732,29.38926261462363 -197.55282581475763,15.450849718747332 -199.99999999999994,-4.973799150320701e-14" stroke-linejoin="round"/><polyline fill="none" points="-200.0,0.0 -197.49279121818236,22.25209339563145 -190.0968867902419,43.388373911755835 -178.18314824680297,62.34898018587339 -162.34898018587333,78.18314824680303 -143.3883739117558,90.09688679024198 -122.2520933956314,97.49279121818245 -99.99999999999994,100.0000000000001 -77.74790660436848,97.49279121818248 -56.611626088244094,90.09688679024204 -37.651019814126535,78.18314824680311 -21.816851753196886,62.34898018587349 -9.903113209757935,43.388373911755934 -2.507208781817468,22.25209339563155 1.8696155734687636e-13,9.237055564881302e-14 -2.447174185242127,-15.450849718747296 -9.549150281252432,-29.3892626146236 -20.610737385376147,-40.450849718747335 -34.54915028125244,-47.55282581475766 -49.99999999999982,-49.99999999999999 -65.45084971874721,-47.55282581475768 -79.3892626146235,-40.45084971874738 -90.45084971874724,-29.389262614623664 -97.55282581475755,-15.450849718747374 -99.99999999999989,5.329070518200751e-15 -102.44717418524222,15.450849718747387 -109.54915028125254,29.389262614623675 -120.61073738537627,40.45084971874739 -134.54915028125257,47.552825814757696 -149.99999999999994,50.00000000000001 -165.45084971874732,47.552825814757675 -179.38926261462362,40.45084971874736 -190.45084971874732,29.38926261462363 -197.55282581475763,15.450849718747332 -199.99999999999994,-4.973799150320701e-14" stroke="#000" stroke-linecap="round" stroke-linejoin="round"/><line fill="none" stroke="none" stroke-linecap="round" stroke-width="2.0" x1="0.0" x2="0.0" y1="0.0" y2="0.0"/><polygon fill="#00f" fill-rule="evenodd" points="-199.99999999999994,-4.973799150320701e-14 -204.99999999999994,8.999999999999948 -199.99999999999994,6.99999999999995 -194.99999999999994,8.999999999999952" stroke="#000" stroke-linejoin="round"/></svg>